<svg xmlns="http://www.w3.org/2000/svg" width="485" height="756" fill="none" viewBox="0 0 485 756"><path fill="#85bf44" d="M0 32C0 14.327 14.327 0 32 0h421c17.673 0 32 14.327 32 32v692c0 17.673-14.327 32-32 32H32c-17.673 0-32-14.327-32-32z"/><path fill="#fff" d="M61 101.7q-4.62 0-8.05-1.82-3.43-1.89-5.32-5.25-1.82-3.43-1.82-7.98v-22.4q0-4.62 1.82-7.98 1.89-3.36 5.32-5.18Q56.38 49.2 61 49.2q4.69 0 8.05 1.89 3.43 1.82 5.25 5.18 1.89 3.36 1.89 7.98v22.4q0 4.62-1.89 7.98-1.82 3.36-5.25 5.25-3.43 1.82-8.05 1.82m0-4.9q4.41 0 7-2.8 2.66-2.8 2.66-7.35v-22.4q0-4.55-2.66-7.35-2.59-2.8-7-2.8t-7.07 2.8q-2.59 2.8-2.59 7.35v22.4q0 4.55 2.59 7.35 2.66 2.8 7.07 2.8M424 654.3q4.62 0 8.05 1.82 3.43 1.89 5.32 5.25 1.82 3.43 1.82 7.98v22.4q0 4.62-1.82 7.98-1.89 3.36-5.32 5.18-3.43 1.89-8.05 1.89-4.69 0-8.05-1.89-3.43-1.82-5.25-5.18-1.89-3.36-1.89-7.98v-22.4q0-4.62 1.89-7.98 1.82-3.36 5.25-5.25 3.43-1.82 8.05-1.82m0 4.9q-4.41 0-7 2.8-2.66 2.8-2.66 7.35v22.4q0 4.55 2.66 7.35 2.59 2.8 7 2.8t7.07-2.8q2.59-2.8 2.59-7.35v-22.4q0-4.55-2.59-7.35-2.66-2.8-7.07-2.8M243 467.4q-15.84 0-27.6-6.24-11.76-6.48-18.24-18-6.24-11.76-6.24-27.36V339q0-15.84 6.24-27.36 6.48-11.52 18.24-17.76 11.76-6.48 27.6-6.48 16.08 0 27.6 6.48 11.76 6.24 18 17.76 6.48 11.52 6.48 27.36v76.8q0 15.84-6.48 27.36-6.24 11.52-18 18-11.76 6.24-27.6 6.24m0-16.8q15.12 0 24-9.6 9.12-9.6 9.12-25.2V339q0-15.6-9.12-25.2-8.88-9.6-24-9.6t-24.24 9.6q-8.88 9.6-8.88 25.2v76.8q0 15.6 8.88 25.2 9.12 9.6 24.24 9.6"/></svg>