<svg xmlns="http://www.w3.org/2000/svg" width="485" height="756" fill="none" viewBox="0 0 485 756"><path fill="var(--card-color, #85bf44)" d="M0 32C0 14.327 14.327 0 32 0h421c17.673 0 32 14.327 32 32v692c0 17.673-14.327 32-32 32H32c-17.673 0-32-14.327-32-32z"/><path fill="#fff" d="M46.51 101v-5.04h14V54.59L46.65 64.88v-6.16l11.9-8.82h7.49v46.06h11.55V101zM438.49 655v5.04h-14v41.37l13.86-10.29v6.16l-11.9 8.82h-7.49v-46.06h-11.55V655zM192.32 465v-17.28h48V305.88l-47.52 35.28v-21.12l40.8-30.24h25.68v157.92h39.6V465z"/></svg>