<svg xmlns="http://www.w3.org/2000/svg" width="485" height="756" fill="none" viewBox="0 0 485 756"><path fill="var(--card-color, #85bf44)" d="M0 32C0 14.327 14.327 0 32 0h421c17.673 0 32 14.327 32 32v692c0 17.673-14.327 32-32 32H32c-17.673 0-32-14.327-32-32z"/><path fill="#fff" d="M46.51 101v-5.74l15.75-16.52q4.2-4.41 6.16-7.98t1.96-6.93q0-4.48-2.59-7.07-2.52-2.66-6.93-2.66-4.62 0-7.35 2.66-2.66 2.66-2.66 7.28h-5.6q.14-4.55 2.1-7.91t5.39-5.11q3.5-1.82 8.12-1.82t7.98 1.75q3.43 1.75 5.25 5.04 1.82 3.22 1.82 7.77 0 4.41-2.38 8.82t-7.63 9.87L52.6 95.96h24.29V101zM438.49 655v5.74l-15.75 16.52q-4.2 4.41-6.16 7.98t-1.96 6.93q0 4.48 2.59 7.07 2.52 2.66 6.93 2.66 4.62 0 7.35-2.66 2.66-2.66 2.66-7.28h5.6q-.14 4.55-2.1 7.91t-5.39 5.11q-3.5 1.82-8.12 1.82t-7.98-1.75q-3.43-1.75-5.25-5.04-1.82-3.22-1.82-7.77 0-4.41 2.38-8.82t7.63-9.87l13.3-13.51h-24.29V655zM193.32 465v-19.68l54-56.64q14.4-15.12 21.12-27.36t6.72-23.76q0-15.36-8.88-24.24-8.64-9.12-23.76-9.12-15.84 0-25.2 9.12-9.12 9.12-9.12 24.96H189q.48-15.6 7.2-27.12t18.48-17.52q12-6.24 27.84-6.24t27.36 6q11.76 6 18 17.28 6.24 11.04 6.24 26.64 0 15.12-8.16 30.24T259.8 401.4l-45.6 46.32h83.28V465z"/></svg>