<svg xmlns="http://www.w3.org/2000/svg" width="485" height="756" fill="none" viewBox="0 0 485 756"><path fill="var(--card-color, #85bf44)" d="M0 32C0 14.327 14.327 0 32 0h421c17.673 0 32 14.327 32 32v692c0 17.673-14.327 32-32 32H32c-17.673 0-32-14.327-32-32z"/><path fill="#fff" d="M60.23 101.7q-4.48 0-7.91-1.82-3.36-1.82-5.25-5.04-1.82-3.29-1.82-7.63h5.6q0 4.48 2.52 7t6.93 2.52q4.48 0 6.93-2.59 2.52-2.66 2.52-6.93v-4.06q0-4.55-2.52-7-2.45-2.52-6.93-2.52h-4.83v-5.46l12.88-13.23H47.28V49.9h26.67v5.53l-13.58 14v-.7q6.86 0 10.92 3.92 4.06 3.85 4.06 10.5v4.06q0 4.34-1.89 7.63-1.89 3.22-5.32 5.04-3.36 1.82-7.91 1.82M424.77 654.3q4.48 0 7.91 1.82 3.36 1.82 5.25 5.04 1.82 3.29 1.82 7.63h-5.6q0-4.48-2.52-7t-6.93-2.52q-4.48 0-6.93 2.59-2.52 2.66-2.52 6.93v4.06q0 4.55 2.52 7 2.45 2.52 6.93 2.52h4.83v5.46l-12.88 13.23h21.07v5.04h-26.67v-5.53l13.58-14v.7q-6.86 0-10.92-3.92-4.06-3.85-4.06-10.5v-4.06q0-4.34 1.89-7.63 1.89-3.22 5.32-5.04 3.36-1.82 7.91-1.82M240.36 467.4q-15.36 0-27.12-6.24-11.52-6.24-18-17.28Q189 432.6 189 417.72h19.2q0 15.36 8.64 24t23.76 8.64q15.36 0 23.76-8.88 8.64-9.12 8.64-23.76V403.8q0-15.6-8.64-24-8.4-8.64-23.76-8.64h-16.56v-18.72l44.16-45.36h-72.24V289.8h91.44v18.96l-46.56 48v-2.4q23.52 0 37.44 13.44 13.92 13.2 13.92 36v13.92q0 14.88-6.48 26.16-6.48 11.04-18.24 17.28-11.52 6.24-27.12 6.24"/></svg>