<svg xmlns="http://www.w3.org/2000/svg" width="485" height="756" fill="none" viewBox="0 0 485 756"><path fill="var(--card-color, #85bf44)" d="M0 32C0 14.327 14.327 0 32 0h421c17.673 0 32 14.327 32 32v692c0 17.673-14.327 32-32 32H32c-17.673 0-32-14.327-32-32z"/><path fill="#fff" d="M69.19 101V89.59H45.95v-9.1l20.3-30.59h6.02L51.55 81.75v2.8h17.64V71.6h5.53V101zM415.81 655v11.41h23.24v9.1l-20.3 30.59h-6.02l20.72-31.85v-2.8h-17.64v12.95h-5.53V655zM271.08 465v-39.12H191.4v-31.2L261 289.8h20.64L210.6 399v9.6h60.48v-44.4h18.96V465z"/></svg>