<svg xmlns="http://www.w3.org/2000/svg" width="485" height="756" fill="none" viewBox="0 0 485 756"><path fill="var(--card-color, #85bf44)" d="M0 32C0 14.327 14.327 0 32 0h421c17.673 0 32 14.327 32 32v692c0 17.673-14.327 32-32 32H32c-17.673 0-32-14.327-32-32z"/><path fill="#fff" d="M60.93 101.7q-6.23 0-10.15-3.22-3.92-3.29-4.55-8.82h5.53q.35 3.36 2.73 5.25 2.38 1.82 6.44 1.82 4.55 0 6.93-2.52 2.38-2.59 2.38-7.28v-4.9q0-4.62-2.38-7.14Q65.55 72.3 61 72.3q-2.94 0-5.11 1.61-2.17 1.54-3.08 4.27h-5.53l.35-28.28h26.46v5.04H53.02l-.21 18.2h1.82l-1.89 1.96q0-3.57 2.73-5.6 2.73-2.1 7.28-2.1 6.23-.07 9.59 3.85 3.43 3.85 3.43 10.78v4.9q0 6.79-3.92 10.78t-10.92 3.99M424.07 654.3q6.23 0 10.15 3.22 3.92 3.29 4.55 8.82h-5.53q-.35-3.36-2.73-5.25-2.38-1.82-6.44-1.82-4.55 0-6.93 2.52-2.38 2.59-2.38 7.28v4.9q0 4.62 2.38 7.14 2.31 2.59 6.86 2.59 2.94 0 5.11-1.61 2.17-1.54 3.08-4.27h5.53l-.35 28.28h-26.46v-5.04h21.07l.21-18.2h-1.82l1.89-1.96q0 3.57-2.73 5.6-2.73 2.1-7.28 2.1-6.23.07-9.59-3.85-3.43-3.85-3.43-10.78v-4.9q0-6.79 3.92-10.78t10.92-3.99M242.76 467.4q-21.36 0-34.8-11.04-13.44-11.28-15.6-30.24h18.96q1.2 11.52 9.36 18 8.16 6.24 22.08 6.24 15.6 0 23.76-8.64 8.16-8.88 8.16-24.96v-16.8q0-15.84-8.16-24.48-7.92-8.88-23.52-8.88-10.08 0-17.52 5.52-7.44 5.28-10.56 14.64h-18.96l1.2-96.96h90.72v17.28h-72.24l-.72 62.4h6.24l-6.48 6.72q0-12.24 9.36-19.2 9.36-7.2 24.96-7.2 21.36-.24 32.88 13.2 11.76 13.2 11.76 36.96v16.8q0 23.28-13.44 36.96t-37.44 13.68"/></svg>