<svg xmlns="http://www.w3.org/2000/svg" width="485" height="756" fill="none" viewBox="0 0 485 756"><path fill="var(--card-color, #85bf44)" d="M0 32C0 14.327 14.327 0 32 0h421c17.673 0 32 14.327 32 32v692c0 17.673-14.327 32-32 32H32c-17.673 0-32-14.327-32-32z"/><path fill="#fff" d="M61.07 101.7q-4.83 0-8.47-2.03a14.54 14.54 0 0 1-5.53-5.74q-1.96-3.71-1.96-8.61 0-3.71 1.05-7.28t3.15-6.93L62.26 49.9h6.16L53.86 73.35l.28.21q1.26-1.75 3.64-2.87 2.38-1.19 5.46-1.19 4.13 0 7.21 1.96t4.76 5.53q1.68 3.5 1.68 8.33 0 4.9-1.96 8.61a14.54 14.54 0 0 1-5.53 5.74q-3.57 2.03-8.33 2.03M61 96.73q4.69 0 7.49-3.08 2.87-3.15 2.87-8.33 0-5.04-2.87-8.12-2.8-3.08-7.49-3.08-4.62 0-7.49 3.08t-2.87 8.12q-.07 5.18 2.8 8.33 2.87 3.08 7.56 3.08M40 113.6h42v3.5H40zM423.93 654.3q4.83 0 8.47 2.03a14.54 14.54 0 0 1 5.53 5.74q1.96 3.71 1.96 8.61 0 3.71-1.05 7.28t-3.15 6.93l-12.95 21.21h-6.16l14.56-23.45-.28-.21q-1.26 1.75-3.64 2.87-2.38 1.19-5.46 1.19-4.13 0-7.21-1.96t-4.76-5.53q-1.68-3.5-1.68-8.33 0-4.9 1.96-8.61a14.54 14.54 0 0 1 5.53-5.74q3.57-2.03 8.33-2.03m.07 4.97q-4.69 0-7.49 3.08-2.87 3.15-2.87 8.33 0 5.04 2.87 8.12 2.8 3.08 7.49 3.08 4.62 0 7.49-3.08t2.87-8.12q.07-5.18-2.8-8.33-2.87-3.08-7.56-3.08M445 642.4h-42v-3.5h42zM243.24 467.4q-16.56 0-29.04-6.96-12.24-7.2-18.96-19.68-6.72-12.72-6.72-29.52 0-12.72 3.6-24.96t10.8-23.76l44.4-72.72h21.12l-49.92 80.4.96.72q4.32-6 12.48-9.84 8.16-4.08 18.72-4.08 14.16 0 24.72 6.72t16.32 18.96q5.76 12 5.76 28.56 0 16.8-6.72 29.52-6.72 12.48-18.96 19.68-12.24 6.96-28.56 6.96m-.24-17.04q16.08 0 25.68-10.56 9.84-10.8 9.84-28.56 0-17.28-9.84-27.84-9.6-10.56-25.68-10.56-15.84 0-25.68 10.56t-9.84 27.84q-.24 17.76 9.6 28.56 9.84 10.56 25.92 10.56M171 508.2h144v12H171z"/></svg>