<svg xmlns="http://www.w3.org/2000/svg" width="485" height="756" fill="none" viewBox="0 0 485 756"><path fill="var(--card-color, #85bf44)" d="M0 32C0 14.327 14.327 0 32 0h421c17.673 0 32 14.327 32 32v692c0 17.673-14.327 32-32 32H32c-17.673 0-32-14.327-32-32z"/><path fill="#fff" d="m53.37 101 18.34-45.92H51.34v8.33h-5.67V49.9h31.57v5.53L59.46 101zM431.63 655l-18.34 45.92h20.37v-8.33h5.67v13.51h-31.57v-5.53L425.54 655zM216.84 465l62.88-157.44h-69.84v28.56h-19.44V289.8h108.24v18.96L237.72 465z"/></svg>