<svg xmlns="http://www.w3.org/2000/svg" width="485" height="756" fill="none" viewBox="0 0 485 756"><path fill="var(--card-color, #85bf44)" d="M0 32C0 14.327 14.327 0 32 0h421c17.673 0 32 14.327 32 32v692c0 17.673-14.327 32-32 32H32c-17.673 0-32-14.327-32-32z"/><path fill="#fff" d="M61 101.7q-4.62 0-8.05-1.61t-5.32-4.62q-1.82-3.08-1.82-7.21 0-4.55 2.45-7.84 2.52-3.29 8.05-5.88l6.65-3.29q3.43-1.61 5.11-3.99 1.75-2.45 1.75-5.39 0-3.57-2.38-5.67T61 54.1q-3.99 0-6.37 2.17-2.31 2.1-2.31 5.67 0 2.94 1.68 5.32t4.83 3.92l6.65 3.22q5.67 2.73 8.19 6.02t2.52 7.84q0 6.16-4.13 9.8Q68 101.7 61 101.7m0-4.97q4.48 0 7.07-2.31 2.66-2.31 2.66-6.23 0-3.15-1.75-5.74t-5.11-4.2l-6.58-3.29q-5.39-2.59-7.91-5.74t-2.52-7.49q0-3.78 1.75-6.58 1.75-2.87 4.9-4.41 3.22-1.61 7.49-1.61t7.49 1.61q3.22 1.54 4.97 4.41 1.82 2.8 1.82 6.58 0 4.27-2.52 7.42t-8.19 5.88l-6.58 3.22q-3.29 1.61-5.04 4.2-1.68 2.52-1.68 5.67 0 3.92 2.59 6.3 2.66 2.31 7.14 2.31M424 654.3q4.62 0 8.05 1.61t5.32 4.62q1.82 3.08 1.82 7.21 0 4.55-2.45 7.84-2.52 3.29-8.05 5.88l-6.65 3.29q-3.43 1.61-5.11 3.99-1.75 2.45-1.75 5.39 0 3.57 2.38 5.67t6.44 2.1q3.99 0 6.37-2.17 2.31-2.1 2.31-5.67 0-2.94-1.68-5.32t-4.83-3.92l-6.65-3.22q-5.67-2.73-8.19-6.02t-2.52-7.84q0-6.16 4.13-9.8Q417 654.3 424 654.3m0 4.97q-4.48 0-7.07 2.31-2.66 2.31-2.66 6.23 0 3.15 1.75 5.74t5.11 4.2l6.58 3.29q5.39 2.59 7.91 5.74t2.52 7.49q0 3.78-1.75 6.58-1.75 2.87-4.9 4.41-3.22 1.61-7.49 1.61t-7.49-1.61q-3.22-1.54-4.97-4.41-1.82-2.8-1.82-6.58 0-4.27 2.52-7.42t8.19-5.88l6.58-3.22q3.29-1.61 5.04-4.2 1.68-2.52 1.68-5.67 0-3.92-2.59-6.3-2.66-2.31-7.14-2.31M243 467.4q-15.84 0-27.6-5.52t-18.24-15.84q-6.24-10.56-6.24-24.72 0-15.6 8.4-26.88 8.64-11.28 27.6-20.16l22.8-11.28q11.76-5.52 17.52-13.68 6-8.4 6-18.48 0-12.24-8.16-19.44T243 304.2q-13.68 0-21.84 7.44-7.92 7.2-7.92 19.44 0 10.08 5.76 18.24t16.56 13.44l22.8 11.04q19.44 9.36 28.08 20.64t8.64 26.88q0 21.12-14.16 33.6Q267 467.4 243 467.4m0-17.04q15.36 0 24.24-7.92 9.12-7.92 9.12-21.36 0-10.8-6-19.68T252.84 387l-22.56-11.28q-18.48-8.88-27.12-19.68t-8.64-25.68q0-12.96 6-22.56 6-9.84 16.8-15.12 11.04-5.52 25.68-5.52t25.68 5.52q11.04 5.28 17.04 15.12 6.24 9.6 6.24 22.56 0 14.64-8.64 25.44t-28.08 20.16L232.68 387q-11.28 5.52-17.28 14.4-5.76 8.64-5.76 19.44 0 13.44 8.88 21.6 9.12 7.92 24.48 7.92"/></svg>