<svg xmlns="http://www.w3.org/2000/svg" width="485" height="756" fill="none" viewBox="0 0 485 756"><path fill="var(--card-color, #85bf44)" d="M0 32C0 14.327 14.327 0 32 0h421c17.673 0 32 14.327 32 32v692c0 17.673-14.327 32-32 32H32c-17.673 0-32-14.327-32-32z"/><path fill="#fff" d="m53.58 101 14.56-23.45-.28-.21q-1.26 1.75-3.64 2.94-2.38 1.12-5.46 1.12-4.13 0-7.21-1.96t-4.76-5.53-1.68-8.33q0-4.97 1.96-8.61t5.53-5.67q3.64-2.1 8.33-2.1 4.83 0 8.4 2.1 3.64 2.03 5.6 5.67t1.96 8.61q0 3.64-1.05 7.28-.98 3.57-3.08 6.93L59.74 101zM61 76.78q4.69 0 7.49-3.08 2.87-3.08 2.87-8.19.07-5.11-2.8-8.19-2.87-3.15-7.56-3.15t-7.56 3.15q-2.8 3.08-2.8 8.26 0 5.04 2.8 8.12 2.87 3.08 7.56 3.08M40 113.6h42v3.5H40zM431.42 655l-14.56 23.45.28.21q1.26-1.75 3.64-2.94 2.38-1.12 5.46-1.12 4.13 0 7.21 1.96t4.76 5.53 1.68 8.33q0 4.97-1.96 8.61t-5.53 5.67q-3.64 2.1-8.33 2.1-4.83 0-8.4-2.1-3.64-2.03-5.6-5.67t-1.96-8.61q0-3.64 1.05-7.28.98-3.57 3.08-6.93L425.26 655zM424 679.22q-4.69 0-7.49 3.08-2.87 3.08-2.87 8.19-.07 5.11 2.8 8.19 2.87 3.15 7.56 3.15t7.56-3.15q2.8-3.08 2.8-8.26 0-5.04-2.8-8.12-2.87-3.08-7.56-3.08M445 642.4h-42v-3.5h42zM217.56 465l49.92-80.4-.96-.72q-4.32 6-12.48 10.08-8.16 3.84-18.72 3.84-14.16 0-24.72-6.72t-16.32-18.96-5.76-28.56q0-17.04 6.72-29.52t18.96-19.44q12.48-7.2 28.56-7.2 16.56 0 28.8 7.2 12.48 6.96 19.2 19.44t6.72 29.52q0 12.48-3.6 24.96-3.36 12.24-10.56 23.76L238.68 465zM243 381.96q16.08 0 25.68-10.56 9.84-10.56 9.84-28.08.24-17.52-9.6-28.08-9.84-10.8-25.92-10.8t-25.92 10.8q-9.6 10.56-9.6 28.32 0 17.28 9.6 27.84 9.84 10.56 25.92 10.56M171 508.2h144v12H171z"/></svg>