<svg xmlns="http://www.w3.org/2000/svg" width="485" height="756" fill="none" viewBox="0 0 485 756"><rect width="485" height="756" fill="#000" rx="32"/><mask id="a" width="83" height="128" x="175.902" y="290" fill="#000" maskUnits="userSpaceOnUse"><path fill="#fff" d="M175.902 290h83v128h-83z"/><path d="M240.74 292c8.837 0 16 7.164 16 16v91.51c0 8.836-7.163 16-16 16h-46.838c-8.836 0-16-7.164-16-16V308c0-8.836 7.164-16 16-16zm-45.854 7.969a9 9 0 0 0-9 8.999v89.573a9 9 0 0 0 9 9h44.871a9 9 0 0 0 9-9v-89.573a9 9 0 0 0-9-8.999z"/></mask><path fill="var(--card-red, #da3b26)" d="M240.74 292c8.837 0 16 7.164 16 16v91.51c0 8.836-7.163 16-16 16h-46.838c-8.836 0-16-7.164-16-16V308c0-8.836 7.164-16 16-16zm-45.854 7.969a9 9 0 0 0-9 8.999v89.573a9 9 0 0 0 9 9h44.871a9 9 0 0 0 9-9v-89.573a9 9 0 0 0-9-8.999z"/><path fill="#000" d="M240.74 292v-2zm16 107.51h2zm-16 16v2zm-46.838 0v2zm-16-16h-2zm16-107.51v-2zm.984 7.969v-2zm-9 8.999h-2zm9 98.573v2zm44.871 0v2zm9-98.573h2zm-9-8.999v-2zm.983-7.969v2c7.732 0 14 6.268 14 14h4c0-9.941-8.059-18-18-18zm16 16h-2v91.51h4V308zm0 91.51h-2c0 7.732-6.268 14-14 14v4c9.941 0 18-8.059 18-18zm-16 16v-2h-46.838v4h46.838zm-46.838 0v-2c-7.732 0-14-6.268-14-14h-4c0 9.941 8.059 18 18 18zm-16-16h2V308h-4v91.51zm0-91.51h2c0-7.732 6.268-14 14-14v-4c-9.941 0-18 8.059-18 18zm16-16v2h46.838v-4h-46.838zm.984 7.969v-2c-6.075 0-11 4.924-11 10.999h4a7 7 0 0 1 7-6.999zm-9 8.999h-2v89.573h4v-89.573zm0 89.573h-2c0 6.075 4.925 11 11 11v-4a7 7 0 0 1-7-7zm9 9v2h44.871v-4h-44.871zm44.871 0v2c6.075 0 11-4.925 11-11h-4a7 7 0 0 1-7 7zm9-9h2v-89.573h-4v89.573zm0-89.573h2c0-6.075-4.926-10.999-11-10.999v4a7 7 0 0 1 7 6.999zm-9-8.999v-2h-44.871v4h44.871z" mask="url(#a)"/><mask id="b" width="83" height="128" x="128" y="381.637" fill="#000" maskUnits="userSpaceOnUse"><path fill="#fff" d="M128 381.637h83v128h-83z"/><path d="M192.838 383.638c8.836 0 16 7.162 16 15.999v91.51c0 8.837-7.164 16-16 16H146c-8.836 0-16-7.163-16-16v-91.509c0-8.837 7.164-16 16-16zm-45.855 7.967c-4.97.001-9 4.03-9 9v89.574c0 4.97 4.03 8.999 9 9h44.871a9 9 0 0 0 9-9v-89.574a9 9 0 0 0-9-9z"/></mask><path fill="var(--card-yellow, #fcd135)" d="M192.838 383.638c8.836 0 16 7.162 16 15.999v91.51c0 8.837-7.164 16-16 16H146c-8.836 0-16-7.163-16-16v-91.509c0-8.837 7.164-16 16-16zm-45.855 7.967c-4.97.001-9 4.03-9 9v89.574c0 4.97 4.03 8.999 9 9h44.871a9 9 0 0 0 9-9v-89.574a9 9 0 0 0-9-9z"/><path fill="#000" d="M192.838 383.638v-2zm16 15.999h2zm0 91.51 2 .001v-.001zm-16 16v2zm-46.838 0v2zm-16-16h-2v.001zm16-107.509v-2zm.983 7.967v-2zm-9 9h-2zm9 98.574v2zm44.871 0v2h.001zm9-98.574h2zm-9-9 .001-2h-.001zm.984-7.967v2c7.732 0 14 6.267 14 13.999h4c0-9.941-8.059-17.999-18-17.999zm16 15.999h-2v91.51h4v-91.51zm0 91.51h-2c0 7.732-6.268 14-14 14v4c9.941 0 18-8.059 18-17.999zm-16 16v-2H146v4h46.838zm-46.838 0v-2c-7.732 0-14-6.268-14-14h-2l-2 .001c0 9.94 8.059 17.999 18 17.999zm-16-16h2v-91.509h-4v91.509zm0-91.509h2c0-7.732 6.268-14 14-14v-4c-9.941 0-18 8.059-18 18zm16-16v2h46.838v-4H146zm.983 7.967v-2c-6.074.001-11 4.925-11 11h4a7 7 0 0 1 7.001-7zm-9 9h-2v89.574h4v-89.574zm0 89.574h-2c0 6.075 4.926 10.999 11 11v-2l.001-2a7 7 0 0 1-7.001-7zm9 9v2h44.871v-4h-44.871zm44.871 0 .001 2c6.074 0 10.999-4.925 10.999-11h-4a7 7 0 0 1-7 7zm9-9h2v-89.574h-4v89.574zm0-89.574h2c0-6.075-4.925-10.999-10.999-11l-.001 2v2c3.866.001 7 3.135 7 7zm-9-9v-2h-44.871v4h44.871z" mask="url(#b)"/><mask id="c" width="83" height="128" x="274.902" y="245" fill="#000" maskUnits="userSpaceOnUse"><path fill="#fff" d="M274.902 245h83v128h-83z"/><path d="M339.74 247c8.837 0 16 7.164 16 16v91.51c0 8.836-7.163 16-16 16h-46.838c-8.836 0-16-7.164-16-16V263c0-8.836 7.164-16 16-16zm-45.854 7.969a9 9 0 0 0-9 8.999v89.573a9 9 0 0 0 9 9h44.871a9 9 0 0 0 9-9v-89.573a9 9 0 0 0-9-8.999z"/></mask><path fill="var(--card-blue, #0079ba)" d="M339.74 247c8.837 0 16 7.164 16 16v91.51c0 8.836-7.163 16-16 16h-46.838c-8.836 0-16-7.164-16-16V263c0-8.836 7.164-16 16-16zm-45.854 7.969a9 9 0 0 0-9 8.999v89.573a9 9 0 0 0 9 9h44.871a9 9 0 0 0 9-9v-89.573a9 9 0 0 0-9-8.999z"/><path fill="#000" d="M339.74 247v-2zm16 107.51h2zm-16 16v2zm-46.838 0v2zm-16-16h-2zm16-107.51v-2zm.984 7.969v-2zm-9 8.999h-2zm9 98.573v2zm44.871 0v2zm9-98.573h2zm-9-8.999v-2zm.983-7.969v2c7.732 0 14 6.268 14 14h4c0-9.941-8.059-18-18-18zm16 16h-2v91.51h4V263zm0 91.51h-2c0 7.732-6.268 14-14 14v4c9.941 0 18-8.059 18-18zm-16 16v-2h-46.838v4h46.838zm-46.838 0v-2c-7.732 0-14-6.268-14-14h-4c0 9.941 8.059 18 18 18zm-16-16h2V263h-4v91.51zm0-91.51h2c0-7.732 6.268-14 14-14v-4c-9.941 0-18 8.059-18 18zm16-16v2h46.838v-4h-46.838zm.984 7.969v-2c-6.075 0-11 4.924-11 10.999h4a7 7 0 0 1 7-6.999zm-9 8.999h-2v89.573h4v-89.573zm0 89.573h-2c0 6.075 4.925 11 11 11v-4a7 7 0 0 1-7-7zm9 9v2h44.871v-4h-44.871zm44.871 0v2c6.075 0 11-4.925 11-11h-4a7 7 0 0 1-7 7zm9-9h2v-89.573h-4v89.573zm0-89.573h2c0-6.075-4.926-10.999-11-10.999v4a7 7 0 0 1 7 6.999zm-9-8.999v-2h-44.871v4h44.871z" mask="url(#c)"/><mask id="d" width="83" height="128" x="227" y="336.637" fill="#000" maskUnits="userSpaceOnUse"><path fill="#fff" d="M227 336.637h83v128h-83z"/><path d="M291.838 338.638c8.836 0 16 7.162 16 15.999v91.51c0 8.837-7.164 16-16 16H245c-8.836 0-16-7.163-16-16v-91.509c0-8.837 7.164-16 16-16zm-45.855 7.967c-4.97.001-9 4.03-9 9v89.574c0 4.97 4.03 8.999 9 9h44.871a9 9 0 0 0 9-9v-89.574a9 9 0 0 0-9-9z"/></mask><path fill="var(--card-green, #85bf44)" d="M291.838 338.638c8.836 0 16 7.162 16 15.999v91.51c0 8.837-7.164 16-16 16H245c-8.836 0-16-7.163-16-16v-91.509c0-8.837 7.164-16 16-16zm-45.855 7.967c-4.97.001-9 4.03-9 9v89.574c0 4.97 4.03 8.999 9 9h44.871a9 9 0 0 0 9-9v-89.574a9 9 0 0 0-9-9z"/><path fill="#000" d="M291.838 338.638v-2zm16 15.999h2zm0 91.51 2 .001v-.001zm-16 16v2zm-46.838 0v2zm-16-16h-2v.001zm16-107.509v-2zm.983 7.967v-2zm-9 9h-2zm9 98.574v2zm44.871 0v2h.001zm9-98.574h2zm-9-9 .001-2h-.001zm.984-7.967v2c7.732 0 14 6.267 14 13.999h4c0-9.941-8.059-17.999-18-17.999zm16 15.999h-2v91.51h4v-91.51zm0 91.51h-2c0 7.732-6.268 14-14 14v4c9.941 0 18-8.059 18-17.999zm-16 16v-2H245v4h46.838zm-46.838 0v-2c-7.732 0-14-6.268-14-14h-2l-2 .001c0 9.94 8.059 17.999 18 17.999zm-16-16h2v-91.509h-4v91.509zm0-91.509h2c0-7.732 6.268-14 14-14v-4c-9.941 0-18 8.059-18 18zm16-16v2h46.838v-4H245zm.983 7.967v-2c-6.074.001-11 4.925-11 11h4a7 7 0 0 1 7.001-7zm-9 9h-2v89.574h4v-89.574zm0 89.574h-2c0 6.075 4.926 10.999 11 11v-2l.001-2a7 7 0 0 1-7.001-7zm9 9v2h44.871v-4h-44.871zm44.871 0 .001 2c6.074 0 10.999-4.925 10.999-11h-4a7 7 0 0 1-7 7zm9-9h2v-89.574h-4v89.574zm0-89.574h2c0-6.075-4.925-10.999-10.999-11l-.001 2v2c3.866.001 7 3.135 7 7zm-9-9v-2h-44.871v4h44.871z" mask="url(#d)"/><path fill="#fff" d="M58.27 94.28V80.35H44.76v-4.97h13.51V61.45h5.46v13.93h13.51v4.97H63.73v13.93zm52.893 6.72V89.59h-23.24v-9.1l20.3-30.59h6.02l-20.72 31.85v2.8h17.64V71.6h5.53V101zM426.73 661.72v13.93h13.51v4.97h-13.51v13.93h-5.46v-13.93h-13.51v-4.97h13.51v-13.93zM373.837 655v11.41h23.24v9.1l-20.3 30.59h-6.02l20.72-31.85v-2.8h-17.64v12.95h-5.53V655z"/></svg>