<svg xmlns="http://www.w3.org/2000/svg" width="485" height="756" fill="none" viewBox="0 0 485 756"><rect width="485" height="756" fill="var(--card-color, #85bf44)" rx="32"/><path fill="#fff" d="M58.27 94.28V80.35H44.76v-4.97h13.51V61.45h5.46v13.93h13.51v4.97H63.73v13.93zM88.483 101v-5.74l15.75-16.52q4.2-4.41 6.16-7.98t1.96-6.93q0-4.48-2.59-7.07-2.52-2.66-6.93-2.66-4.62 0-7.35 2.66-2.66 2.66-2.66 7.28h-5.6q.14-4.55 2.1-7.91t5.39-5.11q3.5-1.82 8.12-1.82t7.98 1.75q3.429 1.75 5.25 5.04 1.82 3.22 1.82 7.77 0 4.41-2.38 8.82t-7.63 9.87l-13.3 13.51h24.29V101zM426.73 661.72v13.93h13.51v4.97h-13.51v13.93h-5.46v-13.93h-13.51v-4.97h13.51v-13.93zM396.517 655v5.74l-15.75 16.52q-4.2 4.41-6.16 7.98t-1.96 6.93q0 4.48 2.59 7.07 2.52 2.66 6.93 2.66 4.62 0 7.35-2.66 2.66-2.66 2.66-7.28h5.6q-.14 4.55-2.1 7.91t-5.39 5.11q-3.5 1.82-8.12 1.82t-7.98-1.75q-3.429-1.75-5.25-5.04-1.82-3.22-1.82-7.77 0-4.41 2.38-8.82t7.63-9.87l13.3-13.51h-24.29V655z"/><path fill="#fff" stroke="var(--card-color, #85bf44)" stroke-width="2" d="M241.838 360.637c9.389 0 17 7.611 17 17v91.51l-.006.439c-.229 9.04-7.515 16.327-16.556 16.556l-.438.005H195c-9.389 0-17-7.611-17-17v-91.509c0-9.389 7.611-17.001 17-17.001zm-46.266 9.979a8 8 0 0 0-7.589 7.989v89.574a8 8 0 0 0 8 8h44.871l.413-.011a8 8 0 0 0 7.587-7.989v-89.574a8 8 0 0 0-7.587-7.989l-.413-.011h-44.871z"/><path fill="#fff" stroke="var(--card-color, #85bf44)" stroke-width="2" d="M289.74 269c9.389 0 17 7.611 17 17v91.51l-.006.438c-.229 9.041-7.515 16.327-16.555 16.556l-.439.006h-46.838c-9.388 0-17-7.611-17-17V286c0-9.389 7.612-17 17-17zm-46.266 9.979a8 8 0 0 0-7.588 7.989v89.573a8 8 0 0 0 8 8h44.871l.412-.011a8 8 0 0 0 7.588-7.989v-89.573a8 8 0 0 0-7.588-7.989l-.412-.01h-44.871z"/></svg>