<svg xmlns="http://www.w3.org/2000/svg" width="485" height="756" fill="none" viewBox="0 0 485 756"><rect width="485" height="756" fill="var(--card-color, #85bf44)" rx="32"/><path fill="#fff" d="m268.469 392.502 3.529 3.542.006-.006zm-74.504 69.243a5 5 0 0 0 4.991 5.01l45 .081a5 5 0 0 0 .018-10l-40-.072.073-40a5 5 0 1 0-10-.018zm66.892-117.883a5 5 0 0 0-7.782 6.28l3.891-3.14zm7.612 48.64-3.53-3.542-69.503 69.253 3.529 3.542 3.529 3.541 69.504-69.252zm-11.503-45.5-3.891 3.14c3.329 4.125 6.344 7.573 9.27 11.33 2.836 3.642 5.087 6.966 6.495 10.127 1.384 3.107 1.848 5.824 1.411 8.383-.434 2.547-1.86 5.527-5.318 8.985l3.536 3.535 3.535 3.536c4.542-4.542 7.242-9.312 8.105-14.375.861-5.05-.206-9.803-2.134-14.133-1.905-4.277-4.748-8.36-7.741-12.202-2.903-3.728-6.452-7.842-9.377-11.466zM217.271 363.973l-3.566-3.505-.006.006zm73.778-70.016a5 5 0 0 0-5.043-4.957l-44.999.388a5 5 0 0 0-4.956 5.043 5 5 0 0 0 5.043 4.956l39.998-.344.344 39.998a5 5 0 1 0 10-.086zm-65.66 118.574a5 5 0 1 0 7.716-6.361l-3.858 3.18zm-8.118-48.558 3.566 3.505 68.778-69.973-3.566-3.505-3.566-3.505-68.778 69.973zm11.976 45.377 3.858-3.18c-3.371-4.09-6.422-7.506-9.387-11.233-2.875-3.612-5.16-6.912-6.601-10.058-1.416-3.093-1.908-5.804-1.498-8.368.407-2.552 1.802-5.546 5.224-9.039l-3.572-3.499-3.572-3.499c-4.495 4.589-7.145 9.387-7.955 14.459-.808 5.058.308 9.8 2.281 14.109 1.95 4.258 4.835 8.311 7.868 12.122 2.941 3.697 6.534 7.773 9.496 11.367zM73.837 81.827l1.412 1.417.002-.003zm-35.043 32.921a2 2 0 0 0 1.996 2.003l18 .033a2 2 0 0 0 .007-4l-16-.029.03-16a2 2 0 1 0-4-.007zm31.131-55.809a2 2 0 0 0-3.113 2.512l1.557-1.256zm3.912 22.888-1.411-1.417-33.044 32.924 1.412 1.417 1.411 1.417L75.25 83.244zM68.37 60.195l-1.557 1.256c1.568 1.943 3.021 3.607 4.412 5.392 1.354 1.74 2.447 3.348 3.134 4.893.679 1.523.922 2.891.699 4.202-.223 1.306-.949 2.79-2.634 4.475l1.414 1.414 1.414 1.414c2.119-2.118 3.355-4.318 3.749-6.63.393-2.307-.091-4.49-.988-6.503-.886-1.991-2.216-3.904-3.633-5.723-1.38-1.773-3.048-3.704-4.454-5.446zM49.501 68.264l-1.426-1.402-.003.002zM84.2 34.98a2 2 0 0 0-2.017-1.983l-18 .155a2 2 0 1 0 .035 4l16-.138.137 16a2 2 0 0 0 4-.035zM53.652 91.11a2 2 0 0 0 3.086-2.545l-1.543 1.272zm-4.15-22.847 1.426 1.402L83.626 36.4 82.2 34.997l-1.426-1.402-32.7 33.267zm5.693 21.574 1.543-1.272c-1.587-1.926-3.058-3.575-4.467-5.346-1.372-1.724-2.482-3.322-3.186-4.86-.694-1.516-.952-2.881-.742-4.194.21-1.308.92-2.8 2.587-4.502l-1.429-1.4-1.428-1.399c-2.097 2.14-3.31 4.353-3.68 6.67-.369 2.31.138 4.488 1.056 6.491.907 1.982 2.256 3.88 3.692 5.685 1.4 1.759 3.087 3.672 4.51 5.4zM435.861 687.831l1.411 1.416.003-.002zm-35.044 32.92a2 2 0 0 0 1.997 2.004l18 .032a2 2 0 0 0 .007-4l-16-.029.029-16a2 2 0 0 0-4-.007zm31.132-55.808a2.001 2.001 0 0 0-3.113 2.512l1.556-1.256zm3.912 22.888-1.412-1.417-33.043 32.924 1.411 1.417 1.412 1.416 33.043-32.924zm-5.469-21.632-1.556 1.256c1.567 1.942 3.021 3.606 4.411 5.391 1.354 1.74 2.447 3.348 3.135 4.893.678 1.524.922 2.892.698 4.203-.223 1.305-.948 2.789-2.633 4.474l1.414 1.415 1.414 1.414c2.118-2.118 3.354-4.319 3.748-6.631.394-2.307-.091-4.49-.987-6.502-.887-1.992-2.216-3.904-3.633-5.723-1.381-1.774-3.049-3.704-4.454-5.446zM411.525 674.267l-1.427-1.402-.002.002zm34.698-33.284a2 2 0 0 0-2.017-1.983l-17.999.155a2 2 0 0 0 .034 4l16-.138.137 16a2 2 0 0 0 4-.035zm-30.548 56.13a2.001 2.001 0 0 0 3.087-2.545l-1.544 1.273zm-4.15-22.846 1.426 1.402 32.699-33.267-1.427-1.402-1.426-1.402-32.699 33.267zm5.693 21.574 1.544-1.273c-1.588-1.925-3.059-3.575-4.467-5.345-1.373-1.725-2.482-3.322-3.186-4.86-.695-1.516-.952-2.882-.742-4.195.209-1.308.919-2.799 2.587-4.502l-1.429-1.399-1.429-1.4c-2.096 2.141-3.309 4.354-3.679 6.67-.369 2.311.138 4.489 1.055 6.492.908 1.982 2.257 3.88 3.693 5.685 1.399 1.758 3.086 3.672 4.51 5.399z"/></svg>