<svg xmlns="http://www.w3.org/2000/svg" width="485" height="756" fill="none" viewBox="0 0 485 756"><path fill="var(--card-color, #85bf44)" d="M0 32C0 14.327 14.327 0 32 0h421c17.673 0 32 14.327 32 32v692c0 17.673-14.327 32-32 32H32c-17.673 0-32-14.327-32-32z"/><path fill="#fff" fill-rule="evenodd" d="M243 272c58.542 0 106 47.458 106 106s-47.458 106-106 106c-28.254 0-53.925-11.055-72.927-29.074L170 455l-4.95-4.95.104-.106C147.679 431.045 137 405.77 137 378c0-58.542 47.458-106 106-106m-67.975 177.974C192.758 466.727 216.679 477 243 477c54.676 0 99-44.324 99-99 0-26.321-10.273-50.242-27.026-67.975zM243 279c-54.676 0-99 44.324-99 99 0 25.837 9.899 49.361 26.109 66.99L309.99 305.109C292.361 288.899 268.837 279 243 279M424 639c22.644 0 41 18.356 41 41s-18.356 41-41 41c-10.928 0-20.857-4.276-28.207-11.246l-.028.029-2.121-2.121.048-.05C387.05 700.326 383 690.636 383 680c0-22.644 18.356-41 41-41m-26.291 68.838c6.859 6.48 16.109 10.455 26.29 10.455 21.148 0 38.293-17.145 38.293-38.293 0-10.181-3.975-19.431-10.455-26.29zm26.29-66.13c-21.148 0-38.292 17.144-38.292 38.292a38.15 38.15 0 0 0 9.901 25.696l54.086-54.087c-6.794-6.152-15.807-9.901-25.695-9.901M61 35c22.644 0 41 18.356 41 41s-18.356 41-41 41c-10.928 0-20.857-4.276-28.207-11.246l-.028.029-2.121-2.121.048-.05C24.05 96.326 20 86.636 20 76c0-22.644 18.356-41 41-41m-26.291 68.838c6.859 6.48 16.11 10.455 26.29 10.455 21.148 0 38.293-17.145 38.293-38.293 0-10.18-3.975-19.431-10.455-26.29zm26.29-66.13c-21.148 0-38.292 17.144-38.292 38.292a38.15 38.15 0 0 0 9.901 25.696l54.086-54.087C79.9 41.456 70.887 37.708 61 37.708" clip-rule="evenodd"/></svg>