<svg xmlns="http://www.w3.org/2000/svg" width="485" height="756" fill="none" viewBox="0 0 485 756"><path fill="#000" d="M0 32C0 14.327 14.327 0 32 0h421c17.673 0 32 14.327 32 32v692c0 17.673-14.327 32-32 32H32c-17.673 0-32-14.327-32-32z"/><path fill="var(--card-red, #da3b26)" d="M102 77c-.61 21.819-18.184 39.394-40 40v-2.721C82.314 113.674 98.67 97.316 99.28 77z"/><path fill="var(--card-blue, #0079ba)" d="M60 117c-21.819-.61-39.394-18.184-40-40h2.721c.605 20.314 16.963 36.671 37.279 37.279z"/><path fill="var(--card-green, #85bf44)" d="M62 35c21.819.61 39.394 18.184 40 40h-2.721C98.674 54.687 82.316 38.33 62 37.72z"/><path fill="var(--card-yellow, #fcd135)" d="M20 75c.61-21.819 18.184-39.394 40-40v2.721C39.687 38.326 23.33 54.684 22.72 75z"/><path fill="var(--card-red, #da3b26)" d="M383 679c.61-21.819 18.184-39.394 40-40v2.721c-20.313.605-36.671 16.963-37.279 37.279z"/><path fill="var(--card-blue, #0079ba)" d="M425 639c21.819.61 39.394 18.184 40 40h-2.721c-.605-20.313-16.963-36.671-37.279-37.279z"/><path fill="var(--card-green, #85bf44)" d="M423 721c-21.819-.61-39.394-18.184-40-40h2.721c.605 20.313 16.963 36.671 37.279 37.279z"/><path fill="var(--card-yellow, #fcd135)" d="M465 681c-.61 21.819-18.184 39.394-40 40v-2.721c20.313-.605 36.671-16.963 37.279-37.279z"/><path fill="var(--card-red, #da3b26)" d="M349 381c-1.571 56.183-46.825 101.439-103 103v-7.007c52.307-1.557 94.427-43.678 95.994-95.993z"/><path fill="var(--card-blue, #0079ba)" d="M240 484c-56.183-1.571-101.439-46.825-103-103h7.007c1.557 52.307 43.678 94.427 95.993 95.994z"/><path fill="var(--card-green, #85bf44)" d="M246 273c56.183 1.571 101.439 46.825 103 103h-7.007c-1.557-52.307-43.678-94.427-95.993-95.994z"/><path fill="var(--card-yellow, #fcd135)" d="M137 376c1.571-56.183 46.825-101.439 103-103v7.007c-52.307 1.557-94.427 43.678-95.994 95.993z"/></svg>