<svg xmlns="http://www.w3.org/2000/svg" width="486" height="759" viewBox="0 0 486 759" fill="none"><rect width="486" height="759" fill="#fff" rx="51"/><path fill="var(--card-color, #00f)" d="M452 698c0 14.359-11.641 26-26 26H60c-14.36 0-26-11.641-26-26V562.111c5.839 43.884 23.777 77.718 54.045 94.674 79.32 44.436 213.268-43.864 299.182-197.223 35.248-62.921 56.931-127.017 64.773-183.801zM426 34c14.359 0 26 11.64 26 26v128.134c-6.875-40.009-24.423-70.796-52.834-86.712-79.32-44.436-213.268 43.864-299.182 197.224C62.718 365.168 40.614 433.004 34 492.125V60c0-14.36 11.64-26 26-26z"/><path fill="var(--card-black, #000)" d="M240.525 534.175q-24.225-.476-41.325-9.975-17.1-9.5-24.225-30.4c-7.125-20.9-5.542-32.933-2.375-57l15.675-110.675q5.7-42.275 31.35-62.225t62.7-19.95q35.625 0 55.1 19.95t13.775 62.225l-15.675 110.2Q330.3 472.9 317 494.275t-32.775 30.875q-19.475 9.025-43.7 9.025m5.225-38.475q7.125 0 12.35-5.7t6.65-18.05l23.275-165.3q1.425-12.35-1.9-17.575-3.325-5.7-10.45-5.7-6.175 0-11.875 5.7-5.224 5.225-7.125 17.575L233.4 471.95q-1.425 12.35 1.9 18.05 3.8 5.7 10.45 5.7"/><mask id="a" width="185" height="290" x="158" y="237" fill="var(--card-black, #000)" maskUnits="userSpaceOnUse"><path fill="#fff" d="M158 237h185v290H158z"/><path d="M230.14 522.98q-23.46-.46-40.02-9.66t-23.46-29.44-2.3-55.2l15.18-107.18q5.52-40.94 30.36-60.26t60.72-19.32q34.5 0 53.36 19.32t13.34 60.26l-15.18 106.72q-5.06 35.42-17.94 56.12t-31.74 29.9q-18.86 8.74-42.32 8.74m5.06-37.26q6.9 0 11.96-5.52t6.44-17.48l22.54-160.08q1.38-11.96-1.84-17.02-3.22-5.52-10.12-5.52-5.98 0-11.5 5.52-5.06 5.06-6.9 17.02l-22.54 160.08q-1.38 11.96 1.84 17.48 3.68 5.52 10.12 5.52"/></mask><path fill="var(--card-color, #00f)" d="M230.14 522.98q-23.46-.46-40.02-9.66t-23.46-29.44-2.3-55.2l15.18-107.18q5.52-40.94 30.36-60.26t60.72-19.32q34.5 0 53.36 19.32t13.34 60.26l-15.18 106.72q-5.06 35.42-17.94 56.12t-31.74 29.9q-18.86 8.74-42.32 8.74m5.06-37.26q6.9 0 11.96-5.52t6.44-17.48l22.54-160.08q1.38-11.96-1.84-17.02-3.22-5.52-10.12-5.52-5.98 0-11.5 5.52-5.06 5.06-6.9 17.02l-22.54 160.08q-1.38 11.96 1.84 17.48 3.68 5.52 10.12 5.52"/><path fill="var(--card-black, #000)" d="m230.14 522.98-.078 3.999.039.001h.039zm-40.02-9.66 1.943-3.497zm-23.46-29.44 3.786-1.291zm-2.3-55.2-3.96-.561-.003.02-.003.019zm15.18-107.18 3.96.561.002-.013.002-.014zm30.36-60.26-2.456-3.157zm114.08 0 2.862-2.794zm13.34 60.26 3.96.563.002-.014.002-.015zm-15.18 106.72 3.96.566v-.003zm-49.68 86.02 1.682 3.629.036-.016.036-.018zm-18.86-51.52-3.961-.558-.007.05-.006.05zm22.54-160.08 3.961.558.007-.05.006-.05zm-1.84-17.02-3.455 2.015.039.067.041.065zm-21.62 0-2.828-2.828zm-6.9 17.02-3.953-.608-.004.025-.004.025zm-22.54 160.08-3.961-.558-.007.05-.006.049zm1.84 17.48-3.455 2.015.06.104.067.1zm5.06 42.78.078-3.999c-15.14-.297-27.807-3.408-38.155-9.158l-1.943 3.497-1.943 3.497c11.732 6.517 25.745 9.846 41.885 10.162zm-40.02-9.66 1.943-3.497c-10.061-5.589-17.293-14.549-21.617-27.234l-3.786 1.291-3.786 1.291c4.876 14.302 13.284 24.968 25.303 31.646zm-23.46-29.44 3.786-1.291c-4.313-12.651-5.152-30.342-2.12-53.387l-3.966-.522-3.966-.522c-3.101 23.568-2.407 42.677 2.48 57.013zm-2.3-55.2 3.96.561 15.18-107.18-3.96-.561-3.96-.561-15.18 107.18zm15.18-107.18 3.964.534c3.586-26.591 13.353-45.582 28.852-57.637l-2.456-3.157-2.456-3.157c-17.621 13.705-28.093 34.887-31.868 62.883zm30.36-60.26 2.456 3.157c15.761-12.258 35.103-18.477 58.264-18.477v-8c-24.679 0-45.817 6.661-63.176 20.163zm60.72-19.32v4c22.238 0 38.872 6.205 50.498 18.114l2.862-2.794 2.862-2.794c-13.521-13.851-32.459-20.526-56.222-20.526zm53.36 19.32-2.862 2.794c11.336 11.613 15.842 30.198 12.238 56.932l3.964.534 3.964.534c3.756-27.853-.631-49.441-14.442-63.588zm13.34 60.26-3.96-.563-15.18 106.72 3.96.563 3.96.563 15.18-106.72zm-15.18 106.72-3.96-.566c-3.328 23.3-9.187 41.411-17.376 54.573l3.396 2.113 3.396 2.113c8.984-14.438 15.086-33.74 18.504-57.667zm-17.94 56.12-3.396-2.113c-8.255 13.267-18.304 22.665-30.098 28.418l1.754 3.595 1.754 3.595c13.352-6.513 24.464-17.049 33.382-31.382zm-31.74 29.9-1.682-3.629c-11.982 5.553-25.504 8.369-40.638 8.369v8c16.146 0 30.837-3.01 44.002-9.111zm-37.26-28.52v4c5.824 0 10.85-2.389 14.909-6.817l-2.949-2.703-2.949-2.703c-2.688 2.932-5.635 4.223-9.011 4.223zm11.96-5.52 2.949 2.703c4.195-4.577 6.502-11.382 7.465-19.725l-3.974-.458-3.974-.458c-.877 7.604-2.863 12.452-5.415 15.235zm6.44-17.48 3.961.558 22.54-160.08-3.961-.558-3.961-.558-22.54 160.08zm22.54-160.08 3.974.458c.936-8.111.499-15.009-2.439-19.626l-3.375 2.148-3.375 2.147c1.356 2.13 2.145 6.579 1.241 14.414zm-1.84-17.02 3.455-2.015c-2.93-5.024-7.69-7.505-13.575-7.505v8c3.315 0 5.302 1.199 6.665 3.535zm-10.12-5.52v-4c-5.343 0-10.137 2.5-14.328 6.692l2.828 2.828 2.828 2.828c3.169-3.168 6.042-4.348 8.672-4.348zm-11.5 5.52-2.828-2.828c-4.265 4.264-6.75 10.95-8.025 19.24l3.953.608 3.953.608c1.178-7.656 3.293-12.318 5.775-14.8zm-6.9 17.02-3.961-.558-22.54 160.08 3.961.558 3.961.558 22.54-160.08zm-22.54 160.08-3.974-.459c-.943 8.179-.467 15.11 2.359 19.954l3.455-2.015 3.455-2.015c-1.467-2.516-2.218-7.238-1.321-15.007zm1.84 17.48-3.328 2.219c3.168 4.752 7.77 7.301 13.448 7.301v-8c-2.908 0-5.053-1.131-6.792-3.739z" mask="url(#a)"/><path fill="var(--card-black, #000)" d="M399.511 704q-6.165-.114-10.515-2.406-4.351-2.291-6.164-7.332t-.604-13.748l3.988-26.694q1.45-10.196 7.977-15.008Q400.719 634 410.147 634q9.065 0 14.019 4.812 4.956 4.812 3.505 15.008l-3.988 26.579q-1.33 8.822-4.714 13.977t-8.339 7.447Q405.674 704 399.511 704"/><path fill="#fff" stroke="#000" stroke-width="3" d="M405.812 631.71c5.563 0 10.076 1.557 13.318 4.859 3.352 3.416 4.352 8.565 3.478 15.007l-.002.011-3.484 24.36v.001c-.791 5.509-2.21 10.003-4.331 13.393-2.096 3.35-4.724 5.837-7.901 7.379l-.014.006-.014.006c-3.107 1.432-6.563 2.133-10.341 2.133h-.015l-.015-.001c-3.776-.073-7.089-.848-9.882-2.391-2.9-1.603-4.917-4.162-6.078-7.546-1.164-3.398-1.312-7.865-.595-13.283l.001-.008.001-.007 3.484-24.466c.882-6.49 3.338-11.483 7.535-14.729 4.101-3.172 9.083-4.724 14.855-4.724Zm-1.478 11.715c-.409 0-.93.176-1.582.824-.438.436-.896 1.351-1.159 3.05l-5.166 36.484-.058.615c-.092 1.307.07 2.044.268 2.409.285.405.592.553 1.046.553.599 0 1.125-.217 1.641-.777.465-.504.897-1.465 1.092-3.145l.002-.02.002-.019 5.17-36.513c.203-1.76-.003-2.591-.196-2.893l-.016-.024-.015-.025c-.197-.336-.451-.519-1.029-.519Z"/><path fill="var(--card-black, #000)" d="M84.51 133q-6.164-.114-10.514-2.406-4.35-2.291-6.164-7.332-1.813-5.041-.604-13.748l3.988-26.694q1.45-10.196 7.977-15.008Q85.719 63 95.147 63q9.064 0 14.019 4.812 4.956 4.811 3.505 15.008l-3.988 26.579q-1.33 8.822-4.714 13.977-3.383 5.156-8.339 7.447Q90.674 133 84.51 133"/><path fill="#fff" stroke="#000" stroke-width="3" d="M90.813 60.71c5.562 0 10.075 1.557 13.317 4.86 3.352 3.415 4.352 8.564 3.478 15.006l-.002.01-3.484 24.361v.001c-.791 5.509-2.21 10.003-4.331 13.393-2.096 3.35-4.724 5.837-7.901 7.379l-.014.006-.014.006c-3.107 1.432-6.563 2.133-10.341 2.133h-.015l-.015-.001c-3.776-.073-7.089-.848-9.882-2.391-2.9-1.603-4.917-4.162-6.078-7.546-1.164-3.398-1.312-7.865-.596-13.283l.002-.008v-.007l3.485-24.466c.882-6.49 3.338-11.483 7.535-14.73 4.1-3.171 9.083-4.723 14.856-4.723Zm-1.479 11.715c-.41 0-.93.176-1.582.824-.438.436-.896 1.35-1.16 3.05l-5.165 36.484-.058.615c-.092 1.307.07 2.044.268 2.409.285.405.592.553 1.046.553.6 0 1.125-.217 1.641-.777.465-.504.897-1.465 1.092-3.145l.002-.02.002-.019 5.17-36.513c.203-1.76-.003-2.591-.196-2.893l-.016-.024-.015-.025c-.197-.335-.451-.52-1.029-.52Z"/></svg>