<svg xmlns="http://www.w3.org/2000/svg" width="486" height="759" viewBox="0 0 486 759" fill="none"><rect width="486" height="759" fill="#fff" rx="51"/><path fill="var(--card-color, #00f)" d="M452 698c0 14.359-11.641 26-26 26H60c-14.36 0-26-11.641-26-26V562.111c5.839 43.884 23.777 77.718 54.045 94.674 79.32 44.436 213.268-43.864 299.182-197.223 35.248-62.921 56.931-127.017 64.773-183.801zM426 34c14.359 0 26 11.64 26 26v128.134c-6.875-40.009-24.423-70.796-52.834-86.712-79.32-44.436-213.268 43.864-299.182 197.224C62.718 365.168 40.614 433.004 34 492.125V60c0-14.36 11.64-26 26-26z"/><path fill="var(--card-black, #000)" d="m203 528 28.5-202.35h-49.4l5.225-37.05 9.025-.475q18.525-1.9 30.875-11.4c12.35-9.5 16.15-16.15 23.75-29.45h57.475L268.55 528z"/><mask id="a" width="133" height="280" x="168" y="241" fill="var(--card-black, #000)" maskUnits="userSpaceOnUse"><path fill="#fff" d="M168 241h133v280H168z"/><path d="m193.8 517 27.6-195.96h-47.84l5.06-35.88 8.74-.46q17.94-1.84 29.9-11.04t23-28.52h55.66L257.28 517z"/></mask><path fill="var(--card-color, #00f)" d="m193.8 517 27.6-195.96h-47.84l5.06-35.88 8.74-.46q17.94-1.84 29.9-11.04t23-28.52h55.66L257.28 517z"/><path fill="var(--card-black, #000)" d="m193.8 517-3.961-.558-.642 4.558h4.603zm27.6-195.96 3.961.558.642-4.558H221.4zm-47.84 0-3.961-.559-.643 4.559h4.604zm5.06-35.88-.21-3.994-3.291.173-.46 3.262zm8.74-.46.21 3.994.099-.005.099-.01zm29.9-11.04-2.439-3.171zm23-28.52v-4h-2.321l-1.152 2.015zm55.66 0 3.96.563.649-4.563h-4.609zM257.28 517v4h3.472l.488-3.437zm-63.48 0 3.961.558 27.6-195.96-3.961-.558-3.961-.558-27.6 195.96zm27.6-195.96v-4h-47.84v8h47.84zm-47.84 0 3.961.559 5.06-35.88-3.961-.559-3.961-.559-5.06 35.88zm5.06-35.88.21 3.994 8.74-.46-.21-3.994-.21-3.994-8.74.46zm8.74-.46.408 3.979c12.554-1.287 23.263-5.181 31.931-11.849l-2.439-3.17-2.439-3.171c-7.278 5.599-16.503 9.066-27.869 10.232zm29.9-11.04 2.439 3.17c8.543-6.571 16.525-16.565 24.034-29.705l-3.473-1.985-3.473-1.985c-7.211 12.62-14.562 21.639-21.966 27.334zm23-28.52v4h55.66v-8h-55.66zm55.66 0-3.96-.563-38.64 271.86 3.96.563 3.96.563 38.64-271.86zM257.28 517v-4H193.8v8h63.48z" mask="url(#a)"/><path fill="var(--card-black, #000)" d="m418.045 634.5-6.045 44h12.5l-1.989 13.99-2.571.115q-5.278.46-8.797 2.761t-6.767 7.134H388l9.5-68z"/><mask id="b" width="36" height="69" x="385" y="631" fill="var(--card-black, #000)" maskUnits="userSpaceOnUse"><path fill="#fff" d="M385 631h36v69h-36z"/><path d="m412.6 634-6.3 44.73h10.92l-1.155 8.19-1.995.105q-4.095.42-6.825 2.52t-5.25 6.51H389.29L398.11 634z"/></mask><path fill="#fff" d="m412.6 634-6.3 44.73h10.92l-1.155 8.19-1.995.105q-4.095.42-6.825 2.52t-5.25 6.51H389.29L398.11 634z"/><path fill="var(--card-black, #000)" d="m412.6 634 2.971.418.481-3.418H412.6zm-6.3 44.73-2.971-.418-.481 3.418h3.452zm10.92 0 2.971.419.482-3.419h-3.453zm-1.155 8.19.158 2.996 2.468-.13.345-2.447zm-1.995.105-.158-2.996-.074.004-.074.008zm-6.825 2.52 1.829 2.378zm-5.25 6.51v3h1.741l.864-1.512zm-12.705 0-2.97-.422-.487 3.422h3.457zM398.11 634v-3h-2.604l-.366 2.578zm14.49 0-2.971-.418-6.3 44.73 2.971.418 2.971.418 6.3-44.73zm-6.3 44.73v3h10.92v-6H406.3zm10.92 0-2.971-.419-1.155 8.19 2.971.419 2.971.419 1.155-8.19zm-1.155 8.19-.158-2.996-1.995.105.158 2.996.158 2.996 1.995-.105zm-1.995.105-.306-2.984c-3.175.325-6.007 1.325-8.348 3.126l1.829 2.378 1.829 2.378c1.299-.999 3.017-1.679 5.302-1.914zm-6.825 2.52-1.829-2.378c-2.247 1.729-4.234 4.264-6.026 7.4l2.605 1.488 2.605 1.488c1.568-2.744 3.081-4.549 4.474-5.62zm-5.25 6.51v-3H389.29v6h12.705zm-12.705 0 2.97.422 8.82-62.055-2.97-.422-2.97-.422-8.82 62.055zM398.11 634v3h14.49v-6h-14.49z" mask="url(#b)"/><path fill="var(--card-black, #000)" d="m72.955 131 8.12-49.015H67l1.489-8.975 2.571-.115q5.278-.46 8.797-2.761T86.624 63H103l-9.5 68z"/><mask id="c" width="36" height="69" x="65" y="59" fill="var(--card-black, #000)" maskUnits="userSpaceOnUse"><path fill="#fff" d="M65 59h36v69H65z"/><path d="m73.4 125 6.3-44.73H68.78l1.155-8.19 1.995-.105q4.095-.42 6.825-2.52t5.25-6.51H96.71L87.89 125z"/></mask><path fill="#fff" d="m73.4 125 6.3-44.73H68.78l1.155-8.19 1.995-.105q4.095-.42 6.825-2.52t5.25-6.51H96.71L87.89 125z"/><path fill="var(--card-black, #000)" d="m73.4 125-2.97-.418-.482 3.418H73.4zm6.3-44.73 2.97.418.482-3.418H79.7zm-10.92 0-2.97-.419-.483 3.419h3.453zm1.155-8.19-.158-2.996-2.468.13-.345 2.447zm1.995-.105.158 2.996.074-.004.074-.008zm6.825-2.52-1.83-2.378zm5.25-6.51v-3h-1.741l-.864 1.512zm12.705 0 2.97.422.487-3.422H96.71zM87.89 125v3h2.604l.366-2.578zm-14.49 0 2.97.418 6.3-44.73-2.97-.418-2.97-.418-6.3 44.73zm6.3-44.73v-3H68.78v6H79.7zm-10.92 0 2.97.419 1.156-8.19-2.971-.419-2.97-.419-1.156 8.19zm1.155-8.19.158 2.996 1.995-.105-.158-2.996-.158-2.996-1.995.105zm1.995-.105.306 2.984c3.175-.325 6.007-1.325 8.348-3.126l-1.829-2.378-1.83-2.378c-1.298 1-3.016 1.68-5.301 1.914zm6.825-2.52 1.83 2.378c2.246-1.729 4.233-4.264 6.025-7.4l-2.605-1.488-2.605-1.488c-1.568 2.744-3.081 4.549-4.474 5.62zm5.25-6.51v3H96.71v-6H84.005zm12.705 0-2.97-.422-8.82 62.055 2.97.422 2.97.422 8.82-62.055zM87.89 125v-3H73.4v6h14.49z" mask="url(#c)"/></svg>