<svg xmlns="http://www.w3.org/2000/svg" width="486" height="759" viewBox="0 0 486 759" fill="none"><rect width="486" height="759" fill="#fff" rx="51"/><path fill="var(--card-color, #00f)" d="M452 698c0 14.359-11.641 26-26 26H60c-14.36 0-26-11.641-26-26V562.111c5.839 43.884 23.777 77.718 54.045 94.674 79.32 44.436 213.268-43.864 299.182-197.223 35.248-62.921 56.931-127.017 64.773-183.801zM426 34c14.359 0 26 11.64 26 26v128.134c-6.875-40.009-24.423-70.796-52.834-86.712-79.32-44.436-213.268 43.864-299.182 197.224C62.718 365.168 40.614 433.004 34 492.125V60c0-14.36 11.64-26 26-26z"/><path fill="var(--card-black, #000)" d="M156.925 528a5603 5603 0 0 1 4.75-28.975 6905 6905 0 0 1 3.8-28.975q3.8-27.075 11.875-42.275 8.075-15.675 22.325-25.65 14.726-9.975 37.05-20.425a267 267 0 0 0 21.375-10.45q10.45-5.7 18.05-15.2t9.975-24.7l.95-7.6q1.425-13.3-.475-21.85-1.9-9.025-11.4-9.025-9.975 0-14.725 10.45-4.75 9.975-7.6 30.875l-2.85 18.05h-65.55l5.225-38q5.225-34.2 28.5-50.825 23.275-17.1 64.6-17.1 31.825 0 48.925 8.075 17.1 7.6 22.325 25.175t1.425 46.55q-3.325 22.324-10.45 38.475-6.65 16.15-18.525 28.025-11.4 11.875-29.925 20.9-10.925 5.7-20.9 10.925-9.5 4.75-17.1 10.45-7.6 5.225-13.3 12.825-4.275 5.225-7.6 11.875-2.85 6.65-4.75 15.2h101.65l-7.6 53.2z"/><mask id="a" width="204" height="281" x="144" y="240" fill="var(--card-black, #000)" maskUnits="userSpaceOnUse"><path fill="#fff" d="M144 240h204v281H144z"/><path d="M149.18 517q2.3-14.26 4.6-28.06 1.84-14.26 3.68-28.06 3.68-26.22 11.5-40.94 7.82-15.18 21.62-24.84 14.26-9.66 35.88-19.78a258 258 0 0 0 20.7-10.12q10.12-5.52 17.48-14.72t9.66-23.92l.92-7.36q1.38-12.88-.46-21.16-1.84-8.74-11.04-8.74-9.66 0-14.26 10.12-4.6 9.66-7.36 29.9l-2.76 17.48h-63.48l5.06-36.8q5.06-33.12 27.6-49.22 22.54-16.56 62.56-16.56 30.82 0 47.38 7.82 16.56 7.36 21.62 24.38t1.38 45.08q-3.22 21.62-10.12 37.26-6.44 15.64-17.94 27.14-11.04 11.5-28.98 20.24-10.58 5.52-20.24 10.58-9.2 4.6-16.56 10.12-7.36 5.06-12.88 12.42-4.14 5.06-7.36 11.5-2.76 6.44-4.6 14.72h98.44L313.86 517z"/></mask><path fill="var(--card-color, #00f)" d="M149.18 517q2.3-14.26 4.6-28.06 1.84-14.26 3.68-28.06 3.68-26.22 11.5-40.94 7.82-15.18 21.62-24.84 14.26-9.66 35.88-19.78a258 258 0 0 0 20.7-10.12q10.12-5.52 17.48-14.72t9.66-23.92l.92-7.36q1.38-12.88-.46-21.16-1.84-8.74-11.04-8.74-9.66 0-14.26 10.12-4.6 9.66-7.36 29.9l-2.76 17.48h-63.48l5.06-36.8q5.06-33.12 27.6-49.22 22.54-16.56 62.56-16.56 30.82 0 47.38 7.82 16.56 7.36 21.62 24.38t1.38 45.08q-3.22 21.62-10.12 37.26-6.44 15.64-17.94 27.14-11.04 11.5-28.98 20.24-10.58 5.52-20.24 10.58-9.2 4.6-16.56 10.12-7.36 5.06-12.88 12.42-4.14 5.06-7.36 11.5-2.76 6.44-4.6 14.72h98.44L313.86 517z"/><path fill="var(--card-black, #000)" d="m149.18 517-3.949-.637-.748 4.637h4.697zm4.6-28.06 3.946.658.012-.073.009-.073zm3.68-28.06-3.961-.556-.002.014-.002.013zm11.5-40.94 3.532 1.877.012-.023.012-.022zm21.62-24.84-2.243-3.312-.026.017-.025.018zm35.88-19.78-1.595-3.668-.051.022-.05.023zm38.18-24.84 3.123 2.499zm9.66-23.92 3.952.617.01-.06.007-.061zm.92-7.36 3.969.496.004-.035.004-.035zm-.46-21.16-3.914.824.004.022.005.022zm-25.3 1.38 3.611 1.72.016-.032.014-.033zm-7.36 29.9 3.951.624.007-.042.005-.042zm-2.76 17.48v4h3.418l.533-3.376zm-63.48 0-3.963-.545-.625 4.545h4.588zm5.06-36.8-3.954-.604-.005.029-.004.03zm27.6-49.22 2.325 3.255.022-.016.021-.015zm109.94-8.74-1.708 3.617.041.02.042.018zm21.62 24.38 3.834-1.14zm1.38 45.08 3.956.589.006-.034.004-.035zm-10.12 37.26-3.66-1.615-.02.046-.019.046zM313.4 385.9l-2.828-2.828-.029.028-.029.03zm-28.98 20.24-1.752-3.596-.049.024-.049.026zm-20.24 10.58 1.789 3.578.034-.017.033-.018zm-16.56 10.12 2.266 3.296.068-.047.066-.049zm-12.88 12.42 3.096 2.533.053-.065.051-.068zm-7.36 11.5-3.578-1.789-.052.105-.047.108zm-4.6 14.72-3.905-.868-1.081 4.868h4.986zm98.44 0 3.96.566.652-4.566h-4.612zM313.86 517v4h3.469l.491-3.434zm-164.68 0 3.949.637q2.298-14.25 4.597-28.039l-3.946-.658-3.946-.658a5470 5470 0 0 0-4.603 28.081zm4.6-28.06 3.967.512a6679 6679 0 0 1 3.678-28.043l-3.965-.529-3.965-.529a6718 6718 0 0 0-3.682 28.077zm3.68-28.06 3.961.556c2.422-17.257 6.167-30.388 11.071-39.619l-3.532-1.877-3.532-1.877c-5.523 10.395-9.445 24.558-11.929 42.261zm11.5-40.94 3.556 1.832c4.92-9.551 11.697-17.333 20.358-23.395l-2.294-3.277-2.294-3.277c-9.739 6.818-17.376 15.596-22.882 26.285zm21.62-24.84 2.243 3.312c9.281-6.287 21.043-12.78 35.333-19.469l-1.696-3.623-1.696-3.623c-14.537 6.805-26.695 13.498-36.427 20.091zm35.88-19.78 1.595 3.668a262 262 0 0 0 21.02-10.276l-1.915-3.512-1.915-3.512a255 255 0 0 1-20.38 9.964zm20.7-10.12 1.915 3.512c7.223-3.94 13.458-9.195 18.688-15.733l-3.123-2.499-3.123-2.499c-4.583 5.729-10.002 10.287-16.272 13.707zm17.48-14.72 3.123 2.499c5.443-6.804 8.876-15.479 10.489-25.802l-3.952-.617-3.952-.618c-1.454 9.304-4.461 16.576-8.831 22.039zm9.66-23.92 3.969.496.92-7.36-3.969-.496-3.969-.496-.92 7.36zm.92-7.36 3.977.426c.945-8.816.825-16.348-.532-22.454l-3.905.868-3.905.868c1.097 4.933 1.283 11.508.388 19.866zm-.46-21.16 3.914-.824c-.753-3.576-2.36-6.689-5.111-8.867-2.738-2.168-6.153-3.049-9.843-3.049v8c2.444 0 3.935.575 4.877 1.321.929.735 1.775 1.993 2.249 4.243zm-11.04-8.74v-4c-3.958 0-7.586 1.051-10.71 3.268-3.089 2.193-5.444 5.352-7.191 9.197l3.641 1.655 3.641 1.655c1.319-2.901 2.875-4.802 4.539-5.983 1.629-1.156 3.598-1.792 6.08-1.792zm-14.26 10.12-3.611-1.72c-3.34 7.013-5.858 17.478-7.712 31.08l3.963.54 3.963.54c1.826-13.384 4.214-22.853 7.008-28.72zm-7.36 29.9-3.951-.624-2.76 17.48 3.951.624 3.951.624 2.76-17.48zm-2.76 17.48v-4h-63.48v8h63.48zm-63.48 0 3.963.545 5.06-36.8-3.963-.545-3.963-.545-5.06 36.8zm5.06-36.8 3.954.604c3.247-21.252 12.002-36.592 25.971-46.569l-2.325-3.255-2.325-3.255c-16.085 11.489-25.729 28.963-29.229 51.871zm27.6-49.22 2.368 3.224c14.101-10.36 34.01-15.784 60.192-15.784v-8c-27.178 0-48.976 5.616-64.928 17.336zm62.56-16.56v4c20.307 0 35.412 2.592 45.672 7.437l1.708-3.617 1.708-3.617c-11.82-5.582-28.302-8.203-49.088-8.203zm47.38 7.82-1.625 3.655c9.997 4.443 16.379 11.666 19.411 21.865l3.834-1.14 3.834-1.14c-3.714-12.494-11.746-21.525-23.829-26.895zm21.62 24.38-3.834 1.14c3.146 10.583 3.667 24.976 1.248 43.42l3.966.52 3.966.52c2.488-18.97 2.088-34.63-1.512-46.74zm1.38 45.08-3.956-.589c-2.108 14.153-5.401 26.211-9.824 36.234l3.66 1.615 3.66 1.615c4.778-10.83 8.231-23.612 10.416-38.286zm-10.12 37.26-3.699-1.523c-4.1 9.958-9.791 18.556-17.069 25.835l2.828 2.828 2.828 2.828c8.055-8.055 14.325-17.55 18.811-28.445zM313.4 385.9l-2.886-2.77c-6.963 7.253-16.207 13.744-27.846 19.414l1.752 3.596 1.752 3.596c12.281-5.983 22.357-12.986 30.114-21.066zm-28.98 20.24-1.85-3.546q-10.583 5.521-20.246 10.583l1.856 3.543 1.856 3.543q9.657-5.058 20.234-10.577zm-20.24 10.58-1.789-3.578c-6.323 3.162-12.051 6.658-17.171 10.498l2.4 3.2 2.4 3.2c4.694-3.52 10.005-6.771 15.949-9.742zm-16.56 10.12-2.266-3.296c-5.275 3.627-9.881 8.072-13.814 13.316l3.2 2.4 3.2 2.4c3.427-4.57 7.408-8.404 11.946-11.524zm-12.88 12.42-3.096-2.533c-2.965 3.625-5.576 7.712-7.842 12.244l3.578 1.789 3.578 1.789c2.027-4.055 4.323-7.634 6.878-10.756zm-7.36 11.5-3.677-1.576c-1.955 4.564-3.558 9.714-4.828 15.428l3.905.868 3.905.868c1.183-5.326 2.647-9.989 4.372-14.012zm-4.6 14.72v4h98.44v-8h-98.44zm98.44 0-3.96-.566-7.36 51.52 3.96.566 3.96.566 7.36-51.52zM313.86 517v-4H149.18v8h164.68z" mask="url(#a)"/><mask id="b" width="52" height="69" x="379" y="635" fill="var(--card-black, #000)" maskUnits="userSpaceOnUse"><path fill="#fff" d="M379 635h52v69h-52z"/><path d="M426.785 638q-.525 3.255-1.05 6.405-.42 3.255-.84 6.405-.84 5.985-2.625 9.345-1.785 3.465-4.935 5.67-3.255 2.205-8.19 4.515a59 59 0 0 0-4.725 2.31q-2.31 1.26-3.99 3.36c-1.68 2.1-1.855 3.22-2.205 5.46l-.21 1.68q-.315 2.94.105 4.83.42 1.995 2.52 1.995 2.205 0 3.255-2.31 1.05-2.205 1.68-6.825l.63-3.99h14.49l-1.155 8.4q-1.155 7.56-6.3 11.235-5.145 3.78-14.28 3.78-7.035 0-10.815-1.785-3.78-1.68-4.935-5.565t-.315-10.29q.735-4.935 2.31-8.505 1.47-3.57 4.095-6.195 2.52-2.625 6.615-4.62 2.415-1.26 4.62-2.415 2.1-1.05 3.78-2.31 1.68-1.155 2.94-2.835.945-1.155 1.68-2.625.63-1.47 1.05-3.36h-22.47l1.68-11.76z"/></mask><path fill="var(--card-black, #000)" d="M426.785 638q-.525 3.255-1.05 6.405-.42 3.255-.84 6.405-.84 5.985-2.625 9.345-1.785 3.465-4.935 5.67-3.255 2.205-8.19 4.515a59 59 0 0 0-4.725 2.31q-2.31 1.26-3.99 3.36c-1.68 2.1-1.855 3.22-2.205 5.46l-.21 1.68q-.315 2.94.105 4.83.42 1.995 2.52 1.995 2.205 0 3.255-2.31 1.05-2.205 1.68-6.825l.63-3.99h14.49l-1.155 8.4q-1.155 7.56-6.3 11.235-5.145 3.78-14.28 3.78-7.035 0-10.815-1.785-3.78-1.68-4.935-5.565t-.315-10.29q.735-4.935 2.31-8.505 1.47-3.57 4.095-6.195 2.52-2.625 6.615-4.62 2.415-1.26 4.62-2.415 2.1-1.05 3.78-2.31 1.68-1.155 2.94-2.835.945-1.155 1.68-2.625.63-1.47 1.05-3.36h-22.47l1.68-11.76z"/><path fill="var(--card-black, #000)" d="m426.785 638 2.962.478.561-3.478h-3.523zm-1.05 6.405-2.959-.493-.009.054-.007.055zm-.84 6.405 2.971.417.001-.01.002-.011zm-2.625 9.345-2.649-1.407-.009.016-.009.017zm-4.935 5.67 1.683 2.484.019-.013.018-.013zm-8.19 4.515 1.196 2.751.038-.016.038-.018zm-8.715 5.67-2.343-1.874zm-2.205 5.46-2.964-.463-.007.045-.006.046zm-.21 1.68-2.977-.372-.003.026-.003.026zm.105 4.83 2.936-.618-.004-.016-.003-.017zm5.775-.315-2.709-1.29-.011.024-.011.025zm1.68-6.825-2.963-.468-.005.031-.004.032zm.63-3.99v-3h-2.563l-.4 2.532zm14.49 0 2.972.409.469-3.409h-3.441zm-1.155 8.4 2.966.453.003-.022.003-.022zm-6.3 11.235-1.744-2.441-.016.011-.016.012zm-25.095 1.995 1.281-2.713-.031-.014-.032-.014zm-4.935-5.565-2.876.855zm-.315-10.29-2.967-.442-.004.026-.004.026zm2.31-8.505 2.745 1.211.015-.034.014-.035zm4.095-6.195 2.121 2.121.022-.021.021-.022zm6.615-4.62 1.314 2.697.037-.018.037-.019zm4.62-2.415-1.342-2.683-.025.012-.025.014zm3.78-2.31-1.7-2.472-.051.035-.049.037zm2.94-2.835-2.322-1.9-.04.049-.038.051zm1.68-2.625 2.683 1.342.04-.079.034-.081zm1.05-3.36 2.929.651.811-3.651h-3.74zm-22.47 0-2.97-.424-.489 3.424h3.459zm1.68-11.76v-3h-2.602l-.368 2.576zm37.59 0-2.962-.478q-.523 3.247-1.047 6.39l2.959.493 2.959.493q.526-3.158 1.053-6.42zm-1.05 6.405-2.975-.384q-.42 3.249-.839 6.393l2.974.396 2.974.396q.42-3.156.841-6.417zm-.84 6.405-2.971-.417c-.536 3.823-1.345 6.551-2.303 8.355l2.649 1.407 2.649 1.407c1.422-2.676 2.363-6.178 2.947-10.335zm-2.625 9.345-2.667-1.374a12.45 12.45 0 0 1-3.988 4.586l1.72 2.458 1.72 2.458c2.505-1.753 4.472-4.018 5.882-6.754zm-4.935 5.67-1.683-2.484c-2 1.355-4.581 2.785-7.779 4.282l1.272 2.717 1.272 2.717c3.382-1.583 6.261-3.163 8.601-4.748zm-8.19 4.515-1.196-2.751a62 62 0 0 0-4.966 2.427l1.437 2.634 1.437 2.634a56 56 0 0 1 4.484-2.193zm-4.725 2.31-1.437-2.634a16.1 16.1 0 0 0-4.896 4.12l2.343 1.874 2.343 1.874a10.1 10.1 0 0 1 3.084-2.6zm-3.99 3.36-2.343-1.874c-1.522 1.903-2.416 4.249-2.826 6.871l2.964.463 2.964.463c.29-1.858.866-3.152 1.584-4.049zm-2.205 5.46-2.977-.372-.21 1.68 2.977.372 2.977.372.21-1.68zm-.21 1.68-2.983-.32c-.228 2.132-.218 4.101.159 5.801l2.929-.651 2.929-.651c-.183-.82-.243-2.071-.051-3.859zm.105 4.83-2.936.618c.245 1.162.81 2.357 1.914 3.23 1.093.866 2.375 1.147 3.542 1.147v-6c-.116 0-.137-.014-.091-.001a.9.9 0 0 1 .273.15.9.9 0 0 1 .229.26c.034.061.023.067.005-.022zm2.52 1.995v3c1.289 0 2.55-.348 3.652-1.131 1.078-.764 1.823-1.814 2.334-2.938l-2.731-1.241-2.731-1.241c-.189.416-.336.521-.344.527-.005.004-.006.005-.015.007a.6.6 0 0 1-.165.017zm3.255-2.31 2.709 1.29c.904-1.9 1.512-4.548 1.943-7.71l-2.972-.405-2.972-.405c-.409 2.998-.921 4.9-1.417 5.94zm1.68-6.825 2.963.468.63-3.99-2.963-.468-2.963-.468-.63 3.99zm.63-3.99v3h14.49v-6h-14.49zm14.49 0-2.972-.409-1.155 8.4 2.972.409 2.972.409 1.155-8.4zm-1.155 8.4-2.966-.453c-.675 4.419-2.441 7.364-5.078 9.247l1.744 2.441 1.744 2.441c4.223-3.017 6.657-7.562 7.522-13.223zm-6.3 11.235-1.776-2.418c-2.736 2.01-6.787 3.198-12.504 3.198v6c6.463 0 11.932-1.332 16.056-4.362zm-14.28 3.78v-3c-4.51 0-7.599-.584-9.534-1.498l-1.281 2.713-1.281 2.713c3.105 1.466 7.226 2.072 12.096 2.072zm-10.815-1.785 1.218-2.741c-1.737-.773-2.763-1.95-3.277-3.679l-2.876.855-2.876.855c1.026 3.451 3.29 5.984 6.593 7.451zm-4.935-5.565 2.876-.855c-.6-2.017-.751-4.972-.216-9.045l-2.975-.39-2.975-.39c-.585 4.467-.526 8.373.414 11.535zm-.315-10.29 2.967.442c.461-3.095 1.171-5.658 2.088-7.736l-2.745-1.211-2.745-1.211c-1.183 2.682-2.013 5.789-2.532 9.274zm2.31-8.505 2.774 1.142c.835-2.028 1.984-3.757 3.442-5.216l-2.121-2.121-2.121-2.121c-2.042 2.041-3.623 4.442-4.748 7.174zm4.095-6.195 2.164 2.078c1.383-1.44 3.276-2.788 5.765-4.001l-1.314-2.697-1.314-2.697c-2.971 1.447-5.488 3.179-7.465 5.239zm6.615-4.62 1.388 2.66q2.416-1.261 4.624-2.418l-1.392-2.657-1.392-2.657q-2.202 1.153-4.616 2.412zm4.62-2.415 1.342 2.683a27.7 27.7 0 0 0 4.238-2.593l-1.8-2.4-1.8-2.4c-.96.72-2.064 1.398-3.322 2.027zm3.78-2.31 1.7 2.472a15.5 15.5 0 0 0 3.64-3.507l-2.4-1.8-2.4-1.8a9.6 9.6 0 0 1-2.24 2.163zm2.94-2.835 2.322 1.9a17 17 0 0 0 2.041-3.183l-2.683-1.342-2.683-1.342a11 11 0 0 1-1.319 2.067zm1.68-2.625 2.757 1.182c.507-1.183.909-2.486 1.222-3.891l-2.929-.651-2.929-.651c-.247 1.115-.545 2.052-.878 2.829zm1.05-3.36v-3h-22.47v6h22.47zm-22.47 0 2.97.424 1.68-11.76-2.97-.424-2.97-.424-1.68 11.76zm1.68-11.76v3h37.59v-6h-37.59z" mask="url(#b)"/><mask id="c" width="52" height="69" x="376" y="632" fill="var(--card-black, #000)" maskUnits="userSpaceOnUse"><path fill="#fff" d="M376 632h52v69h-52z"/><path d="M423.785 635q-.525 3.255-1.05 6.405-.42 3.255-.84 6.405-.84 5.985-2.625 9.345-1.785 3.465-4.935 5.67-3.255 2.205-8.19 4.515a59 59 0 0 0-4.725 2.31q-2.31 1.26-3.99 3.36c-1.68 2.1-1.855 3.22-2.205 5.46l-.21 1.68q-.315 2.94.105 4.83.42 1.995 2.52 1.995 2.205 0 3.255-2.31 1.05-2.205 1.68-6.825l.63-3.99h14.49l-1.155 8.4q-1.155 7.56-6.3 11.235-5.145 3.78-14.28 3.78-7.035 0-10.815-1.785-3.78-1.68-4.935-5.565t-.315-10.29q.735-4.935 2.31-8.505 1.47-3.57 4.095-6.195 2.52-2.625 6.615-4.62 2.415-1.26 4.62-2.415 2.1-1.05 3.78-2.31 1.68-1.155 2.94-2.835.945-1.155 1.68-2.625.63-1.47 1.05-3.36h-22.47l1.68-11.76z"/></mask><path fill="#fff" d="M423.785 635q-.525 3.255-1.05 6.405-.42 3.255-.84 6.405-.84 5.985-2.625 9.345-1.785 3.465-4.935 5.67-3.255 2.205-8.19 4.515a59 59 0 0 0-4.725 2.31q-2.31 1.26-3.99 3.36c-1.68 2.1-1.855 3.22-2.205 5.46l-.21 1.68q-.315 2.94.105 4.83.42 1.995 2.52 1.995 2.205 0 3.255-2.31 1.05-2.205 1.68-6.825l.63-3.99h14.49l-1.155 8.4q-1.155 7.56-6.3 11.235-5.145 3.78-14.28 3.78-7.035 0-10.815-1.785-3.78-1.68-4.935-5.565t-.315-10.29q.735-4.935 2.31-8.505 1.47-3.57 4.095-6.195 2.52-2.625 6.615-4.62 2.415-1.26 4.62-2.415 2.1-1.05 3.78-2.31 1.68-1.155 2.94-2.835.945-1.155 1.68-2.625.63-1.47 1.05-3.36h-22.47l1.68-11.76z"/><path fill="var(--card-black, #000)" d="m423.785 635 2.962.478.561-3.478h-3.523zm-1.05 6.405-2.959-.493-.009.054-.007.055zm-.84 6.405 2.971.417.001-.01.002-.011zm-2.625 9.345-2.649-1.407-.009.016-.009.017zm-4.935 5.67 1.683 2.484.019-.013.018-.013zm-8.19 4.515 1.196 2.751.038-.016.038-.018zm-8.715 5.67-2.343-1.874zm-2.205 5.46-2.964-.463-.007.045-.006.046zm-.21 1.68-2.977-.372-.003.026-.003.026zm.105 4.83 2.936-.618-.004-.016-.003-.017zm5.775-.315-2.709-1.29-.011.024-.011.025zm1.68-6.825-2.963-.468-.005.031-.004.032zm.63-3.99v-3h-2.563l-.4 2.532zm14.49 0 2.972.409.469-3.409h-3.441zm-1.155 8.4 2.966.453.003-.022.003-.022zm-6.3 11.235-1.744-2.441-.016.011-.016.012zm-25.095 1.995 1.281-2.713-.031-.014-.032-.014zm-4.935-5.565-2.876.855zm-.315-10.29-2.967-.442-.004.026-.004.026zm2.31-8.505 2.745 1.211.015-.034.014-.035zm4.095-6.195 2.121 2.121.022-.021.021-.022zm6.615-4.62 1.314 2.697.037-.018.037-.019zm4.62-2.415-1.342-2.683-.025.012-.025.014zm3.78-2.31-1.7-2.472-.051.035-.049.037zm2.94-2.835-2.322-1.9-.04.049-.038.051zm1.68-2.625 2.683 1.342.04-.079.034-.081zm1.05-3.36 2.929.651.811-3.651h-3.74zm-22.47 0-2.97-.424-.489 3.424h3.459zm1.68-11.76v-3h-2.602l-.368 2.576zm37.59 0-2.962-.478q-.523 3.247-1.047 6.39l2.959.493 2.959.493q.526-3.158 1.053-6.42zm-1.05 6.405-2.975-.384q-.42 3.249-.839 6.393l2.974.396 2.974.396q.42-3.156.841-6.417zm-.84 6.405-2.971-.417c-.536 3.823-1.345 6.551-2.303 8.355l2.649 1.407 2.649 1.407c1.422-2.676 2.363-6.178 2.947-10.335zm-2.625 9.345-2.667-1.374a12.45 12.45 0 0 1-3.988 4.586l1.72 2.458 1.72 2.458c2.505-1.753 4.472-4.018 5.882-6.754zm-4.935 5.67-1.683-2.484c-2 1.355-4.581 2.785-7.779 4.282l1.272 2.717 1.272 2.717c3.382-1.583 6.261-3.163 8.601-4.748zm-8.19 4.515-1.196-2.751a62 62 0 0 0-4.966 2.427l1.437 2.634 1.437 2.634a56 56 0 0 1 4.484-2.193zm-4.725 2.31-1.437-2.634a16.1 16.1 0 0 0-4.896 4.12l2.343 1.874 2.343 1.874a10.1 10.1 0 0 1 3.084-2.6zm-3.99 3.36-2.343-1.874c-1.522 1.903-2.416 4.249-2.826 6.871l2.964.463 2.964.463c.29-1.858.866-3.152 1.584-4.049zm-2.205 5.46-2.977-.372-.21 1.68 2.977.372 2.977.372.21-1.68zm-.21 1.68-2.983-.32c-.228 2.132-.218 4.101.159 5.801l2.929-.651 2.929-.651c-.183-.82-.243-2.071-.051-3.859zm.105 4.83-2.936.618c.245 1.162.81 2.357 1.914 3.23 1.093.866 2.375 1.147 3.542 1.147v-6c-.116 0-.137-.014-.091-.001a.9.9 0 0 1 .273.15.9.9 0 0 1 .229.26c.034.061.023.067.005-.022zm2.52 1.995v3c1.289 0 2.55-.348 3.652-1.131 1.078-.764 1.823-1.814 2.334-2.938l-2.731-1.241-2.731-1.241c-.189.416-.336.521-.344.527-.005.004-.006.005-.015.007a.6.6 0 0 1-.165.017zm3.255-2.31 2.709 1.29c.904-1.9 1.512-4.548 1.943-7.71l-2.972-.405-2.972-.405c-.409 2.998-.921 4.9-1.417 5.94zm1.68-6.825 2.963.468.63-3.99-2.963-.468-2.963-.468-.63 3.99zm.63-3.99v3h14.49v-6h-14.49zm14.49 0-2.972-.409-1.155 8.4 2.972.409 2.972.409 1.155-8.4zm-1.155 8.4-2.966-.453c-.675 4.419-2.441 7.364-5.078 9.247l1.744 2.441 1.744 2.441c4.223-3.017 6.657-7.562 7.522-13.223zm-6.3 11.235-1.776-2.418c-2.736 2.01-6.787 3.198-12.504 3.198v6c6.463 0 11.932-1.332 16.056-4.362zm-14.28 3.78v-3c-4.51 0-7.599-.584-9.534-1.498l-1.281 2.713-1.281 2.713c3.105 1.466 7.226 2.072 12.096 2.072zm-10.815-1.785 1.218-2.741c-1.737-.773-2.763-1.95-3.277-3.679l-2.876.855-2.876.855c1.026 3.451 3.29 5.984 6.593 7.451zm-4.935-5.565 2.876-.855c-.6-2.017-.751-4.972-.216-9.045l-2.975-.39-2.975-.39c-.585 4.467-.526 8.373.414 11.535zm-.315-10.29 2.967.442c.461-3.095 1.171-5.658 2.088-7.736l-2.745-1.211-2.745-1.211c-1.183 2.682-2.013 5.789-2.532 9.274zm2.31-8.505 2.774 1.142c.835-2.028 1.984-3.757 3.442-5.216l-2.121-2.121-2.121-2.121c-2.042 2.041-3.623 4.442-4.748 7.174zm4.095-6.195 2.164 2.078c1.383-1.44 3.276-2.788 5.765-4.001l-1.314-2.697-1.314-2.697c-2.971 1.447-5.488 3.179-7.465 5.239zm6.615-4.62 1.388 2.66q2.416-1.261 4.624-2.418l-1.392-2.657-1.392-2.657q-2.202 1.153-4.616 2.412zm4.62-2.415 1.342 2.683a27.7 27.7 0 0 0 4.238-2.593l-1.8-2.4-1.8-2.4c-.96.72-2.064 1.398-3.322 2.027zm3.78-2.31 1.7 2.472a15.5 15.5 0 0 0 3.64-3.507l-2.4-1.8-2.4-1.8a9.6 9.6 0 0 1-2.24 2.163zm2.94-2.835 2.322 1.9a17 17 0 0 0 2.041-3.183l-2.683-1.342-2.683-1.342a11 11 0 0 1-1.319 2.067zm1.68-2.625 2.757 1.182c.507-1.183.909-2.486 1.222-3.891l-2.929-.651-2.929-.651c-.247 1.115-.545 2.052-.878 2.829zm1.05-3.36v-3h-22.47v6h22.47zm-22.47 0 2.97.424 1.68-11.76-2.97-.424-2.97-.424-1.68 11.76zm1.68-11.76v3h37.59v-6h-37.59z" mask="url(#c)"/><mask id="d" width="52" height="69" x="60" y="63" fill="var(--card-black, #000)" maskUnits="userSpaceOnUse"><path fill="#fff" d="M60 63h52v69H60z"/><path d="M64.215 129q.525-3.255 1.05-6.405.42-3.255.84-6.405.84-5.985 2.625-9.345 1.785-3.465 4.935-5.67 3.255-2.205 8.19-4.515a59 59 0 0 0 4.725-2.31q2.31-1.26 3.99-3.36c1.68-2.1 1.855-3.22 2.205-5.46l.21-1.68q.315-2.94-.105-4.83-.42-1.995-2.52-1.995-2.205 0-3.255 2.31-1.05 2.205-1.68 6.825l-.63 3.99h-14.49l1.155-8.4q1.155-7.56 6.3-11.235 5.145-3.78 14.28-3.78 7.035 0 10.815 1.785 3.78 1.68 4.935 5.565t.315 10.29q-.735 4.935-2.31 8.505-1.47 3.57-4.095 6.195-2.52 2.625-6.615 4.62-2.415 1.26-4.62 2.415-2.1 1.05-3.78 2.31-1.68 1.155-2.94 2.835-.945 1.155-1.68 2.625-.63 1.47-1.05 3.36h22.47l-1.68 11.76z"/></mask><path fill="var(--card-black, #000)" d="M64.215 129q.525-3.255 1.05-6.405.42-3.255.84-6.405.84-5.985 2.625-9.345 1.785-3.465 4.935-5.67 3.255-2.205 8.19-4.515a59 59 0 0 0 4.725-2.31q2.31-1.26 3.99-3.36c1.68-2.1 1.855-3.22 2.205-5.46l.21-1.68q.315-2.94-.105-4.83-.42-1.995-2.52-1.995-2.205 0-3.255 2.31-1.05 2.205-1.68 6.825l-.63 3.99h-14.49l1.155-8.4q1.155-7.56 6.3-11.235 5.145-3.78 14.28-3.78 7.035 0 10.815 1.785 3.78 1.68 4.935 5.565t.315 10.29q-.735 4.935-2.31 8.505-1.47 3.57-4.095 6.195-2.52 2.625-6.615 4.62-2.415 1.26-4.62 2.415-2.1 1.05-3.78 2.31-1.68 1.155-2.94 2.835-.945 1.155-1.68 2.625-.63 1.47-1.05 3.36h22.47l-1.68 11.76z"/><path fill="var(--card-black, #000)" d="m64.215 129-2.962-.478-.56 3.478h3.522zm1.05-6.405 2.96.493.008-.054.007-.055zm.84-6.405-2.97-.417-.002.01-.002.011zm2.625-9.345 2.65 1.407.008-.016.009-.017zm4.935-5.67-1.682-2.484-.02.013-.018.013zm8.19-4.515-1.196-2.751-.038.016-.038.018zm8.715-5.67 2.343 1.874zm2.205-5.46 2.964.463.007-.045.006-.046zm.21-1.68 2.977.372.003-.026.003-.026zm-.105-4.83-2.936.618.004.016.003.017zm-5.775.315 2.709 1.29.011-.024.011-.025zm-1.68 6.825 2.963.468.005-.031.004-.032zm-.63 3.99v3h2.563l.4-2.532zm-14.49 0-2.972-.409-.469 3.409h3.441zm1.155-8.4-2.966-.453-.003.022-.003.022zm6.3-11.235 1.744 2.441.016-.012.016-.011zm25.095-1.995-1.281 2.713.031.014.032.014zm4.935 5.565 2.876-.855zm.315 10.29 2.967.442.004-.026.004-.026zm-2.31 8.505-2.745-1.21-.015.033-.014.035zm-4.095 6.195-2.121-2.121-.022.021-.021.022zm-6.615 4.62-1.314-2.697-.037.018-.037.019zm-4.62 2.415 1.342 2.683.025-.012.025-.014zm-3.78 2.31 1.7 2.472.05-.035.05-.037zm-2.94 2.835 2.322 1.9.04-.049.038-.051zm-1.68 2.625-2.683-1.342-.04.079-.034.081zm-1.05 3.36-2.929-.651-.81 3.651h3.739zm22.47 0 2.97.424.489-3.424h-3.459zm-1.68 11.76v3h2.602l.368-2.576zm-37.59 0 2.962.478q.523-3.248 1.047-6.39l-2.959-.493-2.96-.493q-.524 3.158-1.052 6.42zm1.05-6.405 2.975.384q.42-3.249.839-6.393l-2.974-.396-2.974-.396q-.42 3.156-.841 6.417zm.84-6.405 2.97.417c.537-3.823 1.346-6.551 2.304-8.355l-2.649-1.407-2.65-1.407c-1.421 2.676-2.362 6.178-2.946 10.335zm2.625-9.345 2.667 1.374c.97-1.884 2.293-3.399 3.988-4.586l-1.72-2.458-1.72-2.458c-2.505 1.753-4.472 4.018-5.882 6.754zm4.935-5.67 1.682 2.484c2.001-1.355 4.582-2.785 7.78-4.282l-1.272-2.717-1.272-2.717c-3.382 1.583-6.261 3.163-8.6 4.748zm8.19-4.515 1.196 2.751a62 62 0 0 0 4.966-2.427L86.58 94.35l-1.437-2.634a56 56 0 0 1-4.484 2.193zm4.725-2.31 1.437 2.634a16.1 16.1 0 0 0 4.896-4.12L90.57 90.99l-2.343-1.874a10.1 10.1 0 0 1-3.084 2.6zm3.99-3.36 2.343 1.874c1.522-1.903 2.416-4.249 2.826-6.87l-2.964-.464-2.964-.463c-.29 1.858-.866 3.151-1.584 4.049zm2.205-5.46 2.977.372.21-1.68-2.977-.372-2.977-.372-.21 1.68zm.21-1.68 2.983.32c.228-2.132.218-4.101-.16-5.8l-2.928.65-2.929.65c.183.821.243 2.072.051 3.86zm-.105-4.83 2.936-.618c-.245-1.162-.81-2.357-1.914-3.23-1.093-.866-2.375-1.147-3.542-1.147v6c.116 0 .137.014.091 0a.9.9 0 0 1-.273-.15.9.9 0 0 1-.229-.26c-.034-.06-.023-.066-.005.023zm-2.52-1.995v-3c-1.289 0-2.55.348-3.653 1.131-1.077.764-1.822 1.814-2.333 2.938l2.731 1.241 2.731 1.241c.19-.416.336-.521.344-.527.005-.004.006-.005.015-.007a.6.6 0 0 1 .165-.017zm-3.255 2.31-2.709-1.29c-.904 1.9-1.512 4.548-1.944 7.71l2.973.405 2.972.405c.41-2.998.921-4.9 1.417-5.94zm-1.68 6.825-2.963-.468-.63 3.99 2.963.468 2.963.468.63-3.99zm-.63 3.99v-3h-14.49v6h14.49zm-14.49 0 2.972.409 1.155-8.4-2.972-.409-2.972-.409-1.155 8.4zm1.155-8.4 2.966.453c.675-4.42 2.441-7.364 5.078-9.247l-1.744-2.441-1.744-2.441c-4.223 3.017-6.657 7.562-7.522 13.223zm6.3-11.235 1.776 2.418c2.736-2.01 6.787-3.198 12.504-3.198v-6c-6.463 0-11.932 1.332-16.056 4.362zm14.28-3.78v3c4.51 0 7.599.584 9.534 1.498l1.281-2.713 1.281-2.713c-3.105-1.466-7.226-2.072-12.096-2.072zm10.815 1.785-1.218 2.741c1.737.773 2.763 1.95 3.277 3.679l2.876-.855 2.876-.855c-1.026-3.45-3.29-5.984-6.593-7.451zm4.935 5.565-2.876.855c.6 2.017.751 4.972.216 9.045l2.975.39 2.975.39c.585-4.467.526-8.373-.414-11.535zm.315 10.29-2.967-.442c-.461 3.095-1.171 5.658-2.088 7.736l2.745 1.211 2.745 1.21c1.183-2.681 2.013-5.788 2.532-9.273zm-2.31 8.505-2.774-1.142c-.835 2.028-1.984 3.757-3.442 5.216l2.121 2.121 2.121 2.121c2.042-2.041 3.623-4.442 4.748-7.174zm-4.095 6.195-2.164-2.078c-1.383 1.44-3.276 2.788-5.765 4.001l1.314 2.697 1.314 2.697c2.97-1.447 5.488-3.179 7.465-5.239zm-6.615 4.62-1.388-2.66q-2.417 1.261-4.624 2.418l1.392 2.657 1.392 2.657q2.202-1.154 4.616-2.412zm-4.62 2.415-1.342-2.683a27.6 27.6 0 0 0-4.238 2.593l1.8 2.4 1.8 2.4c.96-.72 2.064-1.398 3.322-2.027zm-3.78 2.31-1.7-2.472a15.5 15.5 0 0 0-3.64 3.507l2.4 1.8 2.4 1.8a9.6 9.6 0 0 1 2.24-2.163zm-2.94 2.835-2.322-1.9a17 17 0 0 0-2.041 3.183l2.683 1.342 2.683 1.342c.4-.801.843-1.486 1.319-2.067zm-1.68 2.625-2.757-1.182c-.507 1.183-.91 2.486-1.222 3.891l2.929.651 2.929.651c.247-1.115.545-2.052.878-2.829zm-1.05 3.36v3h22.47v-6h-22.47zm22.47 0-2.97-.424-1.68 11.76 2.97.424 2.97.424 1.68-11.76zm-1.68 11.76v-3h-37.59v6h37.59z" mask="url(#d)"/><mask id="e" width="52" height="69" x="57" y="60" fill="var(--card-black, #000)" maskUnits="userSpaceOnUse"><path fill="#fff" d="M57 60h52v69H57z"/><path d="M61.215 126q.525-3.255 1.05-6.405.42-3.255.84-6.405.84-5.985 2.625-9.345 1.785-3.465 4.935-5.67 3.255-2.205 8.19-4.515a59 59 0 0 0 4.725-2.31q2.31-1.26 3.99-3.36c1.68-2.1 1.855-3.22 2.205-5.46l.21-1.68q.315-2.94-.105-4.83-.42-1.995-2.52-1.995-2.205 0-3.255 2.31-1.05 2.205-1.68 6.825l-.63 3.99h-14.49l1.155-8.4q1.155-7.56 6.3-11.235 5.145-3.78 14.28-3.78 7.035 0 10.815 1.785 3.78 1.68 4.935 5.565t.315 10.29q-.735 4.935-2.31 8.505-1.47 3.57-4.095 6.195-2.52 2.625-6.615 4.62-2.415 1.26-4.62 2.415-2.1 1.05-3.78 2.31-1.68 1.155-2.94 2.835-.945 1.155-1.68 2.625-.63 1.47-1.05 3.36h22.47L98.805 126z"/></mask><path fill="#fff" d="M61.215 126q.525-3.255 1.05-6.405.42-3.255.84-6.405.84-5.985 2.625-9.345 1.785-3.465 4.935-5.67 3.255-2.205 8.19-4.515a59 59 0 0 0 4.725-2.31q2.31-1.26 3.99-3.36c1.68-2.1 1.855-3.22 2.205-5.46l.21-1.68q.315-2.94-.105-4.83-.42-1.995-2.52-1.995-2.205 0-3.255 2.31-1.05 2.205-1.68 6.825l-.63 3.99h-14.49l1.155-8.4q1.155-7.56 6.3-11.235 5.145-3.78 14.28-3.78 7.035 0 10.815 1.785 3.78 1.68 4.935 5.565t.315 10.29q-.735 4.935-2.31 8.505-1.47 3.57-4.095 6.195-2.52 2.625-6.615 4.62-2.415 1.26-4.62 2.415-2.1 1.05-3.78 2.31-1.68 1.155-2.94 2.835-.945 1.155-1.68 2.625-.63 1.47-1.05 3.36h22.47L98.805 126z"/><path fill="var(--card-black, #000)" d="m61.215 126-2.962-.478-.56 3.478h3.522zm1.05-6.405 2.96.493.008-.054.007-.055zm.84-6.405-2.97-.417-.002.01-.002.011zm2.625-9.345 2.65 1.407.008-.016.009-.017zm4.935-5.67-1.682-2.484-.02.013-.018.013zm8.19-4.515-1.196-2.751-.038.016-.038.018zm8.715-5.67 2.343 1.874zm2.205-5.46 2.964.463.007-.045.006-.046zm.21-1.68 2.977.372.003-.026.003-.026zm-.105-4.83-2.936.618.004.016.003.017zm-5.775.315 2.709 1.29.011-.024.011-.025zm-1.68 6.825 2.963.468.005-.031.004-.032zm-.63 3.99v3h2.563l.4-2.532zm-14.49 0-2.972-.409-.469 3.409h3.441zm1.155-8.4-2.966-.453-.003.022-.003.022zm6.3-11.235 1.744 2.441.016-.012.016-.011zm25.095-1.995-1.281 2.713.031.014.032.014zm4.935 5.565 2.876-.855zm.315 10.29 2.967.442.004-.026.004-.026zm-2.31 8.505-2.745-1.21-.015.033-.014.035zM98.7 96.075l-2.121-2.121-.022.021-.021.022zm-6.615 4.62-1.314-2.697-.037.018-.037.02zm-4.62 2.415 1.342 2.683.025-.012.025-.014zm-3.78 2.31 1.7 2.472.05-.035.05-.037zm-2.94 2.835 2.322 1.9.04-.049.038-.051zm-1.68 2.625-2.683-1.342-.04.079-.034.081zm-1.05 3.36-2.929-.651-.81 3.651h3.739zm22.47 0 2.97.424.489-3.424h-3.459zM98.805 126v3h2.602l.368-2.576zm-37.59 0 2.962.478q.523-3.248 1.047-6.39l-2.959-.493-2.96-.493q-.525 3.158-1.052 6.42zm1.05-6.405 2.975.384q.42-3.249.839-6.393l-2.974-.396-2.974-.396q-.42 3.156-.841 6.417zm.84-6.405 2.97.417c.537-3.823 1.346-6.551 2.304-8.355l-2.649-1.407-2.65-1.407c-1.421 2.676-2.362 6.178-2.946 10.335zm2.625-9.345 2.667 1.374c.97-1.884 2.293-3.399 3.988-4.586l-1.72-2.458-1.72-2.458c-2.505 1.753-4.472 4.018-5.882 6.754zm4.935-5.67 1.683 2.484c2-1.355 4.582-2.785 7.779-4.282l-1.272-2.717-1.272-2.717c-3.382 1.583-6.261 3.163-8.6 4.748zm8.19-4.515 1.196 2.751a62 62 0 0 0 4.966-2.427L83.58 91.35l-1.437-2.634a56 56 0 0 1-4.484 2.193zm4.725-2.31 1.437 2.634a16.1 16.1 0 0 0 4.896-4.12L87.57 87.99l-2.343-1.874a10.1 10.1 0 0 1-3.084 2.6zm3.99-3.36 2.343 1.874c1.522-1.903 2.416-4.249 2.826-6.87l-2.964-.464-2.964-.463c-.29 1.858-.866 3.152-1.584 4.049zm2.205-5.46 2.977.372.21-1.68-2.977-.372-2.977-.372-.21 1.68zm.21-1.68 2.983.32c.228-2.132.218-4.101-.16-5.8l-2.928.65-2.929.65c.183.821.243 2.072.051 3.86zm-.105-4.83 2.936-.618c-.245-1.162-.81-2.357-1.914-3.23-1.093-.866-2.375-1.147-3.542-1.147v6c.116 0 .137.014.091 0a.9.9 0 0 1-.273-.15.9.9 0 0 1-.229-.26c-.034-.06-.023-.066-.005.023zm-2.52-1.995v-3c-1.289 0-2.55.348-3.653 1.131-1.077.764-1.822 1.814-2.333 2.938l2.731 1.241 2.731 1.241c.19-.416.336-.521.344-.527.005-.004.006-.005.015-.007a.6.6 0 0 1 .165-.017zm-3.255 2.31-2.709-1.29c-.904 1.9-1.512 4.548-1.944 7.71l2.973.405 2.972.405c.41-2.998.921-4.9 1.417-5.94zm-1.68 6.825-2.963-.468-.63 3.99 2.963.468 2.963.468.63-3.99zm-.63 3.99v-3h-14.49v6h14.49zm-14.49 0 2.972.409 1.155-8.4-2.972-.409-2.972-.409-1.155 8.4zm1.155-8.4 2.966.453c.675-4.42 2.441-7.364 5.078-9.247l-1.744-2.441-1.744-2.441c-4.223 3.017-6.657 7.562-7.522 13.223zm6.3-11.235 1.776 2.418c2.736-2.01 6.787-3.198 12.504-3.198v-6c-6.463 0-11.932 1.332-16.056 4.362zm14.28-3.78v3c4.51 0 7.599.584 9.534 1.498l1.281-2.713 1.281-2.713c-3.105-1.466-7.226-2.072-12.096-2.072zm10.815 1.785-1.218 2.741c1.737.773 2.763 1.95 3.277 3.679l2.876-.855 2.876-.855c-1.026-3.45-3.29-5.984-6.593-7.451zm4.935 5.565-2.876.855c.6 2.017.751 4.972.216 9.045l2.975.39 2.975.39c.585-4.467.526-8.373-.414-11.535zm.315 10.29-2.967-.442c-.461 3.095-1.171 5.658-2.088 7.736l2.745 1.211 2.745 1.21c1.183-2.681 2.013-5.788 2.532-9.273zm-2.31 8.505-2.774-1.142c-.835 2.028-1.984 3.757-3.442 5.216l2.121 2.121 2.121 2.121c2.042-2.041 3.623-4.442 4.748-7.174zM98.7 96.075l-2.164-2.078c-1.382 1.44-3.276 2.788-5.765 4.001l1.314 2.697 1.314 2.697c2.97-1.447 5.488-3.179 7.465-5.24zm-6.615 4.62-1.388-2.66q-2.416 1.26-4.624 2.418l1.392 2.657 1.392 2.657q2.203-1.154 4.616-2.412zm-4.62 2.415-1.342-2.683a27.6 27.6 0 0 0-4.238 2.593l1.8 2.4 1.8 2.4c.96-.72 2.064-1.398 3.322-2.027zm-3.78 2.31-1.7-2.472a15.5 15.5 0 0 0-3.64 3.507l2.4 1.8 2.4 1.8a9.6 9.6 0 0 1 2.24-2.163zm-2.94 2.835-2.322-1.9a17 17 0 0 0-2.041 3.183l2.683 1.342 2.683 1.342c.4-.801.843-1.486 1.319-2.067zm-1.68 2.625-2.757-1.182c-.507 1.183-.91 2.486-1.222 3.891l2.929.651 2.929.651c.247-1.115.545-2.052.878-2.829zm-1.05 3.36v3h22.47v-6h-22.47zm22.47 0-2.97-.424-1.68 11.76 2.97.424 2.97.424 1.68-11.76zM98.805 126v-3h-37.59v6h37.59z" mask="url(#e)"/></svg>