<svg xmlns="http://www.w3.org/2000/svg" width="486" height="759" viewBox="0 0 486 759" fill="none"><rect width="486" height="759" fill="#fff" rx="51"/><path fill="var(--card-color, #00f)" d="M452 698c0 14.359-11.641 26-26 26H60c-14.36 0-26-11.641-26-26V562.111c5.839 43.884 23.777 77.718 54.045 94.674 79.32 44.436 213.268-43.864 299.182-197.223 35.248-62.921 56.931-127.017 64.773-183.801zM426 34c14.359 0 26 11.64 26 26v128.134c-6.875-40.009-24.423-70.796-52.834-86.712-79.32-44.436-213.268 43.864-299.182 197.224C62.718 365.168 40.614 433.004 34 492.125V60c0-14.36 11.64-26 26-26z"/><path fill="var(--card-black, #000)" d="M238.625 530.85q-28.024 0-45.6-7.6-17.575-8.075-24.7-23.275-6.65-15.675-3.8-37.525l5.225-34.2h66.025L233.4 442.5q-2.85 20.9-.95 31.35t12.35 10.45q9.025 0 13.775-8.55t6.65-21.85l4.275-27.55q1.425-13.3-7.125-18.05t-27.55-5.225H214.4l5.225-35.15h20.9q8.55 0 15.2-1.425 7.125-1.9 12.35-5.225 6.65-3.325 9.025-8.075 2.85-4.75 3.325-10.45l3.325-20.425q1.425-12.35-.95-20.9-1.9-8.55-11.4-8.55-10.45 0-15.2 10.45-4.275 10.45-7.125 30.4l-.95 9.025H182.1l3.8-28.975q4.75-33.25 27.55-50.35 23.275-17.1 65.075-17.1 45.125 0 62.225 15.2 17.575 14.725 13.3 46.55l-3.325 24.7q-3.325 23.75-17.575 38.475c-14.25 14.725-22.325 15.2-38.475 16.15q22.8.95 33.25 15.2 10.925 13.775 7.6 38l-2.85 21.85q-3.325 24.7-14.25 39.9-10.45 14.725-29.925 21.85-19.474 6.65-49.875 6.65"/><mask id="a" width="194" height="284" x="151" y="240" fill="var(--card-black, #000)" maskUnits="userSpaceOnUse"><path fill="#fff" d="M151 240h194v284H151z"/><path d="M228.3 519.76q-27.14 0-44.16-7.36-17.02-7.82-23.92-22.54-6.44-15.18-3.68-36.34l5.06-33.12h63.94l-2.3 13.8q-2.76 20.24-.92 30.36t11.96 10.12q8.74 0 13.34-8.28c4.6-8.28 5.213-12.573 6.44-21.16l4.14-26.68q1.38-12.88-6.9-17.48t-26.68-5.06h-19.78l5.06-34.04h20.24q8.28 0 14.72-1.38 6.9-1.84 11.96-5.06 6.44-3.22 8.74-7.82 2.76-4.6 3.22-10.12l3.22-19.78q1.38-11.96-.92-20.24-1.84-8.28-11.04-8.28-10.12 0-14.72 10.12-4.14 10.12-6.9 29.44l-.92 8.74h-63.94l3.68-28.06q4.6-32.2 26.68-48.76 22.54-16.56 63.02-16.56 43.7 0 60.26 14.72 17.02 14.26 12.88 45.08l-3.22 23.92q-3.22 23-17.02 37.26t-37.26 15.64q22.08.92 32.2 14.72 10.58 13.34 7.36 36.8l-2.76 21.16q-3.22 23.92-13.8 38.64-10.12 14.26-28.98 21.16-18.86 6.44-48.3 6.44"/></mask><path fill="var(--card-color, #00f)" d="M228.3 519.76q-27.14 0-44.16-7.36-17.02-7.82-23.92-22.54-6.44-15.18-3.68-36.34l5.06-33.12h63.94l-2.3 13.8q-2.76 20.24-.92 30.36t11.96 10.12q8.74 0 13.34-8.28c4.6-8.28 5.213-12.573 6.44-21.16l4.14-26.68q1.38-12.88-6.9-17.48t-26.68-5.06h-19.78l5.06-34.04h20.24q8.28 0 14.72-1.38 6.9-1.84 11.96-5.06 6.44-3.22 8.74-7.82 2.76-4.6 3.22-10.12l3.22-19.78q1.38-11.96-.92-20.24-1.84-8.28-11.04-8.28-10.12 0-14.72 10.12-4.14 10.12-6.9 29.44l-.92 8.74h-63.94l3.68-28.06q4.6-32.2 26.68-48.76 22.54-16.56 63.02-16.56 43.7 0 60.26 14.72 17.02 14.26 12.88 45.08l-3.22 23.92q-3.22 23-17.02 37.26t-37.26 15.64q22.08.92 32.2 14.72 10.58 13.34 7.36 36.8l-2.76 21.16q-3.22 23.92-13.8 38.64-10.12 14.26-28.98 21.16-18.86 6.44-48.3 6.44"/><path fill="var(--card-black, #000)" d="m184.14 512.4-1.67 3.635.041.019.041.017zm-23.92-22.54-3.682 1.562.029.069.031.067zm-3.68-36.34-3.954-.604-.007.043-.005.044zm5.06-33.12v-4h-3.435l-.519 3.396zm63.94 0 3.946.658.776-4.658h-4.722zm-2.3 13.8-3.946-.658-.009.059-.008.059zm-.92 30.36-3.935.716zm31.74-19.32-3.953-.613-.003.023-.004.024zm4.14-26.68 3.953.613.014-.093.01-.094zm-6.9-17.48-1.943 3.497zm-26.68-5.06.1-3.999-.05-.001h-.05zm-19.78 0-3.957-.588-.682 4.588h4.639zm5.06-34.04v-4h-3.449l-.508 3.412zm34.96-1.38.838 3.911.097-.021.096-.025zm11.96-5.06-1.789-3.578-.184.093-.174.11zm8.74-7.82-3.43-2.058-.079.132-.069.137zm3.22-10.12-3.948-.643-.025.155-.013.156zm3.22-19.78 3.948.643.015-.092.011-.093zm-.92-20.24-3.905.868.023.102.028.101zm-25.76 1.84-3.641-1.655-.032.07-.029.07zm-6.9 29.44-3.96-.566-.01.074-.008.073zm-.92 8.74v4h3.601l.377-3.581zm-63.94 0-3.966-.52-.593 4.52h4.559zm3.68-28.06-3.96-.566-.003.023-.003.023zm26.68-48.76-2.368-3.224-.016.012-.016.012zm123.28-1.84-2.657 2.99.043.038.045.038zm12.88 45.08 3.964.534v-.001zm-3.22 23.92 3.961.555.002-.011.001-.01zm-17.02 37.26 2.874 2.782zm-37.26 15.64-.235-3.993.068 7.99zm32.2 14.72-3.226 2.365.045.061.047.06zm7.36 36.8-3.963-.544-.002.013-.001.014zm-2.76 21.16 3.964.534.001-.009.001-.008zm-13.8 38.64-3.248-2.335-.007.01-.007.01zm-28.98 21.16 1.293 3.785.041-.014.04-.015zm-48.3 6.44v-4c-17.779 0-31.903-2.418-42.572-7.031l-1.588 3.671-1.588 3.671c12.025 5.2 27.34 7.689 45.748 7.689zm-44.16-7.36 1.67-3.635c-10.626-4.882-17.83-11.774-21.968-20.603l-3.622 1.698-3.622 1.698c5.062 10.797 13.804 18.932 25.872 24.477zm-23.92-22.54 3.682-1.562c-3.945-9.299-5.17-20.657-3.396-34.261l-3.966-.517-3.966-.517c-1.906 14.609-.678 27.478 3.964 38.419zm-3.68-36.34 3.954.604 5.06-33.12-3.954-.604-3.954-.604-5.06 33.12zm5.06-33.12v4h63.94v-8H161.6zm63.94 0-3.946-.658-2.3 13.8 3.946.658 3.946.658 2.3-13.8zm-2.3 13.8-3.963-.54c-1.853 13.584-2.237 24.222-.892 31.616l3.935-.716 3.935-.716c-1.109-6.099-.879-15.701.948-29.104zm-.92 30.36-3.935.716c.726 3.997 2.364 7.476 5.261 9.928 2.905 2.457 6.596 3.476 10.634 3.476v-8c-2.709 0-4.384-.668-5.466-1.584-1.09-.922-2.059-2.502-2.559-5.252zm11.96 10.12v4c7.423 0 13.137-3.678 16.837-10.337l-3.497-1.943-3.497-1.943c-2.433 4.381-5.612 6.223-9.843 6.223zm13.34-8.28 3.497 1.943c3.374-6.074 5.631-13.636 6.903-22.537l-3.96-.566-3.96-.566c-1.181 8.272-3.218 14.817-5.977 19.783zm6.44-21.16 3.953.613 4.14-26.68-3.953-.613-3.953-.613-4.14 26.68zm4.14-26.68 3.977.426c1.016-9.483-1.482-17.262-8.934-21.403l-1.943 3.497-1.943 3.497c3.588 1.993 5.69 5.866 4.866 13.557zm-6.9-17.48 1.943-3.497c-6.402-3.556-16.111-5.251-28.523-5.562l-.1 3.999-.1 3.999c12.121.303 20.199 1.981 24.837 4.558zm-26.68-5.06v-4h-19.78v8h19.78zm-19.78 0 3.957.588 5.06-34.04-3.957-.588-3.957-.588-5.06 34.04zm5.06-34.04v4h20.24v-8H209.9zm20.24 0v4c5.733 0 10.93-.477 15.558-1.469l-.838-3.911-.838-3.911c-3.958.848-8.575 1.291-13.882 1.291zm14.72-1.38 1.031 3.865c4.922-1.313 9.3-3.147 13.077-5.55l-2.148-3.375-2.147-3.375c-2.97 1.89-6.566 3.429-10.844 4.57zm11.96-5.06 1.789 3.578c4.765-2.383 8.48-5.513 10.529-9.609l-3.578-1.789-3.578-1.789c-1.018 2.037-3.129 4.121-6.951 6.031zm8.74-7.82 3.43 2.058c2.165-3.609 3.42-7.576 3.776-11.846l-3.986-.332-3.986-.332c-.258 3.09-1.149 5.87-2.664 8.394zm3.22-10.12 3.948.643 3.22-19.78-3.948-.643-3.948-.643-3.22 19.78zm3.22-19.78 3.974.458c.957-8.295.675-15.595-1.04-21.769l-3.854 1.071-3.854 1.071c1.352 4.866 1.683 11.059.8 18.71zm-.92-20.24 3.905-.868c-.771-3.47-2.417-6.466-5.185-8.542-2.731-2.048-6.114-2.87-9.76-2.87v8c2.488 0 4.011.558 4.96 1.27.912.684 1.72 1.828 2.175 3.878zm-11.04-8.28v-4c-4.071 0-7.8 1.029-11.006 3.234-3.183 2.188-5.594 5.356-7.355 9.231l3.641 1.655 3.641 1.655c1.306-2.872 2.881-4.764 4.605-5.949 1.7-1.169 3.798-1.826 6.474-1.826zm-14.72 10.12-3.702-1.515c-2.946 7.201-5.302 17.395-7.158 30.389l3.96.566 3.96.566c1.824-12.766 4.068-22.198 6.642-28.491zm-6.9 29.44-3.978-.419-.92 8.74 3.978.419 3.978.419.92-8.74zm-.92 8.74v-4h-63.94v8h63.94zm-63.94 0 3.966.52 3.68-28.06-3.966-.52-3.966-.52-3.68 28.06zm3.68-28.06 3.96.566c2.945-20.619 11.399-35.835 25.12-46.126l-2.4-3.2-2.4-3.2c-15.719 11.789-25.052 29.079-28.24 51.394zm26.68-48.76 2.368 3.224c14.095-10.355 34.151-15.784 60.652-15.784v-8c-27.472 0-49.429 5.611-65.388 17.336zm63.02-16.56v4c28.973 0 47.735 4.939 57.603 13.71l2.657-2.99 2.657-2.99c-12.212-10.855-33.623-15.73-62.917-15.73zm60.26 14.72-2.569 3.066c9.904 8.298 14.142 21.696 11.485 41.481l3.964.533 3.964.533c2.863-21.308-1.485-37.963-14.275-48.679zm12.88 45.08-3.964-.534-3.22 23.92 3.964.534 3.964.534 3.22-23.92zm-3.22 23.92-3.961-.555c-2.05 14.643-7.418 26.234-15.933 35.033l2.874 2.782 2.874 2.782c9.885-10.215 15.864-23.463 18.107-39.487zm-17.02 37.26-2.874-2.782c-8.378 8.657-19.786 13.556-34.621 14.429l.235 3.993.235 3.993c16.445-.967 29.877-6.495 39.899-16.851zm-37.26 15.64-.167 3.997c13.89.578 23.314 5.141 29.141 13.088l3.226-2.365 3.226-2.365c-7.666-10.453-19.709-15.704-35.259-16.352zm32.2 14.72-3.134 2.486c6.145 7.748 8.589 18.778 6.531 33.77l3.963.544 3.963.544c2.235-16.288-.228-29.791-8.189-39.83zm7.36 36.8-3.966-.517-2.76 21.16 3.966.517 3.966.517 2.76-21.16zm-2.76 21.16-3.964-.534c-2.087 15.504-6.519 27.706-13.084 36.839l3.248 2.335 3.248 2.335c7.542-10.493 12.31-24.052 14.516-40.441zm-13.8 38.64-3.262-2.315c-6.211 8.752-15.163 15.354-27.092 19.719l1.374 3.756 1.374 3.756c13.218-4.835 23.586-12.339 30.868-22.601zm-28.98 21.16-1.293-3.785c-12.009 4.1-27.631 6.225-47.007 6.225v8c19.877 0 36.455-2.169 49.593-6.655z" mask="url(#a)"/><mask id="b" width="49" height="70" x="380" y="633" fill="var(--card-black, #000)" maskUnits="userSpaceOnUse"><path fill="#fff" d="M380 633h49v70h-49z"/><path d="M408.725 636.37q6.195 0 10.08 1.68 3.885 1.785 5.46 5.145 1.47 3.465.84 8.295l-1.155 7.56h-14.595l.525-3.15q.63-4.62.21-6.93c-.42-2.31-1.19-2.31-2.73-2.31q-1.995 0-3.045 1.89t-1.47 4.83l-.945 6.09q-.315 2.94 1.575 3.99t6.09 1.155h4.515l-1.155 7.77h-4.62q-1.89 0-3.36.315-1.575.42-2.73 1.155-1.47.735-1.995 1.785a5.3 5.3 0 0 0-.735 2.31l-.735 4.515q-.315 2.73.21 4.62.42 1.89 2.52 1.89 2.31 0 3.36-2.31.945-2.31 1.575-6.72l.21-1.995h14.595l-.84 6.405q-1.05 7.35-6.09 11.13-5.145 3.78-14.385 3.78-9.975 0-13.755-3.36-3.885-3.255-2.94-10.29l.735-5.46q.735-5.25 3.885-8.505t8.505-3.57q-5.04-.21-7.35-3.36-2.415-3.045-1.68-8.4l.63-4.83q.735-5.46 3.15-8.82 2.31-3.255 6.615-4.83 4.305-1.47 11.025-1.47"/></mask><path fill="var(--card-black, #000)" d="M408.725 636.37q6.195 0 10.08 1.68 3.885 1.785 5.46 5.145 1.47 3.465.84 8.295l-1.155 7.56h-14.595l.525-3.15q.63-4.62.21-6.93c-.42-2.31-1.19-2.31-2.73-2.31q-1.995 0-3.045 1.89t-1.47 4.83l-.945 6.09q-.315 2.94 1.575 3.99t6.09 1.155h4.515l-1.155 7.77h-4.62q-1.89 0-3.36.315-1.575.42-2.73 1.155-1.47.735-1.995 1.785a5.3 5.3 0 0 0-.735 2.31l-.735 4.515q-.315 2.73.21 4.62.42 1.89 2.52 1.89 2.31 0 3.36-2.31.945-2.31 1.575-6.72l.21-1.995h14.595l-.84 6.405q-1.05 7.35-6.09 11.13-5.145 3.78-14.385 3.78-9.975 0-13.755-3.36-3.885-3.255-2.94-10.29l.735-5.46q.735-5.25 3.885-8.505t8.505-3.57q-5.04-.21-7.35-3.36-2.415-3.045-1.68-8.4l.63-4.83q.735-5.46 3.15-8.82 2.31-3.255 6.615-4.83 4.305-1.47 11.025-1.47"/><path fill="var(--card-black, #000)" d="m418.805 638.05 1.253-2.726-.031-.014-.031-.014zm5.46 5.145 2.762-1.172-.022-.051-.024-.05zm.84 8.295 2.966.453.005-.032.004-.033zm-1.155 7.56v3h2.576l.39-2.547zm-14.595 0-2.959-.493-.582 3.493h3.541zm.525-3.15 2.959.493.007-.044.006-.044zm.21-6.93 2.952-.537zm-7.245 4.41 2.965.46.002-.018.003-.018zm-.945 6.09-2.965-.46-.01.07-.008.07zm1.575 3.99 1.457-2.622zm6.09 1.155-.075 2.999.038.001h.037zm4.515 0 2.967.441.512-3.441h-3.479zm-1.155 7.77v3h2.587l.38-2.559zm-7.98.315-.629-2.933-.072.015-.072.019zm-2.73 1.155 1.342 2.683.138-.069.131-.083zm-1.995 1.785 2.572 1.543.06-.098.051-.103zm-.735 2.31 2.961.482.019-.116.01-.117zm-.735 4.515-2.961-.482-.011.069-.008.069zm.21 4.62 2.929-.651-.017-.076-.021-.076zm5.88-.42 2.731 1.241.024-.052.022-.053zm1.575-6.72 2.97.424.008-.055.006-.055zm.21-1.995v-3h-2.701l-.283 2.686zm14.595 0 2.975.39.444-3.39h-3.419zm-.84 6.405 2.97.424.002-.017.003-.017zm-6.09 11.13 1.776 2.418.012-.009.012-.009zm-28.14.42 1.993-2.242-.033-.029-.033-.029zm-2.94-10.29-2.973-.4v.001zm.735-5.46-2.971-.416-.001.008-.001.008zm3.885-8.505-2.156-2.086zm8.505-3.57.176 2.995-.051-5.992zm-7.35-3.36 2.419-1.774-.033-.046-.036-.044zm-1.68-8.4 2.972.408.001-.01.002-.01zm.63-4.83-2.973-.4-.002.012zm3.15-8.82 2.436 1.751.005-.007.006-.008zm6.615-4.83-.969-2.839-.031.01-.031.012zm11.025-1.47v3c3.894 0 6.807.533 8.889 1.434l1.191-2.754 1.191-2.754c-3.098-1.339-6.905-1.926-11.271-1.926zm10.08 1.68-1.253 2.726c2.05.942 3.293 2.191 3.997 3.692l2.716-1.273 2.716-1.273c-1.396-2.979-3.793-5.16-6.923-6.598zm5.46 5.145-2.762 1.172c.719 1.694.998 3.892.627 6.735l2.975.388 2.975.388c.469-3.597.188-6.929-1.053-9.855zm.84 8.295-2.966-.453-1.155 7.56 2.966.453 2.966.453 1.155-7.56zm-1.155 7.56v-3h-14.595v6h14.595zm-14.595 0 2.959.493.525-3.15-2.959-.493-2.959-.493-.525 3.15zm.525-3.15 2.972.405c.43-3.148.558-5.846.19-7.872l-2.952.537-2.952.537c.192 1.054.18 2.976-.23 5.988zm.21-6.93 2.952-.537c-.225-1.238-.774-2.527-1.907-3.486-1.138-.963-2.507-1.287-3.775-1.287v6c.139 0 .173.018.137.006a.7.7 0 0 1-.237-.138.7.7 0 0 1-.165-.195c-.011-.022.016.023.043.174zm-2.73-2.31v-3c-2.527 0-4.493 1.319-5.667 3.433l2.622 1.457 2.622 1.457c.078-.139.142-.222.184-.268.039-.044.061-.057.062-.058l.017-.006a.7.7 0 0 1 .16-.015zm-3.045 1.89-2.622-1.457c-.931 1.675-1.504 3.666-1.818 5.863l2.97.424 2.97.424c.246-1.723.653-2.952 1.122-3.797zm-1.47 4.83-2.965-.46-.945 6.09 2.965.46 2.965.46.945-6.09zm-.945 6.09-2.983-.32c-.282 2.632.392 5.427 3.101 6.932l1.457-2.622 1.457-2.622c-.035-.02-.029-.023-.011-.002s.017.029.006 0c-.03-.076-.116-.376-.044-1.046zm1.575 3.99-1.457 2.622c1.921 1.068 4.563 1.459 7.472 1.532l.075-2.999.075-2.999c-2.691-.067-4.109-.446-4.708-.778zm6.09 1.155v3h4.515v-6h-4.515zm4.515 0-2.967-.441-1.155 7.77 2.967.441 2.967.441 1.155-7.77zm-1.155 7.77v-3h-4.62v6h4.62zm-4.62 0v-3c-1.42 0-2.757.118-3.989.382l.629 2.933.629 2.933c.728-.156 1.631-.248 2.731-.248zm-3.36.315-.773-2.899c-1.292.345-2.495.84-3.568 1.523l1.611 2.531 1.611 2.531c.467-.297 1.084-.572 1.892-.787zm-2.73 1.155-1.342-2.683c-1.334.667-2.6 1.654-3.336 3.126l2.683 1.342 2.683 1.342c-.036.072.028-.131.654-.444zm-1.995 1.785-2.572-1.543a8.3 8.3 0 0 0-1.153 3.604l2.99.249 2.99.249c.033-.398.142-.722.317-1.016zm-.735 2.31-2.961-.482-.735 4.515 2.961.482 2.961.482.735-4.515zm-.735 4.515-2.98-.344c-.238 2.062-.187 4.017.299 5.767l2.891-.803 2.891-.803c-.214-.77-.303-1.895-.121-3.473zm.21 4.62-2.929.651c.259 1.162.853 2.33 1.969 3.167 1.088.816 2.346 1.072 3.48 1.072v-6c-.266 0-.128-.059.12.128a1 1 0 0 1 .256.279c.047.08.046.111.033.052zm2.52 1.89v3c1.293 0 2.57-.332 3.695-1.105 1.107-.762 1.875-1.818 2.396-2.964l-2.731-1.241-2.731-1.241c-.179.394-.321.493-.334.501a.2.2 0 0 1-.053.024 1 1 0 0 1-.242.026zm3.36-2.31 2.777 1.136c.769-1.88 1.336-4.406 1.768-7.432l-2.97-.424-2.97-.424c-.408 2.854-.891 4.808-1.382 6.008zm1.575-6.72 2.984.314.21-1.995-2.984-.314-2.984-.314-.21 1.995zm.21-1.995v3h14.595v-6h-14.595zm14.595 0-2.975-.39-.84 6.405 2.975.39 2.975.39.84-6.405zm-.84 6.405-2.97-.424c-.609 4.263-2.309 7.196-4.92 9.154l1.8 2.4 1.8 2.4c4.109-3.082 6.469-7.569 7.26-13.106zm-6.09 11.13-1.776-2.418c-2.731 2.007-6.813 3.198-12.609 3.198v6c6.524 0 12.032-1.329 16.161-4.362zm-14.385 3.78v-3c-6.529 0-10.122-1.144-11.762-2.602l-1.993 2.242-1.993 2.242c3.399 3.022 8.977 4.118 15.748 4.118zm-13.755-3.36 1.927-2.3c-1.508-1.263-2.447-3.472-1.894-7.591l-2.973-.399-2.973-.399c-.707 5.261.314 9.912 3.986 12.989zm-2.94-10.29 2.973.4.735-5.46-2.973-.4-2.973-.4-.735 5.46zm.735-5.46 2.971.416c.417-2.982 1.483-5.195 3.07-6.835l-2.156-2.086-2.156-2.086c-2.613 2.7-4.137 6.157-4.7 10.175zm3.885-8.505 2.156 2.086c1.483-1.532 3.559-2.487 6.525-2.661l-.176-2.995-.176-2.995c-4.174.246-7.768 1.672-10.485 4.479zm8.505-3.57.125-2.997c-2.737-.114-4.205-.977-5.056-2.137l-2.419 1.774-2.419 1.774c2.229 3.04 5.661 4.417 9.644 4.583zm-7.35-3.36 2.35-1.864c-.928-1.171-1.481-3.044-1.058-6.128l-2.972-.408-2.972-.408c-.557 4.056.01 7.783 2.302 10.672zm-1.68-8.4 2.975.388.63-4.83-2.975-.388-2.975-.388-.63 4.83zm.63-4.83 2.973.4c.445-3.308 1.369-5.739 2.613-7.469l-2.436-1.751-2.436-1.751c-1.976 2.75-3.152 6.199-3.687 10.171zm3.15-8.82 2.447 1.736c1.138-1.603 2.812-2.875 5.199-3.749l-1.031-2.817-1.031-2.817c-3.353 1.226-6.089 3.174-8.031 5.911zm6.615-4.83.969 2.839c2.447-.836 5.764-1.309 10.056-1.309v-6c-4.668 0-8.701.507-11.994 1.631z" mask="url(#b)"/><mask id="c" width="49" height="70" x="377" y="630" fill="var(--card-black, #000)" maskUnits="userSpaceOnUse"><path fill="#fff" d="M377 630h49v70h-49z"/><path d="M405.725 633.37q6.195 0 10.08 1.68 3.885 1.785 5.46 5.145 1.47 3.465.84 8.295l-1.155 7.56h-14.595l.525-3.15q.63-4.62.21-6.93c-.42-2.31-1.19-2.31-2.73-2.31q-1.995 0-3.045 1.89t-1.47 4.83l-.945 6.09q-.315 2.94 1.575 3.99t6.09 1.155h4.515l-1.155 7.77h-4.62q-1.89 0-3.36.315-1.575.42-2.73 1.155-1.47.735-1.995 1.785a5.3 5.3 0 0 0-.735 2.31l-.735 4.515q-.315 2.73.21 4.62.42 1.89 2.52 1.89 2.31 0 3.36-2.31.945-2.31 1.575-6.72l.21-1.995h14.595l-.84 6.405q-1.05 7.35-6.09 11.13-5.145 3.78-14.385 3.78-9.975 0-13.755-3.36-3.885-3.255-2.94-10.29l.735-5.46q.735-5.25 3.885-8.505t8.505-3.57q-5.04-.21-7.35-3.36-2.415-3.045-1.68-8.4l.63-4.83q.735-5.46 3.15-8.82 2.31-3.255 6.615-4.83 4.305-1.47 11.025-1.47"/></mask><path fill="#fff" d="M405.725 633.37q6.195 0 10.08 1.68 3.885 1.785 5.46 5.145 1.47 3.465.84 8.295l-1.155 7.56h-14.595l.525-3.15q.63-4.62.21-6.93c-.42-2.31-1.19-2.31-2.73-2.31q-1.995 0-3.045 1.89t-1.47 4.83l-.945 6.09q-.315 2.94 1.575 3.99t6.09 1.155h4.515l-1.155 7.77h-4.62q-1.89 0-3.36.315-1.575.42-2.73 1.155-1.47.735-1.995 1.785a5.3 5.3 0 0 0-.735 2.31l-.735 4.515q-.315 2.73.21 4.62.42 1.89 2.52 1.89 2.31 0 3.36-2.31.945-2.31 1.575-6.72l.21-1.995h14.595l-.84 6.405q-1.05 7.35-6.09 11.13-5.145 3.78-14.385 3.78-9.975 0-13.755-3.36-3.885-3.255-2.94-10.29l.735-5.46q.735-5.25 3.885-8.505t8.505-3.57q-5.04-.21-7.35-3.36-2.415-3.045-1.68-8.4l.63-4.83q.735-5.46 3.15-8.82 2.31-3.255 6.615-4.83 4.305-1.47 11.025-1.47"/><path fill="var(--card-black, #000)" d="m415.805 635.05 1.253-2.726-.031-.014-.031-.014zm5.46 5.145 2.762-1.172-.022-.051-.024-.05zm.84 8.295 2.966.453.005-.032.004-.033zm-1.155 7.56v3h2.576l.39-2.547zm-14.595 0-2.959-.493-.582 3.493h3.541zm.525-3.15 2.959.493.007-.044.006-.044zm.21-6.93 2.952-.537zm-7.245 4.41 2.965.46.002-.018.003-.018zm-.945 6.09-2.965-.46-.01.07-.008.07zm1.575 3.99 1.457-2.622zm6.09 1.155-.075 2.999.038.001h.037zm4.515 0 2.967.441.512-3.441h-3.479zm-1.155 7.77v3h2.587l.38-2.559zm-7.98.315-.629-2.933-.072.015-.072.019zm-2.73 1.155 1.342 2.683.138-.069.131-.083zm-1.995 1.785 2.572 1.543.06-.098.051-.103zm-.735 2.31 2.961.482.019-.116.01-.117zm-.735 4.515-2.961-.482-.011.069-.008.069zm.21 4.62 2.929-.651-.017-.076-.021-.076zm5.88-.42 2.731 1.241.024-.052.022-.053zm1.575-6.72 2.97.424.008-.055.006-.055zm.21-1.995v-3h-2.701l-.283 2.686zm14.595 0 2.975.39.444-3.39h-3.419zm-.84 6.405 2.97.424.002-.017.003-.017zm-6.09 11.13 1.776 2.418.012-.009.012-.009zm-28.14.42 1.993-2.242-.033-.029-.033-.029zm-2.94-10.29-2.973-.4v.001zm.735-5.46-2.971-.416-.001.008-.001.008zm3.885-8.505-2.156-2.086zm8.505-3.57.176 2.995-.051-5.992zm-7.35-3.36 2.419-1.774-.033-.046-.036-.044zm-1.68-8.4 2.972.408.001-.01.002-.01zm.63-4.83-2.973-.4-.002.012zm3.15-8.82 2.436 1.751.005-.007.006-.008zm6.615-4.83-.969-2.839-.031.01-.031.012zm11.025-1.47v3c3.894 0 6.807.533 8.889 1.434l1.191-2.754 1.191-2.754c-3.098-1.339-6.905-1.926-11.271-1.926zm10.08 1.68-1.253 2.726c2.05.942 3.293 2.191 3.997 3.692l2.716-1.273 2.716-1.273c-1.396-2.979-3.793-5.16-6.923-6.598zm5.46 5.145-2.762 1.172c.719 1.694.998 3.892.627 6.735l2.975.388 2.975.388c.469-3.597.188-6.929-1.053-9.855zm.84 8.295-2.966-.453-1.155 7.56 2.966.453 2.966.453 1.155-7.56zm-1.155 7.56v-3h-14.595v6h14.595zm-14.595 0 2.959.493.525-3.15-2.959-.493-2.959-.493-.525 3.15zm.525-3.15 2.972.405c.43-3.148.558-5.846.19-7.872l-2.952.537-2.952.537c.192 1.054.18 2.976-.23 5.988zm.21-6.93 2.952-.537c-.225-1.238-.774-2.527-1.907-3.486-1.138-.963-2.507-1.287-3.775-1.287v6c.139 0 .173.018.137.006a.7.7 0 0 1-.237-.138.7.7 0 0 1-.165-.195c-.011-.022.016.023.043.174zm-2.73-2.31v-3c-2.527 0-4.493 1.319-5.667 3.433l2.622 1.457 2.622 1.457c.078-.139.142-.222.184-.268.039-.044.061-.057.062-.058l.017-.006a.7.7 0 0 1 .16-.015zm-3.045 1.89-2.622-1.457c-.931 1.675-1.504 3.666-1.818 5.863l2.97.424 2.97.424c.246-1.723.653-2.952 1.122-3.797zm-1.47 4.83-2.965-.46-.945 6.09 2.965.46 2.965.46.945-6.09zm-.945 6.09-2.983-.32c-.282 2.632.392 5.427 3.101 6.932l1.457-2.622 1.457-2.622c-.035-.02-.029-.023-.011-.002s.017.029.006 0c-.03-.076-.116-.376-.044-1.046zm1.575 3.99-1.457 2.622c1.921 1.068 4.563 1.459 7.472 1.532l.075-2.999.075-2.999c-2.691-.067-4.109-.446-4.708-.778zm6.09 1.155v3h4.515v-6h-4.515zm4.515 0-2.967-.441-1.155 7.77 2.967.441 2.967.441 1.155-7.77zm-1.155 7.77v-3h-4.62v6h4.62zm-4.62 0v-3c-1.42 0-2.757.118-3.989.382l.629 2.933.629 2.933c.728-.156 1.631-.248 2.731-.248zm-3.36.315-.773-2.899c-1.292.345-2.495.84-3.568 1.523l1.611 2.531 1.611 2.531c.467-.297 1.084-.572 1.892-.787zm-2.73 1.155-1.342-2.683c-1.334.667-2.6 1.654-3.336 3.126l2.683 1.342 2.683 1.342c-.036.072.028-.131.654-.444zm-1.995 1.785-2.572-1.543a8.3 8.3 0 0 0-1.153 3.604l2.99.249 2.99.249c.033-.398.142-.722.317-1.016zm-.735 2.31-2.961-.482-.735 4.515 2.961.482 2.961.482.735-4.515zm-.735 4.515-2.98-.344c-.238 2.062-.187 4.017.299 5.767l2.891-.803 2.891-.803c-.214-.77-.303-1.895-.121-3.473zm.21 4.62-2.929.651c.259 1.162.853 2.33 1.969 3.167 1.088.816 2.346 1.072 3.48 1.072v-6c-.266 0-.128-.059.12.128a1 1 0 0 1 .256.279c.047.08.046.111.033.052zm2.52 1.89v3c1.293 0 2.57-.332 3.695-1.105 1.107-.762 1.875-1.818 2.396-2.964l-2.731-1.241-2.731-1.241c-.179.394-.321.493-.334.501a.2.2 0 0 1-.053.024 1 1 0 0 1-.242.026zm3.36-2.31 2.777 1.136c.769-1.88 1.336-4.406 1.768-7.432l-2.97-.424-2.97-.424c-.408 2.854-.891 4.808-1.382 6.008zm1.575-6.72 2.984.314.21-1.995-2.984-.314-2.984-.314-.21 1.995zm.21-1.995v3h14.595v-6h-14.595zm14.595 0-2.975-.39-.84 6.405 2.975.39 2.975.39.84-6.405zm-.84 6.405-2.97-.424c-.609 4.263-2.309 7.196-4.92 9.154l1.8 2.4 1.8 2.4c4.109-3.082 6.469-7.569 7.26-13.106zm-6.09 11.13-1.776-2.418c-2.731 2.007-6.813 3.198-12.609 3.198v6c6.524 0 12.032-1.329 16.161-4.362zm-14.385 3.78v-3c-6.529 0-10.122-1.144-11.762-2.602l-1.993 2.242-1.993 2.242c3.399 3.022 8.977 4.118 15.748 4.118zm-13.755-3.36 1.927-2.3c-1.508-1.263-2.447-3.472-1.894-7.591l-2.973-.399-2.973-.399c-.707 5.261.314 9.912 3.986 12.989zm-2.94-10.29 2.973.4.735-5.46-2.973-.4-2.973-.4-.735 5.46zm.735-5.46 2.971.416c.417-2.982 1.483-5.195 3.07-6.835l-2.156-2.086-2.156-2.086c-2.613 2.7-4.137 6.157-4.7 10.175zm3.885-8.505 2.156 2.086c1.483-1.532 3.559-2.487 6.525-2.661l-.176-2.995-.176-2.995c-4.174.246-7.768 1.672-10.485 4.479zm8.505-3.57.125-2.997c-2.737-.114-4.205-.977-5.056-2.137l-2.419 1.774-2.419 1.774c2.229 3.04 5.661 4.417 9.644 4.583zm-7.35-3.36 2.35-1.864c-.928-1.171-1.481-3.044-1.058-6.128l-2.972-.408-2.972-.408c-.557 4.056.01 7.783 2.302 10.672zm-1.68-8.4 2.975.388.63-4.83-2.975-.388-2.975-.388-.63 4.83zm.63-4.83 2.973.4c.445-3.308 1.369-5.739 2.613-7.469l-2.436-1.751-2.436-1.751c-1.976 2.75-3.152 6.199-3.687 10.171zm3.15-8.82 2.447 1.736c1.138-1.603 2.812-2.875 5.199-3.749l-1.031-2.817-1.031-2.817c-3.353 1.226-6.089 3.174-8.031 5.911zm6.615-4.83.969 2.839c2.447-.836 5.764-1.309 10.056-1.309v-6c-4.668 0-8.701.507-11.994 1.631z" mask="url(#c)"/><mask id="d" width="49" height="70" x="63" y="61" fill="var(--card-black, #000)" maskUnits="userSpaceOnUse"><path fill="#fff" d="M63 61h49v70H63z"/><path d="M83.275 127.63q-6.195 0-10.08-1.68-3.885-1.785-5.46-5.145-1.47-3.465-.84-8.295l1.155-7.56h14.595l-.525 3.15q-.63 4.62-.21 6.93c.42 2.31 1.19 2.31 2.73 2.31q1.995 0 3.045-1.89t1.47-4.83l.945-6.09q.315-2.94-1.575-3.99t-6.09-1.155H77.92l1.155-7.77h4.62q1.89 0 3.36-.315 1.575-.42 2.73-1.155 1.47-.735 1.995-1.785.63-1.05.735-2.31l.735-4.515q.315-2.73-.21-4.62-.42-1.89-2.52-1.89-2.31 0-3.36 2.31-.945 2.31-1.575 6.72l-.21 1.995H70.78l.84-6.405q1.05-7.35 6.09-11.13 5.145-3.78 14.385-3.78 9.975 0 13.755 3.36 3.885 3.255 2.94 10.29l-.735 5.46q-.735 5.25-3.885 8.505t-8.505 3.57q5.04.21 7.35 3.36 2.415 3.045 1.68 8.4l-.63 4.83q-.735 5.46-3.15 8.82-2.31 3.255-6.615 4.83-4.305 1.47-11.025 1.47"/></mask><path fill="var(--card-black, #000)" d="M83.275 127.63q-6.195 0-10.08-1.68-3.885-1.785-5.46-5.145-1.47-3.465-.84-8.295l1.155-7.56h14.595l-.525 3.15q-.63 4.62-.21 6.93c.42 2.31 1.19 2.31 2.73 2.31q1.995 0 3.045-1.89t1.47-4.83l.945-6.09q.315-2.94-1.575-3.99t-6.09-1.155H77.92l1.155-7.77h4.62q1.89 0 3.36-.315 1.575-.42 2.73-1.155 1.47-.735 1.995-1.785.63-1.05.735-2.31l.735-4.515q.315-2.73-.21-4.62-.42-1.89-2.52-1.89-2.31 0-3.36 2.31-.945 2.31-1.575 6.72l-.21 1.995H70.78l.84-6.405q1.05-7.35 6.09-11.13 5.145-3.78 14.385-3.78 9.975 0 13.755 3.36 3.885 3.255 2.94 10.29l-.735 5.46q-.735 5.25-3.885 8.505t-8.505 3.57q5.04.21 7.35 3.36 2.415 3.045 1.68 8.4l-.63 4.83q-.735 5.46-3.15 8.82-2.31 3.255-6.615 4.83-4.305 1.47-11.025 1.47"/><path fill="var(--card-black, #000)" d="m73.195 125.95-1.252 2.726.03.014.031.014zm-5.46-5.145-2.762 1.172.022.051.024.05zm-.84-8.295-2.966-.453-.005.032-.004.033zm1.155-7.56v-3h-2.576l-.39 2.547zm14.595 0 2.96.493.581-3.493h-3.541zm-.525 3.15-2.96-.493-.007.044-.006.044zm-.21 6.93-2.952.537zm7.245-4.41-2.964-.46-.003.018-.003.018zm.945-6.09 2.965.46.01-.07.008-.07zm-1.575-3.99-1.457 2.622zm-6.09-1.155.075-3h-.075zm-4.515 0-2.967-.441-.512 3.441h3.479zm1.155-7.77v-3h-2.587l-.38 2.559zm7.98-.315.629 2.933.072-.015.072-.02zm2.73-1.155-1.342-2.683-.138.069-.13.083zm1.995-1.785-2.572-1.543-.06.098-.051.103zm.735-2.31-2.961-.482-.019.116-.01.117zm.735-4.515 2.961.482.011-.069.008-.07zm-.21-4.62-2.929.65.017.077.021.076zm-5.88.42-2.731-1.241-.024.052-.022.053zm-1.575 6.72-2.97-.424-.008.055-.006.055zm-.21 1.995v3h2.7l.284-2.686zm-14.595 0-2.974-.39-.445 3.39h3.419zm.84-6.405-2.97-.424-.002.017-.002.017zm6.09-11.13-1.776-2.418-.012.01-.012.008zm28.14-.42-1.993 2.242.033.03.033.028zm2.94 10.29 2.973.4zm-.735 5.46 2.971.416.001-.008.001-.008zm-3.885 8.505 2.156 2.086zm-8.505 3.57-.176-2.995.051 5.992zm7.35 3.36-2.419 1.774.033.046.036.044zm1.68 8.4-2.972-.408-.001.01-.002.01zm-.63 4.83 2.973.4.002-.012zm-3.15 8.82-2.436-1.751-.005.007-.005.008zm-6.615 4.83.97 2.839.03-.01.03-.012zm-11.025 1.47v-3c-3.894 0-6.807-.533-8.89-1.434l-1.19 2.754-1.19 2.754c3.097 1.339 6.904 1.926 11.27 1.926zm-10.08-1.68 1.253-2.726c-2.05-.942-3.293-2.191-3.997-3.692l-2.716 1.273-2.716 1.273c1.396 2.979 3.793 5.16 6.924 6.598zm-5.46-5.145 2.762-1.172c-.719-1.694-.998-3.892-.627-6.735l-2.975-.388-2.975-.388c-.469 3.597-.188 6.929 1.053 9.855zm-.84-8.295 2.966.453 1.155-7.56-2.966-.453-2.966-.453-1.155 7.56zm1.155-7.56v3h14.595v-6H68.05zm14.595 0-2.96-.493-.524 3.15 2.959.493 2.96.493.524-3.15zm-.525 3.15-2.972-.405c-.43 3.148-.558 5.846-.19 7.872l2.952-.537 2.952-.537c-.192-1.054-.18-2.976.23-5.988zm-.21 6.93-2.952.537c.226 1.238.774 2.527 1.907 3.486 1.138.963 2.507 1.287 3.775 1.287v-6c-.139 0-.173-.018-.137-.006a.7.7 0 0 1 .237.138c.1.084.15.165.165.195.012.022-.016-.023-.043-.174zm2.73 2.31v3c2.527 0 4.493-1.319 5.668-3.433l-2.623-1.457-2.622-1.457a1.5 1.5 0 0 1-.184.268c-.04.044-.061.057-.062.058l-.017.006a.7.7 0 0 1-.16.015zm3.045-1.89 2.623 1.457c.93-1.675 1.503-3.666 1.817-5.863l-2.97-.424-2.97-.424c-.246 1.723-.653 2.952-1.122 3.797zm1.47-4.83 2.965.46.945-6.09-2.965-.46-2.964-.46-.945 6.09zm.945-6.09 2.983.32c.282-2.632-.392-5.427-3.101-6.932l-1.457 2.622-1.457 2.622c.035.02.03.023.011.002-.018-.021-.017-.029-.006 0 .03.076.116.376.044 1.046zm-1.575-3.99 1.457-2.622c-1.921-1.068-4.563-1.46-7.472-1.532l-.075 2.999-.075 2.999c2.69.067 4.11.446 4.708.778zm-6.09-1.155v-3H77.92v6h4.515zm-4.515 0 2.967.441 1.155-7.77-2.967-.441-2.967-.441-1.155 7.77zm1.155-7.77v3h4.62v-6h-4.62zm4.62 0v3c1.42 0 2.757-.118 3.989-.382l-.629-2.933-.629-2.933c-.728.156-1.631.248-2.731.248zm3.36-.315.773 2.899c1.292-.345 2.495-.84 3.568-1.523l-1.611-2.531-1.61-2.531c-.468.297-1.085.572-1.893.787zm2.73-1.155 1.342 2.683c1.334-.667 2.6-1.654 3.336-3.126L91.78 88.36l-2.683-1.342c.036-.072-.028.13-.654.444zm1.995-1.785 2.573 1.544a8.3 8.3 0 0 0 1.152-3.605l-2.99-.249-2.99-.25a2.3 2.3 0 0 1-.318 1.017zm.735-2.31 2.961.482.735-4.515-2.961-.482-2.961-.482-.735 4.515zm.735-4.515 2.98.344c.238-2.062.187-4.017-.3-5.767l-2.89.803-2.89.803c.213.77.302 1.895.12 3.473zm-.21-4.62 2.929-.65c-.259-1.163-.853-2.33-1.969-3.167-1.088-.817-2.346-1.073-3.48-1.073v6c.266 0 .128.059-.12-.128a1 1 0 0 1-.256-.28c-.047-.079-.045-.11-.033-.051zm-2.52-1.89v-3c-1.293 0-2.57.332-3.695 1.105-1.107.762-1.875 1.818-2.396 2.964l2.731 1.241 2.731 1.241c.18-.394.32-.493.334-.501a.2.2 0 0 1 .053-.024 1 1 0 0 1 .242-.026zm-3.36 2.31-2.777-1.136c-.769 1.88-1.336 4.406-1.768 7.432l2.97.424 2.97.424c.408-2.854.89-4.808 1.382-6.008zm-1.575 6.72-2.983-.314-.21 1.995 2.983.314 2.984.314.21-1.995zm-.21 1.995v-3H70.78v6h14.595zm-14.595 0 2.975.39.84-6.405-2.975-.39-2.974-.39-.84 6.405zm.84-6.405 2.97.424c.609-4.263 2.31-7.196 4.92-9.154l-1.8-2.4-1.8-2.4c-4.11 3.082-6.469 7.57-7.26 13.106zm6.09-11.13 1.776 2.418c2.73-2.007 6.813-3.198 12.609-3.198v-6c-6.524 0-12.032 1.329-16.161 4.362zm14.385-3.78v3c6.53 0 10.122 1.144 11.762 2.602l1.993-2.242 1.993-2.242c-3.399-3.022-8.977-4.118-15.748-4.118zm13.755 3.36-1.927 2.3c1.508 1.263 2.447 3.472 1.894 7.59l2.973.4 2.973.4c.707-5.262-.314-9.913-3.986-12.99zm2.94 10.29-2.973-.4-.735 5.46 2.973.4 2.973.4.735-5.46zm-.735 5.46-2.971-.416c-.417 2.982-1.483 5.195-3.07 6.835l2.156 2.086 2.156 2.086c2.613-2.7 4.137-6.157 4.7-10.175zm-3.885 8.505-2.156-2.086c-1.483 1.533-3.559 2.487-6.525 2.661l.176 2.995.176 2.995c4.174-.246 7.768-1.671 10.485-4.479zm-8.505 3.57-.125 2.997c2.737.114 4.205.977 5.056 2.137l2.419-1.774 2.419-1.774c-2.229-3.04-5.661-4.417-9.644-4.583zm7.35 3.36-2.35 1.864c.928 1.171 1.481 3.044 1.058 6.128l2.972.408 2.972.408c.557-4.056-.01-7.783-2.302-10.672zm1.68 8.4-2.975-.388-.63 4.83 2.975.388 2.975.388.63-4.83zm-.63 4.83-2.973-.4c-.445 3.308-1.37 5.739-2.613 7.469l2.436 1.751 2.436 1.751c1.976-2.75 3.152-6.199 3.687-10.171zm-3.15 8.82-2.446-1.736c-1.139 1.603-2.813 2.875-5.2 3.749l1.031 2.817 1.03 2.817c3.354-1.226 6.09-3.174 8.032-5.911zm-6.615 4.83-.97-2.839c-2.446.836-5.763 1.309-10.055 1.309v6c4.668 0 8.702-.507 11.994-1.631z" mask="url(#d)"/><mask id="e" width="49" height="70" x="60" y="58" fill="var(--card-black, #000)" maskUnits="userSpaceOnUse"><path fill="#fff" d="M60 58h49v70H60z"/><path d="M80.275 124.63q-6.195 0-10.08-1.68-3.885-1.785-5.46-5.145-1.47-3.465-.84-8.295l1.155-7.56h14.595l-.525 3.15q-.63 4.62-.21 6.93c.42 2.31 1.19 2.31 2.73 2.31q1.995 0 3.045-1.89t1.47-4.83l.945-6.09q.315-2.94-1.575-3.99t-6.09-1.155H74.92l1.155-7.77h4.62q1.89 0 3.36-.315 1.575-.42 2.73-1.155 1.47-.735 1.995-1.785.63-1.05.735-2.31l.735-4.515q.315-2.73-.21-4.62-.42-1.89-2.52-1.89-2.31 0-3.36 2.31-.945 2.31-1.575 6.72l-.21 1.995H67.78l.84-6.405q1.05-7.35 6.09-11.13 5.145-3.78 14.385-3.78 9.975 0 13.755 3.36 3.885 3.255 2.94 10.29l-.735 5.46q-.735 5.25-3.885 8.505t-8.505 3.57q5.04.21 7.35 3.36 2.415 3.045 1.68 8.4l-.63 4.83q-.735 5.46-3.15 8.82-2.31 3.255-6.615 4.83-4.305 1.47-11.025 1.47"/></mask><path fill="#fff" d="M80.275 124.63q-6.195 0-10.08-1.68-3.885-1.785-5.46-5.145-1.47-3.465-.84-8.295l1.155-7.56h14.595l-.525 3.15q-.63 4.62-.21 6.93c.42 2.31 1.19 2.31 2.73 2.31q1.995 0 3.045-1.89t1.47-4.83l.945-6.09q.315-2.94-1.575-3.99t-6.09-1.155H74.92l1.155-7.77h4.62q1.89 0 3.36-.315 1.575-.42 2.73-1.155 1.47-.735 1.995-1.785.63-1.05.735-2.31l.735-4.515q.315-2.73-.21-4.62-.42-1.89-2.52-1.89-2.31 0-3.36 2.31-.945 2.31-1.575 6.72l-.21 1.995H67.78l.84-6.405q1.05-7.35 6.09-11.13 5.145-3.78 14.385-3.78 9.975 0 13.755 3.36 3.885 3.255 2.94 10.29l-.735 5.46q-.735 5.25-3.885 8.505t-8.505 3.57q5.04.21 7.35 3.36 2.415 3.045 1.68 8.4l-.63 4.83q-.735 5.46-3.15 8.82-2.31 3.255-6.615 4.83-4.305 1.47-11.025 1.47"/><path fill="var(--card-black, #000)" d="m70.195 122.95-1.252 2.726.03.014.031.014zm-5.46-5.145-2.762 1.172.022.051.024.05zm-.84-8.295-2.966-.453-.005.032-.004.033zm1.155-7.56v-3h-2.576l-.39 2.547zm14.595 0 2.96.493.581-3.493h-3.541zm-.525 3.15-2.96-.493-.007.044-.006.044zm-.21 6.93-2.952.537zm7.245-4.41-2.964-.46-.003.018-.003.018zm.945-6.09 2.965.46.01-.07.008-.07zm-1.575-3.99-1.457 2.622zm-6.09-1.155.075-3h-.075zm-4.515 0-2.967-.441-.512 3.441h3.479zm1.155-7.77v-3h-2.587l-.38 2.559zm7.98-.315.629 2.933.072-.015.072-.02zm2.73-1.155-1.342-2.683-.138.069-.13.083zm1.995-1.785-2.572-1.543-.06.098-.051.103zm.735-2.31-2.961-.482-.019.116-.01.117zm.735-4.515 2.961.482.011-.069.008-.07zm-.21-4.62-2.929.65.017.077.021.076zm-5.88.42-2.731-1.241-.024.052-.022.053zm-1.575 6.72-2.97-.424-.008.055-.006.055zm-.21 1.995v3h2.7l.284-2.686zm-14.595 0-2.974-.39-.445 3.39h3.419zm.84-6.405-2.97-.424-.002.017-.002.017zm6.09-11.13-1.776-2.418-.012.01-.012.008zm28.14-.42-1.993 2.242.033.03.033.028zm2.94 10.29 2.973.4zm-.735 5.46 2.971.416.001-.008.001-.008zm-3.885 8.505 2.156 2.086zm-8.505 3.57-.176-2.995.051 5.992zm7.35 3.36-2.42 1.774.034.046.036.044zm1.68 8.4-2.972-.408-.001.01-.002.01zm-.63 4.83 2.973.4.002-.012zm-3.15 8.82-2.436-1.751-.005.007-.005.008zm-6.615 4.83.97 2.839.03-.01.03-.012zm-11.025 1.47v-3c-3.894 0-6.807-.533-8.89-1.434l-1.19 2.754-1.19 2.754c3.097 1.339 6.904 1.926 11.27 1.926zm-10.08-1.68 1.253-2.726c-2.05-.942-3.293-2.191-3.997-3.692l-2.716 1.273-2.716 1.273c1.396 2.979 3.793 5.16 6.924 6.598zm-5.46-5.145 2.762-1.172c-.719-1.694-.998-3.892-.627-6.735l-2.975-.388-2.975-.388c-.469 3.597-.188 6.929 1.053 9.855zm-.84-8.295 2.966.453 1.155-7.56-2.966-.453-2.966-.453-1.155 7.56zm1.155-7.56v3h14.595v-6H65.05zm14.595 0-2.96-.493-.524 3.15 2.959.493 2.96.493.524-3.15zm-.525 3.15-2.972-.405c-.43 3.148-.558 5.846-.19 7.872l2.952-.537 2.952-.537c-.192-1.054-.18-2.976.23-5.988zm-.21 6.93-2.952.537c.226 1.238.774 2.527 1.907 3.486 1.138.963 2.507 1.287 3.775 1.287v-6c-.139 0-.173-.018-.137-.006a.7.7 0 0 1 .237.138c.1.084.15.165.165.195.012.022-.016-.023-.043-.174zm2.73 2.31v3c2.527 0 4.493-1.319 5.668-3.433l-2.623-1.457-2.622-1.457a1.5 1.5 0 0 1-.184.268c-.04.044-.061.057-.062.058l-.017.006a.7.7 0 0 1-.16.015zm3.045-1.89 2.623 1.457c.93-1.675 1.503-3.666 1.817-5.863l-2.97-.424-2.97-.424c-.246 1.723-.653 2.952-1.122 3.797zm1.47-4.83 2.965.46.945-6.09-2.965-.46-2.964-.46-.945 6.09zm.945-6.09 2.983.32c.282-2.632-.392-5.427-3.101-6.932l-1.457 2.622-1.457 2.622c.035.02.03.023.011.002-.018-.021-.017-.029-.006 0 .03.076.116.376.044 1.046zm-1.575-3.99 1.457-2.622c-1.921-1.068-4.563-1.46-7.472-1.532l-.075 2.999-.075 3c2.69.066 4.11.445 4.708.777zm-6.09-1.155v-3H74.92v6h4.515zm-4.515 0 2.967.441 1.155-7.77-2.967-.441-2.967-.441-1.155 7.77zm1.155-7.77v3h4.62v-6h-4.62zm4.62 0v3c1.42 0 2.757-.118 3.989-.382l-.629-2.933-.629-2.933c-.728.156-1.631.248-2.731.248zm3.36-.315.773 2.899c1.292-.345 2.495-.84 3.568-1.523l-1.611-2.531-1.61-2.531c-.468.297-1.085.572-1.893.787zm2.73-1.155 1.342 2.683c1.334-.667 2.6-1.654 3.336-3.126L88.78 85.36l-2.683-1.342c.036-.072-.028.13-.654.444zm1.995-1.785 2.573 1.544a8.3 8.3 0 0 0 1.152-3.605l-2.99-.249-2.99-.25a2.3 2.3 0 0 1-.318 1.017zm.735-2.31 2.961.482.735-4.515-2.961-.482-2.961-.482-.735 4.515zm.735-4.515 2.98.344c.238-2.062.187-4.017-.3-5.767l-2.89.803-2.89.803c.213.77.302 1.895.12 3.473zm-.21-4.62 2.929-.65c-.259-1.163-.853-2.33-1.969-3.167-1.088-.817-2.346-1.073-3.48-1.073v6c.266 0 .128.059-.12-.128a1 1 0 0 1-.256-.28c-.047-.079-.045-.11-.033-.051zm-2.52-1.89v-3c-1.293 0-2.57.332-3.695 1.105-1.107.762-1.875 1.818-2.396 2.964l2.731 1.241 2.731 1.241c.18-.394.32-.493.334-.501a.2.2 0 0 1 .053-.024 1 1 0 0 1 .242-.026zm-3.36 2.31-2.777-1.136c-.769 1.88-1.336 4.406-1.768 7.432l2.97.424 2.97.424c.408-2.854.89-4.808 1.382-6.008zm-1.575 6.72-2.983-.314-.21 1.995 2.983.314 2.984.314.21-1.995zm-.21 1.995v-3H67.78v6h14.595zm-14.595 0 2.975.39.84-6.405-2.975-.39-2.974-.39-.84 6.405zm.84-6.405 2.97.424c.609-4.263 2.31-7.196 4.92-9.154l-1.8-2.4-1.8-2.4c-4.11 3.082-6.469 7.57-7.26 13.106zm6.09-11.13 1.776 2.418c2.73-2.007 6.813-3.198 12.609-3.198v-6c-6.524 0-12.032 1.329-16.161 4.362zm14.385-3.78v3c6.53 0 10.122 1.144 11.762 2.602l1.993-2.242 1.993-2.242c-3.399-3.022-8.977-4.118-15.748-4.118zm13.755 3.36-1.927 2.3c1.508 1.263 2.447 3.472 1.894 7.59l2.973.4 2.973.4c.707-5.262-.314-9.913-3.986-12.99zm2.94 10.29-2.973-.4-.735 5.46 2.973.4 2.973.4.735-5.46zm-.735 5.46-2.971-.416c-.417 2.982-1.483 5.195-3.07 6.835l2.156 2.086 2.156 2.086c2.613-2.7 4.137-6.157 4.7-10.175zm-3.885 8.505-2.156-2.086c-1.483 1.533-3.559 2.487-6.525 2.661l.176 2.995.176 2.995c4.174-.246 7.768-1.671 10.485-4.479zm-8.505 3.57-.125 2.997c2.737.114 4.205.977 5.056 2.137l2.419-1.774 2.419-1.774c-2.229-3.04-5.661-4.417-9.644-4.583zm7.35 3.36-2.35 1.864c.928 1.171 1.481 3.044 1.058 6.128l2.972.408 2.972.408c.557-4.056-.01-7.783-2.302-10.672zm1.68 8.4-2.975-.388-.63 4.83 2.975.388 2.975.388.63-4.83zm-.63 4.83-2.973-.4c-.445 3.308-1.37 5.739-2.613 7.469l2.436 1.751 2.436 1.751c1.976-2.75 3.152-6.199 3.687-10.171zm-3.15 8.82-2.446-1.736c-1.139 1.603-2.813 2.875-5.2 3.749l1.031 2.817 1.03 2.817c3.354-1.226 6.09-3.174 8.032-5.911zm-6.615 4.83-.97-2.839c-2.446.836-5.763 1.309-10.055 1.309v6c4.668 0 8.702-.507 11.994-1.631z" mask="url(#e)"/></svg>