<svg xmlns="http://www.w3.org/2000/svg" width="486" height="759" viewBox="0 0 486 759" fill="none"><rect width="486" height="759" fill="#fff" rx="51"/><path fill="var(--card-color, #00f)" d="M452 698c0 14.359-11.641 26-26 26H60c-14.36 0-26-11.641-26-26V562.111c5.839 43.884 23.777 77.718 54.045 94.674 79.32 44.436 213.268-43.864 299.182-197.223 35.248-62.921 56.931-127.017 64.773-183.801zM426 34c14.359 0 26 11.64 26 26v128.134c-6.875-40.009-24.423-70.796-52.834-86.712-79.32-44.436-213.268 43.864-299.182 197.224C62.718 365.168 40.614 433.004 34 492.125V60c0-14.36 11.64-26 26-26z"/><path fill="var(--card-black, #000)" d="m238.625 528 7.6-54.15h-87.4l7.125-52.725L279 247.275h65.075l-25.65 182.875H347.4l-6.175 43.7h-29.45l-7.6 54.15zM216.3 430.15h36.1l10.45-74.1z"/><mask id="a" width="193" height="280" x="146" y="241" fill="var(--card-black, #000)" maskUnits="userSpaceOnUse"><path fill="#fff" d="M146 241h193v280H146z"/><path d="m228.3 517 7.36-52.44h-84.64l6.9-51.06L267.4 245.14h63.02l-24.84 177.1h28.06l-5.98 42.32h-28.52L291.78 517zm-21.62-94.76h34.96l10.12-71.76z"/></mask><path fill="var(--card-color, #00f)" d="m228.3 517 7.36-52.44h-84.64l6.9-51.06L267.4 245.14h63.02l-24.84 177.1h28.06l-5.98 42.32h-28.52L291.78 517zm-21.62-94.76h34.96l10.12-71.76z"/><path fill="var(--card-black, #000)" d="m228.3 517-3.961-.556-.64 4.556h4.601zm7.36-52.44 3.961.556.64-4.556h-4.601zm-84.64 0-3.964-.536-.613 4.536h4.577zm6.9-51.06-3.353-2.181-.491.754-.12.891zM267.4 245.14v-4h-2.17l-1.183 1.819zm63.02 0 3.961.556.639-4.556h-4.6zm-24.84 177.1-3.961-.556-.639 4.556h4.6zm28.06 0 3.961.56.644-4.56h-4.605zm-5.98 42.32v4h3.475l.486-3.44zm-28.52 0v-4h-3.478l-.483 3.444zM291.78 517v4h3.478l.483-3.444zm-85.1-94.76-3.387-2.128-3.85 6.128h7.237zm34.96 0v4h3.475l.486-3.441zm10.12-71.76 3.961.559-7.348-2.687zM228.3 517l3.961.556 7.36-52.44-3.961-.556-3.961-.556-7.36 52.44zm7.36-52.44v-4h-84.64v8h84.64zm-84.64 0 3.964.536 6.9-51.06-3.964-.536-3.964-.536-6.9 51.06zm6.9-51.06 3.353 2.181 109.48-168.36-3.353-2.181-3.353-2.181-109.48 168.36zM267.4 245.14v4h63.02v-8H267.4zm63.02 0-3.961-.556-24.84 177.1 3.961.556 3.961.556 24.84-177.1zm-24.84 177.1v4h28.06v-8h-28.06zm28.06 0-3.961-.56-5.98 42.32 3.961.56 3.961.56 5.98-42.32zm-5.98 42.32v-4h-28.52v8h28.52zm-28.52 0-3.961-.556-7.36 52.44 3.961.556 3.961.556 7.36-52.44zM291.78 517v-4H228.3v8h63.48zm-85.1-94.76v4h34.96v-8h-34.96zm34.96 0 3.961.559 10.12-71.76-3.961-.559-3.961-.559-10.12 71.76zm10.12-71.76-3.387-2.128-45.08 71.76 3.387 2.128 3.387 2.128 45.08-71.76z" mask="url(#a)"/><mask id="b" width="49" height="69" x="381" y="636" fill="var(--card-black, #000)" maskUnits="userSpaceOnUse"><path fill="#fff" d="M381 636h49v69h-49z"/><path d="m408.725 639-1.68 11.97h19.32l-1.575 11.655-24.99 38.43h-14.385l5.67-40.425h-6.405l1.365-9.66h6.51l1.68-11.97zm4.935 21.63h-7.98l-2.31 16.38z"/></mask><path fill="var(--card-black, #000)" d="m408.725 639-1.68 11.97h19.32l-1.575 11.655-24.99 38.43h-14.385l5.67-40.425h-6.405l1.365-9.66h6.51l1.68-11.97zm4.935 21.63h-7.98l-2.31 16.38z"/><path fill="var(--card-black, #000)" d="m408.725 639 2.971.417.479-3.417h-3.45zm-1.68 11.97-2.971-.417-.479 3.417h3.45zm19.32 0 2.973.402.46-3.402h-3.433zm-1.575 11.655 2.515 1.635.368-.565.09-.668zm-24.99 38.43v3h1.628l.887-1.365zm-14.385 0-2.971-.417-.479 3.417h3.45zm5.67-40.425 2.971.417.479-3.417h-3.45zm-6.405 0-2.97-.42-.484 3.42h3.454zm1.365-9.66v-3h-2.606l-.364 2.58zm6.51 0v3h2.608l.363-2.583zm1.68-11.97v-3h-2.608l-.363 2.583zm19.425 21.63 2.54 1.596 2.887-4.596h-5.427zm-7.98 0v-3h-2.607l-.364 2.581zm-2.31 16.38-2.971-.419 5.511 2.015zm5.355-38.01-2.971-.417-1.68 11.97 2.971.417 2.971.417 1.68-11.97zm-1.68 11.97v3h19.32v-6h-19.32zm19.32 0-2.973-.402-1.575 11.655 2.973.402 2.973.402 1.575-11.655zm-1.575 11.655-2.515-1.635-24.99 38.43 2.515 1.635 2.515 1.635 24.99-38.43zm-24.99 38.43v-3h-14.385v6H399.8zm-14.385 0 2.971.417 5.67-40.425-2.971-.417-2.971-.417-5.67 40.425zm5.67-40.425v-3h-6.405v6h6.405zm-6.405 0 2.97.42 1.365-9.66-2.97-.42-2.97-.42-1.365 9.66zm1.365-9.66v3h6.51v-6h-6.51zm6.51 0 2.971.417 1.68-11.97-2.971-.417-2.971-.417-1.68 11.97zm1.68-11.97v3h14.49v-6h-14.49zm19.425 21.63v-3h-7.98v6h7.98zm-7.98 0-2.971-.419-2.31 16.38 2.971.419 2.971.419 2.31-16.38zm-2.31 16.38 2.54 1.596 10.29-16.38-2.54-1.596-2.54-1.596-10.29 16.38z" mask="url(#b)"/><mask id="c" width="49" height="69" x="378" y="633" fill="var(--card-black, #000)" maskUnits="userSpaceOnUse"><path fill="#fff" d="M378 633h49v69h-49z"/><path d="m405.725 636-1.68 11.97h19.32l-1.575 11.655-24.99 38.43h-14.385l5.67-40.425h-6.405l1.365-9.66h6.51l1.68-11.97zm4.935 21.63h-7.98l-2.31 16.38z"/></mask><path fill="#fff" d="m405.725 636-1.68 11.97h19.32l-1.575 11.655-24.99 38.43h-14.385l5.67-40.425h-6.405l1.365-9.66h6.51l1.68-11.97zm4.935 21.63h-7.98l-2.31 16.38z"/><path fill="var(--card-black, #000)" d="m405.725 636 2.971.417.479-3.417h-3.45zm-1.68 11.97-2.971-.417-.479 3.417h3.45zm19.32 0 2.973.402.46-3.402h-3.433zm-1.575 11.655 2.515 1.635.368-.565.09-.668zm-24.99 38.43v3h1.628l.887-1.365zm-14.385 0-2.971-.417-.479 3.417h3.45zm5.67-40.425 2.971.417.479-3.417h-3.45zm-6.405 0-2.97-.42-.484 3.42h3.454zm1.365-9.66v-3h-2.606l-.364 2.58zm6.51 0v3h2.608l.363-2.583zm1.68-11.97v-3h-2.608l-.363 2.583zm19.425 21.63 2.54 1.596 2.887-4.596h-5.427zm-7.98 0v-3h-2.607l-.364 2.581zm-2.31 16.38-2.971-.419 5.511 2.015zm5.355-38.01-2.971-.417-1.68 11.97 2.971.417 2.971.417 1.68-11.97zm-1.68 11.97v3h19.32v-6h-19.32zm19.32 0-2.973-.402-1.575 11.655 2.973.402 2.973.402 1.575-11.655zm-1.575 11.655-2.515-1.635-24.99 38.43 2.515 1.635 2.515 1.635 24.99-38.43zm-24.99 38.43v-3h-14.385v6H396.8zm-14.385 0 2.971.417 5.67-40.425-2.971-.417-2.971-.417-5.67 40.425zm5.67-40.425v-3h-6.405v6h6.405zm-6.405 0 2.97.42 1.365-9.66-2.97-.42-2.97-.42-1.365 9.66zm1.365-9.66v3h6.51v-6h-6.51zm6.51 0 2.971.417 1.68-11.97-2.971-.417-2.971-.417-1.68 11.97zm1.68-11.97v3h14.49v-6h-14.49zm19.425 21.63v-3h-7.98v6h7.98zm-7.98 0-2.971-.419-2.31 16.38 2.971.419 2.971.419 2.31-16.38zm-2.31 16.38 2.54 1.596 10.29-16.38-2.54-1.596-2.54-1.596-10.29 16.38z" mask="url(#c)"/><mask id="d" width="49" height="69" x="63" y="64" fill="var(--card-black, #000)" maskUnits="userSpaceOnUse"><path fill="#fff" d="M63 64h49v69H63z"/><path d="m84.275 130 1.68-11.97h-19.32l1.575-11.655 24.99-38.43h14.385l-5.67 40.425h6.405l-1.365 9.66h-6.51L98.765 130zm-4.935-21.63h7.98l2.31-16.38z"/></mask><path fill="var(--card-black, #000)" d="m84.275 130 1.68-11.97h-19.32l1.575-11.655 24.99-38.43h14.385l-5.67 40.425h6.405l-1.365 9.66h-6.51L98.765 130zm-4.935-21.63h7.98l2.31-16.38z"/><path fill="var(--card-black, #000)" d="m84.275 130-2.97-.417-.48 3.417h3.45zm1.68-11.97 2.97.417.48-3.417h-3.45zm-19.32 0-2.973-.402-.46 3.402h3.433zm1.575-11.655-2.515-1.635-.368.565-.09.668zm24.99-38.43v-3h-1.628l-.887 1.365zm14.385 0 2.971.417.479-3.417h-3.45zm-5.67 40.425-2.97-.417-.48 3.417h3.45zm6.405 0 2.97.42.484-3.42h-3.454zm-1.365 9.66v3h2.606l.364-2.58zm-6.51 0v-3h-2.608l-.363 2.583zM98.765 130v3h2.608l.363-2.583zM79.34 108.37l-2.54-1.596-2.887 4.596h5.427zm7.98 0v3h2.607l.364-2.581zm2.31-16.38 2.97.419-5.51-2.015zM84.275 130l2.97.417 1.68-11.97-2.97-.417-2.97-.417-1.68 11.97zm1.68-11.97v-3h-19.32v6h19.32zm-19.32 0 2.973.402 1.575-11.655-2.973-.402-2.973-.402-1.575 11.655zm1.575-11.655 2.515 1.635 24.99-38.43-2.515-1.635-2.515-1.635-24.99 38.43zm24.99-38.43v3h14.385v-6H93.2zm14.385 0-2.971-.417-5.67 40.425 2.971.417 2.971.417 5.67-40.425zm-5.67 40.425v3h6.405v-6h-6.405zm6.405 0-2.97-.42-1.365 9.66 2.97.42 2.97.42 1.365-9.66zm-1.365 9.66v-3h-6.51v6h6.51zm-6.51 0-2.97-.417-1.68 11.97 2.97.417 2.971.417 1.68-11.97zM98.765 130v-3h-14.49v6h14.49zM79.34 108.37v3h7.98v-6h-7.98zm7.98 0 2.97.419 2.31-16.38-2.97-.419-2.97-.419-2.31 16.38zm2.31-16.38-2.54-1.596-10.29 16.38 2.54 1.596 2.54 1.596 10.29-16.38z" mask="url(#d)"/><mask id="e" width="49" height="69" x="60" y="60" fill="var(--card-black, #000)" maskUnits="userSpaceOnUse"><path fill="#fff" d="M60 60h49v69H60z"/><path d="m81.275 126 1.68-11.97h-19.32l1.575-11.655 24.99-38.43h14.385l-5.67 40.425h6.405l-1.365 9.66h-6.51L95.765 126zm-4.935-21.63h7.98l2.31-16.38z"/></mask><path fill="#fff" d="m81.275 126 1.68-11.97h-19.32l1.575-11.655 24.99-38.43h14.385l-5.67 40.425h6.405l-1.365 9.66h-6.51L95.765 126zm-4.935-21.63h7.98l2.31-16.38z"/><path fill="var(--card-black, #000)" d="m81.275 126-2.97-.417-.48 3.417h3.45zm1.68-11.97 2.97.417.48-3.417h-3.45zm-19.32 0-2.973-.402-.46 3.402h3.433zm1.575-11.655-2.515-1.635-.368.565-.09.668zm24.99-38.43v-3h-1.628l-.887 1.365zm14.385 0 2.971.417.479-3.417h-3.45zm-5.67 40.425-2.97-.417-.48 3.417h3.45zm6.405 0 2.97.42.484-3.42h-3.454zm-1.365 9.66v3h2.606l.364-2.58zm-6.51 0v-3h-2.608l-.363 2.583zM95.765 126v3h2.608l.363-2.583zM76.34 104.37l-2.54-1.596-2.887 4.596h5.427zm7.98 0v3h2.607l.364-2.581zm2.31-16.38 2.97.419-5.51-2.015zM81.275 126l2.97.417 1.68-11.97-2.97-.417-2.97-.417-1.68 11.97zm1.68-11.97v-3h-19.32v6h19.32zm-19.32 0 2.973.402 1.575-11.655-2.973-.402-2.973-.402-1.575 11.655zm1.575-11.655 2.515 1.635 24.99-38.43-2.515-1.635-2.515-1.635-24.99 38.43zm24.99-38.43v3h14.385v-6H90.2zm14.385 0-2.971-.417-5.67 40.425 2.971.417 2.971.417 5.67-40.425zm-5.67 40.425v3h6.405v-6h-6.405zm6.405 0-2.97-.42-1.365 9.66 2.97.42 2.97.42 1.365-9.66zm-1.365 9.66v-3h-6.51v6h6.51zm-6.51 0-2.97-.417-1.68 11.97 2.97.417 2.97.417 1.681-11.97zM95.765 126v-3h-14.49v6h14.49zM76.34 104.37v3h7.98v-6h-7.98zm7.98 0 2.97.419 2.31-16.38-2.97-.419-2.97-.419-2.31 16.38zm2.31-16.38-2.54-1.596-10.29 16.38 2.54 1.596 2.54 1.596 10.29-16.38z" mask="url(#e)"/></svg>