<svg xmlns="http://www.w3.org/2000/svg" width="486" height="759" viewBox="0 0 486 759" fill="none"><rect width="486" height="759" fill="#fff" rx="51"/><path fill="var(--card-color, #00f)" d="M452 698c0 14.359-11.641 26-26 26H60c-14.36 0-26-11.641-26-26V562.111c5.839 43.884 23.777 77.718 54.045 94.674 79.32 44.436 213.268-43.864 299.182-197.223 35.248-62.921 56.931-127.017 64.773-183.801zM426 34c14.359 0 26 11.64 26 26v128.134c-6.875-40.009-24.423-70.796-52.834-86.712-79.32-44.436-213.268 43.864-299.182 197.224C62.718 365.168 40.614 433.004 34 492.125V60c0-14.36 11.64-26 26-26z"/><path fill="var(--card-black, #000)" d="M241.475 531.8q-31.825 0-49.4-5.7-17.1-5.7-22.8-21.85t-1.425-46.55l3.8-28.025h66.025l-2.85 22.8q-2.85 19 .475 25.65 3.325 6.175 12.35 6.175 8.55 0 13.3-6.65 4.75-7.125 7.6-25.65l6.65-48.925q.95-6.65.475-12.35-.475-6.175-3.325-9.5-2.85-3.8-9.975-3.8-8.075 0-13.3 5.225t-6.65 14.25H176.4l21.375-149.625H359.75l-6.65 46.55h-96.9l-8.55 59.375q4.75-6.176 15.675-12.825 10.925-6.65 32.3-6.65 31.35 0 42.75 12.35 11.4 11.875 7.125 40.85l-10.45 73.625q-3.325 27.55-14.725 43.225-11.4 15.2-30.875 21.85-19.475 6.175-47.975 6.175"/><mask id="a" width="198" height="284" x="153" y="241" fill="var(--card-black, #000)" maskUnits="userSpaceOnUse"><path fill="#fff" d="M153 241h198v284H153z"/><path d="M231.06 520.68q-30.82 0-47.84-5.52-16.56-5.52-22.08-21.16t-1.38-45.08l3.68-27.14h63.94l-2.76 22.08q-2.76 18.4.46 24.84 3.22 5.98 11.96 5.98 8.28 0 12.88-6.44 4.6-6.9 7.36-24.84l6.44-47.38q.92-6.44.46-11.96-.46-5.98-3.22-9.2-2.76-3.68-9.66-3.68-7.82 0-12.88 5.06t-6.44 13.8h-63.94l20.7-144.9H345.6l-6.44 45.08h-93.84l-8.28 57.5q4.6-5.98 15.18-12.42t31.28-6.44q30.36 0 41.4 11.96 11.04 11.5 6.9 39.56l-10.12 71.3q-3.22 26.68-14.26 41.86-11.04 14.72-29.9 21.16-18.86 5.98-46.46 5.98"/></mask><path fill="var(--card-color, #00f)" d="M231.06 520.68q-30.82 0-47.84-5.52-16.56-5.52-22.08-21.16t-1.38-45.08l3.68-27.14h63.94l-2.76 22.08q-2.76 18.4.46 24.84 3.22 5.98 11.96 5.98 8.28 0 12.88-6.44 4.6-6.9 7.36-24.84l6.44-47.38q.92-6.44.46-11.96-.46-5.98-3.22-9.2-2.76-3.68-9.66-3.68-7.82 0-12.88 5.06t-6.44 13.8h-63.94l20.7-144.9H345.6l-6.44 45.08h-93.84l-8.28 57.5q4.6-5.98 15.18-12.42t31.28-6.44q30.36 0 41.4 11.96 11.04 11.5 6.9 39.56l-10.12 71.3q-3.22 26.68-14.26 41.86-11.04 14.72-29.9 21.16-18.86 5.98-46.46 5.98"/><path fill="var(--card-black, #000)" d="m183.22 515.16-1.265 3.795.016.005.015.005zM161.14 494l-3.772 1.331zm-1.38-45.08 3.961.557.001-.01.002-.01zm3.68-27.14v-4h-3.494l-.47 3.463zm63.94 0 3.969.496.562-4.496h-4.531zm-2.76 22.08 3.956.593.007-.048.006-.049zm.46 24.84-3.578 1.789.027.054.029.053zm24.84-.46 3.255 2.325.037-.053.036-.053zm7.36-24.84 3.953.608.006-.034.005-.035zm6.44-47.38-3.96-.566-.002.014-.002.013zm.46-11.96-3.988.307.001.012.001.013zm-3.22-9.2-3.2 2.4.078.104.085.099zm-22.54 1.38-2.828-2.828zm-6.44 13.8v4h3.418l.533-3.376zm-63.94 0-3.96-.566-.652 4.566h4.612zm20.7-144.9v-4h-3.469l-.491 3.434zm156.86 0 3.96.566.652-4.566H345.6zm-6.44 45.08v4h3.469l.491-3.434zm-93.84 0v-4h-3.465l-.494 3.43zm-8.28 57.5-3.959-.57-2.175 15.105 9.304-12.096zm15.18-12.42 2.08 3.417zm72.68 5.52-2.939 2.713.026.029.027.028zm6.9 39.56-3.957-.584-.002.011-.001.011zm-10.12 71.3-3.96-.562-.006.041-.005.042zm-14.26 41.86 3.2 2.4.018-.024.017-.023zm-29.9 21.16 1.209 3.813.042-.013.042-.015zm-46.46 5.98v-4c-20.384 0-35.845-1.835-46.606-5.325l-1.234 3.805-1.234 3.805c11.932 3.87 28.365 5.715 49.074 5.715zm-47.84-5.52 1.265-3.795c-9.94-3.313-16.328-9.503-19.573-18.696L161.14 494l-3.772 1.331c4.115 11.66 12.447 19.577 24.587 23.624zM161.14 494l3.772-1.331c-3.358-9.515-3.922-23.772-1.191-43.192l-3.961-.557-3.961-.557c-2.789 19.833-2.433 35.629 1.569 46.968zm-1.38-45.08 3.964.537 3.68-27.14-3.964-.537-3.964-.537-3.68 27.14zm3.68-27.14v4h63.94v-8h-63.94zm63.94 0-3.969-.496-2.76 22.08 3.969.496 3.969.496 2.76-22.08zm-2.76 22.08-3.956-.593c-.938 6.257-1.391 11.633-1.308 16.077.08 4.364.679 8.21 2.146 11.145l3.578-1.789 3.578-1.789c-.68-1.359-1.231-3.799-1.304-7.715-.071-3.836.32-8.733 1.222-14.743zm.46 24.84-3.522 1.896c3.051 5.666 8.677 8.084 15.482 8.084v-8c-4.848 0-7.195-1.568-8.438-3.876zm11.96 5.98v4c6.741 0 12.277-2.714 16.135-8.115l-3.255-2.325-3.255-2.325c-2.276 3.186-5.326 4.765-9.625 4.765zm12.88-6.44 3.328 2.219c3.593-5.389 6.138-14.441 7.985-26.451l-3.953-.608-3.953-.608c-1.833 11.91-4.194 19.418-6.735 23.229zm7.36-24.84 3.964.539 6.44-47.38-3.964-.539-3.964-.539-6.44 47.38zm6.44-47.38 3.96.566c.648-4.541.822-8.832.486-12.858l-3.986.332-3.986.332c.278 3.334.144 7.016-.434 11.062zm.46-11.96 3.988-.307c-.345-4.493-1.591-8.486-4.171-11.496l-3.037 2.603-3.037 2.603c1.1 1.284 2.001 3.424 2.269 6.904zm-3.22-9.2 3.2-2.4c-2.916-3.888-7.653-5.28-12.86-5.28v8c3.993 0 5.696 1.061 6.46 2.08zm-9.66-3.68v-4c-6.166 0-11.512 2.035-15.708 6.232l2.828 2.828 2.828 2.828c2.55-2.549 5.791-3.888 10.052-3.888zm-12.88 5.06-2.828-2.828c-4.101 4.1-6.543 9.543-7.563 16.004l3.951.624 3.951.624c.82-5.192 2.671-8.949 5.317-11.596zm-6.44 13.8v-4h-63.94v8h63.94zm-63.94 0 3.96.566 20.7-144.9-3.96-.566-3.96-.566-20.7 144.9zm20.7-144.9v4H345.6v-8H188.74zm156.86 0-3.96-.566-6.44 45.08 3.96.566 3.96.566 6.44-45.08zm-6.44 45.08v-4h-93.84v8h93.84zm-93.84 0-3.959-.57-8.28 57.5 3.959.57 3.959.57 8.28-57.5zm-8.28 57.5 3.17 2.439c2.636-3.426 7.222-7.262 14.09-11.442l-2.08-3.417-2.08-3.417c-7.239 4.407-12.772 8.85-16.27 13.398zm15.18-12.42 2.08 3.417c6.136-3.735 15.695-5.857 29.2-5.857v-8c-14.095 0-25.389 2.171-33.36 7.023zm31.28-6.44v4c20.001 0 32.298 3.997 38.461 10.673l2.939-2.713 2.939-2.713c-8.557-9.27-23.86-13.247-44.339-13.247zm41.4 11.96-2.886 2.77c6.022 6.273 8.543 17.811 5.829 36.206l3.957.584 3.957.584c2.806-19.019.727-33.853-7.971-42.914zm6.9 39.56-3.96-.562-10.12 71.3 3.96.562 3.96.562 10.12-71.3zm-10.12 71.3-3.971-.479c-2.098 17.384-6.701 30.605-13.524 39.986l3.235 2.353 3.235 2.353c7.897-10.859 12.801-25.545 14.996-43.734zm-14.26 41.86-3.2-2.4c-6.837 9.117-16.114 15.718-27.993 19.775l1.293 3.785 1.293 3.785c13.267-4.53 23.924-12.035 31.807-22.545zm-29.9 21.16-1.209-3.813c-12.062 3.825-27.112 5.793-45.251 5.793v8c18.661 0 34.584-2.018 47.669-6.167z" mask="url(#a)"/><mask id="b" width="50" height="70" x="378" y="633" fill="var(--card-black, #000)" maskUnits="userSpaceOnUse"><path fill="#fff" d="M378 633h50v70h-50z"/><path d="M408.095 636.16q7.035 0 10.92 1.26 3.78 1.26 5.04 4.83t.315 10.29l-.84 6.195h-14.595l.63-5.04q.63-4.2-.105-5.67-.735-1.365-2.73-1.365-1.89 0-2.94 1.47-1.05 1.575-1.68 5.67l-1.47 10.815q-.21 1.47-.105 2.73.105 1.365.735 2.1.63.84 2.205.84 1.785 0 2.94-1.155c1.155-1.155 1.26-1.82 1.47-3.15h14.595l-4.725 33.075H381.95l1.47-10.29h21.42l1.89-13.125q-1.05 1.365-3.465 2.835t-7.14 1.47q-6.93 0-9.45-2.73-2.52-2.625-1.575-9.03l2.31-16.275q.735-6.09 3.255-9.555 2.52-3.36 6.825-4.83 4.305-1.365 10.605-1.365"/></mask><path fill="var(--card-black, #000)" d="M408.095 636.16q7.035 0 10.92 1.26 3.78 1.26 5.04 4.83t.315 10.29l-.84 6.195h-14.595l.63-5.04q.63-4.2-.105-5.67-.735-1.365-2.73-1.365-1.89 0-2.94 1.47-1.05 1.575-1.68 5.67l-1.47 10.815q-.21 1.47-.105 2.73.105 1.365.735 2.1.63.84 2.205.84 1.785 0 2.94-1.155c1.155-1.155 1.26-1.82 1.47-3.15h14.595l-4.725 33.075H381.95l1.47-10.29h21.42l1.89-13.125q-1.05 1.365-3.465 2.835t-7.14 1.47q-6.93 0-9.45-2.73-2.52-2.625-1.575-9.03l2.31-16.275q.735-6.09 3.255-9.555 2.52-3.36 6.825-4.83 4.305-1.365 10.605-1.365"/><path fill="var(--card-black, #000)" d="m419.015 637.42.949-2.846-.012-.004-.011-.004zm5.04 4.83 2.829-.998zm.315 10.29-2.971-.418-.001.008-.001.007zm-.84 6.195v3h2.621l.352-2.597zm-14.595 0-2.977-.372-.421 3.372h3.398zm.63-5.04-2.967-.445-.005.036-.005.037zm-.105-5.67 2.683-1.342-.02-.04-.022-.04zm-5.67.105-2.441-1.744-.028.04-.027.04zm-1.68 5.67-2.965-.456-.004.026-.004.026zm-1.47 10.815 2.97.424.001-.01.002-.01zm-.105 2.73 2.991-.23-.001-.01v-.009zm.735 2.1 2.4-1.8-.059-.078-.063-.074zm5.145-.315 2.121 2.121zm1.47-3.15v-3h-2.563l-.4 2.532zm14.595 0 2.97.424.489-3.424h-3.459zm-4.725 33.075v3h2.602l.368-2.576zm-35.805 0-2.97-.424-.489 3.424h3.459zm1.47-10.29v-3h-2.602l-.368 2.576zm21.42 0v3h2.599l.37-2.572zm1.89-13.125 2.969.428 1.632-11.329-6.979 9.072zm-3.465 2.835-1.56-2.563zm-16.59-1.26 2.204-2.035-.02-.021-.02-.022zm-1.575-9.03 2.968.438.001-.008.001-.008zm2.31-16.275 2.97.422.005-.031.003-.032zm3.255-9.555-2.4-1.8-.013.018-.013.017zm6.825-4.83-.907-2.86-.031.01-.031.011zm10.605-1.365v3c4.568 0 7.843.416 9.994 1.114l.926-2.854.926-2.854c-3.029-.982-7.034-1.406-11.846-1.406zm10.92 1.26-.949 2.846c1.696.565 2.646 1.527 3.16 2.982l2.829-.998 2.829-.998c-1.166-3.305-3.576-5.563-6.92-6.678zm5.04 4.83-2.829.998c.599 1.696.781 4.549.173 8.874l2.971.418 2.971.418c.652-4.635.624-8.642-.457-11.706zm.315 10.29-2.973-.403-.84 6.195 2.973.403 2.973.403.84-6.195zm-.84 6.195v-3h-14.595v6h14.595zm-14.595 0 2.977.372.63-5.04-2.977-.372-2.977-.372-.63 5.04zm.63-5.04 2.967.445c.224-1.493.343-2.845.321-4.018-.02-1.113-.169-2.358-.71-3.439l-2.683 1.342-2.683 1.342c-.051-.101.063.089.077.866.014.717-.06 1.71-.256 3.017zm-.105-5.67 2.641-1.422c-1.168-2.169-3.307-2.943-5.371-2.943v6c.337 0 .408.059.338.025a.7.7 0 0 1-.149-.109.5.5 0 0 1-.1-.129zm-2.73-1.365v-3c-2.176 0-4.088.916-5.381 2.726l2.441 1.744 2.441 1.744c.095-.132.151-.158.161-.163.015-.008.104-.051.338-.051zm-2.94 1.47-2.496-1.664c-1.095 1.642-1.723 4.11-2.149 6.878l2.965.456 2.965.456c.414-2.692.906-4.004 1.211-4.462zm-1.68 5.67-2.973-.404-1.47 10.815 2.973.404 2.973.404 1.47-10.815zm-1.47 10.815-2.97-.424a15.2 15.2 0 0 0-.125 3.403l2.99-.249 2.99-.249a9 9 0 0 1 .085-2.057zm-.105 2.73-2.991.23c.099 1.29.473 2.685 1.448 3.822l2.278-1.952 2.278-1.952c.066.077.072.118.055.068a1.8 1.8 0 0 1-.077-.446zm.735 2.1-2.4 1.8c1.227 1.636 3.1 2.04 4.605 2.04v-6c-.275 0-.337-.039-.271-.013a.9.9 0 0 1 .205.114c.092.068.183.155.261.259zm2.205.84v3c1.904 0 3.674-.646 5.061-2.034l-2.121-2.121-2.121-2.121c-.153.152-.343.276-.819.276zm2.94-1.155 2.121 2.121c1.315-1.315 2.027-2.997 2.312-4.803l-2.963-.468-2.963-.468c-.135.854-.403 1.272-.628 1.497zm1.47-3.15v3h14.595v-6h-14.595zm14.595 0-2.97-.424-4.725 33.075 2.97.424 2.97.424 4.725-33.075zm-4.725 33.075v-3H381.95v6h35.805zm-35.805 0 2.97.424 1.47-10.29-2.97-.424-2.97-.424-1.47 10.29zm1.47-10.29v3h21.42v-6h-21.42zm21.42 0 2.969.428 1.89-13.125-2.969-.428-2.969-.428-1.89 13.125zm1.89-13.125-2.378-1.829c-.376.489-1.176 1.206-2.647 2.101l1.56 2.563 1.56 2.563c1.749-1.065 3.259-2.238 4.283-3.569zm-3.465 2.835-1.56-2.563c-.922.562-2.652 1.033-5.58 1.033v6c3.372 0 6.402-.509 8.7-1.907zm-7.14 1.47v-3c-4.441 0-6.463-.917-7.246-1.765l-2.204 2.035-2.204 2.035c2.577 2.792 6.855 3.695 11.654 3.695zm-9.45-2.73 2.164-2.078c-.676-.704-1.367-2.478-.771-6.514l-2.968-.438-2.968-.438c-.664 4.504-.305 8.75 2.379 11.546zm-1.575-9.03 2.97.422 2.31-16.275-2.97-.422-2.97-.422-2.31 16.275zm2.31-16.275 2.978.359c.454-3.758 1.426-6.394 2.703-8.149l-2.426-1.765-2.426-1.765c-2.083 2.865-3.281 6.599-3.807 10.961zm3.255-9.555 2.4 1.8c1.288-1.717 3.045-2.989 5.394-3.791l-.969-2.839-.969-2.839c-3.391 1.158-6.184 3.106-8.256 5.869zm6.825-4.83.907 2.86c2.486-.789 5.694-1.225 9.698-1.225v-6c-4.396 0-8.258.474-11.512 1.505z" mask="url(#b)"/><mask id="c" width="50" height="70" x="375" y="630" fill="var(--card-black, #000)" maskUnits="userSpaceOnUse"><path fill="#fff" d="M375 630h50v70h-50z"/><path d="M405.095 633.16q7.035 0 10.92 1.26 3.78 1.26 5.04 4.83t.315 10.29l-.84 6.195h-14.595l.63-5.04q.63-4.2-.105-5.67-.735-1.365-2.73-1.365-1.89 0-2.94 1.47-1.05 1.575-1.68 5.67l-1.47 10.815q-.21 1.47-.105 2.73.105 1.365.735 2.1.63.84 2.205.84 1.785 0 2.94-1.155c1.155-1.155 1.26-1.82 1.47-3.15h14.595l-4.725 33.075H378.95l1.47-10.29h21.42l1.89-13.125q-1.05 1.365-3.465 2.835t-7.14 1.47q-6.93 0-9.45-2.73-2.52-2.625-1.575-9.03l2.31-16.275q.735-6.09 3.255-9.555 2.52-3.36 6.825-4.83 4.305-1.365 10.605-1.365"/></mask><path fill="#fff" d="M405.095 633.16q7.035 0 10.92 1.26 3.78 1.26 5.04 4.83t.315 10.29l-.84 6.195h-14.595l.63-5.04q.63-4.2-.105-5.67-.735-1.365-2.73-1.365-1.89 0-2.94 1.47-1.05 1.575-1.68 5.67l-1.47 10.815q-.21 1.47-.105 2.73.105 1.365.735 2.1.63.84 2.205.84 1.785 0 2.94-1.155c1.155-1.155 1.26-1.82 1.47-3.15h14.595l-4.725 33.075H378.95l1.47-10.29h21.42l1.89-13.125q-1.05 1.365-3.465 2.835t-7.14 1.47q-6.93 0-9.45-2.73-2.52-2.625-1.575-9.03l2.31-16.275q.735-6.09 3.255-9.555 2.52-3.36 6.825-4.83 4.305-1.365 10.605-1.365"/><path fill="var(--card-black, #000)" d="m416.015 634.42.949-2.846-.012-.004-.011-.004zm5.04 4.83 2.829-.998zm.315 10.29-2.971-.418-.001.008-.001.007zm-.84 6.195v3h2.621l.352-2.597zm-14.595 0-2.977-.372-.421 3.372h3.398zm.63-5.04-2.967-.445-.005.036-.005.037zm-.105-5.67 2.683-1.342-.02-.04-.022-.04zm-5.67.105-2.441-1.744-.028.04-.027.04zm-1.68 5.67-2.965-.456-.004.026-.004.026zm-1.47 10.815 2.97.424.001-.01.002-.01zm-.105 2.73 2.991-.23-.001-.01v-.009zm.735 2.1 2.4-1.8-.059-.078-.063-.074zm5.145-.315 2.121 2.121zm1.47-3.15v-3h-2.563l-.4 2.532zm14.595 0 2.97.424.489-3.424h-3.459zm-4.725 33.075v3h2.602l.368-2.576zm-35.805 0-2.97-.424-.489 3.424h3.459zm1.47-10.29v-3h-2.602l-.368 2.576zm21.42 0v3h2.599l.37-2.572zm1.89-13.125 2.969.428 1.632-11.329-6.979 9.072zm-3.465 2.835-1.56-2.563zm-16.59-1.26 2.204-2.035-.02-.021-.02-.022zm-1.575-9.03 2.968.438.001-.008.001-.008zm2.31-16.275 2.97.422.005-.031.003-.032zm3.255-9.555-2.4-1.8-.013.018-.013.017zm6.825-4.83-.907-2.86-.031.01-.031.011zm10.605-1.365v3c4.568 0 7.843.416 9.994 1.114l.926-2.854.926-2.854c-3.029-.982-7.034-1.406-11.846-1.406zm10.92 1.26-.949 2.846c1.696.565 2.646 1.527 3.16 2.982l2.829-.998 2.829-.998c-1.166-3.305-3.576-5.563-6.92-6.678zm5.04 4.83-2.829.998c.599 1.696.781 4.549.173 8.874l2.971.418 2.971.418c.652-4.635.624-8.642-.457-11.706zm.315 10.29-2.973-.403-.84 6.195 2.973.403 2.973.403.84-6.195zm-.84 6.195v-3h-14.595v6h14.595zm-14.595 0 2.977.372.63-5.04-2.977-.372-2.977-.372-.63 5.04zm.63-5.04 2.967.445c.224-1.493.343-2.845.321-4.018-.02-1.113-.169-2.358-.71-3.439l-2.683 1.342-2.683 1.342c-.051-.101.063.089.077.866.014.717-.06 1.71-.256 3.017zm-.105-5.67 2.641-1.422c-1.168-2.169-3.307-2.943-5.371-2.943v6c.337 0 .408.059.338.025a.7.7 0 0 1-.149-.109.5.5 0 0 1-.1-.129zm-2.73-1.365v-3c-2.176 0-4.088.916-5.381 2.726l2.441 1.744 2.441 1.744c.095-.132.151-.158.161-.163.015-.008.104-.051.338-.051zm-2.94 1.47-2.496-1.664c-1.095 1.642-1.723 4.11-2.149 6.878l2.965.456 2.965.456c.414-2.692.906-4.004 1.211-4.462zm-1.68 5.67-2.973-.404-1.47 10.815 2.973.404 2.973.404 1.47-10.815zm-1.47 10.815-2.97-.424a15.2 15.2 0 0 0-.125 3.403l2.99-.249 2.99-.249a9 9 0 0 1 .085-2.057zm-.105 2.73-2.991.23c.099 1.29.473 2.685 1.448 3.822l2.278-1.952 2.278-1.952c.066.077.072.118.055.068a1.8 1.8 0 0 1-.077-.446zm.735 2.1-2.4 1.8c1.227 1.636 3.1 2.04 4.605 2.04v-6c-.275 0-.337-.039-.271-.013a.9.9 0 0 1 .205.114c.092.068.183.155.261.259zm2.205.84v3c1.904 0 3.674-.646 5.061-2.034l-2.121-2.121-2.121-2.121c-.153.152-.343.276-.819.276zm2.94-1.155 2.121 2.121c1.315-1.315 2.027-2.997 2.312-4.803l-2.963-.468-2.963-.468c-.135.854-.403 1.272-.628 1.497zm1.47-3.15v3h14.595v-6h-14.595zm14.595 0-2.97-.424-4.725 33.075 2.97.424 2.97.424 4.725-33.075zm-4.725 33.075v-3H378.95v6h35.805zm-35.805 0 2.97.424 1.47-10.29-2.97-.424-2.97-.424-1.47 10.29zm1.47-10.29v3h21.42v-6h-21.42zm21.42 0 2.969.428 1.89-13.125-2.969-.428-2.969-.428-1.89 13.125zm1.89-13.125-2.378-1.829c-.376.489-1.176 1.206-2.647 2.101l1.56 2.563 1.56 2.563c1.749-1.065 3.259-2.238 4.283-3.569zm-3.465 2.835-1.56-2.563c-.922.562-2.652 1.033-5.58 1.033v6c3.372 0 6.402-.509 8.7-1.907zm-7.14 1.47v-3c-4.441 0-6.463-.917-7.246-1.765l-2.204 2.035-2.204 2.035c2.577 2.792 6.855 3.695 11.654 3.695zm-9.45-2.73 2.164-2.078c-.676-.704-1.367-2.478-.771-6.514l-2.968-.438-2.968-.438c-.664 4.504-.305 8.75 2.379 11.546zm-1.575-9.03 2.97.422 2.31-16.275-2.97-.422-2.97-.422-2.31 16.275zm2.31-16.275 2.978.359c.454-3.758 1.426-6.394 2.703-8.149l-2.426-1.765-2.426-1.765c-2.083 2.865-3.281 6.599-3.807 10.961zm3.255-9.555 2.4 1.8c1.288-1.717 3.045-2.989 5.394-3.791l-.969-2.839-.969-2.839c-3.391 1.158-6.184 3.106-8.256 5.869zm6.825-4.83.907 2.86c2.486-.789 5.694-1.225 9.698-1.225v-6c-4.396 0-8.258.474-11.512 1.505z" mask="url(#c)"/><mask id="d" width="50" height="70" x="65" y="63" fill="var(--card-black, #000)" maskUnits="userSpaceOnUse"><path fill="#fff" d="M65 63h50v70H65z"/><path d="M84.905 129.84q-7.035 0-10.92-1.26-3.78-1.26-5.04-4.83t-.315-10.29l.84-6.195h14.595l-.63 5.04q-.63 4.2.105 5.67.735 1.365 2.73 1.365 1.89 0 2.94-1.47 1.05-1.575 1.68-5.67l1.47-10.815q.21-1.47.105-2.73-.105-1.365-.735-2.1-.63-.84-2.205-.84-1.785 0-2.94 1.155c-1.155 1.155-1.26 1.82-1.47 3.15H70.52l4.725-33.075h35.805l-1.47 10.29H88.16L86.27 90.36q1.05-1.365 3.465-2.835t7.14-1.47q6.93 0 9.45 2.73 2.52 2.625 1.575 9.03l-2.31 16.275q-.735 6.09-3.255 9.555-2.52 3.36-6.825 4.83-4.305 1.365-10.605 1.365"/></mask><path fill="var(--card-black, #000)" d="M84.905 129.84q-7.035 0-10.92-1.26-3.78-1.26-5.04-4.83t-.315-10.29l.84-6.195h14.595l-.63 5.04q-.63 4.2.105 5.67.735 1.365 2.73 1.365 1.89 0 2.94-1.47 1.05-1.575 1.68-5.67l1.47-10.815q.21-1.47.105-2.73-.105-1.365-.735-2.1-.63-.84-2.205-.84-1.785 0-2.94 1.155c-1.155 1.155-1.26 1.82-1.47 3.15H70.52l4.725-33.075h35.805l-1.47 10.29H88.16L86.27 90.36q1.05-1.365 3.465-2.835t7.14-1.47q6.93 0 9.45 2.73 2.52 2.625 1.575 9.03l-2.31 16.275q-.735 6.09-3.255 9.555-2.52 3.36-6.825 4.83-4.305 1.365-10.605 1.365"/><path fill="var(--card-black, #000)" d="m73.985 128.58-.949 2.846.012.004.011.004zm-5.04-4.83-2.829.998zm-.315-10.29 2.97.418.002-.008v-.007zm.84-6.195v-3h-2.62l-.353 2.597zm14.595 0 2.977.372.421-3.372h-3.398zm-.63 5.04 2.967.445.005-.036.005-.037zm.105 5.67-2.683 1.342.02.04.022.04zm5.67-.105 2.441 1.744.028-.04.027-.04zm1.68-5.67 2.965.456.004-.026.004-.026zm1.47-10.815-2.97-.424-.001.01-.002.01zm.105-2.73-2.991.23v.01l.001.01zm-.735-2.1-2.4 1.8.059.078.063.074zm-5.145.315-2.121-2.121zm-1.47 3.15v3h2.564l.4-2.532zm-14.595 0-2.97-.424-.489 3.424h3.459zm4.725-33.075v-3h-2.602l-.368 2.576zm35.805 0 2.97.424.489-3.424h-3.459zm-1.47 10.29v3h2.602l.368-2.576zm-21.42 0v-3h-2.599l-.37 2.572zM86.27 90.36l-2.97-.428-1.63 11.329 6.978-9.072zm3.465-2.835 1.56 2.563zm16.59 1.26-2.204 2.035.02.021.02.022zm1.575 9.03-2.968-.438-.001.008-.001.008zm-2.31 16.275-2.97-.422-.005.031-.003.032zm-3.255 9.555 2.4 1.8.013-.018.013-.017zm-6.825 4.83.907 2.86.031-.01.031-.011zm-10.605 1.365v-3c-4.568 0-7.843-.416-9.994-1.114l-.926 2.854-.925 2.854c3.028.982 7.033 1.406 11.845 1.406zm-10.92-1.26.949-2.846c-1.695-.565-2.646-1.527-3.16-2.982l-2.829.998-2.829.998c1.166 3.305 3.576 5.563 6.92 6.678zm-5.04-4.83 2.829-.998c-.599-1.696-.782-4.549-.173-8.874l-2.971-.418-2.97-.418c-.652 4.635-.625 8.642.456 11.706zm-.315-10.29 2.973.403.84-6.195-2.973-.403-2.973-.403-.84 6.195zm.84-6.195v3h14.595v-6H69.47zm14.595 0-2.977-.372-.63 5.04 2.977.372 2.977.372.63-5.04zm-.63 5.04-2.967-.445c-.224 1.493-.343 2.845-.321 4.018.02 1.113.17 2.358.71 3.439l2.683-1.342 2.683-1.342c.05.101-.063-.089-.077-.866-.013-.717.06-1.71.256-3.017zm.105 5.67-2.641 1.422c1.168 2.169 3.307 2.943 5.371 2.943v-6c-.337 0-.408-.059-.338-.025a.66.66 0 0 1 .25.238zm2.73 1.365v3c2.176 0 4.088-.916 5.381-2.726l-2.441-1.744-2.441-1.744c-.095.132-.15.158-.16.163-.016.008-.105.051-.339.051zm2.94-1.47 2.496 1.664c1.095-1.642 1.723-4.11 2.15-6.878l-2.966-.456-2.965-.456c-.414 2.692-.906 4.004-1.211 4.462zm1.68-5.67 2.973.404 1.47-10.815-2.973-.404-2.973-.404-1.47 10.815zm1.47-10.815 2.97.424c.166-1.165.216-2.304.125-3.403l-2.99.249-2.99.25c.049.58.029 1.261-.085 2.056zm.105-2.73 2.991-.23c-.1-1.29-.473-2.685-1.448-3.822l-2.278 1.952-2.278 1.952c-.066-.077-.072-.118-.055-.069.02.056.057.194.077.447zm-.735-2.1 2.4-1.8c-1.227-1.636-3.1-2.04-4.605-2.04v6c.275 0 .338.039.27.014a1 1 0 0 1-.204-.115 1.3 1.3 0 0 1-.261-.259zm-2.205-.84v-3c-1.904 0-3.674.646-5.061 2.034l2.121 2.121 2.121 2.121c.153-.152.343-.276.819-.276zm-2.94 1.155-2.121-2.121c-1.315 1.315-2.027 2.997-2.312 4.803l2.963.468 2.963.468c.135-.854.404-1.272.628-1.497zm-1.47 3.15v-3H70.52v6h14.595zm-14.595 0 2.97.424 4.725-33.075-2.97-.424-2.97-.424-4.725 33.075zm4.725-33.075v3h35.805v-6H75.245zm35.805 0-2.97-.424-1.47 10.29 2.97.424 2.97.424 1.47-10.29zm-1.47 10.29v-3H88.16v6h21.42zm-21.42 0-2.97-.428-1.89 13.125 2.97.428 2.97.428 1.89-13.125zM86.27 90.36l2.378 1.83c.376-.49 1.176-1.207 2.647-2.102l-1.56-2.563-1.56-2.563c-1.75 1.065-3.26 2.238-4.283 3.569zm3.465-2.835 1.56 2.563c.922-.561 2.652-1.033 5.58-1.033v-6c-3.372 0-6.402.508-8.7 1.907zm7.14-1.47v3c4.441 0 6.463.917 7.246 1.765l2.204-2.035 2.204-2.035c-2.577-2.792-6.855-3.695-11.654-3.695zm9.45 2.73-2.164 2.078c.676.704 1.367 2.478.771 6.514l2.968.438 2.968.438c.664-4.504.305-8.75-2.379-11.546zm1.575 9.03-2.97-.422-2.31 16.275 2.97.422 2.97.422 2.31-16.275zm-2.31 16.275-2.978-.359c-.454 3.758-1.426 6.394-2.703 8.149l2.426 1.765 2.426 1.765c2.083-2.865 3.281-6.599 3.807-10.961zm-3.255 9.555-2.4-1.8c-1.288 1.717-3.045 2.989-5.394 3.791l.969 2.839.97 2.839c3.39-1.158 6.183-3.106 8.255-5.869zm-6.825 4.83-.907-2.86c-2.486.789-5.694 1.225-9.698 1.225v6c4.396 0 8.258-.474 11.512-1.505z" mask="url(#d)"/><mask id="e" width="50" height="70" x="61" y="59" fill="var(--card-black, #000)" maskUnits="userSpaceOnUse"><path fill="#fff" d="M61 59h50v70H61z"/><path d="M80.905 125.84q-7.035 0-10.92-1.26-3.78-1.26-5.04-4.83t-.315-10.29l.84-6.195h14.595l-.63 5.04q-.63 4.2.105 5.67.735 1.365 2.73 1.365 1.89 0 2.94-1.47 1.05-1.575 1.68-5.67l1.47-10.815q.21-1.47.105-2.73-.105-1.365-.735-2.1-.63-.84-2.205-.84-1.785 0-2.94 1.155c-1.155 1.155-1.26 1.82-1.47 3.15H66.52l4.725-33.075h35.805l-1.47 10.29H84.16L82.27 86.36q1.05-1.365 3.465-2.835t7.14-1.47q6.93 0 9.45 2.73 2.52 2.625 1.575 9.03l-2.31 16.275q-.735 6.09-3.255 9.555-2.52 3.36-6.825 4.83-4.305 1.365-10.605 1.365"/></mask><path fill="#fff" d="M80.905 125.84q-7.035 0-10.92-1.26-3.78-1.26-5.04-4.83t-.315-10.29l.84-6.195h14.595l-.63 5.04q-.63 4.2.105 5.67.735 1.365 2.73 1.365 1.89 0 2.94-1.47 1.05-1.575 1.68-5.67l1.47-10.815q.21-1.47.105-2.73-.105-1.365-.735-2.1-.63-.84-2.205-.84-1.785 0-2.94 1.155c-1.155 1.155-1.26 1.82-1.47 3.15H66.52l4.725-33.075h35.805l-1.47 10.29H84.16L82.27 86.36q1.05-1.365 3.465-2.835t7.14-1.47q6.93 0 9.45 2.73 2.52 2.625 1.575 9.03l-2.31 16.275q-.735 6.09-3.255 9.555-2.52 3.36-6.825 4.83-4.305 1.365-10.605 1.365"/><path fill="var(--card-black, #000)" d="m69.985 124.58-.949 2.846.012.004.011.004zm-5.04-4.83-2.829.998zm-.315-10.29 2.97.418.002-.008v-.007zm.84-6.195v-3h-2.62l-.353 2.597zm14.595 0 2.977.372.421-3.372h-3.398zm-.63 5.04 2.967.445.005-.036.005-.037zm.105 5.67-2.683 1.342.02.04.022.04zm5.67-.105 2.441 1.744.028-.04.027-.04zm1.68-5.67 2.965.456.004-.026.004-.026zm1.47-10.815-2.97-.424-.001.01-.002.01zm.105-2.73-2.991.23v.01l.001.01zm-.735-2.1-2.4 1.8.059.078.063.074zm-5.145.315-2.121-2.121zm-1.47 3.15v3h2.564l.4-2.532zm-14.595 0-2.97-.424-.489 3.424h3.459zm4.725-33.075v-3h-2.602l-.368 2.576zm35.805 0 2.97.424.489-3.424h-3.459zm-1.47 10.29v3h2.602l.368-2.576zm-21.42 0v-3h-2.599l-.37 2.572zM82.27 86.36l-2.97-.428-1.63 11.33 6.978-9.073zm3.465-2.835 1.56 2.563zm16.59 1.26-2.204 2.035.02.021.02.022zm1.575 9.03-2.968-.438-.001.008-.001.008zm-2.31 16.275-2.97-.422-.005.031-.003.032zm-3.255 9.555 2.4 1.8.013-.018.013-.017zm-6.825 4.83.907 2.86.031-.01.031-.011zm-10.605 1.365v-3c-4.568 0-7.843-.416-9.994-1.114l-.926 2.854-.925 2.854c3.028.982 7.033 1.406 11.845 1.406zm-10.92-1.26.949-2.846c-1.695-.565-2.646-1.527-3.16-2.982l-2.829.998-2.829.998c1.166 3.305 3.576 5.563 6.92 6.678zm-5.04-4.83 2.829-.998c-.599-1.696-.782-4.549-.173-8.874l-2.971-.418-2.97-.418c-.652 4.635-.625 8.642.456 11.706zm-.315-10.29 2.973.403.84-6.195-2.973-.403-2.973-.403-.84 6.195zm.84-6.195v3h14.595v-6H65.47zm14.595 0-2.977-.372-.63 5.04 2.977.372 2.977.372.63-5.04zm-.63 5.04-2.967-.445c-.224 1.493-.343 2.845-.321 4.018.02 1.113.17 2.358.71 3.439l2.683-1.342 2.683-1.342c.05.101-.063-.089-.077-.866-.013-.717.06-1.71.256-3.017zm.105 5.67-2.641 1.422c1.168 2.169 3.307 2.943 5.371 2.943v-6c-.337 0-.408-.059-.338-.025a.66.66 0 0 1 .25.238zm2.73 1.365v3c2.176 0 4.088-.916 5.381-2.726l-2.441-1.744-2.441-1.744c-.095.132-.15.158-.16.163-.016.008-.105.051-.339.051zm2.94-1.47 2.496 1.664c1.095-1.642 1.723-4.11 2.15-6.878l-2.966-.456-2.965-.456c-.414 2.692-.906 4.004-1.211 4.462zm1.68-5.67 2.973.404 1.47-10.815-2.973-.404-2.973-.404-1.47 10.815zm1.47-10.815 2.97.424a15.2 15.2 0 0 0 .125-3.403l-2.99.249-2.99.25c.049.58.029 1.261-.085 2.056zm.105-2.73 2.991-.23c-.1-1.29-.473-2.685-1.448-3.822l-2.278 1.952-2.278 1.952c-.066-.077-.072-.118-.055-.069.02.056.057.194.077.447zm-.735-2.1 2.4-1.8c-1.227-1.636-3.1-2.04-4.605-2.04v6c.275 0 .338.039.27.014a1 1 0 0 1-.204-.115 1.3 1.3 0 0 1-.261-.259zm-2.205-.84v-3c-1.904 0-3.674.646-5.061 2.034l2.121 2.121 2.121 2.121c.153-.152.343-.276.819-.276zm-2.94 1.155-2.121-2.121c-1.315 1.315-2.027 2.997-2.312 4.803l2.963.468 2.963.468c.135-.854.404-1.272.628-1.497zm-1.47 3.15v-3H66.52v6h14.595zm-14.595 0 2.97.424 4.725-33.075-2.97-.424-2.97-.424-4.725 33.075zm4.725-33.075v3h35.805v-6H71.245zm35.805 0-2.97-.424-1.47 10.29 2.97.424 2.97.424 1.47-10.29zm-1.47 10.29v-3H84.16v6h21.42zm-21.42 0-2.97-.428-1.89 13.125 2.97.428 2.97.428 1.89-13.125zM82.27 86.36l2.378 1.83c.376-.49 1.176-1.207 2.647-2.102l-1.56-2.563-1.56-2.563c-1.75 1.065-3.26 2.238-4.283 3.569zm3.465-2.835 1.56 2.563c.922-.561 2.652-1.033 5.58-1.033v-6c-3.372 0-6.402.508-8.7 1.907zm7.14-1.47v3c4.441 0 6.463.917 7.246 1.765l2.204-2.035 2.204-2.035c-2.577-2.792-6.855-3.695-11.654-3.695zm9.45 2.73-2.164 2.078c.676.704 1.367 2.478.771 6.514l2.968.438 2.968.438c.664-4.504.305-8.75-2.379-11.546zm1.575 9.03-2.97-.422-2.31 16.275 2.97.422 2.97.422 2.31-16.275zm-2.31 16.275-2.978-.359c-.454 3.758-1.426 6.394-2.703 8.149l2.426 1.765 2.426 1.765c2.083-2.865 3.281-6.599 3.807-10.961zm-3.255 9.555-2.4-1.8c-1.288 1.717-3.045 2.989-5.394 3.791l.969 2.839.97 2.839c3.39-1.158 6.183-3.106 8.255-5.869zm-6.825 4.83-.907-2.86c-2.486.789-5.694 1.225-9.698 1.225v6c4.396 0 8.258-.474 11.512-1.505z" mask="url(#e)"/></svg>