<svg xmlns="http://www.w3.org/2000/svg" width="486" height="759" viewBox="0 0 486 759" fill="none"><rect width="486" height="759" fill="#fff" rx="51"/><path fill="var(--card-color, #00f)" d="M452 699c0 14.359-11.641 26-26 26H60c-14.36 0-26-11.641-26-26V563.111c5.839 43.884 23.777 77.718 54.045 94.674 79.32 44.436 213.268-43.864 299.182-197.223 35.248-62.921 56.931-127.017 64.773-183.801zM426 35c14.359 0 26 11.64 26 26v128.134c-6.875-40.009-24.423-70.796-52.834-86.712-79.32-44.436-213.268 43.864-299.182 197.224C62.718 366.168 40.614 434.004 34 493.125V61c0-14.36 11.64-26 26-26z"/><path fill="var(--card-black, #000)" d="M229.68 526.06q-24.38 0-40.94-7.82-16.56-8.28-23.46-25.3t-3.22-42.78l19.32-138q5.06-33.58 28.52-49.68 23.92-16.1 59.8-16.1 37.72 0 55.66 15.64 18.4 15.64 13.34 49.68l-2.76 18.86h-63.02l3.22-26.22q1.84-10.58-1.38-14.72-2.76-4.6-10.12-4.6t-12.42 5.06q-4.6 4.6-6.44 14.72l-7.82 59.34q8.28-9.66 20.7-13.8 12.88-4.14 24.84-4.14 23 0 36.34 11.04 13.8 11.04 10.58 34.04l-9.66 66.7q-2.76 21.62-15.18 36.8-11.96 15.18-31.28 23.46-19.32 7.82-44.62 7.82m6.9-37.26q6.9 0 11.96-4.6 5.52-4.6 7.36-15.64l9.2-66.7q1.38-10.12-4.14-12.88-5.52-3.22-11.04-3.22-5.98 0-10.58 3.22t-5.98 8.28l-10.12 71.3q-1.38 10.58 2.3 15.64 4.14 4.6 11.04 4.6m-73.485 78.3v-15.05H301.34v15.05z"/><mask id="a" width="188" height="289" x="146" y="233" fill="var(--card-black, #000)" maskUnits="userSpaceOnUse"><path fill="#fff" d="M146 233h188v289H146z"/><path d="M219.68 517.06q-24.38 0-40.94-7.82-16.56-8.28-23.46-25.3t-3.22-42.78l19.32-138q5.06-33.58 28.52-49.68 23.92-16.1 59.8-16.1 37.72 0 55.66 15.64 18.4 15.64 13.34 49.68l-2.76 18.86h-63.02l3.22-26.22q1.84-10.58-1.38-14.72-2.76-4.6-10.12-4.6t-12.42 5.06q-4.6 4.6-6.44 14.72l-7.82 59.34q8.28-9.66 20.7-13.8 12.88-4.14 24.84-4.14 23 0 36.34 11.04 13.8 11.04 10.58 34.04l-9.66 66.7q-2.76 21.62-15.18 36.8-11.96 15.18-31.28 23.46-19.32 7.82-44.62 7.82m6.9-37.26q6.9 0 11.96-4.6 5.52-4.6 7.36-15.64l9.2-66.7q1.38-10.12-4.14-12.88-5.52-3.22-11.04-3.22-5.98 0-10.58 3.22t-5.98 8.28l-10.12 71.3q-1.38 10.58 2.3 15.64 4.14 4.6 11.04 4.6"/></mask><path fill="var(--card-color, #00f)" d="M219.68 517.06q-24.38 0-40.94-7.82-16.56-8.28-23.46-25.3t-3.22-42.78l19.32-138q5.06-33.58 28.52-49.68 23.92-16.1 59.8-16.1 37.72 0 55.66 15.64 18.4 15.64 13.34 49.68l-2.76 18.86h-63.02l3.22-26.22q1.84-10.58-1.38-14.72-2.76-4.6-10.12-4.6t-12.42 5.06q-4.6 4.6-6.44 14.72l-7.82 59.34q8.28-9.66 20.7-13.8 12.88-4.14 24.84-4.14 23 0 36.34 11.04 13.8 11.04 10.58 34.04l-9.66 66.7q-2.76 21.62-15.18 36.8-11.96 15.18-31.28 23.46-19.32 7.82-44.62 7.82m6.9-37.26q6.9 0 11.96-4.6 5.52-4.6 7.36-15.64l9.2-66.7q1.38-10.12-4.14-12.88-5.52-3.22-11.04-3.22-5.98 0-10.58 3.22t-5.98 8.28l-10.12 71.3q-1.38 10.58 2.3 15.64 4.14 4.6 11.04 4.6"/><path fill="var(--card-black, #000)" d="m178.74 509.24-1.789 3.578.04.02.041.019zm-23.46-25.3 3.707-1.503zm-3.22-42.78 3.96.566.001-.011zm19.32-138-3.955-.596-.003.021-.003.02zm28.52-49.68-2.234-3.318-.014.01-.015.01zm115.46-.46-2.629 3.015.019.017.019.016zm13.34 49.68-3.957-.588-.001.009zm-2.76 18.86v4h3.457l.501-3.421zm-63.02 0-3.97-.488-.551 4.488h4.521zm3.22-26.22-3.941-.685-.017.098-.012.099zm-1.38-14.72-3.43 2.058.124.207.149.191zm-22.54.46-2.828-2.828zm-6.44 14.72-3.935-.716-.018.097-.013.096zm-7.82 59.34-3.966-.523-1.759 13.348 8.762-10.222zm20.7-13.8-1.224-3.808-.021.006-.02.007zm61.18 6.9-2.55 3.082.025.021.026.02zm10.58 34.04 3.959.573.001-.009.001-.009zm-9.66 66.7-3.959-.573-.005.033-.004.033zm-15.18 36.8-3.096-2.533-.023.029-.023.029zm-31.28 23.46 1.501 3.708.037-.015.038-.016zm-25.76-34.04-2.561-3.073-.066.055-.064.058zm7.36-15.64 3.946.658.009-.056.007-.055zm9.2-66.7 3.962.547.001-.007zm-4.14-12.88-2.015 3.455.111.065.115.058zm-21.62 0-2.294-3.277zm-5.98 8.28-3.859-1.052-.066.242-.035.248zm-10.12 71.3-3.96-.562-.003.022-.003.023zm2.3 15.64-3.235 2.353.123.168.139.155zm4.14 41.86v-4c-15.849 0-28.872-2.545-39.232-7.437l-1.708 3.617-1.708 3.617c11.72 5.535 25.99 8.203 42.648 8.203zm-40.94-7.82 1.789-3.578c-10.177-5.088-17.311-12.788-21.542-23.225l-3.707 1.503-3.707 1.503c4.969 12.256 13.475 21.423 25.378 27.375zm-23.46-25.3 3.707-1.503c-4.246-10.474-5.36-23.962-2.967-40.711l-3.96-.566-3.96-.566c-2.514 17.597-1.481 32.63 3.473 44.849zm-3.22-42.78 3.961.555 19.32-138-3.961-.555-3.961-.555-19.32 138zm19.32-138 3.955.596c3.243-21.52 12.278-36.992 26.828-46.978l-2.263-3.298-2.263-3.298c-16.73 11.481-26.708 29.129-30.212 52.382zm28.52-49.68 2.234 3.318c15.141-10.191 34.246-15.418 57.566-15.418v-8c-24.52 0-45.281 5.506-62.034 16.782zm59.8-16.1v4c24.716 0 42.122 5.144 53.031 14.655l2.629-3.015 2.629-3.015c-13.011-11.342-32.711-16.625-58.289-16.625zm55.66 15.64-2.591 3.048c10.803 9.182 15.239 24.081 11.974 46.044l3.957.588 3.957.588c3.481-23.424-.976-41.645-14.706-53.316zm13.34 49.68-3.958-.579-2.76 18.86 3.958.579 3.958.579 2.76-18.86zm-2.76 18.86v-4h-63.02v8h63.02zm-63.02 0 3.97.488 3.22-26.22-3.97-.488-3.97-.488-3.22 26.22zm3.22-26.22 3.941.685c.649-3.733.891-7.102.617-10.028-.274-2.915-1.085-5.653-2.781-7.833l-3.157 2.456-3.157 2.456c.451.58.943 1.676 1.129 3.667.186 1.981.045 4.592-.533 7.912zm-1.38-14.72 3.43-2.058c-2.82-4.7-7.823-6.542-13.55-6.542v8c4.086 0 5.83 1.225 6.69 2.658zm-10.12-4.6v-4c-5.934 0-11.101 2.084-15.248 6.232l2.828 2.828 2.828 2.828c2.6-2.599 5.712-3.888 9.592-3.888zm-12.42 5.06-2.828-2.828c-3.888 3.888-6.253 9.714-7.547 16.832l3.935.716 3.935.716c1.16-6.376 3.088-10.362 5.333-12.608zm-6.44 14.72-3.966-.523-7.82 59.34 3.966.523 3.966.523 7.82-59.34zm-7.82 59.34 3.037 2.603c5.034-5.873 11.315-10.071 18.928-12.608l-1.265-3.795-1.265-3.795c-8.947 2.983-16.466 7.985-22.472 14.992zm20.7-13.8 1.224 3.808c8.242-2.649 16.109-3.948 23.616-3.948v-8c-8.439 0-17.133 1.461-26.064 4.332zm24.84-4.14v4c14.71 0 25.82 3.526 33.79 10.122l2.55-3.082 2.55-3.082c-9.816-8.124-22.933-11.958-38.89-11.958zm36.34 11.04-2.499 3.123c7.753 6.203 11.139 15.927 9.118 30.362l3.961.555 3.961.555c2.273-16.232-1.395-29.201-12.042-37.718zm10.58 34.04-3.959-.573-9.66 66.7 3.959.573 3.959.573 9.66-66.7zm-9.66 66.7-3.968-.507c-1.756 13.755-6.554 25.298-14.308 34.774l3.096 2.533 3.096 2.533c8.806-10.764 14.128-23.755 16.052-38.826zm-15.18 36.8-3.142-2.475c-7.524 9.549-17.393 16.978-29.714 22.258l1.576 3.677 1.576 3.677c13.439-5.76 24.423-13.971 32.846-24.662zm-31.28 23.46-1.501-3.708c-12.313 4.984-26.66 7.528-43.119 7.528v8c17.274 0 32.674-2.669 46.121-8.112zm-37.72-29.44v4c5.585 0 10.534-1.898 14.651-5.64l-2.691-2.96-2.691-2.96c-2.629 2.391-5.654 3.56-9.269 3.56zm11.96-4.6 2.561 3.073c4.73-3.942 7.444-10.252 8.745-18.055l-3.946-.658-3.946-.658c-1.152 6.917-3.345 11.034-5.975 13.225zm7.36-15.64 3.962.547 9.2-66.7-3.962-.547-3.962-.547-9.2 66.7zm9.2-66.7 3.963.54c.979-7.174-.207-13.944-6.314-16.998l-1.789 3.578-1.789 3.578c1.253.626 2.827 2.443 1.966 8.762zm-4.14-12.88 2.015-3.455c-4.194-2.447-8.562-3.765-13.055-3.765v8c2.867 0 5.859.828 9.025 2.675zm-11.04-3.22v-4c-4.751 0-9.09 1.294-12.874 3.943l2.294 3.277 2.294 3.277c2.349-1.645 5.064-2.497 8.286-2.497zm-10.58 3.22-2.294-3.277c-3.774 2.642-6.361 6.163-7.545 10.505l3.859 1.052 3.859 1.052c.656-2.405 2.056-4.404 4.415-6.055zm-5.98 8.28-3.96-.562-10.12 71.3 3.96.562 3.96.562 10.12-71.3zm-10.12 71.3-3.966-.517c-.966 7.403-.328 13.891 3.031 18.51l3.235-2.353 3.235-2.353c-1.548-2.128-2.443-6.066-1.569-12.77zm2.3 15.64-2.973 2.676c3.61 4.012 8.424 5.924 14.013 5.924v-8c-3.611 0-6.157-1.154-8.067-3.276z" mask="url(#a)"/><mask id="b" width="138" height="23" x="157" y="539" fill="var(--card-black, #000)" maskUnits="userSpaceOnUse"><path fill="#fff" d="M157 539h138v23H157z"/><path d="M161.633 557.14v-14.07h129.243v14.07z"/></mask><path fill="var(--card-color, #00f)" d="M161.633 557.14v-14.07h129.243v14.07z"/><path fill="var(--card-black, #000)" d="M161.633 557.14h-4v4h4zm0-14.07v-4h-4v4zm129.243 0h4v-4h-4zm0 14.07v4h4v-4zm-129.243 0h4v-14.07h-8v14.07zm0-14.07v4h129.243v-8H161.633zm129.243 0h-4v14.07h8v-14.07zm0 14.07v-4H161.633v8h129.243z" mask="url(#b)"/><mask id="c" width="50" height="73" x="62" y="61" fill="var(--card-black, #000)" maskUnits="userSpaceOnUse"><path fill="#fff" d="M62 61h50v73H62z"/><path d="M82.59 129.155q-5.565 0-9.345-1.785-3.78-1.89-5.355-5.775t-.735-9.765l4.41-31.5q1.155-7.665 6.51-11.34 5.46-3.675 13.65-3.675 8.61 0 12.705 3.57 4.2 3.57 3.045 11.34l-.63 4.305H92.46l.735-5.985q.42-2.415-.315-3.36-.63-1.05-2.31-1.05c-1.68 0-2.065.385-2.835 1.155q-1.05 1.05-1.47 3.36L84.48 92.195q1.89-2.205 4.725-3.15 2.94-.945 5.67-.945 5.25 0 8.295 2.52 3.15 2.52 2.415 7.77l-2.205 15.225q-.63 4.935-3.465 8.4-2.73 3.465-7.14 5.355-4.41 1.785-10.185 1.785m1.575-8.505q1.575 0 2.73-1.05 1.26-1.05 1.68-3.57l2.1-15.225q.315-2.31-.945-2.94-1.26-.735-2.52-.735-1.365 0-2.415.735c-1.05.735-1.155 1.12-1.365 1.89l-2.31 16.275q-.315 2.415.525 3.57.945 1.05 2.52 1.05"/></mask><path fill="var(--card-black, #000)" d="M82.59 129.155q-5.565 0-9.345-1.785-3.78-1.89-5.355-5.775t-.735-9.765l4.41-31.5q1.155-7.665 6.51-11.34 5.46-3.675 13.65-3.675 8.61 0 12.705 3.57 4.2 3.57 3.045 11.34l-.63 4.305H92.46l.735-5.985q.42-2.415-.315-3.36-.63-1.05-2.31-1.05c-1.68 0-2.065.385-2.835 1.155q-1.05 1.05-1.47 3.36L84.48 92.195q1.89-2.205 4.725-3.15 2.94-.945 5.67-.945 5.25 0 8.295 2.52 3.15 2.52 2.415 7.77l-2.205 15.225q-.63 4.935-3.465 8.4-2.73 3.465-7.14 5.355-4.41 1.785-10.185 1.785m1.575-8.505q1.575 0 2.73-1.05 1.26-1.05 1.68-3.57l2.1-15.225q.315-2.31-.945-2.94-1.26-.735-2.52-.735-1.365 0-2.415.735c-1.05.735-1.155 1.12-1.365 1.89l-2.31 16.275q-.315 2.415.525 3.57.945 1.05 2.52 1.05"/><path fill="var(--card-black, #000)" d="m73.245 127.37-1.789 3.578.04.02.041.019zm-5.355-5.775 3.707-1.503zm-.735-9.765 3.96.566.001-.011zm4.41-31.5-3.955-.596-.003.02-.003.021zm6.51-11.34-2.233-3.318-.016.01-.014.01zm26.355-.105-2.629 3.015.019.016.019.017zm3.045 11.34-3.957-.588-.001.009zm-.63 4.305v4h3.457l.501-3.42zm-14.385 0-3.97-.488-.551 4.488h4.521zm.735-5.985-3.94-.685-.018.098-.012.1zm-.315-3.36-3.43 2.058.124.207.149.19zm-5.145.105-2.828-2.828zm-1.47 3.36-3.935-.715-.018.095-.013.097zM84.48 92.195l-3.966-.523-1.759 13.348 8.762-10.222zm4.725-3.15-1.224-3.808-.02.006-.02.007zm13.965 1.575-2.55 3.082.025.02.026.021zm2.415 7.77 3.959.573.001-.009.001-.01zm-2.205 15.225-3.959-.573-.004.033-.005.033zm-3.465 8.4-3.096-2.533-.023.029-.023.029zm-7.14 5.355 1.5 3.708.038-.015.038-.016zm-5.88-7.77-2.56-3.073-.067.055-.064.058zm1.68-3.57 3.946.658.009-.056.008-.055zm2.1-15.225 3.963.547v-.007zm-.945-2.94-2.015 3.455.11.065.116.058zm-4.935 0-2.294-3.277zm-1.365 1.89-3.86-1.052-.065.242-.035.248zm-2.31 16.275-3.96-.562-.003.022-.003.023zm.525 3.57-3.235 2.353.123.168.139.155zm.945 9.555v-4c-3.306 0-5.797-.533-7.637-1.402l-1.708 3.617-1.708 3.617c3.2 1.511 6.939 2.168 11.053 2.168zm-9.345-1.785 1.789-3.578c-1.657-.828-2.756-2.02-3.437-3.7l-3.707 1.503-3.707 1.503c1.419 3.5 3.89 6.158 7.273 7.85zm-5.355-5.775 3.707-1.503c-.696-1.717-.982-4.2-.482-7.696l-3.96-.566-3.96-.566c-.62 4.344-.416 8.371.988 11.834zm-.735-9.765 3.961.555 4.41-31.5-3.961-.555-3.961-.555-4.41 31.5zm4.41-31.5 3.955.596c.64-4.244 2.338-6.936 4.818-8.638l-2.263-3.298-2.263-3.298c-4.66 3.198-7.302 8.066-8.202 14.042zm6.51-11.34 2.234 3.318c2.834-1.908 6.556-2.993 11.416-2.993v-8c-6.06 0-11.438 1.364-15.883 4.357zm13.65-3.675v4c5.31 0 8.397 1.12 10.076 2.585l2.629-3.015 2.629-3.015c-3.781-3.296-9.163-4.555-15.334-4.555zm12.705 3.57-2.591 3.048c1.337 1.136 2.341 3.255 1.679 7.704l3.957.588 3.957.588c.878-5.91-.148-11.352-4.411-14.976zm3.045 11.34-3.958-.58-.63 4.306 3.958.579 3.958.58.63-4.306zm-.63 4.305v-4H92.46v8h14.385zm-14.385 0 3.97.488.735-5.985-3.97-.488-3.97-.488-.735 5.985zm.735-5.985 3.94.685c.177-1.011.27-2.073.174-3.106-.096-1.021-.404-2.28-1.272-3.395l-3.157 2.456-3.157 2.456a2.1 2.1 0 0 1-.335-.604c-.045-.133-.047-.2-.044-.166.003.032.008.128-.003.302-.011.173-.037.4-.087.687zm-.315-3.36 3.43-2.058c-1.4-2.333-3.8-2.992-5.74-2.992v8c.165 0 .037.029-.238-.096a2.05 2.05 0 0 1-.882-.796zm-2.31-1.05v-4c-2.147 0-4.12.783-5.663 2.327l2.828 2.828 2.828 2.828.02-.018-.003.002a.2.2 0 0 1-.05.026l-.034.011.018-.002.056-.002zm-2.835 1.155-2.828-2.828c-1.522 1.52-2.23 3.561-2.577 5.473l3.935.715 3.936.716c.099-.546.215-.898.306-1.108.09-.207.131-.214.056-.14zm-1.47 3.36-3.966-.523-1.785 13.545 3.966.523 3.966.523 1.785-13.545zM84.48 92.195l3.037 2.603c.774-.903 1.73-1.55 2.953-1.958l-1.265-3.795-1.265-3.795c-2.557.852-4.751 2.305-6.497 4.342zm4.725-3.15 1.224 3.808c1.616-.52 3.092-.753 4.446-.753v-8c-2.286 0-4.59.396-6.894 1.137zm5.67-.945v4c2.877 0 4.638.686 5.745 1.602l2.55-3.082 2.55-3.082c-2.953-2.444-6.722-3.438-10.845-3.438zm8.295 2.52-2.499 3.123c.653.523 1.317 1.49.953 4.092l3.961.555 3.961.555c.616-4.399-.33-8.611-3.877-11.449zm2.415 7.77-3.959-.573-2.205 15.225 3.959.573 3.959.573 2.205-15.225zm-2.205 15.225-3.968-.507c-.336 2.632-1.23 4.708-2.593 6.374l3.096 2.533 3.096 2.533c2.416-2.954 3.833-6.478 4.337-10.426zm-3.465 8.4-3.142-2.475c-1.37 1.739-3.193 3.133-5.574 4.153l1.576 3.677 1.576 3.677c3.499-1.5 6.437-3.676 8.706-6.557zm-7.14 5.355-1.5-3.708c-2.374.961-5.242 1.493-8.685 1.493v8c4.257 0 8.179-.658 11.686-2.077zm-8.61-6.72v4a7.92 7.92 0 0 0 5.42-2.09l-2.69-2.96-2.69-2.96q-.037.032-.034.027l.01-.005.018-.008.018-.006.006-.001q0 .002-.058.003zm2.73-1.05 2.56 3.073c1.89-1.575 2.712-3.862 3.066-5.985l-3.946-.658-3.946-.658c-.096.579-.218.925-.303 1.107-.081.172-.102.14.008.048zm1.68-3.57 3.963.547 2.1-15.225-3.963-.547-3.962-.547-2.1 15.225zm2.1-15.225 3.963.54c.269-1.967.148-5.424-3.12-7.058l-1.788 3.578-1.789 3.578a2.4 2.4 0 0 1-.765-.612 2.1 2.1 0 0 1-.388-.692c-.095-.295-.015-.327-.076.126zm-.945-2.94 2.016-3.455c-1.355-.79-2.883-1.28-4.536-1.28v8c.027 0 .179 0 .504.19zm-2.52-.735v-4c-1.674 0-3.292.466-4.709 1.458l2.294 3.277 2.294 3.277.006-.004-.004.002h-.003l.006-.001.019-.003a1 1 0 0 1 .097-.006zm-2.415.735-2.294-3.277c-1.407.985-2.456 2.377-2.93 4.115l3.859 1.052 3.86 1.052a.8.8 0 0 1-.119.24c-.059.082-.102.109-.082.095zm-1.365 1.89-3.96-.562-2.31 16.275 3.96.562 3.96.562 2.31-16.275zm-2.31 16.275-3.966-.517c-.256 1.96-.21 4.424 1.256 6.44l3.235-2.353 3.235-2.353c.188.258.189.421.171.301-.019-.129-.037-.442.035-1.001zm.525 3.57-2.973 2.676c1.48 1.645 3.454 2.374 5.493 2.374v-8c-.077 0-.016-.012.121.045q.1.042.196.109a1 1 0 0 1 .136.12z" mask="url(#c)"/><mask id="d" width="37" height="8" x="66" y="133" fill="var(--card-black, #000)" maskUnits="userSpaceOnUse"><path fill="#fff" d="M66 133h37v8H66z"/><path d="M68.65 139v-3.5h32.15v3.5z"/></mask><path fill="var(--card-black, #000)" d="M68.65 139v-3.5h32.15v3.5z"/><path fill="var(--card-black, #000)" d="M68.65 139h-2v2h2zm0-3.5v-2h-2v2zm32.15 0h2v-2h-2zm0 3.5v2h2v-2zm-32.15 0h2v-3.5h-4v3.5zm0-3.5v2h32.15v-4H68.65zm32.15 0h-2v3.5h4v-3.5zm0 3.5v-2H68.65v4h32.15z" mask="url(#d)"/><mask id="e" width="48" height="71" x="60" y="59" fill="var(--card-black, #000)" maskUnits="userSpaceOnUse"><path fill="#fff" d="M60 59h48v71H60z"/><path d="M79.59 126.155q-5.565 0-9.345-1.785-3.78-1.89-5.355-5.775t-.735-9.765l4.41-31.5q1.155-7.665 6.51-11.34 5.46-3.675 13.65-3.675 8.61 0 12.705 3.57 4.2 3.57 3.045 11.34l-.63 4.305H89.46l.735-5.985q.42-2.415-.315-3.36-.63-1.05-2.31-1.05c-1.68 0-2.065.385-2.835 1.155q-1.05 1.05-1.47 3.36L81.48 89.195q1.89-2.205 4.725-3.15 2.94-.945 5.67-.945 5.25 0 8.295 2.52 3.15 2.52 2.415 7.77l-2.205 15.225q-.63 4.935-3.465 8.4-2.73 3.465-7.14 5.355-4.41 1.785-10.185 1.785m1.575-8.505q1.575 0 2.73-1.05 1.26-1.05 1.68-3.57l2.1-15.225q.315-2.31-.945-2.94-1.26-.735-2.52-.735-1.365 0-2.415.735c-1.05.735-1.155 1.12-1.365 1.89l-2.31 16.275q-.315 2.415.525 3.57.945 1.05 2.52 1.05"/></mask><path fill="#fff" d="M79.59 126.155q-5.565 0-9.345-1.785-3.78-1.89-5.355-5.775t-.735-9.765l4.41-31.5q1.155-7.665 6.51-11.34 5.46-3.675 13.65-3.675 8.61 0 12.705 3.57 4.2 3.57 3.045 11.34l-.63 4.305H89.46l.735-5.985q.42-2.415-.315-3.36-.63-1.05-2.31-1.05c-1.68 0-2.065.385-2.835 1.155q-1.05 1.05-1.47 3.36L81.48 89.195q1.89-2.205 4.725-3.15 2.94-.945 5.67-.945 5.25 0 8.295 2.52 3.15 2.52 2.415 7.77l-2.205 15.225q-.63 4.935-3.465 8.4-2.73 3.465-7.14 5.355-4.41 1.785-10.185 1.785m1.575-8.505q1.575 0 2.73-1.05 1.26-1.05 1.68-3.57l2.1-15.225q.315-2.31-.945-2.94-1.26-.735-2.52-.735-1.365 0-2.415.735c-1.05.735-1.155 1.12-1.365 1.89l-2.31 16.275q-.315 2.415.525 3.57.945 1.05 2.52 1.05"/><path fill="var(--card-black, #000)" d="m70.245 124.37-1.342 2.683.03.015.031.015zm-5.355-5.775 2.78-1.127zm-.735-9.765 2.97.424.001-.008zm4.41-31.5-2.966-.447-.003.016-.002.015zm6.51-11.34L73.4 63.501l-.011.008-.011.007zm26.355-.105-1.971 2.261.014.013.014.012zm3.045 11.34-2.967-.441-.001.007zm-.63 4.305v3h2.593l.375-2.566zm-14.385 0-2.978-.366-.413 3.366h3.391zm.735-5.985-2.956-.514-.013.074-.009.074zm-.315-3.36-2.572 1.544.093.155.11.143zm-5.145.105-2.121-2.121zm-1.47 3.36-2.952-.537-.013.072-.01.073zM81.48 89.195l-2.974-.392-1.32 10.01 6.572-7.666zm4.725-3.15-.918-2.856-.015.005-.016.005zm13.965 1.575-1.913 2.311.02.016.019.016zm2.415 7.77 2.969.43.001-.007.001-.007zm-2.205 15.225-2.969-.43-.004.025-.003.025zm-3.465 8.4-2.322-1.9-.017.022-.017.021zm-7.14 5.355 1.126 2.781.028-.012.028-.012zm-5.88-7.77-1.92-2.305-.05.042-.048.043zm1.68-3.57 2.96.493.006-.041.006-.042zm2.1-15.225 2.972.41v-.005zm-.945-2.94-1.512 2.591.084.049.086.043zm-4.935 0-1.72-2.458zm-1.365 1.89-2.894-.79-.05.182-.026.186zm-2.31 16.275-2.97-.422-.003.017-.002.017zm.525 3.57-2.426 1.765.092.126.104.116zm.945 9.555v-3c-3.407 0-6.054-.549-8.064-1.498l-1.281 2.713-1.281 2.713c3.03 1.431 6.613 2.072 10.626 2.072zm-9.345-1.785 1.342-2.683c-1.873-.937-3.143-2.312-3.917-4.219l-2.78 1.127-2.78 1.127c1.327 3.273 3.626 5.748 6.793 7.331zm-5.355-5.775 2.78-1.127c-.784-1.936-1.06-4.611-.545-8.214l-2.97-.424-2.97-.424c-.605 4.237-.39 8.072.925 11.316zm-.735-9.765 2.971.416 4.41-31.5-2.971-.416-2.971-.416-4.41 31.5zm4.41-31.5 2.967.447c.672-4.46 2.488-7.424 5.24-9.313l-1.697-2.474-1.697-2.473c-4.388 3.01-6.912 7.606-7.78 13.366zm6.51-11.34 1.675 2.489c3.036-2.044 6.965-3.164 11.975-3.164v-6c-5.91 0-11.081 1.33-15.325 4.186zm13.65-3.675v3c5.417 0 8.791 1.138 10.734 2.831l1.971-2.261 1.971-2.261c-3.517-3.067-8.613-4.309-14.676-4.309zm12.705 3.57-1.943 2.286c1.702 1.447 2.709 3.981 2.021 8.613l2.967.441 2.967.441c.852-5.728-.171-10.754-4.069-14.067zm3.045 11.34-2.968-.434-.63 4.305 2.968.434 2.968.434.63-4.305zm-.63 4.305v-3H89.46v6h14.385zm-14.385 0 2.978.366.735-5.985-2.978-.366-2.978-.366-.735 5.985zm.735-5.985 2.956.514c.167-.96.248-1.927.162-2.841-.085-.907-.353-1.96-1.065-2.875l-2.368 1.842-2.368 1.842c-.222-.285-.193-.463-.173-.25.02.206.013.604-.1 1.254zm-.315-3.36 2.573-1.543c-1.155-1.925-3.148-2.507-4.883-2.507v6c.264 0 .286.043.176-.006a1.064 1.064 0 0 1-.439-.4zm-2.31-1.05v-3c-1.89 0-3.606.683-4.956 2.034l2.121 2.121 2.121 2.121c.19-.19.364-.276.714-.276zm-2.835 1.155-2.121-2.121c-1.316 1.316-1.97 3.126-2.3 4.944l2.951.537 2.952.537c.229-1.262.555-1.692.64-1.776zm-1.47 3.36-2.974-.392-1.785 13.545 2.974.392 2.974.392 1.785-13.545zM81.48 89.195l2.278 1.952c.895-1.044 2.006-1.793 3.396-2.256l-.949-2.846-.949-2.846c-2.39.797-4.43 2.148-6.054 4.044zm4.725-3.15.918 2.856c1.702-.547 3.282-.801 4.752-.801v-6c-2.17 0-4.37.376-6.588 1.089zm5.67-.945v3c3.033 0 5.045.724 6.382 1.831l1.913-2.311 1.913-2.311c-2.723-2.253-6.24-3.209-10.208-3.209zm8.295 2.52-1.874 2.343c1.015.812 1.714 2.185 1.318 5.011l2.971.416 2.971.416c.584-4.174-.327-7.98-3.512-10.529zm2.415 7.77-2.969-.43-2.205 15.225 2.969.43 2.969.43 2.205-15.225zm-2.205 15.225-2.976-.38c-.357 2.796-1.316 5.053-2.81 6.88l2.321 1.9 2.322 1.9c2.285-2.793 3.636-6.136 4.119-9.92zm-3.465 8.4-2.356-1.857c-1.484 1.883-3.445 3.374-5.966 4.455l1.182 2.757 1.182 2.757c3.359-1.439 6.158-3.518 8.315-6.255zm-7.14 5.355-1.126-2.781c-2.514 1.018-5.515 1.566-9.059 1.566v6c4.156 0 7.945-.642 11.31-2.004zm-8.61-6.72v3c1.789 0 3.42-.623 4.748-1.83l-2.018-2.22-2.018-2.22c-.212.193-.4.27-.712.27zm2.73-1.05 1.92 2.305c1.628-1.357 2.384-3.37 2.72-5.382l-2.96-.493-2.96-.493c-.224 1.348-.588 1.715-.64 1.758zm1.68-3.57 2.972.41 2.1-15.225-2.972-.41-2.972-.41-2.1 15.225zm2.1-15.225 2.973.405c.253-1.86.084-4.698-2.576-6.028l-1.342 2.683-1.342 2.683a1.4 1.4 0 0 1-.44-.354 1.1 1.1 0 0 1-.208-.361c-.02-.062-.008-.057-.003.047.004.103 0 .272-.034.52zm-.945-2.94 1.512-2.591c-1.226-.715-2.582-1.144-4.032-1.144v6c.23 0 .554.061 1.008.326zm-2.52-.735v-3c-1.483 0-2.898.41-4.135 1.277l1.72 2.458 1.72 2.458c.163-.114.358-.193.695-.193zm-2.415.735-1.72-2.458c-1.23.862-2.131 2.063-2.54 3.559l2.895.789 2.894.79c.012-.045.022-.104.191-.222zm-1.365 1.89-2.97-.422-2.31 16.275 2.97.422 2.97.422 2.31-16.275zm-2.31 16.275-2.975-.388c-.244 1.873-.165 4.019 1.074 5.723l2.426-1.765 2.426-1.765c.07.098.026.097-.01-.141-.035-.246-.047-.656.034-1.276zm.525 3.57-2.23 2.007c1.268 1.409 2.958 2.043 4.75 2.043v-6c-.19 0-.261-.031-.264-.032l-.002-.001.002.001-.006-.005-.02-.02z" mask="url(#e)"/><mask id="f" width="37" height="8" x="63" y="130" fill="var(--card-black, #000)" maskUnits="userSpaceOnUse"><path fill="#fff" d="M63 130h37v8H63z"/><path d="M65.65 136v-3.5H97.8v3.5z"/></mask><path fill="#fff" d="M65.65 136v-3.5H97.8v3.5z"/><path fill="var(--card-black, #000)" d="M65.65 136h-2v2h2zm0-3.5v-2h-2v2zm32.15 0h2v-2h-2zm0 3.5v2h2v-2zm-32.15 0h2v-3.5h-4v3.5zm0-3.5v2H97.8v-4H65.65zm32.15 0h-2v3.5h4v-3.5zm0 3.5v-2H65.65v4H97.8z" mask="url(#f)"/><mask id="g" width="50" height="73" x="379" y="631" fill="var(--card-black, #000)" maskUnits="userSpaceOnUse"><path fill="#fff" d="M379 631h50v73h-50z"/><path d="M408.41 635.845q5.565 0 9.345 1.785 3.78 1.89 5.355 5.775t.735 9.765l-4.41 31.5q-1.155 7.665-6.51 11.34-5.46 3.675-13.65 3.675-8.61 0-12.705-3.57-4.2-3.57-3.045-11.34l.63-4.305h14.385l-.735 5.985q-.42 2.415.315 3.36.63 1.05 2.31 1.05c1.68 0 2.065-.385 2.835-1.155q1.05-1.05 1.47-3.36l1.785-13.545q-1.89 2.205-4.725 3.15-2.94.945-5.67.945-5.25 0-8.295-2.52-3.15-2.52-2.415-7.77l2.205-15.225q.63-4.935 3.465-8.4 2.73-3.465 7.14-5.355 4.41-1.785 10.185-1.785m-1.575 8.505q-1.575 0-2.73 1.05-1.26 1.05-1.68 3.57l-2.1 15.225q-.315 2.31.945 2.94 1.26.735 2.52.735 1.365 0 2.415-.735c1.05-.735 1.155-1.12 1.365-1.89l2.31-16.275q.315-2.415-.525-3.57-.945-1.05-2.52-1.05"/></mask><path fill="var(--card-black, #000)" d="M408.41 635.845q5.565 0 9.345 1.785 3.78 1.89 5.355 5.775t.735 9.765l-4.41 31.5q-1.155 7.665-6.51 11.34-5.46 3.675-13.65 3.675-8.61 0-12.705-3.57-4.2-3.57-3.045-11.34l.63-4.305h14.385l-.735 5.985q-.42 2.415.315 3.36.63 1.05 2.31 1.05c1.68 0 2.065-.385 2.835-1.155q1.05-1.05 1.47-3.36l1.785-13.545q-1.89 2.205-4.725 3.15-2.94.945-5.67.945-5.25 0-8.295-2.52-3.15-2.52-2.415-7.77l2.205-15.225q.63-4.935 3.465-8.4 2.73-3.465 7.14-5.355 4.41-1.785 10.185-1.785m-1.575 8.505q-1.575 0-2.73 1.05-1.26 1.05-1.68 3.57l-2.1 15.225q-.315 2.31.945 2.94 1.26.735 2.52.735 1.365 0 2.415-.735c1.05-.735 1.155-1.12 1.365-1.89l2.31-16.275q.315-2.415-.525-3.57-.945-1.05-2.52-1.05"/><path fill="var(--card-black, #000)" d="m417.755 637.63 1.789-3.578-.04-.02-.041-.019zm5.355 5.775-3.707 1.503zm.735 9.765-3.96-.566-.001.011zm-4.41 31.5 3.955.596.003-.021.003-.02zm-6.51 11.34 2.234 3.318.014-.01.015-.01zm-26.355.105 2.629-3.015-.019-.017-.019-.016zm-3.045-11.34 3.957.588.001-.009zm.63-4.305v-4h-3.457l-.501 3.421zm14.385 0 3.97.488.551-4.488h-4.521zm-.735 5.985 3.941.685.017-.098.012-.099zm.315 3.36 3.43-2.058-.124-.207-.149-.191zm5.145-.105 2.828 2.828zm1.47-3.36 3.935.716.018-.097.013-.096zm1.785-13.545 3.966.523 1.759-13.348-8.762 10.222zm-4.725 3.15 1.224 3.808.021-.006.02-.007zm-13.965-1.575 2.55-3.082-.025-.021-.026-.02zm-2.415-7.77-3.959-.573-.001.009-.001.009zm2.205-15.225 3.959.573.005-.033.004-.033zm3.465-8.4 3.096 2.533.023-.029.023-.029zm7.14-5.355-1.501-3.708-.037.015-.038.016zm5.88 7.77 2.561 3.073.066-.055.064-.058zm-1.68 3.57-3.946-.658-.009.056-.007.055zm-2.1 15.225-3.962-.547-.001.007zm.945 2.94 2.015-3.455-.111-.065-.115-.058zm4.935 0 2.294 3.277zm1.365-1.89 3.859 1.052.066-.242.035-.248zm2.31-16.275 3.96.562.003-.022.003-.023zm-.525-3.57 3.235-2.353-.123-.168-.139-.155zm-.945-9.555v4c3.306 0 5.797.533 7.637 1.402l1.708-3.617 1.708-3.617c-3.2-1.511-6.939-2.168-11.053-2.168zm9.345 1.785-1.789 3.578c1.657.828 2.756 2.02 3.437 3.7l3.707-1.503 3.707-1.503c-1.419-3.5-3.89-6.158-7.273-7.85zm5.355 5.775-3.707 1.503c.696 1.717.982 4.2.482 7.696l3.96.566 3.96.566c.62-4.344.416-8.371-.988-11.834zm.735 9.765-3.961-.555-4.41 31.5 3.961.555 3.961.555 4.41-31.5zm-4.41 31.5-3.955-.596c-.64 4.244-2.338 6.936-4.818 8.638l2.263 3.298 2.263 3.298c4.66-3.198 7.302-8.066 8.202-14.042zm-6.51 11.34-2.234-3.318c-2.834 1.908-6.556 2.993-11.416 2.993v8c6.06 0 11.438-1.365 15.884-4.357zm-13.65 3.675v-4c-5.309 0-8.397-1.121-10.076-2.585l-2.629 3.015-2.629 3.015c3.781 3.296 9.163 4.555 15.334 4.555zm-12.705-3.57 2.591-3.048c-1.337-1.136-2.341-3.255-1.679-7.704l-3.957-.588-3.957-.588c-.878 5.911.148 11.352 4.411 14.976zm-3.045-11.34 3.958.579.63-4.305-3.958-.579-3.958-.579-.63 4.305zm.63-4.305v4h14.385v-8h-14.385zm14.385 0-3.97-.488-.735 5.985 3.97.488 3.97.488.735-5.985zm-.735 5.985-3.941-.685c-.176 1.011-.27 2.073-.173 3.106.096 1.021.404 2.28 1.272 3.395l3.157-2.456 3.157-2.456c.191.245.288.466.335.604.045.133.047.199.044.166a2 2 0 0 1 .003-.302c.011-.173.037-.4.087-.687zm.315 3.36-3.43 2.058c1.4 2.333 3.799 2.992 5.74 2.992v-8c-.165 0-.037-.029.238.096.325.148.659.424.882.796zm2.31 1.05v4c2.147 0 4.12-.783 5.663-2.327l-2.828-2.828-2.828-2.828-.02.018.003-.002.021-.013.029-.013.025-.009.009-.002-.019.002-.055.002zm2.835-1.155 2.828 2.828c1.522-1.521 2.23-3.561 2.577-5.472l-3.935-.716-3.935-.716c-.1.546-.216.898-.307 1.108-.091.207-.131.214-.056.14zm1.47-3.36 3.966.523 1.785-13.545-3.966-.523-3.966-.523-1.785 13.545zm1.785-13.545-3.037-2.603c-.774.903-1.73 1.551-2.953 1.958l1.265 3.795 1.265 3.795c2.557-.853 4.751-2.305 6.497-4.342zm-4.725 3.15-1.224-3.808c-1.616.519-3.092.753-4.446.753v8c2.286 0 4.59-.396 6.894-1.137zm-5.67.945v-4c-2.877 0-4.638-.686-5.745-1.602l-2.55 3.082-2.55 3.082c2.953 2.444 6.722 3.438 10.845 3.438zm-8.295-2.52 2.499-3.123c-.653-.523-1.317-1.491-.953-4.092l-3.961-.555-3.961-.555c-.616 4.399.33 8.611 3.877 11.448zm-2.415-7.77 3.959.573 2.205-15.225-3.959-.573-3.959-.573-2.205 15.225zm2.205-15.225 3.968.507c.336-2.632 1.229-4.708 2.593-6.374l-3.096-2.533-3.096-2.533c-2.416 2.954-3.833 6.478-4.337 10.426zm3.465-8.4 3.142 2.475c1.371-1.739 3.193-3.133 5.574-4.153l-1.576-3.677-1.576-3.677c-3.499 1.5-6.437 3.676-8.706 6.557zm7.14-5.355 1.501 3.708c2.373-.961 5.241-1.493 8.684-1.493v-8c-4.257 0-8.179.658-11.686 2.077zm8.61 6.72v-4a7.92 7.92 0 0 0-5.421 2.09l2.691 2.96 2.691 2.96a.2.2 0 0 1 .033-.027l-.01.005-.018.008-.018.006-.006.001q0-.001.058-.003zm-2.73 1.05-2.561-3.073c-1.89 1.575-2.711 3.862-3.065 5.985l3.946.658 3.946.658c.096-.579.218-.925.303-1.107.081-.172.102-.14-.008-.048zm-1.68 3.57-3.962-.547-2.1 15.225 3.962.547 3.962.547 2.1-15.225zm-2.1 15.225-3.963-.54c-.269 1.967-.148 5.424 3.119 7.058l1.789-3.578 1.789-3.578c.272.136.541.342.765.612.218.265.332.519.388.692.095.295.015.327.076-.126zm.945 2.94-2.015 3.455c1.354.79 2.882 1.28 4.535 1.28v-8c-.027 0-.179 0-.505-.19zm2.52.735v4c1.674 0 3.292-.466 4.709-1.458l-2.294-3.277-2.294-3.277-.006.004.004-.002h.003l-.006.001-.019.003a1 1 0 0 1-.097.006zm2.415-.735 2.294 3.277c1.407-.985 2.456-2.377 2.93-4.115l-3.859-1.052-3.859-1.052a.8.8 0 0 1 .118-.24c.059-.082.102-.109.082-.095zm1.365-1.89 3.96.562 2.31-16.275-3.96-.562-3.96-.562-2.31 16.275zm2.31-16.275 3.966.517c.256-1.96.21-4.424-1.256-6.44l-3.235 2.353-3.235 2.353c-.188-.258-.189-.421-.171-.301.019.129.037.442-.035 1.001zm-.525-3.57 2.973-2.676c-1.48-1.645-3.454-2.374-5.493-2.374v8c.077 0 .016.012-.121-.045a1 1 0 0 1-.196-.109 1 1 0 0 1-.136-.12z" mask="url(#g)"/><mask id="h" width="37" height="8" x="388" y="624" fill="var(--card-black, #000)" maskUnits="userSpaceOnUse"><path fill="#fff" d="M388 624h37v8h-37z"/><path d="M422.35 626v3.5H390.2V626z"/></mask><path fill="var(--card-black, #000)" d="M422.35 626v3.5H390.2V626z"/><path fill="var(--card-black, #000)" d="M422.35 626h2v-2h-2zm0 3.5v2h2v-2zm-32.15 0h-2v2h2zm0-3.5v-2h-2v2zm32.15 0h-2v3.5h4V626zm0 3.5v-2H390.2v4h32.15zm-32.15 0h2V626h-4v3.5zm0-3.5v2h32.15v-4H390.2z" mask="url(#h)"/><mask id="i" width="48" height="71" x="377" y="629" fill="var(--card-black, #000)" maskUnits="userSpaceOnUse"><path fill="#fff" d="M377 629h48v71h-48z"/><path d="M405.41 632.845q5.565 0 9.345 1.785 3.78 1.89 5.355 5.775t.735 9.765l-4.41 31.5q-1.155 7.665-6.51 11.34-5.46 3.675-13.65 3.675-8.61 0-12.705-3.57-4.2-3.57-3.045-11.34l.63-4.305h14.385l-.735 5.985q-.42 2.415.315 3.36.63 1.05 2.31 1.05c1.68 0 2.065-.385 2.835-1.155q1.05-1.05 1.47-3.36l1.785-13.545q-1.89 2.205-4.725 3.15-2.94.945-5.67.945-5.25 0-8.295-2.52-3.15-2.52-2.415-7.77l2.205-15.225q.63-4.935 3.465-8.4 2.73-3.465 7.14-5.355 4.41-1.785 10.185-1.785m-1.575 8.505q-1.575 0-2.73 1.05-1.26 1.05-1.68 3.57l-2.1 15.225q-.315 2.31.945 2.94 1.26.735 2.52.735 1.365 0 2.415-.735c1.05-.735 1.155-1.12 1.365-1.89l2.31-16.275q.315-2.415-.525-3.57-.945-1.05-2.52-1.05"/></mask><path fill="#fff" d="M405.41 632.845q5.565 0 9.345 1.785 3.78 1.89 5.355 5.775t.735 9.765l-4.41 31.5q-1.155 7.665-6.51 11.34-5.46 3.675-13.65 3.675-8.61 0-12.705-3.57-4.2-3.57-3.045-11.34l.63-4.305h14.385l-.735 5.985q-.42 2.415.315 3.36.63 1.05 2.31 1.05c1.68 0 2.065-.385 2.835-1.155q1.05-1.05 1.47-3.36l1.785-13.545q-1.89 2.205-4.725 3.15-2.94.945-5.67.945-5.25 0-8.295-2.52-3.15-2.52-2.415-7.77l2.205-15.225q.63-4.935 3.465-8.4 2.73-3.465 7.14-5.355 4.41-1.785 10.185-1.785m-1.575 8.505q-1.575 0-2.73 1.05-1.26 1.05-1.68 3.57l-2.1 15.225q-.315 2.31.945 2.94 1.26.735 2.52.735 1.365 0 2.415-.735c1.05-.735 1.155-1.12 1.365-1.89l2.31-16.275q.315-2.415-.525-3.57-.945-1.05-2.52-1.05"/><path fill="var(--card-black, #000)" d="m414.755 634.63 1.342-2.683-.031-.015-.03-.015zm5.355 5.775-2.78 1.127zm.735 9.765-2.97-.424-.001.008zm-4.41 31.5 2.967.447.002-.016.002-.015zm-6.51 11.34 1.675 2.489.011-.008.012-.007zm-26.355.105 1.971-2.261-.014-.013-.014-.012zm-3.045-11.34 2.967.441.001-.007zm.63-4.305v-3h-2.593l-.375 2.566zm14.385 0 2.978.366.413-3.366h-3.391zm-.735 5.985 2.956.514.012-.074.01-.074zm.315 3.36 2.572-1.543-.093-.156-.111-.143zm5.145-.105 2.121 2.121zm1.47-3.36 2.952.537.013-.072.009-.073zm1.785-13.545 2.974.392 1.32-10.011-6.572 7.667zm-4.725 3.15.918 2.856.015-.005.016-.005zm-13.965-1.575 1.913-2.311-.019-.016-.02-.016zm-2.415-7.77-2.969-.43-.001.007-.001.007zm2.205-15.225 2.969.43.004-.025.003-.025zm3.465-8.4 2.322 1.9.017-.022.017-.021zm7.14-5.355-1.126-2.781-.028.012-.028.012zm5.88 7.77 1.921 2.305.049-.042.048-.043zm-1.68 3.57-2.959-.493-.007.041-.006.042zm-2.1 15.225-2.972-.41v.005zm.945 2.94 1.512-2.591-.084-.049-.086-.043zm4.935 0 1.72 2.458zm1.365-1.89 2.894.789.05-.181.026-.186zm2.31-16.275 2.97.422.003-.017.002-.017zm-.525-3.57 2.426-1.765-.092-.126-.104-.116zm-.945-9.555v3c3.407 0 6.054.549 8.064 1.498l1.281-2.713 1.281-2.713c-3.03-1.431-6.613-2.072-10.626-2.072zm9.345 1.785-1.342 2.683c1.873.937 3.143 2.312 3.917 4.219l2.78-1.127 2.78-1.127c-1.326-3.273-3.626-5.748-6.793-7.331zm5.355 5.775-2.78 1.127c.784 1.936 1.06 4.611.545 8.214l2.97.424 2.97.424c.605-4.237.391-8.072-.925-11.316zm.735 9.765-2.971-.416-4.41 31.5 2.971.416 2.971.416 4.41-31.5zm-4.41 31.5-2.967-.447c-.672 4.46-2.488 7.424-5.241 9.313l1.698 2.474 1.698 2.474c4.387-3.011 6.911-7.607 7.779-13.367zm-6.51 11.34-1.675-2.489c-3.036 2.044-6.965 3.164-11.975 3.164v6c5.91 0 11.081-1.33 15.325-4.186zm-13.65 3.675v-3c-5.417 0-8.791-1.138-10.734-2.831l-1.971 2.261-1.971 2.261c3.517 3.067 8.613 4.309 14.676 4.309zm-12.705-3.57 1.943-2.286c-1.702-1.447-2.709-3.981-2.021-8.613l-2.967-.441-2.967-.441c-.852 5.728.171 10.754 4.069 14.067zm-3.045-11.34 2.968.434.63-4.305-2.968-.434-2.968-.434-.63 4.305zm.63-4.305v3h14.385v-6h-14.385zm14.385 0-2.978-.366-.735 5.985 2.978.366 2.978.366.735-5.985zm-.735 5.985-2.956-.514c-.167.96-.248 1.927-.162 2.842.085.906.353 1.959 1.065 2.874l2.368-1.842 2.368-1.842c.222.285.193.463.173.249-.02-.205-.013-.603.1-1.253zm.315 3.36-2.572 1.543c1.154 1.925 3.147 2.507 4.882 2.507v-6c-.264 0-.286-.043-.176.006.06.028.143.076.231.154s.159.165.207.247zm2.31 1.05v3c1.89 0 3.606-.683 4.956-2.034l-2.121-2.121-2.121-2.121c-.19.189-.364.276-.714.276zm2.835-1.155 2.121 2.121c1.316-1.316 1.97-3.126 2.301-4.944l-2.952-.537-2.952-.537c-.229 1.262-.555 1.692-.639 1.776zm1.47-3.36 2.974.392 1.785-13.545-2.974-.392-2.974-.392-1.785 13.545zm1.785-13.545-2.278-1.952c-.895 1.044-2.006 1.793-3.396 2.256l.949 2.846.949 2.846c2.39-.797 4.429-2.148 6.054-4.044zm-4.725 3.15-.918-2.856c-1.702.547-3.281.801-4.752.801v6c2.169 0 4.37-.376 6.588-1.089zm-5.67.945v-3c-3.032 0-5.045-.724-6.382-1.831l-1.913 2.311-1.913 2.311c2.723 2.253 6.24 3.209 10.208 3.209zm-8.295-2.52 1.874-2.343c-1.015-.812-1.714-2.185-1.318-5.011l-2.971-.416-2.971-.416c-.584 4.174.327 7.981 3.512 10.529zm-2.415-7.77 2.969.43 2.205-15.225-2.969-.43-2.969-.43-2.205 15.225zm2.205-15.225 2.976.38c.357-2.796 1.316-5.053 2.811-6.88l-2.322-1.9-2.322-1.9c-2.285 2.793-3.636 6.136-4.119 9.92zm3.465-8.4 2.356 1.857c1.484-1.883 3.445-3.374 5.966-4.455l-1.182-2.757-1.182-2.757c-3.359 1.439-6.158 3.518-8.314 6.255zm7.14-5.355 1.126 2.781c2.514-1.018 5.514-1.566 9.059-1.566v-6c-4.155 0-7.945.642-11.311 2.004zm8.61 6.72v-3c-1.789 0-3.42.623-4.748 1.83l2.018 2.22 2.018 2.22c.212-.193.401-.27.712-.27zm-2.73 1.05-1.921-2.305c-1.627 1.357-2.383 3.37-2.718 5.382l2.959.493 2.959.493c.225-1.348.589-1.715.642-1.758zm-1.68 3.57-2.972-.41-2.1 15.225 2.972.41 2.972.41 2.1-15.225zm-2.1 15.225-2.972-.405c-.254 1.861-.085 4.698 2.575 6.028l1.342-2.683 1.342-2.683c.151.075.309.194.441.354.127.155.185.293.207.361.02.062.008.057.003-.047a3 3 0 0 1 .034-.52zm.945 2.94-1.512 2.591c1.226.715 2.582 1.144 4.032 1.144v-6c-.23 0-.554-.061-1.008-.326zm2.52.735v3c1.483 0 2.898-.411 4.135-1.277l-1.72-2.458-1.72-2.458c-.163.114-.358.193-.695.193zm2.415-.735 1.72 2.458c1.231-.862 2.131-2.063 2.539-3.559l-2.894-.789-2.894-.789c-.012.044-.022.103-.191.221zm1.365-1.89 2.97.422 2.31-16.275-2.97-.422-2.97-.422-2.31 16.275zm2.31-16.275 2.975.388c.244-1.873.165-4.019-1.074-5.723l-2.426 1.765-2.426 1.765c-.071-.098-.026-.097.009.141.036.246.048.656-.033 1.276zm-.525-3.57 2.23-2.007c-1.268-1.409-2.958-2.043-4.75-2.043v6c.189 0 .261.031.264.032l.002.001-.002-.001.006.005.02.02z" mask="url(#i)"/><mask id="j" width="37" height="8" x="385" y="621" fill="var(--card-black, #000)" maskUnits="userSpaceOnUse"><path fill="#fff" d="M385 621h37v8h-37z"/><path d="M419.35 623v3.5H387.2V623z"/></mask><path fill="#fff" d="M419.35 623v3.5H387.2V623z"/><path fill="var(--card-black, #000)" d="M419.35 623h2v-2h-2zm0 3.5v2h2v-2zm-32.15 0h-2v2h2zm0-3.5v-2h-2v2zm32.15 0h-2v3.5h4V623zm0 3.5v-2H387.2v4h32.15zm-32.15 0h2V623h-4v3.5zm0-3.5v2h32.15v-4H387.2z" mask="url(#j)"/></svg>