<svg xmlns="http://www.w3.org/2000/svg" width="486" height="759" viewBox="0 0 486 759" fill="none"><rect width="486" height="759" fill="#fff" rx="51"/><path fill="var(--card-color, #00f)" d="M452 698c0 14.359-11.641 26-26 26H60c-14.36 0-26-11.641-26-26V562.111c5.839 43.884 23.777 77.718 54.045 94.674 79.32 44.436 213.268-43.864 299.182-197.223 35.248-62.921 56.931-127.017 64.773-183.801zM426 34c14.359 0 26 11.64 26 26v128.134c-6.875-40.009-24.423-70.796-52.834-86.712-79.32-44.436-213.268 43.864-299.182 197.224C62.718 365.168 40.614 433.004 34 492.125V60c0-14.36 11.64-26 26-26z"/><path fill="var(--card-black, #000)" d="m161.2 528 109.25-234.65h-85.975l6.65-46.075h152l-6.65 47.025L227.225 528z"/><mask id="a" width="188" height="280" x="147" y="241" fill="var(--card-black, #000)" maskUnits="userSpaceOnUse"><path fill="#fff" d="M147 241h188v280H147z"/><path d="m153.32 517 105.8-227.24h-83.26l6.44-44.62h147.2l-6.44 45.54L217.26 517z"/></mask><path fill="var(--card-color, #00f)" d="m153.32 517 105.8-227.24h-83.26l6.44-44.62h147.2l-6.44 45.54L217.26 517z"/><path fill="var(--card-black, #000)" d="m153.32 517-3.626-1.688-2.649 5.688h6.275zm105.8-227.24 3.626 1.688 2.649-5.688h-6.275zm-83.26 0-3.959-.571-.66 4.571h4.619zm6.44-44.62v-4h-3.464l-.495 3.429zm147.2 0 3.961.56.644-4.56H329.5zm-6.44 45.54 3.624 1.694.253-.542.084-.592zM217.26 517v4h2.546l1.078-2.306zm-63.94 0 3.626 1.688 105.8-227.24-3.626-1.688-3.626-1.688-105.8 227.24zm105.8-227.24v-4h-83.26v8h83.26zm-83.26 0 3.959.571 6.44-44.62-3.959-.571-3.959-.571-6.44 44.62zm6.44-44.62v4h147.2v-8H182.3zm147.2 0-3.961-.56-6.44 45.54 3.961.56 3.961.56 6.44-45.54zm-6.44 45.54-3.624-1.694-105.8 226.32L217.26 517l3.624 1.694 105.8-226.32zM217.26 517v-4h-63.94v8h63.94z" mask="url(#a)"/><mask id="b" width="49" height="69" x="382" y="635" fill="var(--card-black, #000)" maskUnits="userSpaceOnUse"><path fill="#fff" d="M382 635h49v69h-49z"/><path d="m425.84 638-24.15 51.87h19.005l-1.47 10.185h-33.6l1.47-10.395 24.15-51.66z"/></mask><path fill="var(--card-black, #000)" d="m425.84 638-24.15 51.87h19.005l-1.47 10.185h-33.6l1.47-10.395 24.15-51.66z"/><path fill="var(--card-black, #000)" d="m425.84 638 2.72 1.266 1.986-4.266h-4.706zm-24.15 51.87-2.72-1.266-1.986 4.266h4.706zm19.005 0 2.969.429.495-3.429h-3.464zm-1.47 10.185v3h2.598l.371-2.571zm-33.6 0-2.97-.42-.484 3.42h3.454zm1.47-10.395-2.718-1.27-.19.406-.062.444zm24.15-51.66v-3h-1.909l-.809 1.73zm14.595 0-2.72-1.266-24.15 51.87 2.72 1.266 2.72 1.266 24.15-51.87zm-24.15 51.87v3h19.005v-6H401.69zm19.005 0-2.969-.429-1.47 10.185 2.969.429 2.969.429 1.47-10.185zm-1.47 10.185v-3h-33.6v6h33.6zm-33.6 0 2.97.42 1.47-10.395-2.97-.42-2.97-.42-1.47 10.395zm1.47-10.395 2.718 1.27 24.15-51.66-2.718-1.27-2.718-1.27-24.15 51.66zm24.15-51.66v3h14.595v-6h-14.595z" mask="url(#b)"/><mask id="c" width="49" height="69" x="378" y="631" fill="var(--card-black, #000)" maskUnits="userSpaceOnUse"><path fill="#fff" d="M378 631h49v69h-49z"/><path d="m421.84 634-24.15 51.87h19.005l-1.47 10.185h-33.6l1.47-10.395 24.15-51.66z"/></mask><path fill="#fff" d="m421.84 634-24.15 51.87h19.005l-1.47 10.185h-33.6l1.47-10.395 24.15-51.66z"/><path fill="var(--card-black, #000)" d="m421.84 634 2.72 1.266 1.986-4.266h-4.706zm-24.15 51.87-2.72-1.266-1.986 4.266h4.706zm19.005 0 2.969.429.495-3.429h-3.464zm-1.47 10.185v3h2.598l.371-2.571zm-33.6 0-2.97-.42-.484 3.42h3.454zm1.47-10.395-2.718-1.27-.19.406-.062.444zm24.15-51.66v-3h-1.909l-.809 1.73zm14.595 0-2.72-1.266-24.15 51.87 2.72 1.266 2.72 1.266 24.15-51.87zm-24.15 51.87v3h19.005v-6H397.69zm19.005 0-2.969-.429-1.47 10.185 2.969.429 2.969.429 1.47-10.185zm-1.47 10.185v-3h-33.6v6h33.6zm-33.6 0 2.97.42 1.47-10.395-2.97-.42-2.97-.42-1.47 10.395zm1.47-10.395 2.718 1.27 24.15-51.66-2.718-1.27-2.718-1.27-24.15 51.66zm24.15-51.66v3h14.595v-6h-14.595z" mask="url(#c)"/><mask id="d" width="49" height="69" x="63" y="63" fill="var(--card-black, #000)" maskUnits="userSpaceOnUse"><path fill="#fff" d="M63 63h49v69H63z"/><path d="m68.16 129 24.15-51.87H73.305l1.47-10.185h33.6l-1.47 10.395L82.755 129z"/></mask><path fill="var(--card-black, #000)" d="m68.16 129 24.15-51.87H73.305l1.47-10.185h33.6l-1.47 10.395L82.755 129z"/><path fill="var(--card-black, #000)" d="m68.16 129-2.72-1.266L63.454 132h4.706zm24.15-51.87 2.72 1.266 1.986-4.266H92.31zm-19.005 0-2.97-.429-.494 3.429h3.464zm1.47-10.185v-3h-2.598l-.371 2.571zm33.6 0 2.97.42.484-3.42h-3.454zm-1.47 10.395 2.718 1.27.19-.406.062-.444zM82.755 129v3h1.91l.808-1.73zm-14.595 0 2.72 1.266 24.15-51.87-2.72-1.266-2.72-1.266-24.15 51.87zm24.15-51.87v-3H73.305v6H92.31zm-19.005 0 2.97.429 1.47-10.186-2.97-.428-2.97-.429-1.47 10.185zm1.47-10.185v3h33.6v-6h-33.6zm33.6 0-2.97-.42-1.47 10.395 2.97.42 2.97.42 1.47-10.395zm-1.47 10.395-2.718-1.27-24.15 51.66 2.718 1.27 2.718 1.27 24.15-51.66zM82.755 129v-3H68.16v6h14.595z" mask="url(#d)"/><mask id="e" width="49" height="69" x="59" y="59" fill="var(--card-black, #000)" maskUnits="userSpaceOnUse"><path fill="#fff" d="M59 59h49v69H59z"/><path d="m64.16 125 24.15-51.87H69.305l1.47-10.185h33.6l-1.47 10.395L78.755 125z"/></mask><path fill="#fff" d="m64.16 125 24.15-51.87H69.305l1.47-10.185h33.6l-1.47 10.395L78.755 125z"/><path fill="var(--card-black, #000)" d="m64.16 125-2.72-1.266L59.454 128h4.706zm24.15-51.87 2.72 1.266 1.986-4.266H88.31zm-19.005 0-2.97-.429-.494 3.429h3.464zm1.47-10.185v-3h-2.598l-.371 2.571zm33.6 0 2.97.42.484-3.42h-3.454zm-1.47 10.395 2.718 1.27.19-.406.062-.444zM78.755 125v3h1.91l.808-1.73zm-14.595 0 2.72 1.266 24.15-51.87-2.72-1.266-2.72-1.266-24.15 51.87zm24.15-51.87v-3H69.305v6H88.31zm-19.005 0 2.97.429 1.47-10.186-2.97-.428-2.97-.429-1.47 10.185zm1.47-10.185v3h33.6v-6h-33.6zm33.6 0-2.97-.42-1.47 10.395 2.97.42 2.97.42 1.47-10.395zm-1.47 10.395-2.718-1.27-24.15 51.66 2.718 1.27 2.718 1.27 24.15-51.66zM78.755 125v-3H64.16v6h14.595z" mask="url(#e)"/></svg>