<svg xmlns="http://www.w3.org/2000/svg" width="486" height="759" viewBox="0 0 486 759" fill="none"><rect width="486" height="759" fill="#fff" rx="51"/><path fill="var(--card-color, #00f)" d="M452 698c0 14.359-11.641 26-26 26H60c-14.36 0-26-11.641-26-26V562.111c5.839 43.884 23.777 77.718 54.045 94.674 79.32 44.436 213.268-43.864 299.182-197.223 35.248-62.921 56.931-127.017 64.773-183.801zM426 34c14.359 0 26 11.64 26 26v128.134c-6.875-40.009-24.423-70.796-52.834-86.712-79.32-44.436-213.268 43.864-299.182 197.224C62.718 365.168 40.614 433.004 34 492.125V60c0-14.36 11.64-26 26-26z"/><path fill="var(--card-black, #000)" d="M240.525 531.8q-27.55 0-45.125-8.075t-24.7-23.75q-6.65-15.675-3.8-38.475l2.375-17.1q1.9-14.25 5.7-25.65 3.8-11.875 11.4-19.95 6.175-6.65 17.575-11.875 11.875-5.225 30.4-6.175-18.05.475-25.65-2.375-7.6-3.325-13.775-9.5-7.6-8.075-7.6-22.325.475-14.25 2.375-28.5l1.9-11.875q2.85-20.425 11.875-33.725c9.025-13.3 15.2-15.358 27.55-19.475q18.525-6.65 49.4-6.65c30.875 0 36.417 2.217 47.5 6.65q16.625 6.175 21.85 19.475 5.7 13.3 2.85 33.725l-1.9 11.875q-2.375 16.625-7.6 29.925T326.5 369.35t-31.825 11.4q17.575.95 26.6 7.6 9.025 6.176 12.35 15.675T336 424.45q-.475 10.925-1.9 20.9l-2.375 17.1q-2.375 19-13.3 34.675T288.5 522.3t-47.975 9.5m3.8-37.05q9.5 0 13.775-5.7 4.75-5.7 5.7-14.725l6.175-43.7q1.425-9.5-.95-15.2-2.375-6.175-12.825-6.175-9.975 0-14.25 7.125-3.8 7.125-5.225 14.725l-6.175 43.225q-.95 8.55 1.425 14.25 2.85 5.7 12.35 6.175m18.525-134.9q7.125 0 12.825-5.7t7.6-19l3.325-25.175q1.9-11.875-.475-20.425-1.9-8.55-11.4-8.55-10.45 0-14.725 9.025-4.275 8.55-5.7 19l-3.8 25.175q-1.9 14.25 1.9 19.95 4.275 5.7 10.45 5.7"/><mask id="a" width="190" height="285" x="154" y="240" fill="var(--card-black, #000)" maskUnits="userSpaceOnUse"><path fill="#fff" d="M154 240h190v285H154z"/><path d="M230.14 520.68q-26.68 0-43.7-7.82t-23.92-23q-6.44-15.18-3.68-37.26l2.3-16.56q1.84-13.8 5.52-24.84 3.68-11.5 11.04-19.32 5.98-6.44 17.02-11.5 11.5-5.06 29.44-5.98-17.48.46-24.84-2.3-7.36-3.22-13.34-9.2-7.36-7.82-7.36-21.62.46-13.8 2.3-27.6l1.84-11.5q2.76-19.78 11.5-32.66t26.68-18.86q17.94-6.44 47.84-6.44t46 6.44q16.1 5.98 21.16 18.86 5.52 12.88 2.76 32.66l-1.84 11.5q-2.3 16.1-7.36 28.98c-5.06 12.88-8.74 15.487-16.1 20.7q-11.04 7.82-30.82 11.04 17.02.92 25.76 7.36 8.74 5.98 11.96 15.18t2.3 19.78q-.46 10.58-1.84 20.24l-2.3 16.56q-2.3 18.4-12.88 33.58t-28.98 24.38-46.46 9.2m3.68-35.88q9.2 0 13.34-5.52 4.6-5.52 5.52-14.26l5.98-42.32q1.38-9.2-.92-14.72-2.3-5.98-12.42-5.98-9.66 0-13.8 6.9-3.68 6.9-5.06 14.26l-5.98 41.86q-.92 8.28 1.38 13.8 2.76 5.52 11.96 5.98m17.94-130.64q6.9 0 12.42-5.52t7.36-18.4l3.22-24.38q1.84-11.5-.46-19.78-1.84-8.28-11.04-8.28-10.12 0-14.26 8.74-4.14 8.28-5.52 18.4l-3.68 24.38q-1.84 13.8 1.84 19.32 4.14 5.52 10.12 5.52"/></mask><path fill="var(--card-color, #00f)" d="M230.14 520.68q-26.68 0-43.7-7.82t-23.92-23q-6.44-15.18-3.68-37.26l2.3-16.56q1.84-13.8 5.52-24.84 3.68-11.5 11.04-19.32 5.98-6.44 17.02-11.5 11.5-5.06 29.44-5.98-17.48.46-24.84-2.3-7.36-3.22-13.34-9.2-7.36-7.82-7.36-21.62.46-13.8 2.3-27.6l1.84-11.5q2.76-19.78 11.5-32.66t26.68-18.86q17.94-6.44 47.84-6.44t46 6.44q16.1 5.98 21.16 18.86 5.52 12.88 2.76 32.66l-1.84 11.5q-2.3 16.1-7.36 28.98c-5.06 12.88-8.74 15.487-16.1 20.7q-11.04 7.82-30.82 11.04 17.02.92 25.76 7.36 8.74 5.98 11.96 15.18t2.3 19.78q-.46 10.58-1.84 20.24l-2.3 16.56q-2.3 18.4-12.88 33.58t-28.98 24.38-46.46 9.2m3.68-35.88q9.2 0 13.34-5.52 4.6-5.52 5.52-14.26l5.98-42.32q1.38-9.2-.92-14.72-2.3-5.98-12.42-5.98-9.66 0-13.8 6.9-3.68 6.9-5.06 14.26l-5.98 41.86q-.92 8.28 1.38 13.8 2.76 5.52 11.96 5.98m17.94-130.64q6.9 0 12.42-5.52t7.36-18.4l3.22-24.38q1.84-11.5-.46-19.78-1.84-8.28-11.04-8.28-10.12 0-14.26 8.74-4.14 8.28-5.52 18.4l-3.68 24.38q-1.84 13.8 1.84 19.32 4.14 5.52 10.12 5.52"/><path fill="var(--card-black, #000)" d="m186.44 512.86 1.67-3.635zm-23.92-23-3.682 1.562.02.047.021.046zm-3.68-37.26-3.962-.55-.004.027-.003.027zm2.3-16.56 3.962.55.001-.011.002-.01zm5.52-24.84 3.795 1.265.007-.023.008-.023zm11.04-19.32 2.913 2.741.009-.009.009-.01zm17.02-11.5-1.611-3.661-.028.012-.028.013zm29.44-5.98.205 3.995-.31-7.994zm-24.84-2.3-1.603 3.665.098.043.101.037zm-13.34-9.2-2.913 2.741.042.045.043.042zm-7.36-21.62-3.998-.133-.002.066v.067zm2.3-27.6-3.95-.632-.008.052-.007.051zm1.84-11.5 3.95.632.006-.04.006-.039zm11.5-32.66-3.31-2.246zm26.68-18.86 1.265 3.795.043-.015.043-.015zm93.84 0-1.486 3.714.047.018.046.018zm21.16 18.86-3.723 1.463.022.056.024.057zm2.76 32.66 3.95.632.006-.04.006-.039zm-1.84 11.5-3.95-.632-.005.033-.005.033zm-7.36 28.98 3.723 1.463zm-16.1 20.7-2.312-3.264zm-30.82 11.04-.643-3.948.427 7.942zm25.76 7.36-2.373 3.22.057.042.057.039zm11.96 15.18-3.775 1.321zm2.3 19.78-3.985-.347-.007.087-.004.086zm-1.84 20.24-3.96-.566-.001.008-.001.008zm-2.3 16.56-3.962-.55-.004.027-.003.027zm-12.88 33.58-3.282-2.287zm-28.98 24.38 1.789 3.578zm-42.78-26.68-.2 3.995.1.005h.1zm13.34-5.52-3.073-2.561-.065.079-.062.082zm5.52-14.26-3.961-.56-.01.071-.007.07zm5.98-42.32-3.956-.593-.002.016-.003.017zm-.92-14.72-3.733 1.436.019.051.022.051zm-26.22.92-3.43-2.058-.052.087-.047.089zm-5.06 14.26-3.931-.737-.017.085-.012.086zm-5.98 41.86-3.96-.566-.009.062-.007.062zm1.38 13.8-3.692 1.538.053.128.061.123zm42.32-130.18-2.828-2.828zm7.36-18.4 3.96.566.003-.021.003-.021zm3.22-24.38-3.95-.632-.008.054-.008.054zm-.46-19.78-3.905.868.023.102.028.101zm-25.3.46 3.578 1.789.019-.038.018-.039zm-5.52 18.4 3.955.597.004-.028.004-.029zm-3.68 24.38-3.955-.597-.005.034-.005.034zm1.84 19.32-3.328 2.219.061.092.067.089zm-11.5 172.04v-4c-17.437 0-31.38-2.562-42.03-7.455l-1.67 3.635-1.67 3.635c12.044 5.533 27.234 8.185 45.37 8.185zm-43.7-7.82 1.67-3.635c-10.588-4.865-17.796-11.884-21.949-21.02l-3.641 1.655-3.641 1.655c5.047 11.104 13.786 19.418 25.891 24.98zm-23.92-23 3.682-1.562c-3.938-9.283-5.175-20.946-3.393-35.202l-3.969-.496-3.969-.496c-1.898 15.184-.682 28.361 3.967 39.318zm-3.68-37.26 3.962.55 2.3-16.56-3.962-.55-3.962-.55-2.3 16.56zm2.3-16.56 3.965.529c1.199-8.997 2.99-17.025 5.35-24.104l-3.795-1.265-3.795-1.265c-2.547 7.641-4.436 16.173-5.69 25.576zm5.52-24.84 3.81 1.219c2.294-7.17 5.693-13.07 10.143-17.798l-2.913-2.741-2.913-2.741c-5.363 5.698-9.324 12.678-11.937 20.842zm11.04-19.32 2.931 2.722c3.521-3.792 8.703-7.353 15.756-10.586l-1.667-3.636-1.667-3.636c-7.667 3.514-13.832 7.619-18.284 12.414zm17.02-11.5 1.611 3.661c7.075-3.113 16.368-5.048 28.034-5.646l-.205-3.995-.205-3.995c-12.254.629-22.588 2.68-30.846 6.314zm29.44-5.98-.105-3.999c-11.616.306-19.21-.501-23.33-2.046l-1.405 3.745-1.404 3.745c5.693 2.135 14.658 2.861 26.349 2.554zm-24.84-2.3 1.603-3.665c-4.426-1.936-8.462-4.711-12.115-8.363l-2.828 2.828-2.828 2.828c4.32 4.321 9.177 7.68 14.565 10.037zm-13.34-9.2 2.913-2.741c-4.026-4.278-6.273-10.397-6.273-18.879h-8c0 9.918 2.66 18.213 8.447 24.361zm-7.36-21.62 3.998.133a275 275 0 0 1 2.267-27.204l-3.965-.529-3.965-.529a283 283 0 0 0-2.333 27.996zm2.3-27.6 3.95.632 1.84-11.5-3.95-.632-3.95-.632-1.84 11.5zm1.84-11.5 3.962.553c1.778-12.746 5.449-23.01 10.848-30.967l-3.31-2.246-3.31-2.246c-6.254 9.216-10.25 20.726-12.152 34.353zm11.5-32.66 3.31 2.246c5.235-7.714 13.324-13.541 24.635-17.311l-1.265-3.795-1.265-3.795c-12.609 4.203-22.306 10.95-28.725 20.409zm26.68-18.86 1.351 3.765c11.352-4.075 26.785-6.205 46.489-6.205v-8c-20.162 0-36.623 2.164-49.191 6.675zm47.84-6.44v4c19.739 0 34.477 2.139 44.514 6.154l1.486-3.714 1.486-3.714c-11.43-4.572-27.358-6.726-47.486-6.726zm46 6.44-1.393 3.75c9.944 3.693 15.97 9.292 18.83 16.573l3.723-1.463 3.723-1.463c-3.887-9.893-11.967-16.867-23.49-21.147zm21.16 18.86-3.677 1.576c3.296 7.689 4.255 17.776 2.475 30.531l3.962.553 3.962.553c1.9-13.618 1.019-25.305-3.045-34.789zm2.76 32.66-3.95-.632-1.84 11.5 3.95.632 3.95.632 1.84-11.5zm-1.84 11.5-3.96-.566c-1.497 10.479-3.881 19.831-7.123 28.083l3.723 1.463 3.723 1.463c3.505-8.921 6.027-18.889 7.597-29.877zm-7.36 28.98-3.723-1.463c-3.095 7.88-7.98 14.147-14.689 18.899l2.312 3.264 2.312 3.264c8.011-5.674 13.86-13.207 17.511-22.501zm-16.1 20.7-2.312-3.264c-6.682 4.733-16.299 8.264-29.151 10.356l.643 3.948.643 3.948c13.522-2.201 24.451-6.03 32.489-11.724zm-30.82 11.04-.216 3.994c10.976.593 18.668 2.95 23.603 6.586l2.373-3.22 2.373-3.22c-6.719-4.951-16.2-7.501-27.917-8.134zm25.76 7.36-2.259 3.301c5.188 3.549 8.603 7.942 10.444 13.2l3.775-1.321 3.775-1.321c-2.453-7.009-7.01-12.736-13.476-17.16zm11.96 15.18-3.775 1.321c1.943 5.552 2.659 11.573 2.09 18.112l3.985.347 3.985.347c.658-7.567-.159-14.734-2.51-21.448zm2.3 19.78-3.996-.174q-.454 10.4-1.804 19.848l3.96.566 3.96.566q1.409-9.872 1.876-20.632zm-1.84 20.24-3.962-.55-2.3 16.56 3.962.55 3.962.55 2.3-16.56zm-2.3 16.56-3.969-.496c-1.453 11.624-5.511 22.202-12.193 31.789l3.282 2.287 3.282 2.287c7.425-10.653 11.953-22.462 13.567-35.371zm-12.88 33.58-3.282-2.287c-6.63 9.513-15.75 17.221-27.487 23.089l1.789 3.578 1.789 3.578c12.796-6.398 22.996-14.944 30.473-25.671zm-28.98 24.38-1.789-3.578c-11.547 5.774-26.371 8.778-44.671 8.778v8c19.113 0 35.262-3.129 48.249-9.622zm-42.78-26.68v4c6.937 0 12.788-2.117 16.54-7.12l-3.2-2.4-3.2-2.4c-1.768 2.357-4.811 3.92-10.14 3.92zm13.34-5.52 3.073 2.561c3.677-4.413 5.747-9.965 6.425-16.402l-3.978-.419-3.978-.419c-.549 5.216-2.159 9.171-4.615 12.118zm5.52-14.26 3.961.56 5.98-42.32-3.961-.56-3.961-.56-5.98 42.32zm5.98-42.32 3.956.593c.973-6.487.745-12.223-1.184-16.851l-3.692 1.538-3.692 1.538c1.138 2.732 1.523 6.809.656 12.589zm-.92-14.72 3.733-1.436c-2.442-6.349-8.848-8.544-16.153-8.544v8c6.188 0 8.062 1.792 8.687 3.416zM245.32 402v-4c-7.515 0-13.592 2.779-17.23 8.842l3.43 2.058 3.43 2.058c1.882-3.137 5.005-4.958 10.37-4.958zm-13.8 6.9-3.529-1.882c-2.637 4.943-4.464 10.081-5.462 15.405l3.931.737 3.931.737c.842-4.489 2.388-8.858 4.658-13.115zm-5.06 14.26-3.96-.566-5.98 41.86 3.96.566 3.96.566 5.98-41.86zm-5.98 41.86-3.976-.442c-.66 5.943-.213 11.277 1.664 15.78l3.692-1.538 3.692-1.538c-1.19-2.857-1.663-6.723-1.096-11.82zm1.38 13.8-3.578 1.789c2.771 5.542 8.54 7.846 15.338 8.186l.2-3.995.2-3.995c-5.469-.273-7.673-1.956-8.582-3.774zm29.9-124.66v4c5.804 0 10.926-2.369 15.248-6.692l-2.828-2.828-2.828-2.828c-3.038 3.037-6.196 4.348-9.592 4.348zm12.42-5.52 2.828 2.828c4.581-4.581 7.217-11.739 8.492-20.662l-3.96-.566-3.96-.566c-1.178 8.25-3.449 13.358-6.228 16.138zm7.36-18.4 3.966.524 3.22-24.38-3.966-.524-3.966-.524-3.22 24.38zm3.22-24.38 3.95.632c1.287-8.044 1.176-15.249-.556-21.483l-3.854 1.071-3.854 1.071c1.335 4.806 1.531 10.788.364 18.077zm-.46-19.78 3.905-.868c-.771-3.47-2.417-6.466-5.185-8.542-2.731-2.048-6.114-2.87-9.76-2.87v8c2.488 0 4.011.558 4.96 1.27.912.684 1.72 1.828 2.175 3.878zm-11.04-8.28v-4c-3.955 0-7.589.858-10.715 2.775-3.138 1.923-5.501 4.75-7.16 8.253L249 286.54l3.615 1.712c1.101-2.323 2.495-3.866 4.11-4.857 1.627-.997 3.744-1.595 6.535-1.595zM249 286.54l-3.578-1.789c-2.975 5.951-4.932 12.512-5.905 19.649l3.963.54 3.963.54c.867-6.356 2.59-12.062 5.135-17.151zm-5.52 18.4-3.955-.597-3.68 24.38 3.955.597 3.955.597 3.68-24.38zm-3.68 24.38-3.965-.529c-.638 4.783-.822 9.017-.477 12.638.342 3.595 1.23 6.844 2.954 9.43l3.328-2.219 3.328-2.219c-.729-1.094-1.375-2.905-1.646-5.75-.268-2.819-.146-6.405.443-10.822zm1.84 19.32-3.2 2.4c3.383 4.511 7.869 7.12 13.32 7.12v-8c-2.522 0-4.783-1.071-6.92-3.92z" mask="url(#a)"/><mask id="b" width="48" height="70" x="381" y="634" fill="var(--card-black, #000)" maskUnits="userSpaceOnUse"><path fill="#fff" d="M381 634h48v70h-48z"/><path d="M409.305 637.16q6.09 0 9.975 1.785c3.885 1.785 4.41 2.94 5.46 5.25q1.47 3.465.84 8.505l-.525 3.78q-.42 3.15-1.26 5.67-.84 2.625-2.52 4.41-1.365 1.47-3.885 2.625-2.625 1.155-6.72 1.365 3.99-.105 5.67.525a9.9 9.9 0 0 1 3.045 2.1q1.68 1.785 1.68 4.935-.105 3.15-.525 6.3l-.42 2.625q-.63 4.515-2.625 7.455c-1.995 2.94-3.36 3.395-6.09 4.305q-4.095 1.47-10.92 1.47c-6.825 0-8.05-.49-10.5-1.47q-3.675-1.365-4.83-4.305-1.26-2.94-.63-7.455l.42-2.625q.525-3.675 1.68-6.615t3.675-4.725 7.035-2.52q-3.885-.21-5.88-1.68-1.995-1.365-2.73-3.465t-.525-4.515q.105-2.415.42-4.62l.525-3.78a16.9 16.9 0 0 1 2.94-7.665q2.415-3.465 6.615-5.565t10.605-2.1m-.84 8.19q-2.1 0-3.045 1.26-1.05 1.26-1.26 3.255l-1.365 9.66q-.315 2.1.21 3.36.525 1.365 2.835 1.365 2.205 0 3.15-1.575.84-1.575 1.155-3.255l1.365-9.555q.21-1.89-.315-3.15-.63-1.26-2.73-1.365m-4.095 29.82q-1.575 0-2.835 1.26t-1.68 4.2l-.735 5.565q-.42 2.625.105 4.515.42 1.89 2.52 1.89 2.31 0 3.255-1.995.945-1.89 1.26-4.2l.84-5.565q.42-3.15-.42-4.41-.945-1.26-2.31-1.26"/></mask><path fill="var(--card-black, #000)" d="M409.305 637.16q6.09 0 9.975 1.785c3.885 1.785 4.41 2.94 5.46 5.25q1.47 3.465.84 8.505l-.525 3.78q-.42 3.15-1.26 5.67-.84 2.625-2.52 4.41-1.365 1.47-3.885 2.625-2.625 1.155-6.72 1.365 3.99-.105 5.67.525a9.9 9.9 0 0 1 3.045 2.1q1.68 1.785 1.68 4.935-.105 3.15-.525 6.3l-.42 2.625q-.63 4.515-2.625 7.455c-1.995 2.94-3.36 3.395-6.09 4.305q-4.095 1.47-10.92 1.47c-6.825 0-8.05-.49-10.5-1.47q-3.675-1.365-4.83-4.305-1.26-2.94-.63-7.455l.42-2.625q.525-3.675 1.68-6.615t3.675-4.725 7.035-2.52q-3.885-.21-5.88-1.68-1.995-1.365-2.73-3.465t-.525-4.515q.105-2.415.42-4.62l.525-3.78a16.9 16.9 0 0 1 2.94-7.665q2.415-3.465 6.615-5.565t10.605-2.1m-.84 8.19q-2.1 0-3.045 1.26-1.05 1.26-1.26 3.255l-1.365 9.66q-.315 2.1.21 3.36.525 1.365 2.835 1.365 2.205 0 3.15-1.575.84-1.575 1.155-3.255l1.365-9.555q.21-1.89-.315-3.15-.63-1.26-2.73-1.365m-4.095 29.82q-1.575 0-2.835 1.26t-1.68 4.2l-.735 5.565q-.42 2.625.105 4.515.42 1.89 2.52 1.89 2.31 0 3.255-1.995.945-1.89 1.26-4.2l.84-5.565q.42-3.15-.42-4.41-.945-1.26-2.31-1.26"/><path fill="var(--card-black, #000)" d="m419.28 638.945-1.253 2.726zm5.46 5.25 2.762-1.172-.015-.035-.016-.034zm.84 8.505 2.971.413.003-.021.003-.02zm-.525 3.78-2.971-.413-.002.008-.001.009zm-1.26 5.67-2.846-.949-.006.017-.005.018zm-2.52 4.41-2.185-2.056-.007.007-.006.008zm-3.885 2.625 1.208 2.746.021-.009.021-.01zm-6.72 1.365-.154-2.996.233 5.995zm5.67.525 1.202-2.748-.073-.033-.076-.028zm3.045 2.1 2.185-2.056-.032-.033-.032-.032zm1.68 4.935 2.998.1.002-.05v-.05zm-.525 6.3 2.962.474.007-.039.005-.039zm-.42 2.625-2.962-.474-.005.03-.004.029zm-2.625 7.455 2.482 1.685zm-6.09 4.305-.949-2.846-.032.011-.033.011zm-21.42 0 1.114-2.785-.034-.014-.035-.013zm-4.83-4.305 2.792-1.097-.017-.043-.018-.042zm-.63-7.455-2.962-.474-.005.03-.004.029zm.42-2.625 2.962.474.004-.025.004-.025zm1.68-6.615-2.792-1.097zm3.675-4.725 1.734 2.448zm7.035-2.52.482 2.961-.32-5.957zm-5.88-1.68 1.78-2.415-.043-.031-.043-.03zm-2.73-3.465 2.832-.991zm-.525-4.515 2.989.26.005-.065.003-.065zm.42-4.62 2.97.424.001-.011zm.525-3.78 2.971.413.003-.021.003-.02zm2.94-7.665 2.461 1.715zm6.615-5.565-1.342-2.683zm9.765 6.09.15-2.996-.075-.004h-.075zm-3.045 1.26 2.305 1.921.049-.06.046-.061zm-1.26 3.255 2.97.42.008-.053.006-.053zm-1.365 9.66 2.967.445.002-.013.001-.012zm.21 3.36 2.8-1.077-.015-.039-.016-.038zm5.985-.21 2.572 1.543.039-.064.036-.067zm1.155-3.255 2.949.553.012-.064.009-.065zm1.365-9.555 2.97.424.006-.046.006-.047zm-.315-3.15 2.769-1.154-.04-.095-.046-.093zm-9.66 29.715 2.121 2.121zm-1.68 4.2-2.97-.424-.002.015-.002.016zm-.735 5.565 2.962.474.007-.041.005-.04zm.105 4.515 2.929-.651-.017-.076-.021-.076zm5.775-.105-2.683-1.342-.015.029-.013.029zm1.26-4.2-2.966-.448-.004.021-.002.022zm.84-5.565 2.966.448.004-.026.004-.026zm-.42-4.41 2.496-1.664-.046-.069-.05-.067zm2.625-39.27v3c3.798 0 6.655.561 8.722 1.511l1.253-2.726 1.253-2.726c-3.113-1.43-6.906-2.059-11.228-2.059zm9.975 1.785-1.253 2.726c2.022.929 3.267 2.194 3.982 3.765l2.731-1.241 2.731-1.241c-1.385-3.049-3.78-5.284-6.938-6.735zm5.46 5.25-2.762 1.172c.714 1.682 1.002 3.949.625 6.961l2.977.372 2.977.372c.463-3.708.191-7.111-1.055-10.049zm.84 8.505-2.971-.413-.525 3.78 2.971.413 2.971.413.525-3.78zm-.525 3.78-2.974-.396c-.259 1.947-.642 3.648-1.132 5.117l2.846.949 2.846.949c.63-1.891 1.087-3.97 1.388-6.223zm-1.26 5.67-2.857-.914c-.441 1.377-1.07 2.442-1.848 3.268l2.185 2.056 2.185 2.056c1.462-1.554 2.513-3.429 3.192-5.552zm-2.52 4.41-2.198-2.041c-.561.603-1.487 1.274-2.937 1.939l1.25 2.727 1.25 2.727c1.91-.875 3.574-1.954 4.833-3.311zm-3.885 2.625-1.208-2.746c-1.307.575-3.156.986-5.666 1.115l.154 2.996.154 2.996c2.95-.151 5.581-.65 7.774-1.615zm-6.72 1.365.079 2.999c2.632-.069 4.008.136 4.538.335l1.053-2.809 1.053-2.809c-1.71-.641-4.114-.786-6.802-.715zm5.67.525-1.202 2.748a6.9 6.9 0 0 1 2.126 1.473l2.121-2.121 2.121-2.121a12.9 12.9 0 0 0-3.964-2.727zm3.045 2.1-2.185 2.056c.46.488.865 1.317.865 2.879h6c0-2.638-.715-5.099-2.495-6.991zm1.68 4.935-2.998-.1q-.1 3-.501 6.004l2.974.396 2.974.396q.44-3.296.549-6.596zm-.525 6.3-2.962-.474-.42 2.625 2.962.474 2.962.474.42-2.625zm-.42 2.625-2.971-.415c-.374 2.68-1.127 4.698-2.136 6.186l2.482 1.684 2.482 1.685c1.651-2.433 2.648-5.385 3.114-8.725zm-2.625 7.455-2.482-1.684c-.886 1.305-2.314 2.395-4.557 3.143l.949 2.846.949 2.846c3.217-1.072 5.849-2.852 7.623-5.466zm-6.09 4.305-1.014-2.824c-2.274.817-5.528 1.294-9.906 1.294v6c4.722 0 8.748-.503 11.934-1.646zm-10.92 1.47v-3c-4.404 0-7.458-.484-9.386-1.255l-1.114 2.785-1.114 2.785c2.972 1.189 6.918 1.685 11.614 1.685zm-10.5-1.47 1.045-2.812c-1.858-.69-2.698-1.61-3.083-2.59l-2.792 1.097-2.792 1.097c1.155 2.94 3.535 4.89 6.577 6.02zm-4.83-4.305 2.757-1.182c-.551-1.287-.791-3.172-.416-5.858l-2.971-.415-2.971-.415c-.465 3.334-.285 6.419.844 9.052zm-.63-7.455 2.962.474.42-2.625-2.962-.474-2.962-.474-.42 2.625zm.42-2.625 2.97.424c.323-2.258.831-4.232 1.502-5.942l-2.792-1.097-2.792-1.097c-.869 2.21-1.481 4.646-1.858 7.288zm1.68-6.615 2.792 1.097c.562-1.429 1.425-2.53 2.617-3.374l-1.734-2.448-1.734-2.448c-2.168 1.536-3.755 3.585-4.733 6.076zm3.675-4.725 1.734 2.448c1.172-.83 3.025-1.558 5.783-2.007l-.482-2.961-.482-2.961c-3.262.531-6.099 1.483-8.287 3.033zm7.035-2.52.162-2.996c-2.312-.125-3.601-.612-4.262-1.099l-1.78 2.415-1.78 2.415c1.999 1.473 4.63 2.106 7.498 2.261zm-5.88-1.68 1.694-2.476c-.85-.582-1.332-1.236-1.592-1.98l-2.832.991-2.832.991c.72 2.056 2.058 3.712 3.868 4.95zm-2.73-3.465 2.832-.991c-.338-.964-.475-2.039-.368-3.264l-2.989-.26-2.989-.26c-.173 1.995.04 3.93.682 5.766zm-.525-4.515 2.997.13a44 44 0 0 1 .393-4.326l-2.97-.424-2.97-.424a50 50 0 0 0-.447 4.914zm.42-4.62 2.971.413.525-3.78-2.971-.413-2.971-.413-.525 3.78zm.525-3.78 2.977.372a13.9 13.9 0 0 1 2.424-6.322l-2.461-1.715-2.461-1.715a19.86 19.86 0 0 0-3.456 9.008zm2.94-7.665 2.461 1.715c1.293-1.854 3.093-3.395 5.496-4.597l-1.342-2.683-1.342-2.683c-3.197 1.598-5.807 3.767-7.734 6.533zm6.615-5.565 1.342 2.683c2.26-1.13 5.298-1.783 9.263-1.783v-6c-4.575 0-8.607.747-11.947 2.417zm9.765 6.09v-3c-2.003 0-4.071.628-5.445 2.46l2.4 1.8 2.4 1.8a.2.2 0 0 1-.031.03c-.014.011-.015.008.012-.003.059-.024.254-.087.664-.087zm-3.045 1.26-2.305-1.921c-1.158 1.39-1.75 3.074-1.939 4.862l2.984.314 2.984.314c.091-.872.338-1.358.581-1.648zm-1.26 3.255-2.97-.42-1.365 9.66 2.97.42 2.97.42 1.365-9.66zm-1.365 9.66-2.967-.445c-.25 1.666-.239 3.407.408 4.959l2.769-1.154 2.769-1.154c-.053-.128-.182-.627-.012-1.761zm.21 3.36-2.8 1.077c1.032 2.682 3.676 3.288 5.635 3.288v-6c-.242 0-.404-.018-.503-.036s-.108-.032-.059-.008a1 1 0 0 1 .277.211c.119.125.202.265.25.391zm2.835 1.365v3c2.276 0 4.434-.884 5.722-3.032l-2.572-1.543-2.572-1.543c-.024.039-.036.048-.031.043.006-.005.01-.006.001-.002-.016.008-.164.077-.548.077zm3.15-1.575 2.647 1.412a14.4 14.4 0 0 0 1.457-4.114l-2.949-.553-2.949-.553a8.3 8.3 0 0 1-.853 2.396zm1.155-3.255 2.97.424 1.365-9.555-2.97-.424-2.97-.424-1.365 9.555zm1.365-9.555 2.982.331c.175-1.576.079-3.177-.528-4.635l-2.769 1.154-2.769 1.154c.093.222.207.721.102 1.665zm-.315-3.15 2.683-1.342c-1.118-2.236-3.365-2.924-5.263-3.019l-.15 2.996-.15 2.996c.207.011.351.033.443.054s.117.037.098.027a.7.7 0 0 1-.161-.12 1 1 0 0 1-.183-.25zm-6.825 28.455v-3c-1.953 0-3.634.817-4.956 2.139l2.121 2.121 2.121 2.121c.358-.358.567-.381.714-.381zm-2.835 1.26-2.121-2.121c-1.516 1.515-2.213 3.684-2.529 5.897l2.97.424 2.97.424c.244-1.707.667-2.338.831-2.503zm-1.68 4.2-2.974-.393-.735 5.565 2.974.393 2.974.393.735-5.565zm-.735 5.565-2.962-.474c-.326 2.033-.322 3.996.176 5.792l2.891-.803 2.891-.803c-.202-.724-.268-1.771-.034-3.238zm.105 4.515-2.929.651c.259 1.162.853 2.33 1.969 3.167 1.088.816 2.346 1.072 3.48 1.072v-6c-.266 0-.128-.059.12.128a1 1 0 0 1 .256.279c.047.08.046.111.033.052zm2.52 1.89v3c1.207 0 2.432-.264 3.536-.941 1.114-.682 1.906-1.663 2.43-2.77L405 690.605l-2.711-1.284a.9.9 0 0 1-.14.22l-.003.002-.013.007q-.013.005-.055.017a1.4 1.4 0 0 1-.333.033zm3.255-1.995 2.683 1.342c.792-1.583 1.3-3.304 1.549-5.137l-2.972-.405-2.972-.405c-.171 1.247-.503 2.326-.971 3.263zm1.26-4.2 2.966.448.84-5.565-2.966-.448-2.966-.448-.84 5.565zm.84-5.565 2.974.396c.158-1.187.216-2.322.117-3.358-.096-1.016-.362-2.133-1.015-3.112l-2.496 1.664-2.496 1.664c-.093-.139-.009-.101.035.353.041.434.029 1.084-.093 1.997zm-.42-4.41 2.4-1.8c-1.097-1.463-2.702-2.46-4.71-2.46v6a.48.48 0 0 1-.177-.051c-.027-.015-.033-.023-.019-.01a1 1 0 0 1 .106.121z" mask="url(#b)"/><mask id="c" width="48" height="70" x="377" y="630" fill="var(--card-black, #000)" maskUnits="userSpaceOnUse"><path fill="#fff" d="M377 630h48v70h-48z"/><path d="M405.305 633.16q6.09 0 9.975 1.785c3.885 1.785 4.41 2.94 5.46 5.25q1.47 3.465.84 8.505l-.525 3.78q-.42 3.15-1.26 5.67-.84 2.625-2.52 4.41-1.365 1.47-3.885 2.625-2.625 1.155-6.72 1.365 3.99-.105 5.67.525a9.9 9.9 0 0 1 3.045 2.1q1.68 1.785 1.68 4.935-.105 3.15-.525 6.3l-.42 2.625q-.63 4.515-2.625 7.455c-1.995 2.94-3.36 3.395-6.09 4.305q-4.095 1.47-10.92 1.47c-6.825 0-8.05-.49-10.5-1.47q-3.675-1.365-4.83-4.305-1.26-2.94-.63-7.455l.42-2.625q.525-3.675 1.68-6.615t3.675-4.725 7.035-2.52q-3.885-.21-5.88-1.68-1.995-1.365-2.73-3.465t-.525-4.515q.105-2.415.42-4.62l.525-3.78a16.9 16.9 0 0 1 2.94-7.665q2.415-3.465 6.615-5.565t10.605-2.1m-.84 8.19q-2.1 0-3.045 1.26-1.05 1.26-1.26 3.255l-1.365 9.66q-.315 2.1.21 3.36.525 1.365 2.835 1.365 2.205 0 3.15-1.575.84-1.575 1.155-3.255l1.365-9.555q.21-1.89-.315-3.15-.63-1.26-2.73-1.365m-4.095 29.82q-1.575 0-2.835 1.26t-1.68 4.2l-.735 5.565q-.42 2.625.105 4.515.42 1.89 2.52 1.89 2.31 0 3.255-1.995.945-1.89 1.26-4.2l.84-5.565q.42-3.15-.42-4.41-.945-1.26-2.31-1.26"/></mask><path fill="#fff" d="M405.305 633.16q6.09 0 9.975 1.785c3.885 1.785 4.41 2.94 5.46 5.25q1.47 3.465.84 8.505l-.525 3.78q-.42 3.15-1.26 5.67-.84 2.625-2.52 4.41-1.365 1.47-3.885 2.625-2.625 1.155-6.72 1.365 3.99-.105 5.67.525a9.9 9.9 0 0 1 3.045 2.1q1.68 1.785 1.68 4.935-.105 3.15-.525 6.3l-.42 2.625q-.63 4.515-2.625 7.455c-1.995 2.94-3.36 3.395-6.09 4.305q-4.095 1.47-10.92 1.47c-6.825 0-8.05-.49-10.5-1.47q-3.675-1.365-4.83-4.305-1.26-2.94-.63-7.455l.42-2.625q.525-3.675 1.68-6.615t3.675-4.725 7.035-2.52q-3.885-.21-5.88-1.68-1.995-1.365-2.73-3.465t-.525-4.515q.105-2.415.42-4.62l.525-3.78a16.9 16.9 0 0 1 2.94-7.665q2.415-3.465 6.615-5.565t10.605-2.1m-.84 8.19q-2.1 0-3.045 1.26-1.05 1.26-1.26 3.255l-1.365 9.66q-.315 2.1.21 3.36.525 1.365 2.835 1.365 2.205 0 3.15-1.575.84-1.575 1.155-3.255l1.365-9.555q.21-1.89-.315-3.15-.63-1.26-2.73-1.365m-4.095 29.82q-1.575 0-2.835 1.26t-1.68 4.2l-.735 5.565q-.42 2.625.105 4.515.42 1.89 2.52 1.89 2.31 0 3.255-1.995.945-1.89 1.26-4.2l.84-5.565q.42-3.15-.42-4.41-.945-1.26-2.31-1.26"/><path fill="var(--card-black, #000)" d="m415.28 634.945-1.253 2.726zm5.46 5.25 2.762-1.172-.015-.035-.016-.034zm.84 8.505 2.971.413.003-.021.003-.02zm-.525 3.78-2.971-.413-.002.008-.001.009zm-1.26 5.67-2.846-.949-.006.017-.005.018zm-2.52 4.41-2.185-2.056-.007.007-.006.008zm-3.885 2.625 1.208 2.746.021-.009.021-.01zm-6.72 1.365-.154-2.996.233 5.995zm5.67.525 1.202-2.748-.073-.033-.076-.028zm3.045 2.1 2.185-2.056-.032-.033-.032-.032zm1.68 4.935 2.998.1.002-.05v-.05zm-.525 6.3 2.962.474.007-.039.005-.039zm-.42 2.625-2.962-.474-.005.03-.004.029zm-2.625 7.455 2.482 1.685zm-6.09 4.305-.949-2.846-.032.011-.033.011zm-21.42 0 1.114-2.785-.034-.014-.035-.013zm-4.83-4.305 2.792-1.097-.017-.043-.018-.042zm-.63-7.455-2.962-.474-.005.03-.004.029zm.42-2.625 2.962.474.004-.025.004-.025zm1.68-6.615-2.792-1.097zm3.675-4.725 1.734 2.448zm7.035-2.52.482 2.961-.32-5.957zm-5.88-1.68 1.78-2.415-.043-.031-.043-.03zm-2.73-3.465 2.832-.991zm-.525-4.515 2.989.26.005-.065.003-.065zm.42-4.62 2.97.424.001-.011zm.525-3.78 2.971.413.003-.021.003-.02zm2.94-7.665 2.461 1.715zm6.615-5.565-1.342-2.683zm9.765 6.09.15-2.996-.075-.004h-.075zm-3.045 1.26 2.305 1.921.049-.06.046-.061zm-1.26 3.255 2.97.42.008-.053.006-.053zm-1.365 9.66 2.967.445.002-.013.001-.012zm.21 3.36 2.8-1.077-.015-.039-.016-.038zm5.985-.21 2.572 1.543.039-.064.036-.067zm1.155-3.255 2.949.553.012-.064.009-.065zm1.365-9.555 2.97.424.006-.046.006-.047zm-.315-3.15 2.769-1.154-.04-.095-.046-.093zm-9.66 29.715 2.121 2.121zm-1.68 4.2-2.97-.424-.002.015-.002.016zm-.735 5.565 2.962.474.007-.041.005-.04zm.105 4.515 2.929-.651-.017-.076-.021-.076zm5.775-.105-2.683-1.342-.015.029-.013.029zm1.26-4.2-2.966-.448-.004.021-.002.022zm.84-5.565 2.966.448.004-.026.004-.026zm-.42-4.41 2.496-1.664-.046-.069-.05-.067zm2.625-39.27v3c3.798 0 6.655.561 8.722 1.511l1.253-2.726 1.253-2.726c-3.113-1.43-6.906-2.059-11.228-2.059zm9.975 1.785-1.253 2.726c2.022.929 3.267 2.194 3.982 3.765l2.731-1.241 2.731-1.241c-1.385-3.049-3.78-5.284-6.938-6.735zm5.46 5.25-2.762 1.172c.714 1.682 1.002 3.949.625 6.961l2.977.372 2.977.372c.463-3.708.191-7.111-1.055-10.049zm.84 8.505-2.971-.413-.525 3.78 2.971.413 2.971.413.525-3.78zm-.525 3.78-2.974-.396c-.259 1.947-.642 3.648-1.132 5.117l2.846.949 2.846.949c.63-1.891 1.087-3.97 1.388-6.223zm-1.26 5.67-2.857-.914c-.441 1.377-1.07 2.442-1.848 3.268l2.185 2.056 2.185 2.056c1.462-1.554 2.513-3.429 3.192-5.552zm-2.52 4.41-2.198-2.041c-.561.603-1.487 1.274-2.937 1.939l1.25 2.727 1.25 2.727c1.91-.875 3.574-1.954 4.833-3.311zm-3.885 2.625-1.208-2.746c-1.307.575-3.156.986-5.666 1.115l.154 2.996.154 2.996c2.95-.151 5.581-.65 7.774-1.615zm-6.72 1.365.079 2.999c2.632-.069 4.008.136 4.538.335l1.053-2.809 1.053-2.809c-1.71-.641-4.114-.786-6.802-.715zm5.67.525-1.202 2.748a6.9 6.9 0 0 1 2.126 1.473l2.121-2.121 2.121-2.121a12.9 12.9 0 0 0-3.964-2.727zm3.045 2.1-2.185 2.056c.46.488.865 1.317.865 2.879h6c0-2.638-.715-5.099-2.495-6.991zm1.68 4.935-2.998-.1q-.1 3-.501 6.004l2.974.396 2.974.396q.44-3.296.549-6.596zm-.525 6.3-2.962-.474-.42 2.625 2.962.474 2.962.474.42-2.625zm-.42 2.625-2.971-.415c-.374 2.68-1.127 4.698-2.136 6.186l2.482 1.684 2.482 1.685c1.651-2.433 2.648-5.385 3.114-8.725zm-2.625 7.455-2.482-1.684c-.886 1.305-2.314 2.395-4.557 3.143l.949 2.846.949 2.846c3.217-1.072 5.849-2.852 7.623-5.466zm-6.09 4.305-1.014-2.824c-2.274.817-5.528 1.294-9.906 1.294v6c4.722 0 8.748-.503 11.934-1.646zm-10.92 1.47v-3c-4.404 0-7.458-.484-9.386-1.255l-1.114 2.785-1.114 2.785c2.972 1.189 6.918 1.685 11.614 1.685zm-10.5-1.47 1.045-2.812c-1.858-.69-2.698-1.61-3.083-2.59l-2.792 1.097-2.792 1.097c1.155 2.94 3.535 4.89 6.577 6.02zm-4.83-4.305 2.757-1.182c-.551-1.287-.791-3.172-.416-5.858l-2.971-.415-2.971-.415c-.465 3.334-.285 6.419.844 9.052zm-.63-7.455 2.962.474.42-2.625-2.962-.474-2.962-.474-.42 2.625zm.42-2.625 2.97.424c.323-2.258.831-4.232 1.502-5.942l-2.792-1.097-2.792-1.097c-.869 2.21-1.481 4.646-1.858 7.288zm1.68-6.615 2.792 1.097c.562-1.429 1.425-2.53 2.617-3.374l-1.734-2.448-1.734-2.448c-2.168 1.536-3.755 3.585-4.733 6.076zm3.675-4.725 1.734 2.448c1.172-.83 3.025-1.558 5.783-2.007l-.482-2.961-.482-2.961c-3.262.531-6.099 1.483-8.287 3.033zm7.035-2.52.162-2.996c-2.312-.125-3.601-.612-4.262-1.099l-1.78 2.415-1.78 2.415c1.999 1.473 4.63 2.106 7.498 2.261zm-5.88-1.68 1.694-2.476c-.85-.582-1.332-1.236-1.592-1.98l-2.832.991-2.832.991c.72 2.056 2.058 3.712 3.868 4.95zm-2.73-3.465 2.832-.991c-.338-.964-.475-2.039-.368-3.264l-2.989-.26-2.989-.26c-.173 1.995.04 3.93.682 5.766zm-.525-4.515 2.997.13a44 44 0 0 1 .393-4.326l-2.97-.424-2.97-.424a50 50 0 0 0-.447 4.914zm.42-4.62 2.971.413.525-3.78-2.971-.413-2.971-.413-.525 3.78zm.525-3.78 2.977.372a13.9 13.9 0 0 1 2.424-6.322l-2.461-1.715-2.461-1.715a19.86 19.86 0 0 0-3.456 9.008zm2.94-7.665 2.461 1.715c1.293-1.854 3.093-3.395 5.496-4.597l-1.342-2.683-1.342-2.683c-3.197 1.598-5.807 3.767-7.734 6.533zm6.615-5.565 1.342 2.683c2.26-1.13 5.298-1.783 9.263-1.783v-6c-4.575 0-8.607.747-11.947 2.417zm9.765 6.09v-3c-2.003 0-4.071.628-5.445 2.46l2.4 1.8 2.4 1.8a.2.2 0 0 1-.031.03c-.014.011-.015.008.012-.003.059-.024.254-.087.664-.087zm-3.045 1.26-2.305-1.921c-1.158 1.39-1.75 3.074-1.939 4.862l2.984.314 2.984.314c.091-.872.338-1.358.581-1.648zm-1.26 3.255-2.97-.42-1.365 9.66 2.97.42 2.97.42 1.365-9.66zm-1.365 9.66-2.967-.445c-.25 1.666-.239 3.407.408 4.959l2.769-1.154 2.769-1.154c-.053-.128-.182-.627-.012-1.761zm.21 3.36-2.8 1.077c1.032 2.682 3.676 3.288 5.635 3.288v-6c-.242 0-.404-.018-.503-.036s-.108-.032-.059-.008a1 1 0 0 1 .277.211c.119.125.202.265.25.391zm2.835 1.365v3c2.276 0 4.434-.884 5.722-3.032l-2.572-1.543-2.572-1.543c-.024.039-.036.048-.031.043.006-.005.01-.006.001-.002-.016.008-.164.077-.548.077zm3.15-1.575 2.647 1.412a14.4 14.4 0 0 0 1.457-4.114l-2.949-.553-2.949-.553a8.3 8.3 0 0 1-.853 2.396zm1.155-3.255 2.97.424 1.365-9.555-2.97-.424-2.97-.424-1.365 9.555zm1.365-9.555 2.982.331c.175-1.576.079-3.177-.528-4.635l-2.769 1.154-2.769 1.154c.093.222.207.721.102 1.665zm-.315-3.15 2.683-1.342c-1.118-2.236-3.365-2.924-5.263-3.019l-.15 2.996-.15 2.996c.207.011.351.033.443.054s.117.037.098.027a.7.7 0 0 1-.161-.12 1 1 0 0 1-.183-.25zm-6.825 28.455v-3c-1.953 0-3.634.817-4.956 2.139l2.121 2.121 2.121 2.121c.358-.358.567-.381.714-.381zm-2.835 1.26-2.121-2.121c-1.516 1.515-2.213 3.684-2.529 5.897l2.97.424 2.97.424c.244-1.707.667-2.338.831-2.503zm-1.68 4.2-2.974-.393-.735 5.565 2.974.393 2.974.393.735-5.565zm-.735 5.565-2.962-.474c-.326 2.033-.322 3.996.176 5.792l2.891-.803 2.891-.803c-.202-.724-.268-1.771-.034-3.238zm.105 4.515-2.929.651c.259 1.162.853 2.33 1.969 3.167 1.088.816 2.346 1.072 3.48 1.072v-6c-.266 0-.128-.059.12.128a1 1 0 0 1 .256.279c.047.08.046.111.033.052zm2.52 1.89v3c1.207 0 2.432-.264 3.536-.941 1.114-.682 1.906-1.663 2.43-2.77L401 686.605l-2.711-1.284a.9.9 0 0 1-.14.22l-.003.002-.013.007q-.013.005-.055.017a1.4 1.4 0 0 1-.333.033zm3.255-1.995 2.683 1.342c.792-1.583 1.3-3.304 1.549-5.137l-2.972-.405-2.972-.405c-.171 1.247-.503 2.326-.971 3.263zm1.26-4.2 2.966.448.84-5.565-2.966-.448-2.966-.448-.84 5.565zm.84-5.565 2.974.396c.158-1.187.216-2.322.117-3.358-.096-1.016-.362-2.133-1.015-3.112l-2.496 1.664-2.496 1.664c-.093-.139-.009-.101.035.353.041.434.029 1.084-.093 1.997zm-.42-4.41 2.4-1.8c-1.097-1.463-2.702-2.46-4.71-2.46v6a.48.48 0 0 1-.177-.051c-.027-.015-.033-.023-.019-.01a1 1 0 0 1 .106.121z" mask="url(#c)"/><mask id="d" width="48" height="70" x="65" y="62" fill="var(--card-black, #000)" maskUnits="userSpaceOnUse"><path fill="#fff" d="M65 62h48v70H65z"/><path d="M84.695 128.84q-6.09 0-9.975-1.785c-3.885-1.785-4.41-2.94-5.46-5.25q-1.47-3.465-.84-8.505l.525-3.78q.42-3.15 1.26-5.67.84-2.625 2.52-4.41 1.365-1.47 3.885-2.625 2.625-1.155 6.72-1.365-3.99.105-5.67-.525a9.9 9.9 0 0 1-3.045-2.1q-1.68-1.785-1.68-4.935.105-3.15.525-6.3l.42-2.625q.63-4.515 2.625-7.455c1.995-2.94 3.36-3.395 6.09-4.305q4.095-1.47 10.92-1.47c6.825 0 8.05.49 10.5 1.47q3.675 1.365 4.83 4.305 1.26 2.94.63 7.455l-.42 2.625q-.525 3.675-1.68 6.615T103.7 92.93t-7.035 2.52q3.885.21 5.88 1.68 1.995 1.365 2.73 3.465t.525 4.515q-.105 2.415-.42 4.62l-.525 3.78a16.9 16.9 0 0 1-2.94 7.665Q99.5 124.64 95.3 126.74t-10.605 2.1m.84-8.19q2.1 0 3.045-1.26 1.05-1.26 1.26-3.255l1.365-9.66q.315-2.1-.21-3.36-.525-1.365-2.835-1.365-2.205 0-3.15 1.575a11.3 11.3 0 0 0-1.155 3.255l-1.365 9.555q-.21 1.89.315 3.15.63 1.26 2.73 1.365m4.095-29.82q1.575 0 2.835-1.26t1.68-4.2l.735-5.565q.42-2.625-.105-4.515-.42-1.89-2.52-1.89-2.31 0-3.255 1.995-.945 1.89-1.26 4.2l-.84 5.565q-.42 3.15.42 4.41.945 1.26 2.31 1.26"/></mask><path fill="var(--card-black, #000)" d="M84.695 128.84q-6.09 0-9.975-1.785c-3.885-1.785-4.41-2.94-5.46-5.25q-1.47-3.465-.84-8.505l.525-3.78q.42-3.15 1.26-5.67.84-2.625 2.52-4.41 1.365-1.47 3.885-2.625 2.625-1.155 6.72-1.365-3.99.105-5.67-.525a9.9 9.9 0 0 1-3.045-2.1q-1.68-1.785-1.68-4.935.105-3.15.525-6.3l.42-2.625q.63-4.515 2.625-7.455c1.995-2.94 3.36-3.395 6.09-4.305q4.095-1.47 10.92-1.47c6.825 0 8.05.49 10.5 1.47q3.675 1.365 4.83 4.305 1.26 2.94.63 7.455l-.42 2.625q-.525 3.675-1.68 6.615T103.7 92.93t-7.035 2.52q3.885.21 5.88 1.68 1.995 1.365 2.73 3.465t.525 4.515q-.105 2.415-.42 4.62l-.525 3.78a16.9 16.9 0 0 1-2.94 7.665Q99.5 124.64 95.3 126.74t-10.605 2.1m.84-8.19q2.1 0 3.045-1.26 1.05-1.26 1.26-3.255l1.365-9.66q.315-2.1-.21-3.36-.525-1.365-2.835-1.365-2.205 0-3.15 1.575a11.3 11.3 0 0 0-1.155 3.255l-1.365 9.555q-.21 1.89.315 3.15.63 1.26 2.73 1.365m4.095-29.82q1.575 0 2.835-1.26t1.68-4.2l.735-5.565q.42-2.625-.105-4.515-.42-1.89-2.52-1.89-2.31 0-3.255 1.995-.945 1.89-1.26 4.2l-.84 5.565q-.42 3.15.42 4.41.945 1.26 2.31 1.26"/><path fill="var(--card-black, #000)" d="m74.72 127.055 1.253-2.726zm-5.46-5.25-2.762 1.172.015.035.016.034zm-.84-8.505-2.971-.413-.003.021-.003.02zm.525-3.78 2.972.413v-.008l.002-.009zm1.26-5.67 2.846.949.006-.017.005-.018zm2.52-4.41 2.185 2.056.007-.007.006-.008zm3.885-2.625-1.208-2.746-.021.01-.021.009zm6.72-1.365.154 2.996-.233-5.995zm-5.67-.525-1.202 2.749.073.032.076.028zm-3.045-2.1-2.185 2.056.031.033.033.032zm-1.68-4.935-2.998-.1-.002.05v.05zm.525-6.3-2.962-.474-.006.039-.006.039zm.42-2.625 2.962.474.005-.03.004-.03zm2.625-7.455-2.482-1.684zm6.09-4.305.949 2.846.032-.01.033-.012zm21.42 0-1.114 2.785.034.014.035.013zm4.83 4.305-2.792 1.097.017.043.018.042zm.63 7.455 2.962.474.005-.03.004-.03zm-.42 2.625-2.962-.474-.004.025-.004.025zm-1.68 6.615 2.792 1.097zM103.7 92.93l-1.734-2.448zm-7.035 2.52-.482-2.961.32 5.957zm5.88 1.68-1.78 2.415.043.031.043.03zm2.73 3.465-2.832.991zm.525 4.515-2.989-.26-.005.065-.003.065zm-.42 4.62-2.97-.424-.001.011zm-.525 3.78-2.971-.413-.003.021-.003.02zm-2.94 7.665-2.461-1.715zM95.3 126.74l1.342 2.683zm-9.765-6.09-.15 2.996.075.004h.075zm3.045-1.26-2.305-1.921-.049.06-.046.061zm1.26-3.255-2.97-.42-.008.053-.005.053zm1.365-9.66-2.967-.445-.002.013-.002.012zm-.21-3.36-2.8 1.077.015.039.016.038zm-5.985.21-2.572-1.543-.04.064-.035.067zm-1.155 3.255-2.949-.553-.012.064-.009.065zm-1.365 9.555-2.97-.424-.006.046-.006.047zm.315 3.15-2.77 1.154.04.095.047.093zm9.66-29.715-2.121-2.121zm1.68-4.2 2.97.424.002-.016.002-.015zm.735-5.565-2.962-.474-.007.04-.005.041zm-.105-4.515-2.929.65.017.077.021.076zM89 75.395l2.683 1.342.015-.029.013-.029zm-1.26 4.2 2.966.448.004-.021.003-.022zm-.84 5.565-2.966-.448-.004.026-.004.025zm.42 4.41-2.496 1.664.046.07.05.066zm-2.625 39.27v-3c-3.798 0-6.655-.561-8.722-1.511l-1.253 2.726-1.252 2.726c3.112 1.43 6.905 2.059 11.227 2.059zm-9.975-1.785 1.253-2.726c-2.022-.929-3.267-2.194-3.982-3.765l-2.731 1.241-2.731 1.241c1.385 3.049 3.78 5.284 6.939 6.735zm-5.46-5.25 2.762-1.172c-.714-1.682-1.002-3.949-.625-6.961l-2.977-.372-2.977-.372c-.463 3.708-.191 7.111 1.055 10.049zm-.84-8.505 2.972.413.525-3.78-2.972-.413-2.971-.413-.526 3.78zm.525-3.78 2.974.396c.26-1.947.642-3.648 1.132-5.117l-2.846-.949-2.846-.949c-.63 1.891-1.087 3.97-1.388 6.223zm1.26-5.67 2.857.914c.441-1.377 1.07-2.442 1.848-3.268l-2.185-2.056-2.185-2.056c-1.462 1.554-2.513 3.429-3.192 5.552zm2.52-4.41 2.198 2.041c.561-.603 1.487-1.274 2.937-1.939l-1.25-2.727-1.25-2.727c-1.91.875-3.574 1.954-4.833 3.31zm3.885-2.625 1.208 2.746c1.307-.575 3.156-.986 5.666-1.115l-.154-2.996-.154-2.996c-2.95.151-5.58.65-7.774 1.615zm6.72-1.365-.079-2.999c-2.632.07-4.008-.136-4.538-.335l-1.053 2.809-1.053 2.809c1.71.641 4.114.786 6.802.715zm-5.67-.525 1.203-2.748a6.9 6.9 0 0 1-2.127-1.473l-2.121 2.121-2.121 2.121a12.9 12.9 0 0 0 3.963 2.728zm-3.045-2.1 2.185-2.056c-.46-.488-.865-1.317-.865-2.879h-6c0 2.638.715 5.1 2.495 6.991zm-1.68-4.935 2.998.1q.1-3 .5-6.003l-2.973-.397-2.974-.396a67 67 0 0 0-.55 6.596zm.525-6.3 2.962.474.42-2.625-2.962-.474-2.962-.474-.42 2.625zm.42-2.625 2.971.415c.374-2.68 1.127-4.698 2.136-6.185l-2.482-1.685-2.482-1.684c-1.65 2.432-2.648 5.384-3.114 8.724zm2.625-7.455 2.482 1.685c.887-1.306 2.314-2.396 4.557-3.144l-.949-2.846-.949-2.846c-3.217 1.072-5.85 2.852-7.623 5.467zm6.09-4.305 1.014 2.824c2.274-.817 5.528-1.294 9.906-1.294v-6c-4.722 0-8.748.503-11.934 1.646zm10.92-1.47v3c4.404 0 7.458.484 9.386 1.255l1.114-2.785 1.114-2.785c-2.972-1.19-6.918-1.685-11.614-1.685zm10.5 1.47-1.045 2.812c1.858.69 2.698 1.61 3.083 2.59l2.792-1.097 2.792-1.097c-1.155-2.94-3.535-4.89-6.577-6.02zm4.83 4.305-2.757 1.182c.551 1.287.791 3.172.416 5.858l2.971.415 2.971.415c.465-3.334.285-6.42-.844-9.052zm.63 7.455-2.962-.474-.42 2.625 2.962.474 2.962.474.42-2.625zm-.42 2.625-2.97-.424c-.323 2.258-.831 4.233-1.502 5.942l2.792 1.097 2.792 1.097c.869-2.21 1.481-4.646 1.858-7.288zm-1.68 6.615-2.792-1.097c-.562 1.43-1.425 2.53-2.617 3.374l1.734 2.448 1.734 2.448c2.168-1.536 3.755-3.585 4.733-6.076zM103.7 92.93l-1.734-2.448c-1.172.83-3.025 1.558-5.783 2.007l.482 2.961.482 2.961c3.262-.53 6.099-1.483 8.287-3.033zm-7.035 2.52-.162 2.996c2.312.125 3.601.612 4.262 1.1l1.78-2.416 1.78-2.415c-1.999-1.473-4.63-2.106-7.498-2.26zm5.88 1.68-1.694 2.476c.85.582 1.332 1.236 1.592 1.98l2.832-.991 2.832-.991c-.72-2.057-2.058-3.712-3.868-4.95zm2.73 3.465-2.832.991c.338.964.475 2.039.368 3.264l2.989.26 2.989.26c.173-1.995-.04-3.93-.682-5.766zm.525 4.515-2.997-.13a44 44 0 0 1-.393 4.326l2.97.424 2.97.424q.337-2.363.447-4.914zm-.42 4.62-2.971-.413-.525 3.78 2.971.413 2.971.413.525-3.78zm-.525 3.78-2.977-.372a13.9 13.9 0 0 1-2.424 6.322l2.461 1.715 2.461 1.715a19.86 19.86 0 0 0 3.456-9.008zm-2.94 7.665-2.461-1.715c-1.293 1.854-3.093 3.395-5.496 4.597l1.342 2.683 1.342 2.683c3.197-1.598 5.807-3.767 7.734-6.533zM95.3 126.74l-1.342-2.683c-2.26 1.13-5.298 1.783-9.263 1.783v6c4.575 0 8.607-.747 11.947-2.417zm-9.765-6.09v3c2.003 0 4.07-.628 5.445-2.46l-2.4-1.8-2.4-1.8a.2.2 0 0 1 .031-.03c.014-.011.015-.008-.012.003-.059.024-.254.087-.664.087zm3.045-1.26 2.305 1.921c1.157-1.39 1.75-3.074 1.938-4.862l-2.983-.314-2.984-.314c-.091.872-.339 1.358-.58 1.648zm1.26-3.255 2.97.42 1.366-9.66-2.971-.42-2.97-.42-1.366 9.66zm1.365-9.66 2.967.445c.25-1.666.239-3.407-.408-4.959l-2.769 1.154-2.77 1.154c.054.128.183.627.013 1.761zm-.21-3.36 2.8-1.077c-1.031-2.682-3.676-3.288-5.635-3.288v6c.242 0 .404.018.503.036s.108.032.06.008a1 1 0 0 1-.278-.211 1.2 1.2 0 0 1-.25-.391zm-2.835-1.365v-3c-2.276 0-4.434.884-5.722 3.032l2.572 1.543 2.573 1.543c.023-.039.035-.048.03-.043s-.01.006-.001.002c.016-.008.164-.077.548-.077zm-3.15 1.575-2.647-1.412a14.3 14.3 0 0 0-1.457 4.114l2.949.553 2.949.553c.15-.807.43-1.604.853-2.396zm-1.155 3.255-2.97-.424-1.365 9.555 2.97.424 2.97.424 1.365-9.555zm-1.365 9.555-2.982-.331c-.175 1.576-.08 3.177.528 4.635l2.769-1.154 2.77-1.154c-.093-.222-.208-.721-.103-1.665zm.315 3.15-2.683 1.342c1.118 2.236 3.365 2.924 5.263 3.019l.15-2.996.15-2.996a3 3 0 0 1-.443-.054c-.092-.021-.117-.037-.098-.027a.7.7 0 0 1 .16.12 1 1 0 0 1 .184.25zM89.63 90.83v3c1.953 0 3.634-.817 4.956-2.139l-2.121-2.121-2.121-2.121c-.358.358-.567.381-.714.381zm2.835-1.26 2.121 2.121c1.516-1.515 2.213-3.684 2.529-5.897l-2.97-.424-2.97-.424c-.244 1.707-.667 2.338-.831 2.503zm1.68-4.2 2.974.393.735-5.565-2.974-.393-2.974-.393-.735 5.565zm.735-5.565 2.962.474c.326-2.033.322-3.996-.176-5.792l-2.891.803-2.89.803c.2.724.267 1.77.033 3.238zm-.105-4.515 2.929-.65c-.259-1.164-.853-2.33-1.969-3.168-1.088-.816-2.346-1.072-3.48-1.072v6c.266 0 .128.059-.12-.128a1 1 0 0 1-.256-.28c-.047-.079-.046-.11-.033-.051zm-2.52-1.89v-3c-1.207 0-2.432.264-3.536.94-1.114.683-1.906 1.664-2.43 2.77L89 75.396l2.711 1.284a1 1 0 0 1 .122-.201l.018-.02.003-.001.013-.007a.4.4 0 0 1 .055-.017c.057-.015.163-.033.333-.033zM89 75.395l-2.683-1.342c-.792 1.583-1.3 3.304-1.55 5.137l2.973.405 2.973.405c.17-1.247.502-2.326.97-3.263zm-1.26 4.2-2.966-.448-.84 5.565 2.966.448 2.966.448.84-5.565zm-.84 5.565-2.974-.396c-.158 1.187-.216 2.322-.118 3.358.097 1.016.363 2.133 1.016 3.112l2.496-1.664 2.496-1.664c.093.14.009.1-.035-.353-.04-.434-.029-1.084.093-1.997zm.42 4.41-2.4 1.8c1.097 1.463 2.702 2.46 4.71 2.46v-6a.456.456 0 0 1 .177.051c.027.015.033.023.019.01a1 1 0 0 1-.106-.121z" mask="url(#d)"/><mask id="e" width="48" height="70" x="61" y="58" fill="var(--card-black, #000)" maskUnits="userSpaceOnUse"><path fill="#fff" d="M61 58h48v70H61z"/><path d="M80.695 124.84q-6.09 0-9.975-1.785c-3.885-1.785-4.41-2.94-5.46-5.25q-1.47-3.465-.84-8.505l.525-3.78q.42-3.15 1.26-5.67.84-2.625 2.52-4.41 1.365-1.47 3.885-2.625 2.625-1.155 6.72-1.365-3.99.105-5.67-.525a9.9 9.9 0 0 1-3.045-2.1q-1.68-1.785-1.68-4.935.105-3.15.525-6.3l.42-2.625q.63-4.515 2.625-7.455c1.995-2.94 3.36-3.395 6.09-4.305q4.095-1.47 10.92-1.47c6.825 0 8.05.49 10.5 1.47q3.675 1.365 4.83 4.305 1.26 2.94.63 7.455l-.42 2.625q-.525 3.675-1.68 6.615T99.7 88.93t-7.035 2.52q3.885.21 5.88 1.68 1.995 1.365 2.73 3.465t.525 4.515q-.105 2.415-.42 4.62l-.525 3.78a16.9 16.9 0 0 1-2.94 7.665Q95.5 120.64 91.3 122.74t-10.605 2.1m.84-8.19q2.1 0 3.045-1.26 1.05-1.26 1.26-3.255l1.365-9.66q.315-2.1-.21-3.36-.525-1.365-2.835-1.365-2.205 0-3.15 1.575a11.3 11.3 0 0 0-1.155 3.255l-1.365 9.555q-.21 1.89.315 3.15.63 1.26 2.73 1.365m4.095-29.82q1.575 0 2.835-1.26t1.68-4.2l.735-5.565q.42-2.625-.105-4.515-.42-1.89-2.52-1.89-2.31 0-3.255 1.995-.945 1.89-1.26 4.2l-.84 5.565q-.42 3.15.42 4.41.945 1.26 2.31 1.26"/></mask><path fill="#fff" d="M80.695 124.84q-6.09 0-9.975-1.785c-3.885-1.785-4.41-2.94-5.46-5.25q-1.47-3.465-.84-8.505l.525-3.78q.42-3.15 1.26-5.67.84-2.625 2.52-4.41 1.365-1.47 3.885-2.625 2.625-1.155 6.72-1.365-3.99.105-5.67-.525a9.9 9.9 0 0 1-3.045-2.1q-1.68-1.785-1.68-4.935.105-3.15.525-6.3l.42-2.625q.63-4.515 2.625-7.455c1.995-2.94 3.36-3.395 6.09-4.305q4.095-1.47 10.92-1.47c6.825 0 8.05.49 10.5 1.47q3.675 1.365 4.83 4.305 1.26 2.94.63 7.455l-.42 2.625q-.525 3.675-1.68 6.615T99.7 88.93t-7.035 2.52q3.885.21 5.88 1.68 1.995 1.365 2.73 3.465t.525 4.515q-.105 2.415-.42 4.62l-.525 3.78a16.9 16.9 0 0 1-2.94 7.665Q95.5 120.64 91.3 122.74t-10.605 2.1m.84-8.19q2.1 0 3.045-1.26 1.05-1.26 1.26-3.255l1.365-9.66q.315-2.1-.21-3.36-.525-1.365-2.835-1.365-2.205 0-3.15 1.575a11.3 11.3 0 0 0-1.155 3.255l-1.365 9.555q-.21 1.89.315 3.15.63 1.26 2.73 1.365m4.095-29.82q1.575 0 2.835-1.26t1.68-4.2l.735-5.565q.42-2.625-.105-4.515-.42-1.89-2.52-1.89-2.31 0-3.255 1.995-.945 1.89-1.26 4.2l-.84 5.565q-.42 3.15.42 4.41.945 1.26 2.31 1.26"/><path fill="var(--card-black, #000)" d="m70.72 123.055 1.253-2.726zm-5.46-5.25-2.762 1.172.015.035.016.034zm-.84-8.505-2.971-.413-.003.021-.003.02zm.525-3.78 2.972.413v-.008l.002-.009zm1.26-5.67 2.846.949.006-.017.005-.018zm2.52-4.41 2.185 2.056.007-.007.006-.008zm3.885-2.625-1.208-2.746-.021.01-.021.009zm6.72-1.365.154 2.996-.233-5.995zm-5.67-.525-1.202 2.749.073.032.076.028zm-3.045-2.1-2.185 2.056.031.033.033.032zm-1.68-4.935-2.998-.1-.002.05v.05zm.525-6.3-2.962-.474-.006.039-.006.039zm.42-2.625 2.962.474.005-.03.004-.03zm2.625-7.455-2.482-1.684zm6.09-4.305.949 2.846.032-.01.033-.012zm21.42 0-1.114 2.785.035.014.034.013zm4.83 4.305-2.792 1.097.017.043.018.042zm.63 7.455 2.962.474.005-.03.004-.03zm-.42 2.625-2.962-.474-.004.025-.004.025zm-1.68 6.615 2.792 1.097zM99.7 88.93l-1.734-2.448zm-7.035 2.52-.482-2.961.32 5.957zm5.88 1.68-1.78 2.415.043.031.043.03zm2.73 3.465-2.832.991zm.525 4.515-2.989-.26-.005.065-.003.065zm-.42 4.62-2.97-.424-.001.011zm-.525 3.78-2.971-.413-.003.021-.003.02zm-2.94 7.665-2.461-1.715zM91.3 122.74l1.342 2.683zm-9.765-6.09-.15 2.996.075.004h.075zm3.045-1.26-2.305-1.921-.049.06-.046.061zm1.26-3.255-2.97-.42-.008.053-.005.053zm1.365-9.66-2.967-.445-.002.013-.002.012zm-.21-3.36-2.8 1.077.015.039.016.038zm-5.985.21-2.572-1.544-.04.065-.035.067zm-1.155 3.255-2.949-.553-.012.064-.009.065zm-1.365 9.555-2.97-.424-.006.046-.006.047zm.315 3.15-2.77 1.154.04.095.047.093zm9.66-29.715-2.121-2.121zm1.68-4.2 2.97.424.002-.016.002-.015zm.735-5.565-2.962-.474-.007.04-.005.041zm-.105-4.515-2.929.65.017.077.021.076zM85 71.395l2.683 1.342.015-.029.013-.029zm-1.26 4.2 2.966.448.004-.021.003-.022zm-.84 5.565-2.966-.448-.004.026-.004.025zm.42 4.41-2.496 1.664.046.07.05.066zm-2.625 39.27v-3c-3.798 0-6.655-.561-8.722-1.511l-1.253 2.726-1.252 2.726c3.112 1.43 6.905 2.059 11.227 2.059zm-9.975-1.785 1.253-2.726c-2.022-.929-3.267-2.194-3.982-3.765l-2.731 1.241-2.731 1.241c1.385 3.049 3.78 5.284 6.939 6.735zm-5.46-5.25 2.762-1.172c-.714-1.682-1.002-3.949-.625-6.961l-2.977-.372-2.977-.372c-.463 3.708-.191 7.111 1.055 10.049zm-.84-8.505 2.972.413.525-3.78-2.972-.413-2.971-.413-.525 3.78zm.525-3.78 2.974.396c.26-1.947.642-3.648 1.132-5.117l-2.846-.949-2.846-.949c-.63 1.891-1.087 3.97-1.388 6.223zm1.26-5.67 2.857.914c.441-1.377 1.07-2.442 1.848-3.268l-2.185-2.056-2.185-2.056c-1.462 1.554-2.513 3.429-3.192 5.552zm2.52-4.41 2.198 2.041c.561-.603 1.487-1.274 2.937-1.939l-1.25-2.727-1.25-2.727c-1.91.875-3.574 1.954-4.833 3.31zm3.885-2.625 1.208 2.746c1.307-.575 3.156-.986 5.666-1.115l-.154-2.996-.154-2.996c-2.95.151-5.58.65-7.774 1.615zm6.72-1.365-.079-2.999c-2.632.07-4.008-.136-4.538-.335l-1.053 2.809-1.053 2.809c1.71.641 4.114.786 6.802.715zm-5.67-.525 1.203-2.748a6.9 6.9 0 0 1-2.127-1.473l-2.121 2.121-2.121 2.121a12.9 12.9 0 0 0 3.963 2.728zm-3.045-2.1 2.185-2.056c-.46-.488-.865-1.317-.865-2.879h-6c0 2.638.715 5.1 2.495 6.991zm-1.68-4.935 2.998.1q.1-3 .5-6.003l-2.973-.397-2.974-.396a67 67 0 0 0-.55 6.596zm.525-6.3 2.962.474.42-2.625-2.962-.474-2.962-.474-.42 2.625zm.42-2.625 2.971.415c.374-2.68 1.127-4.698 2.136-6.185l-2.482-1.685-2.482-1.684c-1.65 2.432-2.648 5.384-3.114 8.724zm2.625-7.455 2.482 1.685c.887-1.306 2.314-2.396 4.557-3.144l-.949-2.846-.949-2.846c-3.217 1.072-5.85 2.852-7.623 5.467zm6.09-4.305 1.014 2.824c2.274-.817 5.528-1.294 9.906-1.294v-6c-4.722 0-8.748.503-11.934 1.646zm10.92-1.47v3c4.404 0 7.458.484 9.386 1.255l1.114-2.785 1.114-2.785c-2.972-1.19-6.918-1.685-11.614-1.685zm10.5 1.47-1.045 2.812c1.858.69 2.698 1.61 3.083 2.59l2.792-1.097 2.792-1.097c-1.155-2.94-3.535-4.89-6.577-6.02zm4.83 4.305-2.757 1.182c.551 1.287.791 3.172.416 5.858l2.971.415 2.971.415c.465-3.334.285-6.42-.844-9.052zm.63 7.455-2.962-.474-.42 2.625 2.962.474 2.962.474.42-2.625zm-.42 2.625-2.97-.424c-.323 2.258-.831 4.233-1.502 5.942l2.792 1.097 2.792 1.097c.869-2.21 1.481-4.646 1.858-7.288zm-1.68 6.615-2.792-1.097c-.562 1.43-1.425 2.53-2.617 3.374L99.7 88.93l1.734 2.448c2.168-1.536 3.755-3.585 4.733-6.076zM99.7 88.93l-1.734-2.448c-1.171.83-3.025 1.558-5.783 2.007l.482 2.961.482 2.961c3.262-.53 6.099-1.483 8.287-3.033zm-7.035 2.52-.162 2.996c2.312.125 3.601.612 4.262 1.1l1.78-2.416 1.78-2.415c-2-1.473-4.63-2.106-7.498-2.26zm5.88 1.68-1.694 2.476c.85.582 1.332 1.237 1.592 1.98l2.832-.991 2.832-.991c-.72-2.057-2.058-3.712-3.868-4.95zm2.73 3.465-2.832.991c.338.964.475 2.04.368 3.264l2.989.26 2.989.26c.173-1.995-.04-3.93-.682-5.766zm.525 4.515-2.997-.13a44 44 0 0 1-.393 4.326l2.97.424 2.97.424q.337-2.363.447-4.914zm-.42 4.62-2.971-.413-.526 3.78 2.972.413 2.971.413.525-3.78zm-.525 3.78-2.977-.372a13.9 13.9 0 0 1-2.424 6.322l2.461 1.715 2.461 1.715a19.86 19.86 0 0 0 3.456-9.008zm-2.94 7.665-2.461-1.715c-1.293 1.854-3.093 3.395-5.496 4.597l1.342 2.683 1.342 2.683c3.197-1.598 5.807-3.767 7.734-6.533zM91.3 122.74l-1.342-2.683c-2.26 1.13-5.298 1.783-9.263 1.783v6c4.575 0 8.607-.747 11.947-2.417zm-9.765-6.09v3c2.003 0 4.07-.628 5.445-2.46l-2.4-1.8-2.4-1.8a.2.2 0 0 1 .031-.03c.014-.011.015-.008-.012.003-.059.024-.254.087-.664.087zm3.045-1.26 2.305 1.921c1.157-1.39 1.75-3.074 1.938-4.862l-2.983-.314-2.984-.314c-.091.872-.339 1.358-.58 1.648zm1.26-3.255 2.97.42 1.366-9.66-2.971-.42-2.97-.42-1.366 9.66zm1.365-9.66 2.967.445c.25-1.666.239-3.407-.408-4.959l-2.769 1.154-2.77 1.154c.054.128.183.627.013 1.761zm-.21-3.36 2.8-1.077c-1.032-2.682-3.676-3.288-5.635-3.288v6c.242 0 .404.018.503.036s.108.032.06.008a1 1 0 0 1-.278-.211 1.2 1.2 0 0 1-.25-.391zM84.16 97.75v-3c-2.276 0-4.434.884-5.722 3.032l2.572 1.543 2.573 1.543c.023-.039.035-.048.03-.043s-.01.006-.001.002c.016-.008.164-.077.548-.077zm-3.15 1.575-2.647-1.412a14.3 14.3 0 0 0-1.457 4.114l2.949.553 2.949.553c.15-.807.43-1.604.853-2.396zm-1.155 3.255-2.97-.424-1.365 9.555 2.97.424 2.97.424 1.365-9.555zm-1.365 9.555-2.982-.331c-.175 1.576-.08 3.177.528 4.635l2.769-1.154 2.77-1.154c-.094-.222-.208-.721-.103-1.665zm.315 3.15-2.683 1.342c1.118 2.236 3.365 2.924 5.263 3.019l.15-2.996.15-2.996a3 3 0 0 1-.443-.054c-.092-.021-.117-.037-.098-.027a.7.7 0 0 1 .16.12 1 1 0 0 1 .184.25zM85.63 86.83v3c1.953 0 3.634-.817 4.956-2.139l-2.121-2.121-2.121-2.121c-.358.358-.567.381-.714.381zm2.835-1.26 2.121 2.121c1.516-1.515 2.213-3.684 2.529-5.897l-2.97-.424-2.97-.424c-.244 1.707-.667 2.338-.831 2.503zm1.68-4.2 2.974.393.735-5.565-2.974-.393-2.974-.393-.735 5.565zm.735-5.565 2.962.474c.326-2.033.322-3.996-.176-5.792l-2.891.803-2.89.803c.2.724.267 1.77.033 3.238zm-.105-4.515 2.929-.65c-.259-1.164-.853-2.33-1.969-3.168-1.088-.816-2.346-1.072-3.48-1.072v6c.266 0 .128.059-.12-.128a1 1 0 0 1-.256-.28c-.047-.079-.046-.11-.033-.051zm-2.52-1.89v-3c-1.207 0-2.432.264-3.536.94-1.114.683-1.906 1.664-2.43 2.77L85 71.396l2.711 1.284a1 1 0 0 1 .122-.201l.018-.02.003-.001.013-.007a.4.4 0 0 1 .055-.017c.057-.015.163-.033.333-.033zM85 71.395l-2.683-1.342c-.792 1.583-1.3 3.304-1.55 5.137l2.973.405 2.973.405c.17-1.247.502-2.326.97-3.263zm-1.26 4.2-2.966-.448-.84 5.565 2.966.448 2.966.448.84-5.565zm-.84 5.565-2.974-.396c-.158 1.187-.216 2.322-.118 3.358.097 1.016.363 2.133 1.016 3.112l2.496-1.664 2.496-1.664c.093.14.009.1-.035-.353-.04-.434-.029-1.084.093-1.997zm.42 4.41-2.4 1.8c1.097 1.463 2.702 2.46 4.71 2.46v-6a.456.456 0 0 1 .177.051c.027.015.033.023.019.01a1 1 0 0 1-.106-.121z" mask="url(#e)"/></svg>