<svg xmlns="http://www.w3.org/2000/svg" width="486" height="759" viewBox="0 0 486 759" fill="none"><rect width="486" height="759" fill="#fff" rx="51"/><path fill="var(--card-color, #00f)" d="M452 698c0 14.359-11.641 26-26 26H60c-14.36 0-26-11.641-26-26V562.111c5.839 43.884 23.777 77.718 54.045 94.674 79.32 44.436 213.268-43.864 299.182-197.223 35.248-62.921 56.931-127.017 64.773-183.801zM426 34c14.359 0 26 11.64 26 26v128.134c-6.875-40.009-24.423-70.796-52.834-86.712-79.32-44.436-213.268 43.864-299.182 197.224C62.718 365.168 40.614 433.004 34 492.125V60c0-14.36 11.64-26 26-26z"/><path fill="var(--card-black, #000)" d="M225.14 526.52q-38.18 0-56.12-15.64c-17.94-15.64-16.407-26.987-13.34-49.68l3.68-23.92h63.48l-4.6 31.28q-1.38 10.58 1.38 15.18 3.22 4.14 10.58 4.14c7.36 0 8.893-1.533 11.96-4.6q5.06-5.06 6.44-15.18l9.2-63.48q-8.28 9.66-21.16 13.8-12.42 4.14-24.84 4.14-15.18 0-26.68-5.52-11.04-5.98-16.1-19.78-4.6-13.8-1.38-37.72l5.98-44.62q3.22-22.08 15.18-36.8 12.42-15.18 31.74-23 19.78-8.28 44.16-8.28 24.84 0 41.4 8.28 16.56 7.82 23.46 24.84 6.9 16.56 3.22 42.78l-19.32 138q-4.6 33.58-28.52 49.68t-59.8 16.1m19.78-143.06q5.98 0 10.58-3.22 5.06-3.68 6.9-8.28l9.2-67.62q1.38-10.58-2.76-15.18-3.68-5.06-10.58-5.06c-6.9 0-8.74 1.533-12.42 4.6q-5.52 4.6-6.9 15.64l-8.74 62.56q-1.38 10.12 4.14 13.34 5.52 2.76 10.58 3.22"/><mask id="a" width="138" height="23" x="160" y="546" fill="var(--card-black, #000)" maskUnits="userSpaceOnUse"><path fill="#fff" d="M160 546h138v23H160z"/><path d="M164.633 564.14v-14.07h129.243v14.07z"/></mask><path fill="var(--card-black, #000)" d="M164.633 564.14v-14.07h129.243v14.07z"/><path fill="var(--card-black, #000)" d="M164.633 564.14h-4v4h4zm0-14.07v-4h-4v4zm129.243 0h4v-4h-4zm0 14.07v4h4v-4zm-129.243 0h4v-14.07h-8v14.07zm0-14.07v4h129.243v-8H164.633zm129.243 0h-4v14.07h8v-14.07zm0 14.07v-4H164.633v8h129.243z" mask="url(#a)"/><mask id="b" width="189" height="289" x="140" y="233" fill="var(--card-black, #000)" maskUnits="userSpaceOnUse"><path fill="#fff" d="M140 233h189v289H140z"/><path d="M215.14 517.52q-38.18 0-56.12-15.64c-17.94-15.64-16.407-26.987-13.34-49.68l3.68-23.92h63.48l-4.6 31.28q-1.38 10.58 1.38 15.18 3.22 4.14 10.58 4.14c7.36 0 8.893-1.533 11.96-4.6q5.06-5.06 6.44-15.18l9.2-63.48q-8.28 9.66-21.16 13.8-12.42 4.14-24.84 4.14-15.18 0-26.68-5.52-11.04-5.98-16.1-19.78-4.6-13.8-1.38-37.72l5.98-44.62q3.22-22.08 15.18-36.8 12.42-15.18 31.74-23 19.78-8.28 44.16-8.28 24.84 0 41.4 8.28 16.56 7.82 23.46 24.84 6.9 16.56 3.22 42.78l-19.32 138q-4.6 33.58-28.52 49.68t-59.8 16.1m19.78-143.06q5.98 0 10.58-3.22 5.06-3.68 6.9-8.28l9.2-67.62q1.38-10.58-2.76-15.18-3.68-5.06-10.58-5.06c-6.9 0-8.74 1.533-12.42 4.6q-5.52 4.6-6.9 15.64l-8.74 62.56q-1.38 10.12 4.14 13.34 5.52 2.76 10.58 3.22"/></mask><path fill="var(--card-color, #00f)" d="M215.14 517.52q-38.18 0-56.12-15.64c-17.94-15.64-16.407-26.987-13.34-49.68l3.68-23.92h63.48l-4.6 31.28q-1.38 10.58 1.38 15.18 3.22 4.14 10.58 4.14c7.36 0 8.893-1.533 11.96-4.6q5.06-5.06 6.44-15.18l9.2-63.48q-8.28 9.66-21.16 13.8-12.42 4.14-24.84 4.14-15.18 0-26.68-5.52-11.04-5.98-16.1-19.78-4.6-13.8-1.38-37.72l5.98-44.62q3.22-22.08 15.18-36.8 12.42-15.18 31.74-23 19.78-8.28 44.16-8.28 24.84 0 41.4 8.28 16.56 7.82 23.46 24.84 6.9 16.56 3.22 42.78l-19.32 138q-4.6 33.58-28.52 49.68t-59.8 16.1m19.78-143.06q5.98 0 10.58-3.22 5.06-3.68 6.9-8.28l9.2-67.62q1.38-10.58-2.76-15.18-3.68-5.06-10.58-5.06c-6.9 0-8.74 1.533-12.42 4.6q-5.52 4.6-6.9 15.64l-8.74 62.56q-1.38 10.12 4.14 13.34 5.52 2.76 10.58 3.22"/><path fill="var(--card-black, #000)" d="m159.02 501.88-2.629 3.015zm-13.34-49.68-3.953-.608-.006.036-.005.036zm3.68-23.92v-4h-3.432l-.521 3.392zm63.48 0 3.957.582.674-4.582h-4.631zm-4.6 31.28-3.957-.582-.005.032-.004.033zm1.38 15.18-3.43 2.058.124.207.149.191zm22.54-.46 2.828 2.828zm6.44-15.18-3.959-.574-.002.017-.002.017zm9.2-63.48 3.959.574 1.977-13.646-8.973 10.469zm-21.16 13.8-1.224-3.808-.021.006-.02.007zm-51.52-1.38-1.905 3.517.086.047.088.042zm-16.1-19.78-3.795 1.265.019.056.02.056zm-1.38-37.72 3.964.534.001-.003zm5.98-44.62-3.958-.577-.003.023-.004.023zm15.18-36.8-3.096-2.533-.008.011zm31.74-23 1.501 3.708.022-.009.022-.009zm85.56 0-1.789 3.578.04.02.041.019zm23.46 24.84-3.707 1.503.007.018.008.017zm3.22 42.78-3.961-.556v.001zm-19.32 138-3.961-.555-.002.012zm-28.52 49.68-2.234-3.318zm-40.02-126.96-.362 3.984.181.016h.181zm10.58-3.22 2.294 3.277.029-.021.03-.021zm6.9-8.28 3.714 1.486.183-.458.066-.489zm9.2-67.62 3.963.539.002-.011.001-.011zm-2.76-15.18-3.235 2.353.123.168.139.155zm-23-.46 2.561 3.073zm-6.9 15.64 3.962.553.004-.028.003-.029zm-8.74 62.56-3.962-.553-.001.013zm4.14 13.34-2.015 3.455.111.065.115.058zm-9.2 146.28v-4c-25.037 0-42.589-5.15-53.491-14.655l-2.629 3.015-2.629 3.015c13.018 11.348 32.88 16.625 58.749 16.625zm-56.12-15.64 2.629-3.015c-10.543-9.191-14.978-24.132-12.005-46.129l-3.964-.536-3.964-.536c-3.161 23.39 1.298 41.569 14.675 53.231zm-13.34-49.68 3.953.608 3.68-23.92-3.953-.608-3.953-.608-3.68 23.92zm3.68-23.92v4h63.48v-8h-63.48zm63.48 0-3.957-.582-4.6 31.28 3.957.582 3.957.582 4.6-31.28zm-4.6 31.28-3.966-.517c-.94 7.201-.666 13.452 1.916 17.755l3.43-2.058 3.43-2.058c-1.098-1.83-1.744-5.699-.844-12.605zm1.38 15.18-3.157 2.456c3.177 4.085 8.122 5.684 13.737 5.684v-8c-4.199 0-6.307-1.161-7.423-2.596zm10.58 4.14v4c5.816 0 10.871-1.854 14.788-5.772l-2.828-2.828-2.828-2.828c-2.216 2.215-5.134 3.428-9.132 3.428zm11.96-4.6 2.828 2.828c4.207-4.206 6.586-10.214 7.575-17.468l-3.963-.54-3.963-.54c-.851 6.239-2.765 10.351-5.305 12.892zm6.44-15.18 3.959.574 9.2-63.48-3.959-.574-3.959-.574-9.2 63.48zm9.2-63.48-3.037-2.603c-5.008 5.842-11.418 10.046-19.347 12.595l1.224 3.808 1.224 3.808c9.244-2.971 16.941-7.967 22.973-15.005zm-21.16 13.8-1.265-3.795c-7.894 2.632-15.748 3.935-23.575 3.935v8c8.733 0 17.439-1.457 26.105-4.345zm-24.84 4.14v-4c-9.633 0-17.916-1.75-24.949-5.126l-1.731 3.606-1.731 3.606c8.3 3.984 17.804 5.914 28.411 5.914zm-26.68-5.52 1.905-3.517c-6.36-3.445-11.151-9.19-14.249-17.64l-3.756 1.377-3.756 1.377c3.649 9.95 9.591 17.392 17.951 21.92zm-16.1-19.78 3.795-1.265c-2.787-8.36-3.323-20.229-1.211-35.921l-3.964-.534-3.964-.534c-2.181 16.202-1.797 29.479 1.549 39.519zm-1.38-37.72 3.965.531 5.98-44.62-3.965-.531-3.965-.531-5.98 44.62zm5.98-44.62 3.958.577c2.061-14.133 6.883-25.693 14.326-34.855l-3.104-2.522-3.104-2.522c-8.503 10.465-13.802 23.438-16.034 38.745zm15.18-36.8 3.096 2.533c7.828-9.568 17.846-16.847 30.145-21.825l-1.501-3.708-1.501-3.708c-13.461 5.449-24.603 13.503-33.335 24.175zm31.74-23 1.545 3.69c12.635-5.289 26.82-7.97 42.615-7.97v-8c-16.711 0-31.966 2.839-45.705 8.59zm44.16-8.28v4c16.141 0 29.283 2.694 39.611 7.858l1.789-3.578 1.789-3.578c-11.752-5.876-26.21-8.702-43.189-8.702zm41.4 8.28-1.708 3.617c10.129 4.783 17.237 12.307 21.461 22.726l3.707-1.503 3.707-1.503c-4.976-12.274-13.508-21.311-25.459-26.954zm23.46 24.84-3.692 1.538c4.223 10.137 5.349 23.6 2.951 40.686l3.961.556 3.961.556c2.509-17.874 1.488-32.931-3.489-44.874zm3.22 42.78-3.961-.555-19.32 138 3.961.555 3.961.555 19.32-138zm-19.32 138-3.963-.543c-2.942 21.475-11.957 36.921-26.791 46.905l2.234 3.318 2.234 3.318c17.06-11.483 27.057-29.157 30.249-52.455zm-28.52 49.68-2.234-3.318c-15.141 10.191-34.246 15.418-57.566 15.418v8c24.52 0 45.281-5.506 62.034-16.782zm-40.02-126.96v4c4.751 0 9.09-1.294 12.874-3.943l-2.294-3.277-2.294-3.277c-2.349 1.645-5.064 2.497-8.286 2.497zm10.58-3.22 2.353 3.235c3.823-2.781 6.689-6.101 8.261-10.029l-3.714-1.486-3.714-1.486c-.882 2.205-2.616 4.405-5.539 6.531zm6.9-8.28 3.963.539 9.2-67.62-3.963-.539-3.963-.539-9.2 67.62zm9.2-67.62 3.966.517c.967-7.411.202-13.978-3.753-18.373l-2.973 2.676-2.973 2.676c1.565 1.739 2.64 5.291 1.767 11.987zm-2.76-15.18 3.235-2.353c-3.292-4.526-8.088-6.707-13.815-6.707v8c3.473 0 5.73 1.192 7.345 3.413zm-10.58-5.06v-4c-5.577 0-10.614 1.888-14.981 5.527l2.561 3.073 2.561 3.073c2.993-2.495 6.236-3.673 9.859-3.673zm-12.42 4.6-2.561-3.073c-4.792 3.993-7.329 10.384-8.308 18.217l3.969.496 3.969.496c.861-6.887 2.924-10.923 5.492-13.063zm-6.9 15.64-3.962-.553-8.74 62.56 3.962.553 3.962.553 8.74-62.56zm-8.74 62.56-3.963-.54c-.992 7.272.264 13.938 6.088 17.335l2.015-3.455 2.015-3.455c-1.536-.896-3.04-3.124-2.192-9.345zm4.14 13.34-1.789 3.578c4.033 2.016 8.043 3.265 12.007 3.626l.362-3.984.362-3.984c-2.782-.253-5.826-1.15-9.153-2.814z" mask="url(#b)"/><mask id="c" width="138" height="23" x="152" y="539" fill="var(--card-black, #000)" maskUnits="userSpaceOnUse"><path fill="#fff" d="M152 539h138v23H152z"/><path d="M156.633 557.14v-14.07h129.243v14.07z"/></mask><path fill="var(--card-color, #00f)" d="M156.633 557.14v-14.07h129.243v14.07z"/><path fill="var(--card-black, #000)" d="M156.633 557.14h-4v4h4zm0-14.07v-4h-4v4zm129.243 0h4v-4h-4zm0 14.07v4h4v-4zm-129.243 0h4v-14.07h-8v14.07zm0-14.07v4h129.243v-8H156.633zm129.243 0h-4v14.07h8v-14.07zm0 14.07v-4H156.633v8h129.243z" mask="url(#c)"/><mask id="d" width="50" height="73" x="63" y="60" fill="var(--card-black, #000)" maskUnits="userSpaceOnUse"><path fill="#fff" d="M63 60h50v73H63z"/><path d="M83.695 128.26q-8.715 0-12.81-3.57t-3.045-11.34l.84-5.46h14.49l-1.05 7.14q-.315 2.415.315 3.465.735.945 2.415.945c1.68 0 2.03-.35 2.73-1.05q1.155-1.155 1.47-3.465l2.1-14.49q-1.89 2.205-4.83 3.15-2.835.945-5.67.945-3.465 0-6.09-1.26-2.52-1.365-3.675-4.515-1.05-3.15-.315-8.61l1.365-10.185q.735-5.04 3.465-8.4 2.835-3.465 7.245-5.25 4.515-1.89 10.08-1.89 5.67 0 9.45 1.89 3.78 1.785 5.355 5.67 1.575 3.78.735 9.765l-4.41 31.5q-1.05 7.665-6.51 11.34t-13.65 3.675m4.515-32.655q1.365 0 2.415-.735 1.155-.84 1.575-1.89l2.1-15.435q.315-2.415-.63-3.465-.84-1.155-2.415-1.155c-1.575 0-1.995.35-2.835 1.05q-1.26 1.05-1.575 3.57l-1.995 14.28q-.315 2.31.945 3.045 1.26.63 2.415.735"/></mask><path fill="var(--card-black, #000)" d="M83.695 128.26q-8.715 0-12.81-3.57t-3.045-11.34l.84-5.46h14.49l-1.05 7.14q-.315 2.415.315 3.465.735.945 2.415.945c1.68 0 2.03-.35 2.73-1.05q1.155-1.155 1.47-3.465l2.1-14.49q-1.89 2.205-4.83 3.15-2.835.945-5.67.945-3.465 0-6.09-1.26-2.52-1.365-3.675-4.515-1.05-3.15-.315-8.61l1.365-10.185q.735-5.04 3.465-8.4 2.835-3.465 7.245-5.25 4.515-1.89 10.08-1.89 5.67 0 9.45 1.89 3.78 1.785 5.355 5.67 1.575 3.78.735 9.765l-4.41 31.5q-1.05 7.665-6.51 11.34t-13.65 3.675m4.515-32.655q1.365 0 2.415-.735 1.155-.84 1.575-1.89l2.1-15.435q.315-2.415-.63-3.465-.84-1.155-2.415-1.155c-1.575 0-1.995.35-2.835 1.05q-1.26 1.05-1.575 3.57l-1.995 14.28q-.315 2.31.945 3.045 1.26.63 2.415.735"/><path fill="var(--card-black, #000)" d="m70.885 124.69-2.628 3.015zm-3.045-11.34-3.953-.608-.006.036-.005.036zm.84-5.46v-4h-3.432l-.522 3.392zm14.49 0 3.957.582.674-4.582H83.17zm-1.05 7.14-3.957-.582-.005.032-.004.033zm.315 3.465-3.43 2.058.124.207.149.191zm5.145-.105 2.828 2.828zm1.47-3.465-3.959-.574-.002.017-.002.017zm2.1-14.49 3.959.574 1.977-13.646-8.973 10.469zm-4.83 3.15-1.224-3.808-.02.007-.02.006zm-11.76-.315-1.905 3.517.086.047.088.042zm-3.675-4.515-3.795 1.265.019.056.02.056zm-.315-8.61 3.964.534v-.003zm1.365-10.185-3.958-.577-.004.023-.003.023zm3.465-8.4-3.096-2.533-.009.01zm7.245-5.25 1.5 3.708.023-.01.022-.008zm19.53 0-1.789 3.578.04.02.041.019zm5.355 5.67-3.707 1.503.007.018.008.017zm.735 9.765-3.961-.556v.001zm-4.41 31.5-3.961-.555-.002.012zm-6.51 11.34-2.233-3.318zm-9.135-28.98-.362 3.984.18.016h.182zm2.415-.735 2.294 3.277.03-.02.029-.022zm1.575-1.89 3.714 1.486.183-.458.067-.489zm2.1-15.435 3.964.54.001-.012.001-.01zm-.63-3.465-3.235 2.353.123.168.139.155zm-5.25-.105 2.56 3.073zm-1.575 3.57 3.962.553.003-.028.004-.029zm-1.995 14.28-3.961-.554-.002.013zm.945 3.045-2.016 3.455.112.065.115.058zm-2.1 33.39v-4c-5.394 0-8.509-1.127-10.181-2.585l-2.629 3.015-2.629 3.015c3.788 3.302 9.213 4.555 15.439 4.555zm-12.81-3.57 2.628-3.015c-1.312-1.144-2.315-3.306-1.709-7.789l-3.964-.536-3.964-.536c-.794 5.877.233 11.275 4.38 14.891zm-3.045-11.34 3.953.608.84-5.46-3.953-.608-3.954-.608-.84 5.46zm.84-5.46v4h14.49v-8H68.68zm14.49 0-3.957-.582-1.05 7.14 3.957.582 3.957.582 1.05-7.14zm-1.05 7.14-3.966-.517c-.23 1.757-.31 4.104.851 6.04l3.43-2.058 3.43-2.058c.202.337.18.518.16.305-.018-.195-.02-.575.061-1.195zm.315 3.465-3.157 2.456c1.52 1.955 3.744 2.489 5.572 2.489v-8c-.202 0-.163-.03.014.039.21.082.495.26.728.56zm2.415.945v4c2.029 0 4.007-.67 5.558-2.222l-2.828-2.828-2.828-2.828a.555.555 0 0 1 .185-.118c.066-.025.054-.004-.087-.004zm2.73-1.05 2.828 2.828c1.603-1.603 2.326-3.706 2.605-5.753l-3.963-.54-3.963-.54c-.141 1.033-.398 1.24-.335 1.177zm1.47-3.465 3.959.574 2.1-14.49-3.959-.574-3.959-.574-2.1 14.49zm2.1-14.49-3.037-2.603c-.748.872-1.715 1.526-3.017 1.945l1.224 3.808 1.224 3.808c2.618-.841 4.87-2.287 6.643-4.355zm-4.83 3.15-1.265-3.795c-1.504.502-2.968.74-4.405.74v8c2.343 0 4.66-.392 6.935-1.15zm-5.67.945v-4c-1.824 0-3.242-.33-4.36-.866l-1.73 3.606-1.73 3.606c2.382 1.144 5.023 1.654 7.82 1.654zm-6.09-1.26 1.905-3.517c-.68-.369-1.33-1.025-1.825-2.375l-3.755 1.377-3.756 1.377c1.045 2.85 2.846 5.203 5.526 6.655zm-3.675-4.515 3.795-1.265c-.42-1.26-.602-3.426-.146-6.811l-3.964-.534-3.964-.534c-.525 3.895-.496 7.47.484 10.409zm-.315-8.61 3.965.531L75.9 80.491l-3.965-.531-3.965-.531-1.365 10.185zm1.365-10.185 3.958.577c.405-2.774 1.32-4.866 2.611-6.455L75.4 71.56l-3.104-2.522c-2.35 2.891-3.744 6.399-4.32 10.345zm3.465-8.4 3.096 2.533c1.438-1.758 3.291-3.12 5.65-4.075l-1.501-3.708-1.5-3.708c-3.522 1.426-6.5 3.563-8.84 6.425zm7.245-5.25L84.19 70c2.458-1.03 5.283-1.58 8.535-1.58v-8c-4.168 0-8.063.71-11.625 2.2zm10.08-1.89v4c3.361 0 5.853.564 7.661 1.468l1.789-3.578 1.789-3.578c-3.232-1.616-7.04-2.312-11.239-2.312zm9.45 1.89-1.708 3.617c1.609.76 2.682 1.893 3.356 3.556l3.707-1.503 3.707-1.503c-1.426-3.518-3.923-6.164-7.354-7.784zm5.355 5.67-3.692 1.538c.673 1.617.97 4.075.466 7.671l3.961.556 3.961.556c.616-4.384.423-8.436-1.004-11.86zm.735 9.765-3.961-.555-4.41 31.5 3.961.555 3.961.555 4.41-31.5zm-4.41 31.5-3.963-.543c-.575 4.198-2.254 6.864-4.78 8.565l2.233 3.318 2.234 3.318c4.753-3.199 7.414-8.093 8.239-14.115zm-6.51 11.34-2.233-3.318c-2.835 1.908-6.557 2.993-11.417 2.993v8c6.06 0 11.438-1.365 15.884-4.357zm-9.135-28.98v4c1.674 0 3.292-.466 4.709-1.458l-2.294-3.277-2.294-3.277-.006.004.007-.002h-.006l-.019.004a1 1 0 0 1-.097.006zm2.415-.735 2.353 3.235c1.22-.888 2.311-2.077 2.936-3.64L92.2 92.98l-3.714-1.486c.03-.072.055-.098.037-.077-.02.024-.09.102-.25.218zm1.575-1.89 3.964.54 2.1-15.436-3.964-.539-3.963-.54-2.1 15.436zm2.1-15.435 3.966.517c.257-1.968.202-4.63-1.623-6.658L93.67 74.08l-2.973 2.676c-.29-.323-.337-.596-.333-.57.003.016.015.09.015.237 0 .146-.012.345-.045.605zm-.63-3.465 3.235-2.353c-1.398-1.922-3.473-2.802-5.65-2.802v8c.033 0-.111.004-.335-.103a1.3 1.3 0 0 1-.485-.39zm-2.415-1.155v-4c-2.027 0-3.87.705-5.396 1.977l2.561 3.073 2.56 3.073a.6.6 0 0 1 .168-.11.3.3 0 0 1 .107-.013zm-2.835 1.05-2.56-3.073c-1.953 1.627-2.715 3.993-2.984 6.147l3.969.496 3.97.496c.07-.564.174-.883.24-1.034.061-.137.061-.072-.074.04zm-1.575 3.57-3.961-.554-1.996 14.28 3.962.554 3.962.553 1.994-14.28zm-1.995 14.28-3.963-.54c-.282 2.065-.091 5.3 2.892 7.04l2.016-3.455 2.015-3.455c.227.132.447.32.627.554.176.23.267.443.312.587.077.247.005.247.064-.19zm.945 3.045-1.789 3.578c1.193.596 2.481 1.017 3.842 1.14l.362-3.983.362-3.984c-.18-.016-.501-.085-.988-.329z" mask="url(#d)"/><mask id="e" width="37" height="8" x="67" y="132" fill="var(--card-black, #000)" maskUnits="userSpaceOnUse"><path fill="#fff" d="M67 132h37v8H67z"/><path d="M69.65 138v-3.5h32.15v3.5z"/></mask><path fill="var(--card-black, #000)" d="M69.65 138v-3.5h32.15v3.5z"/><path fill="var(--card-black, #000)" d="M69.65 138h-2v2h2zm0-3.5v-2h-2v2zm32.15 0h2v-2h-2zm0 3.5v2h2v-2zm-32.15 0h2v-3.5h-4v3.5zm0-3.5v2h32.15v-4H69.65zm32.15 0h-2v3.5h4v-3.5zm0 3.5v-2H69.65v4h32.15z" mask="url(#e)"/><mask id="f" width="48" height="71" x="61" y="58" fill="var(--card-black, #000)" maskUnits="userSpaceOnUse"><path fill="#fff" d="M61 58h48v71H61z"/><path d="M80.695 125.26q-8.715 0-12.81-3.57t-3.045-11.34l.84-5.46h14.49l-1.05 7.14q-.315 2.415.315 3.465.735.945 2.415.945c1.68 0 2.03-.35 2.73-1.05q1.155-1.155 1.47-3.465l2.1-14.49q-1.89 2.205-4.83 3.15-2.835.945-5.67.945-3.465 0-6.09-1.26-2.52-1.365-3.675-4.515-1.05-3.15-.315-8.61l1.365-10.185q.735-5.04 3.465-8.4 2.835-3.465 7.245-5.25 4.515-1.89 10.08-1.89 5.67 0 9.45 1.89 3.78 1.785 5.355 5.67 1.575 3.78.735 9.765l-4.41 31.5q-1.05 7.665-6.51 11.34t-13.65 3.675m4.515-32.655q1.365 0 2.415-.735 1.155-.84 1.575-1.89l2.1-15.435q.315-2.415-.63-3.465-.84-1.155-2.415-1.155c-1.575 0-1.995.35-2.835 1.05q-1.26 1.05-1.575 3.57l-1.995 14.28q-.315 2.31.945 3.045 1.26.63 2.415.735"/></mask><path fill="#fff" d="M80.695 125.26q-8.715 0-12.81-3.57t-3.045-11.34l.84-5.46h14.49l-1.05 7.14q-.315 2.415.315 3.465.735.945 2.415.945c1.68 0 2.03-.35 2.73-1.05q1.155-1.155 1.47-3.465l2.1-14.49q-1.89 2.205-4.83 3.15-2.835.945-5.67.945-3.465 0-6.09-1.26-2.52-1.365-3.675-4.515-1.05-3.15-.315-8.61l1.365-10.185q.735-5.04 3.465-8.4 2.835-3.465 7.245-5.25 4.515-1.89 10.08-1.89 5.67 0 9.45 1.89 3.78 1.785 5.355 5.67 1.575 3.78.735 9.765l-4.41 31.5q-1.05 7.665-6.51 11.34t-13.65 3.675m4.515-32.655q1.365 0 2.415-.735 1.155-.84 1.575-1.89l2.1-15.435q.315-2.415-.63-3.465-.84-1.155-2.415-1.155c-1.575 0-1.995.35-2.835 1.05q-1.26 1.05-1.575 3.57l-1.995 14.28q-.315 2.31.945 3.045 1.26.63 2.415.735"/><path fill="var(--card-black, #000)" d="m67.885 121.69-1.971 2.261zm-3.045-11.34-2.965-.456-.004.027-.004.027zm.84-5.46v-3h-2.574l-.391 2.544zm14.49 0 2.968.436.505-3.436H80.17zm-1.05 7.14-2.968-.436-.004.024-.003.024zm.315 3.465-2.572 1.543.093.156.11.143zm5.145-.105 2.121 2.121zm1.47-3.465-2.969-.43-.002.012-.001.013zm2.1-14.49 2.969.43 1.483-10.234-6.73 7.852zm-4.83 3.15-.918-2.856-.015.005-.016.005zm-11.76-.315-1.429 2.638.065.035.066.032zm-3.675-4.515-2.846.949.014.042.015.042zm-.315-8.61 2.973.4v-.001zm1.365-10.185-2.969-.433-.002.017-.002.018zm3.465-8.4-2.322-1.9-.006.008zm7.245-5.25 1.126 2.78.016-.006.016-.007zm19.53 0-1.342 2.683.03.015.031.015zm5.355 5.67-2.78 1.127.005.014.006.013zm.735 9.765-2.971-.417v.001zm-4.41 31.5-2.971-.416-.001.009zm-6.51 11.34-1.675-2.489zm-9.135-28.98-.272 2.988.136.012h.136zm2.415-.735 1.72 2.458.023-.016.022-.016zm1.575-1.89 2.785 1.114.138-.343.05-.367zm2.1-15.435 2.973.404v-.008l.002-.008zm-.63-3.465-2.426 1.765.092.126.104.116zm-5.25-.105 1.92 2.305zm-1.575 3.57 2.971.415.003-.021.003-.022zm-1.995 14.28-2.971-.415-.002.01zm.945 3.045-1.512 2.591.084.049.086.043zm-2.1 33.39v-3c-5.498 0-8.901-1.143-10.839-2.831l-1.971 2.261-1.971 2.261c3.522 3.072 8.659 4.309 14.781 4.309zm-12.81-3.57 1.971-2.261c-1.666-1.453-2.673-4.019-2.043-8.677l-2.973-.402-2.973-.402c-.77 5.702.253 10.696 4.047 14.003zm-3.045-11.34 2.965.456.84-5.46-2.965-.456-2.965-.456-.84 5.46zm.84-5.46v3h14.49v-6H65.68zm14.49 0-2.968-.436-1.05 7.14 2.968.436 2.968.436 1.05-7.14zm-1.05 7.14-2.975-.388c-.224 1.721-.259 3.769.717 5.396l2.573-1.543 2.572-1.543c.1.164.05.184.022-.12-.026-.29-.021-.748.066-1.414zm.315 3.465-2.368 1.842c1.263 1.624 3.132 2.103 4.783 2.103v-6c-.141 0-.237-.01-.296-.02-.059-.009-.073-.017-.055-.01.02.008.069.03.131.075a1 1 0 0 1 .173.168zm2.415.945v3c1.802 0 3.513-.59 4.851-1.929l-2.121-2.121-2.121-2.121c-.062.061-.17.171-.609.171zm2.73-1.05 2.121 2.121c1.395-1.394 2.06-3.26 2.322-5.181l-2.973-.405-2.972-.405c-.159 1.159-.474 1.603-.62 1.749zm1.47-3.465 2.969.43 2.1-14.49-2.969-.43-2.969-.43-2.1 14.49zm2.1-14.49-2.278-1.952c-.876 1.022-2.003 1.774-3.47 2.246l.918 2.856.918 2.856c2.453-.788 4.546-2.135 6.19-4.054zm-4.83 3.15-.949-2.846c-1.6.533-3.17.791-4.721.791v6c2.23 0 4.44-.373 6.619-1.099zm-5.67.945v-3c-1.945 0-3.517-.353-4.792-.965l-1.298 2.705-1.298 2.705c2.225 1.068 4.713 1.555 7.388 1.555zm-6.09-1.26 1.429-2.638c-.93-.504-1.724-1.372-2.287-2.91l-2.817 1.033-2.817 1.033c.977 2.662 2.633 4.804 5.063 6.12zm-3.675-4.515 2.846-.949c-.49-1.47-.652-3.812-.188-7.26l-2.973-.401-2.973-.4c-.516 3.83-.468 7.229.442 9.959zm-.315-8.61 2.973.399 1.365-10.186-2.973-.398-2.973-.398-1.365 10.184zm1.365-10.185 2.969.433c.425-2.92 1.401-5.19 2.824-6.941L72.4 68.56l-2.328-1.892c-2.217 2.729-3.551 6.06-4.106 9.86zm3.465-8.4 2.322 1.9c1.551-1.897 3.545-3.356 6.049-4.37l-1.126-2.78-1.126-2.78c-3.376 1.366-6.212 3.407-8.44 6.13zm7.245-5.25 1.158 2.767c2.597-1.087 5.555-1.657 8.922-1.657v-6c-4.053 0-7.815.69-11.238 2.123zm10.08-1.89v3c3.466 0 6.122.58 8.108 1.573l1.342-2.683 1.342-2.683c-3.054-1.527-6.698-2.207-10.792-2.207zm9.45 1.89-1.281 2.713c1.837.867 3.088 2.19 3.856 4.084l2.78-1.127 2.78-1.127c-1.332-3.286-3.651-5.743-6.854-7.256zm5.355 5.67-2.769 1.154c.767 1.842 1.052 4.5.533 8.194l2.971.417 2.971.417c.601-4.286.396-8.138-.937-11.336zm.735 9.765-2.971-.416-4.41 31.5 2.971.416 2.971.416 4.41-31.5zm-4.41 31.5-2.972-.407c-.607 4.426-2.408 7.37-5.213 9.258l1.675 2.489 1.675 2.489c4.475-3.012 7.014-7.628 7.807-13.422zm-6.51 11.34-1.675-2.489c-3.036 2.044-6.965 3.164-11.975 3.164v6c5.91 0 11.081-1.33 15.325-4.186zm-9.135-28.98v3c1.483 0 2.898-.41 4.135-1.277l-1.72-2.458-1.72-2.458c-.163.114-.358.193-.695.193zm2.415-.735 1.765 2.426c1.107-.806 2.057-1.855 2.595-3.202L89.2 89.98l-2.785-1.114c-.022.053-.122.264-.554.578zm1.575-1.89 2.973.404 2.1-15.435-2.973-.404-2.973-.404-2.1 15.435zm2.1-15.435 2.975.388c.245-1.879.151-4.164-1.375-5.86l-2.23 2.007-2.23 2.007c-.139-.155-.121-.243-.092-.08.033.181.056.544-.023 1.15zm-.63-3.465 2.426-1.765c-1.188-1.634-2.946-2.39-4.841-2.39v6c.08 0 .12.007.132.01.01.002-.005 0-.035-.015a.4.4 0 0 1-.086-.055c-.024-.02-.03-.031-.022-.02zm-2.415-1.155v-3c-1.783 0-3.4.616-4.756 1.745l1.921 2.305 1.92 2.305c.326-.271.598-.355.915-.355zm-2.835 1.05L83.5 68.67c-1.674 1.395-2.378 3.468-2.632 5.503l2.977.372 2.977.372c.165-1.325.512-1.632.518-1.637zm-1.575 3.57-2.971-.415-1.995 14.28 2.971.415 2.971.415 1.995-14.28zm-1.995 14.28-2.972-.405c-.264 1.934-.043 4.613 2.405 6.041l1.512-2.591 1.512-2.591c.117.068.238.17.336.299a.9.9 0 0 1 .15.274c.013.04 0 .017-.005-.094-.004-.11.001-.282.034-.528zm.945 3.045-1.342 2.683c1.105.553 2.272.93 3.485 1.04l.272-2.988.272-2.988c-.327-.03-.77-.143-1.345-.43z" mask="url(#f)"/><mask id="g" width="37" height="8" x="64" y="129" fill="var(--card-black, #000)" maskUnits="userSpaceOnUse"><path fill="#fff" d="M64 129h37v8H64z"/><path d="M66.65 135v-3.5H98.8v3.5z"/></mask><path fill="#fff" d="M66.65 135v-3.5H98.8v3.5z"/><path fill="var(--card-black, #000)" d="M66.65 135h-2v2h2zm0-3.5v-2h-2v2zm32.15 0h2v-2h-2zm0 3.5v2h2v-2zm-32.15 0h2v-3.5h-4v3.5zm0-3.5v2H98.8v-4H66.65zm32.15 0h-2v3.5h4v-3.5zm0 3.5v-2H66.65v4H98.8z" mask="url(#g)"/><mask id="h" width="50" height="73" x="379" y="632" fill="var(--card-black, #000)" maskUnits="userSpaceOnUse"><path fill="#fff" d="M379 632h50v73h-50z"/><path d="M408.305 636.74q8.715 0 12.81 3.57t3.045 11.34l-.84 5.46h-14.49l1.05-7.14q.315-2.415-.315-3.465-.735-.945-2.415-.945c-1.68 0-2.03.35-2.73 1.05q-1.155 1.155-1.47 3.465l-2.1 14.49q1.89-2.205 4.83-3.15 2.835-.945 5.67-.945 3.465 0 6.09 1.26 2.52 1.365 3.675 4.515 1.05 3.15.315 8.61l-1.365 10.185q-.735 5.04-3.465 8.4-2.835 3.465-7.245 5.25-4.515 1.89-10.08 1.89-5.67 0-9.45-1.89-3.78-1.785-5.355-5.67-1.575-3.78-.735-9.765l4.41-31.5q1.05-7.665 6.51-11.34t13.65-3.675m-4.515 32.655q-1.365 0-2.415.735-1.155.84-1.575 1.89l-2.1 15.435q-.315 2.415.63 3.465.84 1.155 2.415 1.155c1.575 0 1.995-.35 2.835-1.05q1.26-1.05 1.575-3.57l1.995-14.28q.315-2.31-.945-3.045-1.26-.63-2.415-.735"/></mask><path fill="var(--card-black, #000)" d="M408.305 636.74q8.715 0 12.81 3.57t3.045 11.34l-.84 5.46h-14.49l1.05-7.14q.315-2.415-.315-3.465-.735-.945-2.415-.945c-1.68 0-2.03.35-2.73 1.05q-1.155 1.155-1.47 3.465l-2.1 14.49q1.89-2.205 4.83-3.15 2.835-.945 5.67-.945 3.465 0 6.09 1.26 2.52 1.365 3.675 4.515 1.05 3.15.315 8.61l-1.365 10.185q-.735 5.04-3.465 8.4-2.835 3.465-7.245 5.25-4.515 1.89-10.08 1.89-5.67 0-9.45-1.89-3.78-1.785-5.355-5.67-1.575-3.78-.735-9.765l4.41-31.5q1.05-7.665 6.51-11.34t13.65-3.675m-4.515 32.655q-1.365 0-2.415.735-1.155.84-1.575 1.89l-2.1 15.435q-.315 2.415.63 3.465.84 1.155 2.415 1.155c1.575 0 1.995-.35 2.835-1.05q1.26-1.05 1.575-3.57l1.995-14.28q.315-2.31-.945-3.045-1.26-.63-2.415-.735"/><path fill="var(--card-black, #000)" d="m421.115 640.31 2.629-3.015zm3.045 11.34 3.953.608.006-.036.005-.036zm-.84 5.46v4h3.432l.521-3.392zm-14.49 0-3.957-.582-.674 4.582h4.631zm1.05-7.14 3.957.582.005-.032.004-.033zm-.315-3.465 3.43-2.058-.124-.207-.149-.191zm-5.145.105-2.828-2.828zm-1.47 3.465 3.959.574.002-.017.002-.017zm-2.1 14.49-3.959-.574-1.977 13.646 8.973-10.469zm4.83-3.15 1.224 3.808.021-.006.02-.007zm11.76.315 1.905-3.517-.086-.047-.088-.042zm3.675 4.515 3.795-1.265-.019-.056-.02-.056zm.315 8.61-3.964-.534-.001.003zm-1.365 10.185 3.958.577.003-.023.004-.023zm-3.465 8.4 3.096 2.533.008-.011zm-7.245 5.25-1.501-3.708-.022.009-.022.009zm-19.53 0 1.789-3.578-.04-.02-.041-.019zm-5.355-5.67 3.707-1.503-.007-.018-.008-.017zm-.735-9.765 3.961.556v-.001zm4.41-31.5 3.961.555.002-.012zm6.51-11.34 2.234 3.318zm9.135 28.98.362-3.984-.181-.016h-.181zm-2.415.735-2.294-3.277-.029.021-.03.021zm-1.575 1.89-3.714-1.486-.183.458-.066.489zm-2.1 15.435-3.963-.539-.002.011-.001.011zm.63 3.465 3.235-2.353-.123-.168-.139-.155zm5.25.105-2.561-3.073zm1.575-3.57-3.962-.553-.004.028-.003.029zm1.995-14.28 3.962.553.001-.013zm-.945-3.045 2.015-3.455-.111-.065-.115-.058zm2.1-33.39v4c5.394 0 8.509 1.127 10.181 2.585l2.629-3.015 2.629-3.015c-3.788-3.302-9.213-4.555-15.439-4.555zm12.81 3.57-2.629 3.015c1.313 1.144 2.316 3.306 1.71 7.789l3.964.536 3.964.536c.794-5.877-.233-11.275-4.38-14.891zm3.045 11.34-3.953-.608-.84 5.46 3.953.608 3.953.608.84-5.46zm-.84 5.46v-4h-14.49v8h14.49zm-14.49 0 3.957.582 1.05-7.14-3.957-.582-3.957-.582-1.05 7.14zm1.05-7.14 3.966.517c.23-1.757.311-4.104-.851-6.04l-3.43 2.058-3.43 2.058c-.202-.337-.179-.518-.16-.305.018.195.019.575-.061 1.195zm-.315-3.465 3.157-2.456c-1.521-1.955-3.744-2.489-5.572-2.489v8c.202 0 .163.03-.014-.039a1.8 1.8 0 0 1-.728-.56zm-2.415-.945v-4c-2.029 0-4.007.67-5.558 2.222l2.828 2.828 2.828 2.828a.514.514 0 0 1-.185.118c-.066.025-.054.004.087.004zm-2.73 1.05-2.828-2.828c-1.603 1.603-2.326 3.706-2.605 5.753l3.963.54 3.963.54c.141-1.033.398-1.24.335-1.177zm-1.47 3.465-3.959-.574-2.1 14.49 3.959.574 3.959.574 2.1-14.49zm-2.1 14.49 3.037 2.603c.748-.872 1.715-1.526 3.017-1.945l-1.224-3.808-1.224-3.808c-2.618.841-4.871 2.287-6.643 4.355zm4.83-3.15 1.265 3.795c1.504-.502 2.968-.74 4.405-.74v-8c-2.343 0-4.659.392-6.935 1.15zm5.67-.945v4c1.823 0 3.242.33 4.359.866l1.731-3.606 1.731-3.606c-2.383-1.144-5.024-1.654-7.821-1.654zm6.09 1.26-1.905 3.517c.68.368 1.329 1.025 1.824 2.375l3.756-1.377 3.756-1.377c-1.045-2.85-2.846-5.203-5.526-6.655zm3.675 4.515-3.795 1.265c.42 1.26.601 3.426.146 6.811l3.964.534 3.964.534c.525-3.895.496-7.469-.484-10.409zm.315 8.61-3.965-.531-1.365 10.185 3.965.531 3.965.531 1.365-10.185zm-1.365 10.185-3.958-.577c-.405 2.773-1.321 4.866-2.611 6.455l3.104 2.522 3.104 2.522c2.35-2.891 3.744-6.398 4.319-10.345zm-3.465 8.4-3.096-2.533c-1.438 1.758-3.291 3.121-5.65 4.075l1.501 3.708 1.501 3.708c3.521-1.426 6.498-3.563 8.84-6.425zm-7.245 5.25L407.81 695c-2.458 1.029-5.283 1.58-8.535 1.58v8c4.168 0 8.063-.709 11.625-2.2zm-10.08 1.89v-4c-3.361 0-5.853-.564-7.661-1.468l-1.789 3.578-1.789 3.578c3.232 1.616 7.04 2.312 11.239 2.312zm-9.45-1.89 1.708-3.617c-1.609-.76-2.682-1.894-3.356-3.556l-3.707 1.503-3.707 1.503c1.426 3.518 3.923 6.164 7.354 7.784zm-5.355-5.67 3.692-1.538c-.673-1.617-.97-4.075-.466-7.671l-3.961-.556-3.961-.556c-.616 4.384-.423 8.436 1.004 11.859zm-.735-9.765 3.961.555 4.41-31.5-3.961-.555-3.961-.555-4.41 31.5zm4.41-31.5 3.963.543c.575-4.198 2.254-6.864 4.781-8.565l-2.234-3.318-2.234-3.318c-4.753 3.199-7.414 8.093-8.239 14.115zm6.51-11.34 2.234 3.318c2.834-1.908 6.556-2.993 11.416-2.993v-8c-6.06 0-11.438 1.365-15.884 4.357zm9.135 28.98v-4c-1.674 0-3.292.466-4.709 1.458l2.294 3.277 2.294 3.277.006-.004-.004.002h-.003l.006-.001.019-.003a1 1 0 0 1 .097-.006zm-2.415.735-2.353-3.235c-1.22.888-2.311 2.077-2.936 3.639l3.714 1.486 3.714 1.486c-.029.072-.055.098-.037.077.02-.024.091-.102.251-.218zm-1.575 1.89-3.963-.539-2.1 15.435 3.963.539 3.963.539 2.1-15.435zm-2.1 15.435-3.966-.517c-.257 1.968-.202 4.63 1.623 6.658l2.973-2.676 2.973-2.676c.291.323.337.596.332.569-.002-.015-.014-.089-.014-.236 0-.146.012-.345.045-.605zm.63 3.465-3.235 2.353c1.398 1.922 3.473 2.802 5.65 2.802v-8c-.032 0 .111-.004.335.103.237.113.401.274.485.389zm2.415 1.155v4c2.027 0 3.869-.705 5.396-1.977l-2.561-3.073-2.561-3.073c-.1.084-.156.105-.167.11-.009.003-.036.013-.107.013zm2.835-1.05 2.561 3.073c1.952-1.627 2.714-3.994 2.983-6.147l-3.969-.496-3.969-.496c-.071.563-.175.883-.242 1.034-.06.137-.06.072.075-.041zm1.575-3.57 3.962.553 1.995-14.28-3.962-.553-3.962-.553-1.995 14.28zm1.995-14.28 3.963.54c.282-2.066.091-5.3-2.893-7.04l-2.015 3.455-2.015 3.455a2.2 2.2 0 0 1-.627-.554 1.9 1.9 0 0 1-.312-.587c-.077-.247-.005-.247-.064.191zm-.945-3.045 1.789-3.578c-1.193-.596-2.481-1.017-3.842-1.141l-.362 3.984-.362 3.984c.179.016.501.085.988.329z" mask="url(#h)"/><mask id="i" width="37" height="8" x="388" y="625" fill="var(--card-black, #000)" maskUnits="userSpaceOnUse"><path fill="#fff" d="M388 625h37v8h-37z"/><path d="M422.35 627v3.5H390.2V627z"/></mask><path fill="var(--card-black, #000)" d="M422.35 627v3.5H390.2V627z"/><path fill="var(--card-black, #000)" d="M422.35 627h2v-2h-2zm0 3.5v2h2v-2zm-32.15 0h-2v2h2zm0-3.5v-2h-2v2zm32.15 0h-2v3.5h4V627zm0 3.5v-2H390.2v4h32.15zm-32.15 0h2V627h-4v3.5zm0-3.5v2h32.15v-4H390.2z" mask="url(#i)"/><mask id="j" width="48" height="71" x="377" y="630" fill="var(--card-black, #000)" maskUnits="userSpaceOnUse"><path fill="#fff" d="M377 630h48v71h-48z"/><path d="M405.305 633.74q8.715 0 12.81 3.57t3.045 11.34l-.84 5.46h-14.49l1.05-7.14q.315-2.415-.315-3.465-.735-.945-2.415-.945c-1.68 0-2.03.35-2.73 1.05q-1.155 1.155-1.47 3.465l-2.1 14.49q1.89-2.205 4.83-3.15 2.835-.945 5.67-.945 3.465 0 6.09 1.26 2.52 1.365 3.675 4.515 1.05 3.15.315 8.61l-1.365 10.185q-.735 5.04-3.465 8.4-2.835 3.465-7.245 5.25-4.515 1.89-10.08 1.89-5.67 0-9.45-1.89-3.78-1.785-5.355-5.67-1.575-3.78-.735-9.765l4.41-31.5q1.05-7.665 6.51-11.34t13.65-3.675m-4.515 32.655q-1.365 0-2.415.735-1.155.84-1.575 1.89l-2.1 15.435q-.315 2.415.63 3.465.84 1.155 2.415 1.155c1.575 0 1.995-.35 2.835-1.05q1.26-1.05 1.575-3.57l1.995-14.28q.315-2.31-.945-3.045-1.26-.63-2.415-.735"/></mask><path fill="#fff" d="M405.305 633.74q8.715 0 12.81 3.57t3.045 11.34l-.84 5.46h-14.49l1.05-7.14q.315-2.415-.315-3.465-.735-.945-2.415-.945c-1.68 0-2.03.35-2.73 1.05q-1.155 1.155-1.47 3.465l-2.1 14.49q1.89-2.205 4.83-3.15 2.835-.945 5.67-.945 3.465 0 6.09 1.26 2.52 1.365 3.675 4.515 1.05 3.15.315 8.61l-1.365 10.185q-.735 5.04-3.465 8.4-2.835 3.465-7.245 5.25-4.515 1.89-10.08 1.89-5.67 0-9.45-1.89-3.78-1.785-5.355-5.67-1.575-3.78-.735-9.765l4.41-31.5q1.05-7.665 6.51-11.34t13.65-3.675m-4.515 32.655q-1.365 0-2.415.735-1.155.84-1.575 1.89l-2.1 15.435q-.315 2.415.63 3.465.84 1.155 2.415 1.155c1.575 0 1.995-.35 2.835-1.05q1.26-1.05 1.575-3.57l1.995-14.28q.315-2.31-.945-3.045-1.26-.63-2.415-.735"/><path fill="var(--card-black, #000)" d="m418.115 637.31 1.971-2.261zm3.045 11.34 2.965.456.004-.027.004-.027zm-.84 5.46v3h2.574l.391-2.544zm-14.49 0-2.968-.436-.505 3.436h3.473zm1.05-7.14 2.968.436.004-.024.003-.024zm-.315-3.465 2.572-1.543-.093-.156-.111-.143zm-5.145.105-2.121-2.121zm-1.47 3.465 2.969.43.002-.012.001-.013zm-2.1 14.49-2.969-.43-1.483 10.234 6.73-7.852zm4.83-3.15.918 2.856.015-.005.016-.005zm11.76.315 1.429-2.638-.065-.035-.066-.032zm3.675 4.515 2.846-.949-.014-.042-.015-.042zm.315 8.61-2.973-.4v.002zm-1.365 10.185 2.969.433.002-.017.002-.017zm-3.465 8.4 2.322 1.9.006-.008zm-7.245 5.25-1.126-2.781-.016.007-.016.007zm-19.53 0 1.342-2.683-.031-.015-.03-.015zm-5.355-5.67 2.78-1.127-.005-.014-.006-.013zm-.735-9.765 2.971.417v-.001zm4.41-31.5 2.971.416.001-.009zm6.51-11.34 1.675 2.489zm9.135 28.98.272-2.988-.136-.012h-.136zm-2.415.735-1.72-2.458-.023.016-.022.016zm-1.575 1.89-2.785-1.114-.138.343-.05.367zm-2.1 15.435-2.973-.404-.001.008-.001.008zm.63 3.465 2.426-1.765-.092-.126-.104-.116zm5.25.105-1.921-2.305zm1.575-3.57-2.971-.415-.003.021-.003.022zm1.995-14.28 2.971.415.001-.01zm-.945-3.045 1.512-2.591-.084-.049-.086-.043zm2.1-33.39v3c5.498 0 8.901 1.143 10.839 2.831l1.971-2.261 1.971-2.261c-3.522-3.072-8.659-4.309-14.781-4.309zm12.81 3.57-1.971 2.261c1.666 1.453 2.672 4.019 2.043 8.677l2.973.402 2.973.402c.771-5.702-.253-10.696-4.047-14.003zm3.045 11.34-2.965-.456-.84 5.46 2.965.456 2.965.456.84-5.46zm-.84 5.46v-3h-14.49v6h14.49zm-14.49 0 2.968.436 1.05-7.14-2.968-.436-2.968-.436-1.05 7.14zm1.05-7.14 2.975.388c.224-1.721.259-3.769-.718-5.396l-2.572 1.543-2.572 1.543c-.099-.164-.05-.184-.022.12.026.29.021.748-.066 1.414zm-.315-3.465 2.368-1.842c-1.263-1.624-3.132-2.103-4.783-2.103v6c.141 0 .237.01.296.02.059.009.073.017.055.01a.6.6 0 0 1-.131-.075 1 1 0 0 1-.173-.168zm-2.415-.945v-3c-1.802 0-3.513.59-4.851 1.929l2.121 2.121 2.121 2.121c.062-.061.171-.171.609-.171zm-2.73 1.05-2.121-2.121c-1.395 1.394-2.06 3.26-2.321 5.181l2.972.405 2.972.405c.159-1.159.474-1.603.619-1.749zm-1.47 3.465-2.969-.43-2.1 14.49 2.969.43 2.969.43 2.1-14.49zm-2.1 14.49 2.278 1.952c.876-1.021 2.003-1.774 3.47-2.246l-.918-2.856-.918-2.856c-2.453.788-4.546 2.135-6.19 4.054zm4.83-3.15.949 2.846c1.6-.534 3.171-.791 4.721-.791v-6c-2.23 0-4.439.373-6.619 1.099zm5.67-.945v3c1.945 0 3.517.353 4.792.965l1.298-2.705 1.298-2.705c-2.225-1.068-4.713-1.555-7.388-1.555zm6.09 1.26-1.429 2.638c.93.504 1.724 1.372 2.287 2.91l2.817-1.033 2.817-1.033c-.977-2.662-2.633-4.804-5.063-6.12zm3.675 4.515-2.846.949c.49 1.47.652 3.812.188 7.261l2.973.4 2.973.4c.516-3.831.468-7.229-.442-9.959zm.315 8.61-2.973-.398-1.365 10.185 2.973.398 2.973.399 1.365-10.185zm-1.365 10.185-2.969-.433c-.425 2.92-1.401 5.19-2.824 6.941l2.328 1.892 2.328 1.892c2.217-2.729 3.551-6.059 4.106-9.859zm-3.465 8.4-2.322-1.9c-1.551 1.896-3.545 3.356-6.049 4.369l1.126 2.781 1.126 2.781c3.376-1.367 6.212-3.407 8.441-6.131zm-7.245 5.25-1.158-2.767c-2.597 1.086-5.556 1.657-8.922 1.657v6c4.054 0 7.815-.689 11.238-2.123zm-10.08 1.89v-3c-3.466 0-6.122-.58-8.108-1.573l-1.342 2.683-1.342 2.683c3.054 1.527 6.698 2.207 10.792 2.207zm-9.45-1.89 1.281-2.713c-1.837-.867-3.088-2.19-3.856-4.084l-2.78 1.127-2.78 1.127c1.332 3.286 3.651 5.743 6.854 7.256zm-5.355-5.67 2.769-1.154c-.767-1.842-1.052-4.5-.533-8.194l-2.971-.417-2.971-.417c-.601 4.286-.396 8.138.937 11.336zm-.735-9.765 2.971.416 4.41-31.5-2.971-.416-2.971-.416-4.41 31.5zm4.41-31.5 2.972.407c.607-4.426 2.408-7.37 5.213-9.258l-1.675-2.489-1.675-2.489c-4.475 3.012-7.014 7.628-7.807 13.422zm6.51-11.34 1.675 2.489c3.036-2.044 6.965-3.164 11.975-3.164v-6c-5.91 0-11.081 1.33-15.325 4.186zm9.135 28.98v-3c-1.483 0-2.898.411-4.135 1.277l1.72 2.458 1.72 2.458c.163-.114.358-.193.695-.193zm-2.415.735-1.765-2.426c-1.107.805-2.057 1.855-2.595 3.202l2.785 1.114 2.785 1.114c.022-.053.122-.263.555-.578zm-1.575 1.89-2.973-.404-2.1 15.435 2.973.404 2.973.404 2.1-15.435zm-2.1 15.435-2.975-.388c-.245 1.879-.151 4.164 1.375 5.86l2.23-2.007 2.23-2.007c.139.155.121.243.092.079-.033-.18-.056-.543.023-1.149zm.63 3.465-2.426 1.765c1.188 1.634 2.946 2.39 4.841 2.39v-6a.6.6 0 0 1-.132-.01c-.01-.002.005.001.035.015a.4.4 0 0 1 .086.055c.024.021.03.031.022.02zm2.415 1.155v3c1.783 0 3.401-.616 4.756-1.745l-1.921-2.305-1.921-2.305c-.325.271-.597.355-.914.355zm2.835-1.05 1.921 2.305c1.673-1.395 2.376-3.468 2.631-5.503l-2.977-.372-2.977-.372c-.165 1.325-.512 1.632-.519 1.637zm1.575-3.57 2.971.415 1.995-14.28-2.971-.415-2.971-.415-1.995 14.28zm1.995-14.28 2.972.405c.264-1.934.043-4.613-2.405-6.041l-1.512 2.591-1.512 2.591a1.2 1.2 0 0 1-.336-.299 1 1 0 0 1-.151-.274c-.012-.039.001-.017.006.094a3 3 0 0 1-.034.528zm-.945-3.045 1.342-2.683c-1.105-.553-2.272-.929-3.485-1.04l-.272 2.988-.272 2.988c.327.029.77.143 1.345.43z" mask="url(#j)"/><mask id="k" width="37" height="8" x="385" y="622" fill="var(--card-black, #000)" maskUnits="userSpaceOnUse"><path fill="#fff" d="M385 622h37v8h-37z"/><path d="M419.35 624v3.5H387.2V624z"/></mask><path fill="#fff" d="M419.35 624v3.5H387.2V624z"/><path fill="var(--card-black, #000)" d="M419.35 624h2v-2h-2zm0 3.5v2h2v-2zm-32.15 0h-2v2h2zm0-3.5v-2h-2v2zm32.15 0h-2v3.5h4V624zm0 3.5v-2H387.2v4h32.15zm-32.15 0h2V624h-4v3.5zm0-3.5v2h32.15v-4H387.2z" mask="url(#k)"/></svg>