<svg xmlns="http://www.w3.org/2000/svg" width="486" height="759" viewBox="0 0 486 759" fill="none"><rect width="486" height="759" fill="#fff" rx="51"/><path fill="var(--card-black, #000)" d="M452 698c0 14.359-11.641 26-26 26H60c-14.36 0-26-11.641-26-26V562.111c5.839 43.884 23.777 77.718 54.045 94.674 79.32 44.436 213.268-43.864 299.182-197.223 35.248-62.921 56.931-127.017 64.773-183.801zM426 34c14.359 0 26 11.64 26 26v128.134c-6.875-40.009-24.423-70.796-52.834-86.712-79.32-44.436-213.268 43.864-299.182 197.224C62.718 365.168 40.614 433.004 34 492.125V60c0-14.36 11.64-26 26-26z"/><g filter="url(#a)"><mask id="b" width="98" height="69" x="40" y="59" fill="var(--card-black, #000)" maskUnits="userSpaceOnUse"><path fill="#fff" d="M40 59h98v69H40z"/><path d="m56.485 119.12 2.1-14.595h-14.28l1.995-14.91h14.28l2.1-14.385h14.91l-1.995 14.385H89.98l-2.1 14.91H73.495L71.29 119.12zm53.828 5.88 1.68-11.97h-19.32l1.575-11.655 24.99-38.43h14.385l-5.67 40.425h6.405l-1.365 9.66h-6.51l-1.68 11.97zm-4.935-21.63h7.98l2.31-16.38z"/></mask><path fill="#fff" d="m56.485 119.12 2.1-14.595h-14.28l1.995-14.91h14.28l2.1-14.385h14.91l-1.995 14.385H89.98l-2.1 14.91H73.495L71.29 119.12zm53.828 5.88 1.68-11.97h-19.32l1.575-11.655 24.99-38.43h14.385l-5.67 40.425h6.405l-1.365 9.66h-6.51l-1.68 11.97zm-4.935-21.63h7.98l2.31-16.38z"/><path fill="var(--card-black, #000)" d="m56.485 119.12-2.97-.427-.493 3.427h3.463zm2.1-14.595 2.97.427.493-3.427h-3.463zm-14.28 0-2.973-.398-.455 3.398h3.428zm1.995-14.91v-3h-2.625l-.349 2.602zm14.28 0v3h2.594l.375-2.567zm2.1-14.385v-3h-2.594l-.375 2.567zm14.91 0 2.972.412.473-3.412H77.59zm-1.995 14.385-2.972-.412-.473 3.412h3.445zm14.385 0 2.97.418.482-3.418H89.98zm-2.1 14.91v3h2.607l.364-2.582zm-14.385 0v-3h-2.58l-.386 2.552zM71.29 119.12v3h2.58l.386-2.552zm-14.805 0 2.97.427 2.1-14.595-2.97-.427-2.97-.427-2.1 14.595zm2.1-14.595v-3h-14.28v6h14.28zm-14.28 0 2.974.398 1.995-14.91-2.974-.398-2.973-.398-1.996 14.91zm1.995-14.91v3h14.28v-6H46.3zm14.28 0 2.969.433 2.1-14.385-2.969-.433-2.968-.433-2.1 14.385zm2.1-14.385v3h14.91v-6H62.68zm14.91 0-2.972-.412-1.995 14.385 2.972.412 2.972.412 1.995-14.385zm-1.995 14.385v3H89.98v-6H75.595zm14.385 0-2.97-.418-2.1 14.91 2.97.418 2.97.418 2.1-14.91zm-2.1 14.91v-3H73.495v6H87.88zm-14.385 0-2.966-.448-2.205 14.595 2.966.448 2.966.448 2.205-14.595zM71.29 119.12v-3H56.485v6H71.29zm39.023 5.88-2.971-.417-.479 3.417h3.45zm1.68-11.97 2.971.417.48-3.417h-3.451zm-19.32 0-2.973-.402-.46 3.402h3.433zm1.575-11.655-2.515-1.635-.368.565-.09.668zm24.99-38.43v-3h-1.628l-.887 1.365zm14.385 0 2.971.417.479-3.417h-3.45zm-5.67 40.425-2.971-.417-.479 3.417h3.45zm6.405 0 2.971.42.483-3.42h-3.454zm-1.365 9.66v3h2.606l.365-2.58zm-6.51 0v-3h-2.608l-.363 2.583zm-1.68 11.97v3h2.608l.363-2.583zm-19.425-21.63-2.54-1.596-2.887 4.596h5.427zm7.98 0v3h2.607l.364-2.581zm2.31-16.38 2.971.419-5.511-2.015zM110.313 125l2.971.417 1.68-11.97-2.971-.417-2.971-.417-1.68 11.97zm1.68-11.97v-3h-19.32v6h19.32zm-19.32 0 2.973.402 1.575-11.655-2.973-.402-2.973-.402-1.575 11.655zm1.575-11.655 2.515 1.635 24.99-38.43-2.515-1.635-2.515-1.635-24.99 38.43zm24.99-38.43v3h14.385v-6h-14.385zm14.385 0-2.971-.417-5.67 40.425 2.971.417 2.971.417 5.67-40.425zm-5.67 40.425v3h6.405v-6h-6.405zm6.405 0-2.97-.42-1.365 9.66 2.97.42 2.971.42 1.365-9.66zm-1.365 9.66v-3h-6.51v6h6.51zm-6.51 0-2.971-.417-1.68 11.97 2.971.417 2.971.417 1.68-11.97zm-1.68 11.97v-3h-14.49v6h14.49zm-19.425-21.63v3h7.98v-6h-7.98zm7.98 0 2.971.419 2.31-16.38-2.971-.419-2.971-.419-2.31 16.38zm2.31-16.38-2.54-1.596-10.29 16.38 2.54 1.596 2.54 1.596 10.29-16.38z" mask="url(#b)"/></g><g filter="url(#c)"><mask id="d" width="98" height="69" x="345" y="631" fill="var(--card-black, #000)" maskUnits="userSpaceOnUse"><path fill="#fff" d="M345 631h98v69h-98z"/><path d="m426.515 639.88-2.1 14.595h14.28l-1.995 14.91h-14.28l-2.1 14.385h-14.91l1.995-14.385H393.02l2.1-14.91h14.385l2.205-14.595zM372.687 634l-1.68 11.97h19.32l-1.575 11.655-24.99 38.43h-14.385l5.67-40.425h-6.405l1.365-9.66h6.51l1.68-11.97zm4.935 21.63h-7.98l-2.31 16.38z"/></mask><path fill="#fff" d="m426.515 639.88-2.1 14.595h14.28l-1.995 14.91h-14.28l-2.1 14.385h-14.91l1.995-14.385H393.02l2.1-14.91h14.385l2.205-14.595zM372.687 634l-1.68 11.97h19.32l-1.575 11.655-24.99 38.43h-14.385l5.67-40.425h-6.405l1.365-9.66h6.51l1.68-11.97zm4.935 21.63h-7.98l-2.31 16.38z"/><path fill="var(--card-black, #000)" d="m426.515 639.88 2.969.427.494-3.427h-3.463zm-2.1 14.595-2.969-.427-.494 3.427h3.463zm14.28 0 2.974.398.454-3.398h-3.428zm-1.995 14.91v3h2.625l.349-2.602zm-14.28 0v-3h-2.594l-.375 2.567zm-2.1 14.385v3h2.594l.375-2.567zm-14.91 0-2.972-.412-.473 3.412h3.445zm1.995-14.385 2.972.412.473-3.412h-3.445zm-14.385 0-2.971-.418-.481 3.418h3.452zm2.1-14.91v-3h-2.607l-.364 2.582zm14.385 0v3h2.581l.385-2.552zm2.205-14.595v-3h-2.581l-.385 2.552zm14.805 0-2.969-.427-2.1 14.595 2.969.427 2.969.427 2.1-14.595zm-2.1 14.595v3h14.28v-6h-14.28zm14.28 0-2.974-.398-1.995 14.91 2.974.398 2.974.398 1.995-14.91zm-1.995 14.91v-3h-14.28v6h14.28zm-14.28 0-2.969-.433-2.1 14.385 2.969.433 2.969.433 2.1-14.385zm-2.1 14.385v-3h-14.91v6h14.91zm-14.91 0 2.972.412 1.995-14.385-2.972-.412-2.972-.412-1.995 14.385zm1.995-14.385v-3H393.02v6h14.385zm-14.385 0 2.971.418 2.1-14.91-2.971-.418-2.971-.418-2.1 14.91zm2.1-14.91v3h14.385v-6H395.12zm14.385 0 2.966.448 2.205-14.595-2.966-.448-2.966-.448-2.205 14.595zm2.205-14.595v3h14.805v-6H411.71zM372.687 634l2.971.417.479-3.417h-3.45zm-1.68 11.97-2.971-.417-.48 3.417h3.451zm19.32 0 2.973.402.46-3.402h-3.433zm-1.575 11.655 2.515 1.635.368-.565.09-.668zm-24.99 38.43v3h1.628l.887-1.365zm-14.385 0-2.971-.417-.479 3.417h3.45zm5.67-40.425 2.971.417.479-3.417h-3.45zm-6.405 0-2.971-.42-.483 3.42h3.454zm1.365-9.66v-3h-2.606l-.365 2.58zm6.51 0v3h2.608l.363-2.583zm1.68-11.97v-3h-2.608l-.363 2.583zm19.425 21.63 2.54 1.596 2.887-4.596h-5.427zm-7.98 0v-3h-2.607l-.364 2.581zm-2.31 16.38-2.971-.419 5.511 2.015zm5.355-38.01-2.971-.417-1.68 11.97 2.971.417 2.971.417 1.68-11.97zm-1.68 11.97v3h19.32v-6h-19.32zm19.32 0-2.973-.402-1.575 11.655 2.973.402 2.973.402 1.575-11.655zm-1.575 11.655-2.515-1.635-24.99 38.43 2.515 1.635 2.515 1.635 24.99-38.43zm-24.99 38.43v-3h-14.385v6h14.385zm-14.385 0 2.971.417 5.67-40.425-2.971-.417-2.971-.417-5.67 40.425zm5.67-40.425v-3h-6.405v6h6.405zm-6.405 0 2.97.42 1.365-9.66-2.97-.42-2.971-.42-1.365 9.66zm1.365-9.66v3h6.51v-6h-6.51zm6.51 0 2.971.417 1.68-11.97-2.971-.417-2.971-.417-1.68 11.97zm1.68-11.97v3h14.49v-6h-14.49zm19.425 21.63v-3h-7.98v6h7.98zm-7.98 0-2.971-.419-2.31 16.38 2.971.419 2.971.419 2.31-16.38zm-2.31 16.38 2.54 1.596 10.29-16.38-2.54-1.596-2.54-1.596-10.29 16.38z" mask="url(#d)"/></g><path fill="var(--card-black, #000)" stroke="#000" stroke-width="4" d="M344.837 207.167c3.758 0 6.326 3.799 4.926 7.287l-14.024 34.915h79.721c3.758 0 6.325 3.798 4.925 7.286l-76.16 189.618a14.13 14.13 0 0 1-13.111 8.862h-41.88l-37.625 93.675a14.125 14.125 0 0 1-13.109 8.862h-93.295c-4.552 0-7.653-4.611-5.936-8.827l13.586-33.374H74.583c-4.552 0-7.654-4.611-5.937-8.827l77.712-190.886a9.72 9.72 0 0 1 9.001-6.053h44.334l39.281-96.484a9.72 9.72 0 0 1 9-6.054z"/><path fill="#fff" d="M213.664 353.547a7.72 7.72 0 0 1 7.148-4.808h96.863c2.342 0 3.943 2.367 3.07 4.54l-76.161 189.618a12.13 12.13 0 0 1-11.254 7.608h-93.294c-3.132 0-5.266-3.172-4.085-6.073z"/><path fill="var(--card-yellow, #ff0)" d="M219.035 360.611a7.72 7.72 0 0 1 7.168-4.796l79.958.25c2.347.007 3.94 2.39 3.05 4.562l-71.745 174.986a12.13 12.13 0 0 1-11.259 7.527l-75.183-.234c-3.129-.01-5.253-3.184-4.068-6.08z"/><path stroke="#000" stroke-width="4" d="M317.675 346.739c3.758 0 6.326 3.798 4.926 7.286L246.44 543.643a14.13 14.13 0 0 1-13.11 8.862h-93.294c-4.552 0-7.654-4.611-5.937-8.827l77.713-190.886a9.72 9.72 0 0 1 9-6.053z"/><path fill="#fff" d="M306.281 251.009a7.72 7.72 0 0 1 7.148-4.808h96.863c2.343 0 3.943 2.367 3.07 4.541L337.201 440.36a12.13 12.13 0 0 1-11.254 7.608h-93.294c-3.132 0-5.266-3.173-4.085-6.073z"/><path fill="var(--card-green, #0f0)" d="M311.653 258.074a7.72 7.72 0 0 1 7.167-4.796l79.958.249c2.348.008 3.941 2.39 3.05 4.563l-71.744 174.985a12.13 12.13 0 0 1-11.26 7.528l-75.183-.235c-3.129-.01-5.253-3.184-4.068-6.08z"/><path stroke="#000" stroke-width="4" d="M410.292 244.201c3.758 0 6.326 3.799 4.926 7.286l-76.16 189.618a14.13 14.13 0 0 1-13.111 8.863h-93.294c-4.551 0-7.653-4.612-5.937-8.827l77.713-190.886a9.72 9.72 0 0 1 9.001-6.054z"/><path fill="#fff" d="M235.658 208.808a7.72 7.72 0 0 1 7.148-4.808h96.863c2.342 0 3.943 2.367 3.07 4.54l-76.161 189.619a12.13 12.13 0 0 1-11.254 7.607l-93.294.001c-3.132 0-5.266-3.173-4.085-6.074z"/><path fill="var(--card-blue, #00f)" d="M241.03 215.872a7.72 7.72 0 0 1 7.167-4.796l79.958.25c2.348.007 3.94 2.39 3.05 4.562l-71.744 174.986a12.13 12.13 0 0 1-11.26 7.527l-75.183-.234c-3.129-.01-5.253-3.184-4.068-6.08z"/><path stroke="#000" stroke-width="4" d="M339.669 202c3.758 0 6.326 3.799 4.926 7.286l-76.16 189.618a14.13 14.13 0 0 1-13.111 8.863H162.03c-4.551 0-7.653-4.612-5.937-8.828l77.713-190.885a9.72 9.72 0 0 1 9.001-6.054z"/><path fill="#fff" d="M143.043 311.346a7.72 7.72 0 0 1 7.148-4.808h96.863c2.342 0 3.942 2.367 3.069 4.54l-76.16 189.618a12.13 12.13 0 0 1-11.254 7.608H69.415c-3.132 0-5.266-3.173-4.085-6.073z"/><path fill="var(--card-red, red)" d="M148.414 318.41a7.72 7.72 0 0 1 7.168-4.796l79.958.25c2.347.007 3.94 2.39 3.05 4.562l-71.745 174.986a12.13 12.13 0 0 1-11.259 7.527l-75.183-.235c-3.13-.009-5.253-3.184-4.068-6.079z"/><path stroke="#000" stroke-width="4" d="M247.054 304.538c3.758 0 6.326 3.798 4.925 7.286l-76.16 189.618a14.13 14.13 0 0 1-13.11 8.862H69.415c-4.552 0-7.654-4.611-5.937-8.827l77.712-190.886a9.72 9.72 0 0 1 9.001-6.053z"/><defs><filter id="a" width="99.936" height="71.055" x="40.877" y="59.945" color-interpolation-filters="sRGB" filterUnits="userSpaceOnUse"><feFlood flood-opacity="0" result="BackgroundImageFix"/><feColorMatrix in="SourceAlpha" result="hardAlpha" values="0 0 0 0 0 0 0 0 0 0 0 0 0 0 0 0 0 0 127 0"/><feOffset dx="3" dy="3"/><feComposite in2="hardAlpha" operator="out"/><feColorMatrix values="0 0 0 0 0 0 0 0 0 0 0 0 0 0 0 0 0 0 1 0"/><feBlend in2="BackgroundImageFix" result="effect1_dropShadow_126_877"/><feBlend in="SourceGraphic" in2="effect1_dropShadow_126_877" result="shape"/></filter><filter id="c" width="99.936" height="71.055" x="345.188" y="631" color-interpolation-filters="sRGB" filterUnits="userSpaceOnUse"><feFlood flood-opacity="0" result="BackgroundImageFix"/><feColorMatrix in="SourceAlpha" result="hardAlpha" values="0 0 0 0 0 0 0 0 0 0 0 0 0 0 0 0 0 0 127 0"/><feOffset dx="3" dy="3"/><feComposite in2="hardAlpha" operator="out"/><feColorMatrix values="0 0 0 0 0 0 0 0 0 0 0 0 0 0 0 0 0 0 1 0"/><feBlend in2="BackgroundImageFix" result="effect1_dropShadow_126_877"/><feBlend in="SourceGraphic" in2="effect1_dropShadow_126_877" result="shape"/></filter></defs></svg>