<svg xmlns="http://www.w3.org/2000/svg" width="486" height="759" viewBox="0 0 486 759" fill="none"><rect width="486" height="759" fill="#fff" rx="51"/><path fill="var(--card-color, #00f)" d="M452 698c0 14.359-11.641 26-26 26H60c-14.36 0-26-11.641-26-26V562.111c5.839 43.884 23.777 77.718 54.045 94.674 79.32 44.436 213.268-43.864 299.182-197.223 35.248-62.921 56.931-127.017 64.773-183.801zM426 34c14.359 0 26 11.64 26 26v128.134c-6.875-40.009-24.423-70.796-52.834-86.712-79.32-44.436-213.268 43.864-299.182 197.224C62.718 365.168 40.614 433.004 34 492.125V60c0-14.36 11.64-26 26-26z"/><path fill="var(--card-black, #000)" stroke="#000" stroke-width="4" d="M403.278 210.681c4.136 0 6.962 4.18 5.42 8.018l-88.429 220.165a16.08 16.08 0 0 1-14.923 10.088h-48.845L212.734 557.92a16.08 16.08 0 0 1-14.922 10.088H89.487c-5.056 0-8.501-5.122-6.594-9.805l90.231-221.637a10.96 10.96 0 0 1 10.152-6.828l51.693-.001 45.69-112.228a10.96 10.96 0 0 1 10.152-6.828z"/><path fill="#fff" d="M267.151 210.582A8.96 8.96 0 0 1 275.45 205h112.468c2.72 0 4.577 2.748 3.564 5.272l-88.43 220.166a14.08 14.08 0 0 1-13.067 8.833H181.661c-3.636 0-6.114-3.684-4.743-7.051z"/><path fill="var(--card-color, #00f)" d="M273.388 218.785a8.96 8.96 0 0 1 8.322-5.569l92.839.29c2.725.009 4.575 2.775 3.541 5.298L294.788 421.98a14.08 14.08 0 0 1-13.073 8.739l-87.296-.272c-3.633-.011-6.099-3.697-4.723-7.059z"/><path stroke="#000" stroke-width="4" d="M387.918 203c4.135 0 6.961 4.18 5.42 8.018l-88.43 220.165a16.08 16.08 0 0 1-14.923 10.088H181.661c-5.056 0-8.501-5.122-6.595-9.805l90.232-221.638A10.96 10.96 0 0 1 275.45 203z"/><path fill="#fff" d="M159.615 329.639a8.96 8.96 0 0 1 8.3-5.583h112.468c2.719 0 4.577 2.749 3.564 5.272l-88.43 220.166a14.08 14.08 0 0 1-13.067 8.833H74.126c-3.636 0-6.114-3.684-4.743-7.051z"/><path fill="var(--card-color, #00f)" d="M165.852 337.841a8.96 8.96 0 0 1 8.323-5.568l92.838.289c2.726.009 4.576 2.776 3.542 5.298l-83.302 203.176a14.08 14.08 0 0 1-13.074 8.739l-87.295-.272c-3.633-.011-6.099-3.697-4.723-7.059z"/><path stroke="#000" stroke-width="4" d="M280.383 322.056c4.135 0 6.961 4.18 5.42 8.018l-88.43 220.165a16.08 16.08 0 0 1-14.923 10.088l-108.324.001c-5.056 0-8.501-5.123-6.595-9.806l90.232-221.638a10.96 10.96 0 0 1 10.152-6.828z"/><mask id="a" width="100" height="69" x="347" y="635" fill="var(--card-black, #000)" maskUnits="userSpaceOnUse"><path fill="#fff" d="M347 635h100v69H347z"/><path d="m430.515 643.88-2.1 14.595h14.28l-1.995 14.91h-14.28l-2.1 14.385h-14.91l1.995-14.385H397.02l2.1-14.91h14.385l2.205-14.595zM394.747 638q-.525 3.255-1.05 6.405-.42 3.255-.84 6.405-.84 5.985-2.625 9.345-1.785 3.465-4.935 5.67-3.255 2.205-8.19 4.515a59 59 0 0 0-4.725 2.31q-2.31 1.26-3.99 3.36c-1.68 2.1-1.855 3.22-2.205 5.46l-.21 1.68q-.315 2.94.105 4.83.42 1.995 2.52 1.995 2.205 0 3.255-2.31 1.05-2.205 1.68-6.825l.63-3.99h14.49l-1.155 8.4q-1.155 7.56-6.3 11.235-5.145 3.78-14.28 3.78-7.035 0-10.815-1.785-3.78-1.68-4.935-5.565t-.315-10.29q.735-4.935 2.31-8.505 1.47-3.57 4.095-6.195 2.52-2.625 6.615-4.62 2.415-1.26 4.62-2.415 2.1-1.05 3.78-2.31 1.68-1.155 2.94-2.835.945-1.155 1.68-2.625.63-1.47 1.05-3.36h-22.47l1.68-11.76z"/></mask><path fill="var(--card-black, #000)" d="m430.515 643.88-2.1 14.595h14.28l-1.995 14.91h-14.28l-2.1 14.385h-14.91l1.995-14.385H397.02l2.1-14.91h14.385l2.205-14.595zM394.747 638q-.525 3.255-1.05 6.405-.42 3.255-.84 6.405-.84 5.985-2.625 9.345-1.785 3.465-4.935 5.67-3.255 2.205-8.19 4.515a59 59 0 0 0-4.725 2.31q-2.31 1.26-3.99 3.36c-1.68 2.1-1.855 3.22-2.205 5.46l-.21 1.68q-.315 2.94.105 4.83.42 1.995 2.52 1.995 2.205 0 3.255-2.31 1.05-2.205 1.68-6.825l.63-3.99h14.49l-1.155 8.4q-1.155 7.56-6.3 11.235-5.145 3.78-14.28 3.78-7.035 0-10.815-1.785-3.78-1.68-4.935-5.565t-.315-10.29q.735-4.935 2.31-8.505 1.47-3.57 4.095-6.195 2.52-2.625 6.615-4.62 2.415-1.26 4.62-2.415 2.1-1.05 3.78-2.31 1.68-1.155 2.94-2.835.945-1.155 1.68-2.625.63-1.47 1.05-3.36h-22.47l1.68-11.76z"/><path fill="var(--card-black, #000)" d="m430.515 643.88 2.969.427.494-3.427h-3.463zm-2.1 14.595-2.969-.427-.494 3.427h3.463zm14.28 0 2.974.398.454-3.398h-3.428zm-1.995 14.91v3h2.625l.349-2.602zm-14.28 0v-3h-2.594l-.375 2.567zm-2.1 14.385v3h2.594l.375-2.567zm-14.91 0-2.972-.412-.473 3.412h3.445zm1.995-14.385 2.972.412.473-3.412h-3.445zm-14.385 0-2.971-.418-.481 3.418h3.452zm2.1-14.91v-3h-2.607l-.364 2.582zm14.385 0v3h2.581l.385-2.552zm2.205-14.595v-3h-2.581l-.385 2.552zm14.805 0-2.969-.427-2.1 14.595 2.969.427 2.969.427 2.1-14.595zm-2.1 14.595v3h14.28v-6h-14.28zm14.28 0-2.974-.398-1.995 14.91 2.974.398 2.974.398 1.995-14.91zm-1.995 14.91v-3h-14.28v6h14.28zm-14.28 0-2.969-.433-2.1 14.385 2.969.433 2.969.433 2.1-14.385zm-2.1 14.385v-3h-14.91v6h14.91zm-14.91 0 2.972.412 1.995-14.385-2.972-.412-2.972-.412-1.995 14.385zm1.995-14.385v-3H397.02v6h14.385zm-14.385 0 2.971.418 2.1-14.91-2.971-.418-2.971-.418-2.1 14.91zm2.1-14.91v3h14.385v-6H399.12zm14.385 0 2.966.448 2.205-14.595-2.966-.448-2.966-.448-2.205 14.595zm2.205-14.595v3h14.805v-6H415.71zM394.747 638l2.962.478.561-3.478h-3.523zm-1.05 6.405-2.959-.493-.009.054-.007.055zm-.84 6.405 2.971.417.001-.01.002-.011zm-2.625 9.345-2.649-1.407-.009.016-.009.017zm-4.935 5.67 1.682 2.484.019-.013.019-.013zm-8.19 4.515 1.196 2.751.038-.016.038-.018zm-8.715 5.67-2.343-1.874zm-2.205 5.46-2.964-.463-.007.045-.006.046zm-.21 1.68-2.977-.372-.003.026-.003.026zm.105 4.83 2.936-.618-.004-.016-.004-.017zm5.775-.315-2.709-1.29-.011.024-.011.025zm1.68-6.825-2.963-.468-.005.031-.005.032zm.63-3.99v-3h-2.564l-.399 2.532zm14.49 0 2.972.409.469-3.409h-3.441zm-1.155 8.4 2.966.453.003-.022.003-.022zm-6.3 11.235-1.744-2.441-.016.011-.016.012zm-25.095 1.995 1.281-2.713-.031-.014-.032-.014zm-4.935-5.565-2.876.855zm-.315-10.29-2.967-.442-.004.026-.004.026zm2.31-8.505 2.745 1.211.015-.034.014-.035zm4.095-6.195 2.121 2.121.022-.021.021-.022zm6.615-4.62 1.314 2.697.037-.018.037-.019zm4.62-2.415-1.342-2.683-.025.012-.025.014zm3.78-2.31-1.7-2.472-.051.035-.049.037zm2.94-2.835-2.322-1.9-.04.049-.038.051zm1.68-2.625 2.683 1.342.04-.079.034-.081zm1.05-3.36 2.928.651.812-3.651h-3.74zm-22.47 0-2.97-.424-.489 3.424h3.459zm1.68-11.76v-3h-2.602l-.368 2.576zm37.59 0-2.962-.478q-.523 3.247-1.047 6.39l2.959.493 2.959.493q.526-3.158 1.053-6.42zm-1.05 6.405-2.975-.384q-.42 3.249-.839 6.393l2.974.396 2.974.396q.42-3.156.841-6.417zm-.84 6.405-2.971-.417c-.537 3.823-1.345 6.551-2.303 8.355l2.649 1.407 2.649 1.407c1.422-2.676 2.363-6.178 2.947-10.335zm-2.625 9.345-2.667-1.374a12.45 12.45 0 0 1-3.988 4.586l1.72 2.458 1.72 2.458c2.505-1.753 4.472-4.018 5.882-6.754zm-4.935 5.67-1.683-2.484c-2 1.355-4.582 2.785-7.779 4.282l1.272 2.717 1.272 2.717c3.382-1.583 6.261-3.163 8.6-4.748zm-8.19 4.515-1.196-2.751a62 62 0 0 0-4.966 2.427l1.437 2.634 1.436 2.634a56 56 0 0 1 4.485-2.193zm-4.725 2.31-1.437-2.634a16.1 16.1 0 0 0-4.896 4.12l2.343 1.874 2.343 1.874a10.1 10.1 0 0 1 3.083-2.6zm-3.99 3.36-2.343-1.874c-1.522 1.903-2.416 4.249-2.826 6.871l2.964.463 2.964.463c.29-1.858.866-3.152 1.584-4.049zm-2.205 5.46-2.977-.372-.21 1.68 2.977.372 2.977.372.21-1.68zm-.21 1.68-2.983-.32c-.228 2.132-.218 4.101.159 5.801l2.929-.651 2.928-.651c-.182-.82-.242-2.071-.05-3.859zm.105 4.83-2.936.618c.245 1.162.81 2.357 1.914 3.23 1.093.866 2.375 1.147 3.542 1.147v-6c-.116 0-.137-.014-.091-.001a.9.9 0 0 1 .273.15.9.9 0 0 1 .229.26c.034.061.023.067.005-.022zm2.52 1.995v3c1.289 0 2.55-.348 3.652-1.131 1.078-.764 1.823-1.814 2.334-2.938l-2.731-1.241-2.731-1.241c-.189.416-.336.521-.344.527a.03.03 0 0 1-.015.007.6.6 0 0 1-.165.017zm3.255-2.31 2.708 1.29c.905-1.9 1.513-4.548 1.944-7.71l-2.972-.405-2.973-.405c-.408 2.998-.92 4.9-1.416 5.94zm1.68-6.825 2.963.468.63-3.99-2.963-.468-2.963-.468-.63 3.99zm.63-3.99v3h14.49v-6h-14.49zm14.49 0-2.972-.409-1.155 8.4 2.972.409 2.972.409 1.155-8.4zm-1.155 8.4-2.966-.453c-.675 4.419-2.441 7.364-5.078 9.247l1.744 2.441 1.744 2.441c4.223-3.017 6.657-7.562 7.522-13.223zm-6.3 11.235-1.776-2.418c-2.736 2.01-6.787 3.198-12.504 3.198v6c6.463 0 11.932-1.332 16.056-4.362zm-14.28 3.78v-3c-4.51 0-7.599-.584-9.534-1.498l-1.281 2.713-1.281 2.713c3.105 1.466 7.226 2.072 12.096 2.072zm-10.815-1.785 1.218-2.741c-1.737-.773-2.763-1.95-3.277-3.679l-2.876.855-2.876.855c1.026 3.451 3.29 5.984 6.592 7.451zm-4.935-5.565 2.876-.855c-.6-2.017-.751-4.972-.217-9.045l-2.974-.39-2.975-.39c-.586 4.467-.526 8.373.414 11.535zm-.315-10.29 2.967.442c.461-3.095 1.171-5.658 2.088-7.736l-2.745-1.211-2.745-1.211c-1.183 2.682-2.013 5.789-2.532 9.274zm2.31-8.505 2.774 1.142c.835-2.028 1.984-3.757 3.442-5.216l-2.121-2.121-2.121-2.121c-2.042 2.041-3.623 4.442-4.748 7.174zm4.095-6.195 2.164 2.078c1.382-1.44 3.276-2.788 5.765-4.001l-1.314-2.697-1.314-2.697c-2.971 1.447-5.488 3.179-7.465 5.239zm6.615-4.62 1.388 2.66q2.416-1.261 4.624-2.418l-1.392-2.657-1.392-2.657q-2.203 1.153-4.616 2.412zm4.62-2.415 1.342 2.683a27.7 27.7 0 0 0 4.238-2.593l-1.8-2.4-1.8-2.4c-.96.72-2.064 1.398-3.322 2.027zm3.78-2.31 1.699 2.472a15.5 15.5 0 0 0 3.641-3.507l-2.4-1.8-2.4-1.8a9.6 9.6 0 0 1-2.24 2.163zm2.94-2.835 2.322 1.9a17 17 0 0 0 2.041-3.183l-2.683-1.342-2.683-1.342a11 11 0 0 1-1.319 2.067zm1.68-2.625 2.757 1.182c.507-1.183.909-2.486 1.221-3.891l-2.928-.651-2.929-.651c-.247 1.115-.545 2.052-.879 2.829zm1.05-3.36v-3h-22.47v6h22.47zm-22.47 0 2.97.424 1.68-11.76-2.97-.424-2.97-.424-1.68 11.76zm1.68-11.76v3h37.59v-6h-37.59z" mask="url(#a)"/><mask id="b" width="100" height="69" x="343" y="631" fill="var(--card-black, #000)" maskUnits="userSpaceOnUse"><path fill="#fff" d="M343 631h100v69H343z"/><path d="m426.515 639.88-2.1 14.595h14.28l-1.995 14.91h-14.28l-2.1 14.385h-14.91l1.995-14.385H393.02l2.1-14.91h14.385l2.205-14.595zM390.747 634q-.525 3.255-1.05 6.405-.42 3.255-.84 6.405-.84 5.985-2.625 9.345-1.785 3.465-4.935 5.67-3.255 2.205-8.19 4.515a59 59 0 0 0-4.725 2.31q-2.31 1.26-3.99 3.36c-1.68 2.1-1.855 3.22-2.205 5.46l-.21 1.68q-.315 2.94.105 4.83.42 1.995 2.52 1.995 2.205 0 3.255-2.31 1.05-2.205 1.68-6.825l.63-3.99h14.49l-1.155 8.4q-1.155 7.56-6.3 11.235-5.145 3.78-14.28 3.78-7.035 0-10.815-1.785-3.78-1.68-4.935-5.565t-.315-10.29q.735-4.935 2.31-8.505 1.47-3.57 4.095-6.195 2.52-2.625 6.615-4.62 2.415-1.26 4.62-2.415 2.1-1.05 3.78-2.31 1.68-1.155 2.94-2.835.945-1.155 1.68-2.625.63-1.47 1.05-3.36h-22.47l1.68-11.76z"/></mask><path fill="#fff" d="m426.515 639.88-2.1 14.595h14.28l-1.995 14.91h-14.28l-2.1 14.385h-14.91l1.995-14.385H393.02l2.1-14.91h14.385l2.205-14.595zM390.747 634q-.525 3.255-1.05 6.405-.42 3.255-.84 6.405-.84 5.985-2.625 9.345-1.785 3.465-4.935 5.67-3.255 2.205-8.19 4.515a59 59 0 0 0-4.725 2.31q-2.31 1.26-3.99 3.36c-1.68 2.1-1.855 3.22-2.205 5.46l-.21 1.68q-.315 2.94.105 4.83.42 1.995 2.52 1.995 2.205 0 3.255-2.31 1.05-2.205 1.68-6.825l.63-3.99h14.49l-1.155 8.4q-1.155 7.56-6.3 11.235-5.145 3.78-14.28 3.78-7.035 0-10.815-1.785-3.78-1.68-4.935-5.565t-.315-10.29q.735-4.935 2.31-8.505 1.47-3.57 4.095-6.195 2.52-2.625 6.615-4.62 2.415-1.26 4.62-2.415 2.1-1.05 3.78-2.31 1.68-1.155 2.94-2.835.945-1.155 1.68-2.625.63-1.47 1.05-3.36h-22.47l1.68-11.76z"/><path fill="var(--card-black, #000)" d="m426.515 639.88 2.969.427.494-3.427h-3.463zm-2.1 14.595-2.969-.427-.494 3.427h3.463zm14.28 0 2.974.398.454-3.398h-3.428zm-1.995 14.91v3h2.625l.349-2.602zm-14.28 0v-3h-2.594l-.375 2.567zm-2.1 14.385v3h2.594l.375-2.567zm-14.91 0-2.972-.412-.473 3.412h3.445zm1.995-14.385 2.972.412.473-3.412h-3.445zm-14.385 0-2.971-.418-.481 3.418h3.452zm2.1-14.91v-3h-2.607l-.364 2.582zm14.385 0v3h2.581l.385-2.552zm2.205-14.595v-3h-2.581l-.385 2.552zm14.805 0-2.969-.427-2.1 14.595 2.969.427 2.969.427 2.1-14.595zm-2.1 14.595v3h14.28v-6h-14.28zm14.28 0-2.974-.398-1.995 14.91 2.974.398 2.974.398 1.995-14.91zm-1.995 14.91v-3h-14.28v6h14.28zm-14.28 0-2.969-.433-2.1 14.385 2.969.433 2.969.433 2.1-14.385zm-2.1 14.385v-3h-14.91v6h14.91zm-14.91 0 2.972.412 1.995-14.385-2.972-.412-2.972-.412-1.995 14.385zm1.995-14.385v-3H393.02v6h14.385zm-14.385 0 2.971.418 2.1-14.91-2.971-.418-2.971-.418-2.1 14.91zm2.1-14.91v3h14.385v-6H395.12zm14.385 0 2.966.448 2.205-14.595-2.966-.448-2.966-.448-2.205 14.595zm2.205-14.595v3h14.805v-6H411.71zM390.747 634l2.962.478.561-3.478h-3.523zm-1.05 6.405-2.959-.493-.009.054-.007.055zm-.84 6.405 2.971.417.001-.01.002-.011zm-2.625 9.345-2.649-1.407-.009.016-.009.017zm-4.935 5.67 1.682 2.484.019-.013.019-.013zm-8.19 4.515 1.196 2.751.038-.016.038-.018zm-8.715 5.67-2.343-1.874zm-2.205 5.46-2.964-.463-.007.045-.006.046zm-.21 1.68-2.977-.372-.003.026-.003.026zm.105 4.83 2.936-.618-.004-.016-.004-.017zm5.775-.315-2.709-1.29-.011.024-.011.025zm1.68-6.825-2.963-.468-.005.031-.005.032zm.63-3.99v-3h-2.564l-.399 2.532zm14.49 0 2.972.409.469-3.409h-3.441zm-1.155 8.4 2.966.453.003-.022.003-.022zm-6.3 11.235-1.744-2.441-.016.011-.016.012zm-25.095 1.995 1.281-2.713-.031-.014-.032-.014zm-4.935-5.565-2.876.855zm-.315-10.29-2.967-.442-.004.026-.004.026zm2.31-8.505 2.745 1.211.015-.034.014-.035zm4.095-6.195 2.121 2.121.022-.021.021-.022zm6.615-4.62 1.314 2.697.037-.018.037-.019zm4.62-2.415-1.342-2.683-.025.012-.025.014zm3.78-2.31-1.7-2.472-.051.035-.049.037zm2.94-2.835-2.322-1.9-.04.049-.038.051zm1.68-2.625 2.683 1.342.04-.079.034-.081zm1.05-3.36 2.928.651.812-3.651h-3.74zm-22.47 0-2.97-.424-.489 3.424h3.459zm1.68-11.76v-3h-2.602l-.368 2.576zm37.59 0-2.962-.478q-.523 3.247-1.047 6.39l2.959.493 2.959.493q.526-3.158 1.053-6.42zm-1.05 6.405-2.975-.384q-.42 3.249-.839 6.393l2.974.396 2.974.396q.42-3.156.841-6.417zm-.84 6.405-2.971-.417c-.537 3.823-1.345 6.551-2.303 8.355l2.649 1.407 2.649 1.407c1.422-2.676 2.363-6.178 2.947-10.335zm-2.625 9.345-2.667-1.374a12.45 12.45 0 0 1-3.988 4.586l1.72 2.458 1.72 2.458c2.505-1.753 4.472-4.018 5.882-6.754zm-4.935 5.67-1.683-2.484c-2 1.355-4.582 2.785-7.779 4.282l1.272 2.717 1.272 2.717c3.382-1.583 6.261-3.163 8.6-4.748zm-8.19 4.515-1.196-2.751a62 62 0 0 0-4.966 2.427l1.437 2.634 1.436 2.634a56 56 0 0 1 4.485-2.193zm-4.725 2.31-1.437-2.634a16.1 16.1 0 0 0-4.896 4.12l2.343 1.874 2.343 1.874a10.1 10.1 0 0 1 3.083-2.6zm-3.99 3.36-2.343-1.874c-1.522 1.903-2.416 4.249-2.826 6.871l2.964.463 2.964.463c.29-1.858.866-3.152 1.584-4.049zm-2.205 5.46-2.977-.372-.21 1.68 2.977.372 2.977.372.21-1.68zm-.21 1.68-2.983-.32c-.228 2.132-.218 4.101.159 5.801l2.929-.651 2.928-.651c-.182-.82-.242-2.071-.05-3.859zm.105 4.83-2.936.618c.245 1.162.81 2.357 1.914 3.23 1.093.866 2.375 1.147 3.542 1.147v-6c-.116 0-.137-.014-.091-.001a.9.9 0 0 1 .273.15.9.9 0 0 1 .229.26c.034.061.023.067.005-.022zm2.52 1.995v3c1.289 0 2.55-.348 3.652-1.131 1.078-.764 1.823-1.814 2.334-2.938l-2.731-1.241-2.731-1.241c-.189.416-.336.521-.344.527a.03.03 0 0 1-.015.007.6.6 0 0 1-.165.017zm3.255-2.31 2.708 1.29c.905-1.9 1.513-4.548 1.944-7.71l-2.972-.405-2.973-.405c-.408 2.998-.92 4.9-1.416 5.94zm1.68-6.825 2.963.468.63-3.99-2.963-.468-2.963-.468-.63 3.99zm.63-3.99v3h14.49v-6h-14.49zm14.49 0-2.972-.409-1.155 8.4 2.972.409 2.972.409 1.155-8.4zm-1.155 8.4-2.966-.453c-.675 4.419-2.441 7.364-5.078 9.247l1.744 2.441 1.744 2.441c4.223-3.017 6.657-7.562 7.522-13.223zm-6.3 11.235-1.776-2.418c-2.736 2.01-6.787 3.198-12.504 3.198v6c6.463 0 11.932-1.332 16.056-4.362zm-14.28 3.78v-3c-4.51 0-7.599-.584-9.534-1.498l-1.281 2.713-1.281 2.713c3.105 1.466 7.226 2.072 12.096 2.072zm-10.815-1.785 1.218-2.741c-1.737-.773-2.763-1.95-3.277-3.679l-2.876.855-2.876.855c1.026 3.451 3.29 5.984 6.592 7.451zm-4.935-5.565 2.876-.855c-.6-2.017-.751-4.972-.217-9.045l-2.974-.39-2.975-.39c-.586 4.467-.526 8.373.414 11.535zm-.315-10.29 2.967.442c.461-3.095 1.171-5.658 2.088-7.736l-2.745-1.211-2.745-1.211c-1.183 2.682-2.013 5.789-2.532 9.274zm2.31-8.505 2.774 1.142c.835-2.028 1.984-3.757 3.442-5.216l-2.121-2.121-2.121-2.121c-2.042 2.041-3.623 4.442-4.748 7.174zm4.095-6.195 2.164 2.078c1.382-1.44 3.276-2.788 5.765-4.001l-1.314-2.697-1.314-2.697c-2.971 1.447-5.488 3.179-7.465 5.239zm6.615-4.62 1.388 2.66q2.416-1.261 4.624-2.418l-1.392-2.657-1.392-2.657q-2.203 1.153-4.616 2.412zm4.62-2.415 1.342 2.683a27.7 27.7 0 0 0 4.238-2.593l-1.8-2.4-1.8-2.4c-.96.72-2.064 1.398-3.322 2.027zm3.78-2.31 1.699 2.472a15.5 15.5 0 0 0 3.641-3.507l-2.4-1.8-2.4-1.8a9.6 9.6 0 0 1-2.24 2.163zm2.94-2.835 2.322 1.9a17 17 0 0 0 2.041-3.183l-2.683-1.342-2.683-1.342a11 11 0 0 1-1.319 2.067zm1.68-2.625 2.757 1.182c.507-1.183.909-2.486 1.221-3.891l-2.928-.651-2.929-.651c-.247 1.115-.545 2.052-.879 2.829zm1.05-3.36v-3h-22.47v6h22.47zm-22.47 0 2.97.424 1.68-11.76-2.97-.424-2.97-.424-1.68 11.76zm1.68-11.76v3h37.59v-6h-37.59z" mask="url(#b)"/><mask id="c" width="100" height="69" x="44" y="63" fill="var(--card-black, #000)" maskUnits="userSpaceOnUse"><path fill="#fff" d="M44 63h100v69H44z"/><path d="m60.485 123.12 2.1-14.595h-14.28l1.995-14.91h14.28l2.1-14.385h14.91l-1.995 14.385H93.98l-2.1 14.91H77.495L75.29 123.12zM96.253 129q.525-3.255 1.05-6.405.42-3.255.84-6.405.84-5.985 2.625-9.345 1.785-3.465 4.935-5.67 3.255-2.205 8.19-4.515a59 59 0 0 0 4.725-2.31q2.31-1.26 3.99-3.36c1.68-2.1 1.855-3.22 2.205-5.46l.21-1.68q.315-2.94-.105-4.83-.42-1.995-2.52-1.995-2.205 0-3.255 2.31-1.05 2.205-1.68 6.825l-.63 3.99h-14.49l1.155-8.4q1.155-7.56 6.3-11.235 5.145-3.78 14.28-3.78 7.035 0 10.815 1.785 3.78 1.68 4.935 5.565t.315 10.29q-.735 4.935-2.31 8.505-1.47 3.57-4.095 6.195-2.52 2.625-6.615 4.62-2.415 1.26-4.62 2.415-2.1 1.05-3.78 2.31-1.68 1.155-2.94 2.835-.945 1.155-1.68 2.625-.63 1.47-1.05 3.36h22.47l-1.68 11.76z"/></mask><path fill="var(--card-black, #000)" d="m60.485 123.12 2.1-14.595h-14.28l1.995-14.91h14.28l2.1-14.385h14.91l-1.995 14.385H93.98l-2.1 14.91H77.495L75.29 123.12zM96.253 129q.525-3.255 1.05-6.405.42-3.255.84-6.405.84-5.985 2.625-9.345 1.785-3.465 4.935-5.67 3.255-2.205 8.19-4.515a59 59 0 0 0 4.725-2.31q2.31-1.26 3.99-3.36c1.68-2.1 1.855-3.22 2.205-5.46l.21-1.68q.315-2.94-.105-4.83-.42-1.995-2.52-1.995-2.205 0-3.255 2.31-1.05 2.205-1.68 6.825l-.63 3.99h-14.49l1.155-8.4q1.155-7.56 6.3-11.235 5.145-3.78 14.28-3.78 7.035 0 10.815 1.785 3.78 1.68 4.935 5.565t.315 10.29q-.735 4.935-2.31 8.505-1.47 3.57-4.095 6.195-2.52 2.625-6.615 4.62-2.415 1.26-4.62 2.415-2.1 1.05-3.78 2.31-1.68 1.155-2.94 2.835-.945 1.155-1.68 2.625-.63 1.47-1.05 3.36h22.47l-1.68 11.76z"/><path fill="var(--card-black, #000)" d="m60.485 123.12-2.97-.427-.493 3.427h3.463zm2.1-14.595 2.97.427.492-3.427h-3.462zm-14.28 0-2.973-.398-.455 3.398h3.428zm1.995-14.91v-3h-2.625l-.349 2.602zm14.28 0v3h2.594l.374-2.567zm2.1-14.385v-3h-2.594l-.375 2.567zm14.91 0 2.972.412.473-3.412H81.59zm-1.995 14.385-2.972-.412-.473 3.412h3.445zm14.385 0 2.97.418.482-3.418H93.98zm-2.1 14.91v3h2.607l.364-2.582zm-14.385 0v-3h-2.58l-.386 2.552zM75.29 123.12v3h2.58l.386-2.552zm-14.805 0 2.97.427 2.1-14.595-2.97-.427-2.97-.427-2.1 14.595zm2.1-14.595v-3h-14.28v6h14.28zm-14.28 0 2.974.398 1.995-14.91-2.974-.398-2.973-.398-1.996 14.91zm1.995-14.91v3h14.28v-6H50.3zm14.28 0 2.969.433 2.1-14.385-2.969-.433-2.968-.433-2.1 14.385zm2.1-14.385v3h14.91v-6H66.68zm14.91 0-2.972-.412-1.995 14.385 2.972.412 2.972.412 1.995-14.385zm-1.995 14.385v3H93.98v-6H79.595zm14.385 0-2.97-.418-2.1 14.91 2.97.418 2.97.418 2.1-14.91zm-2.1 14.91v-3H77.495v6H91.88zm-14.385 0-2.966-.448-2.205 14.595 2.966.448 2.966.448 2.205-14.595zM75.29 123.12v-3H60.485v6H75.29zM96.253 129l-2.962-.478-.56 3.478h3.522zm1.05-6.405 2.959.493.009-.054.007-.055zm.84-6.405-2.97-.417-.002.01-.002.011zm2.625-9.345 2.649 1.407.009-.016.009-.017zm4.935-5.67-1.682-2.484-.019.013-.019.013zm8.19-4.515-1.196-2.751-.038.016-.038.018zm8.715-5.67 2.343 1.874zm2.205-5.46 2.964.463.007-.045.006-.046zm.21-1.68 2.977.372.003-.026.003-.026zm-.105-4.83-2.936.618.004.016.004.017zm-5.775.315 2.709 1.29.011-.024.011-.025zm-1.68 6.825 2.963.468.005-.031.005-.032zm-.63 3.99v3h2.564l.399-2.532zm-14.49 0-2.972-.409-.469 3.409h3.441zm1.155-8.4-2.966-.453-.003.022-.003.022zm6.3-11.235 1.744 2.441.016-.012.016-.011zm25.095-1.995-1.281 2.713.031.014.032.014zm4.935 5.565 2.876-.855zm.315 10.29 2.967.442.004-.026.004-.026zm-2.31 8.505-2.745-1.21-.015.033-.014.035zm-4.095 6.195-2.121-2.121-.022.021-.021.022zm-6.615 4.62-1.314-2.697-.037.018-.037.019zm-4.62 2.415 1.342 2.683.025-.012.025-.014zm-3.78 2.31 1.7 2.472.051-.035.049-.037zm-2.94 2.835 2.322 1.9.04-.049.038-.051zm-1.68 2.625-2.683-1.342-.04.079-.034.081zm-1.05 3.36-2.928-.651-.812 3.651h3.74zm22.47 0 2.97.424.489-3.424h-3.459zm-1.68 11.76v3h2.602l.368-2.576zm-37.59 0 2.962.478q.523-3.248 1.047-6.39l-2.959-.493-2.96-.493q-.524 3.158-1.052 6.42zm1.05-6.405 2.975.384q.42-3.249.839-6.393l-2.974-.396-2.974-.396q-.42 3.156-.841 6.417zm.84-6.405 2.971.417c.537-3.823 1.345-6.551 2.303-8.355l-2.649-1.407-2.65-1.407c-1.421 2.676-2.362 6.178-2.946 10.335zm2.625-9.345 2.667 1.374a12.45 12.45 0 0 1 3.988-4.586l-1.72-2.458-1.72-2.458c-2.505 1.753-4.472 4.018-5.882 6.754zm4.935-5.67 1.683 2.484c2-1.355 4.582-2.785 7.779-4.282l-1.272-2.717-1.272-2.717c-3.382 1.583-6.261 3.163-8.6 4.748zm8.19-4.515 1.196 2.751a62 62 0 0 0 4.966-2.427l-1.437-2.634-1.436-2.634a56 56 0 0 1-4.485 2.193zm4.725-2.31 1.437 2.634a16.1 16.1 0 0 0 4.896-4.12l-2.343-1.874-2.343-1.874a10.1 10.1 0 0 1-3.083 2.6zm3.99-3.36 2.343 1.874c1.522-1.903 2.416-4.249 2.826-6.87l-2.964-.464-2.964-.463c-.29 1.858-.866 3.151-1.584 4.049zm2.205-5.46 2.977.372.21-1.68-2.977-.372-2.977-.372-.21 1.68zm.21-1.68 2.983.32c.228-2.132.218-4.101-.159-5.8l-2.929.65-2.928.65c.182.821.242 2.072.05 3.86zm-.105-4.83 2.936-.618c-.245-1.162-.81-2.357-1.914-3.23-1.093-.866-2.375-1.147-3.542-1.147v6c.116 0 .137.014.091 0a.9.9 0 0 1-.273-.15.9.9 0 0 1-.229-.26c-.034-.06-.023-.066-.005.023zm-2.52-1.995v-3c-1.289 0-2.55.348-3.652 1.131-1.078.764-1.823 1.814-2.334 2.938l2.731 1.241 2.731 1.241c.189-.416.336-.521.344-.527l.015-.007a.6.6 0 0 1 .165-.017zm-3.255 2.31-2.708-1.29c-.905 1.9-1.513 4.548-1.944 7.71l2.972.405 2.973.405c.408-2.998.92-4.9 1.416-5.94zm-1.68 6.825-2.963-.468-.63 3.99 2.963.468 2.963.468.63-3.99zm-.63 3.99v-3h-14.49v6h14.49zm-14.49 0 2.972.409 1.155-8.4-2.972-.409-2.972-.409-1.155 8.4zm1.155-8.4 2.966.453c.675-4.42 2.441-7.364 5.078-9.247l-1.744-2.441-1.744-2.441c-4.223 3.017-6.657 7.562-7.522 13.223zm6.3-11.235 1.776 2.418c2.736-2.01 6.787-3.198 12.504-3.198v-6c-6.463 0-11.932 1.332-16.056 4.362zm14.28-3.78v3c4.51 0 7.599.584 9.534 1.498l1.281-2.713 1.281-2.713c-3.105-1.466-7.226-2.072-12.096-2.072zm10.815 1.785-1.218 2.741c1.737.773 2.763 1.95 3.277 3.679l2.876-.855 2.876-.855c-1.026-3.45-3.29-5.984-6.592-7.451zm4.935 5.565-2.876.855c.6 2.017.751 4.972.217 9.045l2.974.39 2.975.39c.586-4.467.526-8.373-.414-11.535zm.315 10.29-2.967-.442c-.461 3.095-1.171 5.658-2.088 7.736l2.745 1.211 2.745 1.21c1.183-2.681 2.013-5.788 2.532-9.273zm-2.31 8.505-2.774-1.142c-.835 2.028-1.984 3.757-3.442 5.216l2.121 2.121 2.121 2.121c2.042-2.041 3.623-4.442 4.748-7.174zm-4.095 6.195-2.164-2.078c-1.382 1.44-3.276 2.788-5.765 4.001l1.314 2.697 1.314 2.697c2.971-1.447 5.488-3.179 7.465-5.239zm-6.615 4.62-1.388-2.66q-2.416 1.261-4.624 2.418l1.392 2.657 1.392 2.657q2.203-1.154 4.616-2.412zm-4.62 2.415-1.342-2.683a27.7 27.7 0 0 0-4.238 2.593l1.8 2.4 1.8 2.4c.96-.72 2.064-1.398 3.322-2.027zm-3.78 2.31-1.699-2.472a15.5 15.5 0 0 0-3.641 3.507l2.4 1.8 2.4 1.8a9.6 9.6 0 0 1 2.24-2.163zm-2.94 2.835-2.322-1.9a17 17 0 0 0-2.041 3.183l2.683 1.342 2.683 1.342a11 11 0 0 1 1.319-2.067zm-1.68 2.625-2.757-1.182c-.507 1.183-.909 2.486-1.221 3.891l2.928.651 2.929.651c.247-1.115.545-2.052.879-2.829zm-1.05 3.36v3h22.47v-6h-22.47zm22.47 0-2.97-.424-1.68 11.76 2.97.424 2.97.424 1.68-11.76zm-1.68 11.76v-3h-37.59v6h37.59z" mask="url(#c)"/><mask id="d" width="100" height="69" x="40" y="59" fill="var(--card-black, #000)" maskUnits="userSpaceOnUse"><path fill="#fff" d="M40 59h100v69H40z"/><path d="m56.485 119.12 2.1-14.595h-14.28l1.995-14.91h14.28l2.1-14.385h14.91l-1.995 14.385H89.98l-2.1 14.91H73.495L71.29 119.12zM92.253 125q.525-3.255 1.05-6.405.42-3.255.84-6.405.84-5.985 2.625-9.345 1.785-3.465 4.935-5.67 3.255-2.205 8.19-4.515a59 59 0 0 0 4.725-2.31q2.31-1.26 3.99-3.36c1.68-2.1 1.855-3.22 2.205-5.46l.21-1.68q.315-2.94-.105-4.83-.42-1.995-2.52-1.995-2.205 0-3.255 2.31-1.05 2.205-1.68 6.825l-.63 3.99h-14.49l1.155-8.4q1.155-7.56 6.3-11.235 5.145-3.78 14.28-3.78 7.035 0 10.815 1.785 3.78 1.68 4.935 5.565t.315 10.29q-.735 4.935-2.31 8.505-1.47 3.57-4.095 6.195-2.52 2.625-6.615 4.62-2.415 1.26-4.62 2.415-2.1 1.05-3.78 2.31-1.68 1.155-2.94 2.835-.945 1.155-1.68 2.625-.63 1.47-1.05 3.36h22.47l-1.68 11.76z"/></mask><path fill="#fff" d="m56.485 119.12 2.1-14.595h-14.28l1.995-14.91h14.28l2.1-14.385h14.91l-1.995 14.385H89.98l-2.1 14.91H73.495L71.29 119.12zM92.253 125q.525-3.255 1.05-6.405.42-3.255.84-6.405.84-5.985 2.625-9.345 1.785-3.465 4.935-5.67 3.255-2.205 8.19-4.515a59 59 0 0 0 4.725-2.31q2.31-1.26 3.99-3.36c1.68-2.1 1.855-3.22 2.205-5.46l.21-1.68q.315-2.94-.105-4.83-.42-1.995-2.52-1.995-2.205 0-3.255 2.31-1.05 2.205-1.68 6.825l-.63 3.99h-14.49l1.155-8.4q1.155-7.56 6.3-11.235 5.145-3.78 14.28-3.78 7.035 0 10.815 1.785 3.78 1.68 4.935 5.565t.315 10.29q-.735 4.935-2.31 8.505-1.47 3.57-4.095 6.195-2.52 2.625-6.615 4.62-2.415 1.26-4.62 2.415-2.1 1.05-3.78 2.31-1.68 1.155-2.94 2.835-.945 1.155-1.68 2.625-.63 1.47-1.05 3.36h22.47l-1.68 11.76z"/><path fill="var(--card-black, #000)" d="m56.485 119.12-2.97-.427-.493 3.427h3.463zm2.1-14.595 2.97.427.493-3.427h-3.463zm-14.28 0-2.973-.398-.455 3.398h3.428zm1.995-14.91v-3h-2.625l-.349 2.602zm14.28 0v3h2.594l.375-2.567zm2.1-14.385v-3h-2.594l-.375 2.567zm14.91 0 2.972.412.473-3.412H77.59zm-1.995 14.385-2.972-.412-.473 3.412h3.445zm14.385 0 2.97.418.482-3.418H89.98zm-2.1 14.91v3h2.607l.364-2.582zm-14.385 0v-3h-2.58l-.386 2.552zM71.29 119.12v3h2.58l.386-2.552zm-14.805 0 2.97.427 2.1-14.595-2.97-.427-2.97-.427-2.1 14.595zm2.1-14.595v-3h-14.28v6h14.28zm-14.28 0 2.974.398 1.995-14.91-2.974-.398-2.973-.398-1.996 14.91zm1.995-14.91v3h14.28v-6H46.3zm14.28 0 2.969.433 2.1-14.385-2.969-.433-2.968-.433-2.1 14.385zm2.1-14.385v3h14.91v-6H62.68zm14.91 0-2.972-.412-1.995 14.385 2.972.412 2.972.412 1.995-14.385zm-1.995 14.385v3H89.98v-6H75.595zm14.385 0-2.97-.418-2.1 14.91 2.97.418 2.97.418 2.1-14.91zm-2.1 14.91v-3H73.495v6H87.88zm-14.385 0-2.966-.448-2.205 14.595 2.966.448 2.966.448 2.205-14.595zM71.29 119.12v-3H56.485v6H71.29zM92.253 125l-2.962-.478-.56 3.478h3.522zm1.05-6.405 2.96.493.008-.054.007-.055zm.84-6.405-2.97-.417-.002.01-.002.011zm2.625-9.345 2.65 1.407.008-.016.009-.017zm4.935-5.67-1.682-2.484-.019.013-.02.013zm8.19-4.515-1.196-2.751-.038.016-.038.018zm8.715-5.67 2.343 1.874zm2.205-5.46 2.964.463.007-.045.006-.046zm.21-1.68 2.977.372.003-.026.003-.026zm-.105-4.83-2.936.618.004.016.004.017zm-5.775.315 2.709 1.29.011-.024.011-.025zm-1.68 6.825 2.963.468.005-.031.005-.032zm-.63 3.99v3h2.564l.399-2.532zm-14.49 0-2.972-.409-.469 3.409h3.441zm1.155-8.4-2.966-.453-.003.022-.003.022zm6.3-11.235 1.744 2.441.016-.012.016-.011zm25.095-1.995-1.281 2.713.031.014.032.014zm4.935 5.565 2.876-.855zm.315 10.29 2.967.442.004-.026.004-.026zm-2.31 8.505-2.745-1.21-.015.033-.014.035zm-4.095 6.195-2.121-2.121-.022.021-.021.022zm-6.615 4.62-1.314-2.697-.037.018-.037.02zm-4.62 2.415 1.342 2.683.025-.012.025-.014zm-3.78 2.31 1.7 2.472.051-.035.049-.037zm-2.94 2.835 2.322 1.9.04-.049.038-.051zm-1.68 2.625-2.683-1.342-.04.079-.034.081zm-1.05 3.36-2.928-.651-.812 3.651h3.74zm22.47 0 2.97.424.489-3.424h-3.459zm-1.68 11.76v3h2.602l.368-2.576zm-37.59 0 2.962.478q.523-3.248 1.047-6.39l-2.959-.493-2.96-.493q-.524 3.157-1.052 6.42zm1.05-6.405 2.975.384q.42-3.249.839-6.393l-2.974-.396-2.974-.396q-.42 3.156-.841 6.417zm.84-6.405 2.971.417c.536-3.823 1.345-6.551 2.303-8.355l-2.649-1.407-2.65-1.407c-1.421 2.676-2.362 6.178-2.946 10.335zm2.625-9.345 2.667 1.374a12.45 12.45 0 0 1 3.988-4.586l-1.72-2.458-1.72-2.458c-2.505 1.753-4.472 4.018-5.882 6.754zm4.935-5.67 1.683 2.484c2-1.355 4.582-2.785 7.779-4.282l-1.272-2.717-1.272-2.717c-3.382 1.583-6.261 3.163-8.6 4.748zm8.19-4.515 1.196 2.751a62 62 0 0 0 4.966-2.427l-1.437-2.634-1.436-2.634a56 56 0 0 1-4.485 2.193zm4.725-2.31 1.437 2.634a16.1 16.1 0 0 0 4.896-4.12l-2.343-1.874-2.343-1.874a10.1 10.1 0 0 1-3.083 2.6zm3.99-3.36 2.343 1.874c1.522-1.903 2.416-4.249 2.826-6.87l-2.964-.464-2.964-.463c-.29 1.858-.866 3.151-1.584 4.049zm2.205-5.46 2.977.372.21-1.68-2.977-.372-2.977-.372-.21 1.68zm.21-1.68 2.983.32c.228-2.132.218-4.101-.159-5.8l-2.929.65-2.928.65c.182.821.242 2.072.05 3.86zm-.105-4.83 2.936-.618c-.245-1.162-.81-2.357-1.914-3.23-1.093-.866-2.375-1.147-3.542-1.147v6c.116 0 .137.014.091 0a.9.9 0 0 1-.273-.15.9.9 0 0 1-.229-.26c-.034-.06-.023-.066-.005.023zm-2.52-1.995v-3c-1.289 0-2.55.348-3.652 1.131-1.078.764-1.823 1.814-2.334 2.938l2.731 1.241 2.731 1.241c.189-.416.336-.521.344-.527l.015-.007a.6.6 0 0 1 .165-.017zm-3.255 2.31-2.708-1.29c-.905 1.9-1.513 4.548-1.944 7.71l2.972.405 2.973.405c.408-2.998.92-4.9 1.416-5.94zm-1.68 6.825-2.963-.468-.63 3.99 2.963.468 2.963.468.63-3.99zm-.63 3.99v-3h-14.49v6h14.49zm-14.49 0 2.972.409 1.155-8.4-2.972-.409-2.972-.409-1.155 8.4zm1.155-8.4 2.966.453c.675-4.42 2.441-7.364 5.078-9.247l-1.744-2.441-1.744-2.441c-4.223 3.017-6.657 7.562-7.522 13.223zm6.3-11.235 1.776 2.418c2.736-2.01 6.787-3.198 12.504-3.198v-6c-6.463 0-11.932 1.332-16.056 4.362zm14.28-3.78v3c4.51 0 7.599.584 9.534 1.498l1.281-2.713 1.281-2.713c-3.105-1.466-7.226-2.072-12.096-2.072zm10.815 1.785-1.218 2.741c1.737.773 2.763 1.95 3.277 3.679l2.876-.855 2.876-.855c-1.026-3.45-3.29-5.984-6.592-7.451zm4.935 5.565-2.876.855c.6 2.017.751 4.972.217 9.045l2.974.39 2.975.39c.586-4.467.526-8.373-.414-11.535zm.315 10.29-2.967-.442c-.461 3.095-1.171 5.658-2.088 7.736l2.745 1.211 2.745 1.21c1.183-2.681 2.013-5.788 2.532-9.273zm-2.31 8.505-2.774-1.142c-.835 2.028-1.984 3.757-3.442 5.216l2.121 2.121 2.121 2.121c2.042-2.041 3.623-4.442 4.748-7.174zm-4.095 6.195-2.164-2.078c-1.382 1.44-3.276 2.788-5.765 4.001l1.314 2.697 1.314 2.697c2.971-1.447 5.488-3.18 7.465-5.24zm-6.615 4.62-1.388-2.66q-2.416 1.261-4.624 2.417l1.392 2.658 1.392 2.657q2.203-1.154 4.616-2.412zm-4.62 2.415-1.342-2.683a27.7 27.7 0 0 0-4.238 2.593l1.8 2.4 1.8 2.4c.96-.72 2.064-1.398 3.322-2.027zm-3.78 2.31-1.699-2.472a15.5 15.5 0 0 0-3.641 3.507l2.4 1.8 2.4 1.8a9.6 9.6 0 0 1 2.24-2.163zm-2.94 2.835-2.322-1.9a17 17 0 0 0-2.041 3.183l2.683 1.342 2.683 1.342a11 11 0 0 1 1.319-2.067zm-1.68 2.625-2.757-1.182c-.507 1.183-.909 2.486-1.221 3.891l2.928.651 2.929.651c.247-1.115.545-2.052.879-2.829zm-1.05 3.36v3h22.47v-6h-22.47zm22.47 0-2.97-.424-1.68 11.76 2.97.424 2.97.424 1.68-11.76zm-1.68 11.76v-3h-37.59v6h37.59z" mask="url(#d)"/></svg>