<svg xmlns="http://www.w3.org/2000/svg" width="486" height="759" viewBox="0 0 486 759" fill="none"><rect width="486" height="759" fill="#fff" rx="51"/><path fill="var(--card-color, #00f)" d="M452 698c0 14.359-11.641 26-26 26H60c-14.36 0-26-11.641-26-26V562.111c5.839 43.884 23.777 77.718 54.045 94.674 79.32 44.436 213.268-43.864 299.182-197.223 35.248-62.921 56.931-127.017 64.773-183.801zM426 34c14.359 0 26 11.64 26 26v128.134c-6.875-40.009-24.423-70.796-52.834-86.712-79.32-44.436-213.268 43.864-299.182 197.224C62.718 365.168 40.614 433.004 34 492.125V60c0-14.36 11.64-26 26-26z"/><path fill="var(--card-black, #000)" stroke="#000" stroke-width="4" d="M286.421 362.125c3.804 3.203 7.803 9.047 11.082 16.443 3.299 7.442 5.943 16.62 6.927 26.637 1.968 20.058-2.724 43.58-22.273 63.128l-.057.058-.062.051-62.204 52.91 28.754 34.365 2.748 3.283H113.608l.379-2.321 21.239-130.362.682-4.191 2.797 3.196 29.466 33.679 115.678-96.879 1.287-1.078zm88.22-148.407-.378 2.321L353.024 346.4l-.683 4.192-2.796-3.196-29.468-33.681-115.676 96.881-1.288 1.078-1.284-1.082c-3.804-3.203-7.804-9.046-11.083-16.443-3.299-7.441-5.942-16.619-6.926-26.636-1.968-20.058 2.724-43.58 22.273-63.128l.056-.058.062-.052 62.204-52.91-28.754-34.364-2.747-3.283z"/><path fill="var(--card-color, #00f)" stroke="#000" stroke-width="4" d="M280.167 354.408c3.804 3.203 7.803 9.046 11.082 16.443 3.299 7.441 5.944 16.619 6.927 26.636 1.968 20.058-2.724 43.58-22.273 63.128l-.057.058-.062.052-62.204 52.909 28.754 34.365 2.748 3.283H107.354l.379-2.321L128.972 418.6l.682-4.192 2.797 3.196 29.466 33.679 115.678-96.879 1.287-1.078zM368.387 206l-.378 2.321-21.238 130.362-.684 4.191-2.796-3.196-29.468-33.681-115.676 96.881-1.288 1.078-1.284-1.082c-3.804-3.203-7.804-9.046-11.083-16.442-3.298-7.441-5.942-16.62-6.926-26.637-1.968-20.058 2.724-43.58 22.273-63.128l.057-.058.061-.051 62.204-52.911-28.754-34.364L230.66 206z"/><path fill="var(--card-black, #000)" stroke="#000" stroke-width="2" d="M400.476 674.454c-.774-.678-1.525-1.85-2.122-3.252a17.3 17.3 0 0 1-1.269-5.083c-.36-3.823.498-8.343 4.104-12.099l.028-.03.03-.026 10.535-9.334-4.704-5.858-1.307-1.626h26.398l-.181 1.155-3.75 23.973-.34 2.172-1.413-1.683-4.774-5.685-19.918 17.378-.659.575zm-15.895 27.454.181-1.154 3.749-23.974.34-2.172 1.414 1.684 4.774 5.684 19.918-17.377.658-.576.658.578c.774.678 1.526 1.849 2.123 3.251a17.3 17.3 0 0 1 1.269 5.084c.36 3.823-.498 8.342-4.104 12.099l-.029.028-.03.028-10.534 9.335 4.704 5.856 1.306 1.626z"/><path fill="#fff" stroke="#000" stroke-width="2" d="M396.726 670.308c-.774-.679-1.525-1.851-2.122-3.252a17.3 17.3 0 0 1-1.269-5.083c-.36-3.823.498-8.343 4.104-12.1l.028-.029.03-.027 10.535-9.334-4.704-5.857-1.307-1.626h26.398l-.181 1.154-3.75 23.974-.34 2.172-1.413-1.684-4.774-5.684-19.918 17.378-.659.575zm-15.895 27.454.181-1.155 3.749-23.973.34-2.172 1.414 1.684 4.774 5.683 19.918-17.377.658-.575.658.577c.774.678 1.526 1.85 2.123 3.251a17.3 17.3 0 0 1 1.269 5.084c.36 3.823-.498 8.343-4.104 12.1l-.029.028-.03.027-10.534 9.335 4.704 5.857 1.306 1.626z"/><path fill="var(--card-black, #000)" stroke="#000" stroke-width="2" d="M92.292 93.544c.773.677 1.523 1.848 2.12 3.247a17.3 17.3 0 0 1 1.268 5.077c.36 3.818-.498 8.332-4.1 12.084l-.028.029-.03.027L81 123.328l4.698 5.848 1.307 1.626h-26.37l.181-1.154 3.745-23.94.34-2.172 1.414 1.683 4.767 5.674 19.893-17.351.659-.575zm15.876-27.417-.181 1.155-3.745 23.94-.339 2.172-1.414-1.684-4.768-5.675-19.892 17.353-.66.574-.656-.576c-.773-.677-1.525-1.848-2.12-3.248a17.3 17.3 0 0 1-1.268-5.076c-.36-3.818.497-8.332 4.1-12.084l.027-.03.03-.027 10.52-9.32-4.697-5.848-1.305-1.626z"/><path fill="#fff" stroke="#000" stroke-width="2" d="M88.487 89.416c.773.678 1.524 1.848 2.12 3.248a17.3 17.3 0 0 1 1.268 5.076c.36 3.818-.498 8.332-4.1 12.084l-.028.03-.03.027-10.522 9.319 4.699 5.849 1.306 1.626H56.831l.18-1.154 3.746-23.941.34-2.172 1.414 1.684 4.766 5.674L87.17 89.414l.66-.574zM104.363 62l-.18 1.154-3.745 23.94-.339 2.173-1.414-1.684-4.769-5.676-19.892 17.354-.659.574-.657-.576c-.773-.678-1.524-1.848-2.12-3.248a17.3 17.3 0 0 1-1.268-5.076c-.36-3.819.498-8.332 4.1-12.084l.027-.03.03-.027 10.521-9.32-4.697-5.848L77.995 62z"/></svg>