<svg xmlns="http://www.w3.org/2000/svg" width="486" height="759" viewBox="0 0 486 759" fill="none"><rect width="486" height="759" fill="#fff" rx="51"/><path fill="var(--card-color, #00f)" d="M452 698c0 14.359-11.641 26-26 26H60c-14.36 0-26-11.641-26-26V562.111c5.839 43.884 23.777 77.718 54.045 94.674 79.32 44.436 213.268-43.864 299.182-197.223 35.248-62.921 56.931-127.017 64.773-183.801zM426 34c14.359 0 26 11.64 26 26v128.134c-6.875-40.009-24.423-70.796-52.834-86.712-79.32-44.436-213.268 43.864-299.182 197.224C62.718 365.168 40.614 433.004 34 492.125V60c0-14.36 11.64-26 26-26z"/><path fill="var(--card-black, #000)" stroke="#000" stroke-width="4" d="M159.788 289.434c58.232-53.572 142.486-55.962 188.256-6.212s36.377 133.514-21.855 187.086-142.485 55.963-188.254 6.213c-45.77-49.75-36.378-133.514 21.853-187.087Zm166.977 41.909L183.313 456.562l-1.985 1.732 2.203 1.447c33.74 22.138 82.979 16.245 118.131-16.094 33.612-30.922 44.19-76.67 28.237-111.627l-1.113-2.44zm-24.494-31.456c-33.735-22.002-82.863-16.075-117.955 16.208-33.55 30.866-44.152 76.503-28.326 111.436l1.111 2.45 2.027-1.77 143.366-125.142 1.991-1.738z"/><path fill="var(--card-color, #00f)" stroke="#000" stroke-width="4" d="M153.772 281.115c58.232-53.573 142.486-55.963 188.256-6.212 45.77 49.75 36.377 133.513-21.854 187.086-58.232 53.572-142.485 55.962-188.255 6.213-45.77-49.751-36.378-133.515 21.853-187.087Zm166.977 41.909L177.298 448.243l-1.986 1.732 2.204 1.446c33.74 22.138 82.978 16.246 118.13-16.093 33.612-30.923 44.19-76.67 28.238-111.627l-1.113-2.441zm-24.493-31.456c-33.735-22.003-82.864-16.076-117.955 16.208-33.55 30.866-44.152 76.503-28.326 111.435l1.11 2.451 2.027-1.77L296.479 294.75l1.991-1.739z"/><path fill="var(--card-black, #000)" stroke="#000" stroke-width="2" d="M70.976 74.172c14.557-13.49 35.51-14.013 46.838-1.61 11.335 12.41 9.069 33.414-5.49 46.906-14.557 13.49-35.51 14.013-46.839 1.609-11.334-12.41-9.068-33.413 5.49-46.905Zm41.503 9.934-36.228 31.856-.982.864 1.09.721c8.747 5.781 21.433 4.209 30.447-4.144 8.619-7.987 11.372-19.845 7.244-28.958l-.557-1.23zm-5.584-8.044c-8.745-5.745-21.403-4.164-30.4 4.174-8.604 7.973-11.364 19.802-7.268 28.909l.555 1.234 1.017-.894 36.207-31.836.985-.866z"/><path fill="#fff" stroke="#000" stroke-width="2" d="M66.675 70.532c14.557-13.49 35.51-14.013 46.839-1.61 11.334 12.411 9.068 33.414-5.491 46.906-14.557 13.49-35.51 14.013-46.838 1.61-11.335-12.411-9.07-33.414 5.49-46.906Zm41.504 9.935L71.95 112.322l-.982.865 1.09.72c8.747 5.781 21.434 4.21 30.447-4.143 8.619-7.988 11.372-19.845 7.244-28.958l-.557-1.23zm-5.585-8.044c-8.745-5.745-21.403-4.165-30.4 4.174-8.604 7.973-11.364 19.802-7.268 28.908l.555 1.234 1.017-.893 36.207-31.836.985-.866z"/><path fill="var(--card-black, #000)" stroke="#000" stroke-width="2" d="M382.966 645.175c14.56-13.49 35.518-14.013 46.848-1.61 11.336 12.41 9.07 33.411-5.491 46.903-14.56 13.489-35.518 14.013-46.848 1.609-11.336-12.409-9.07-33.411 5.491-46.902Zm41.512 9.933-36.235 31.854-.983.864 1.092.722c8.747 5.78 21.436 4.209 30.451-4.144 8.62-7.987 11.375-19.844 7.246-28.957l-.558-1.229zm-5.586-8.044c-8.747-5.744-21.406-4.164-30.406 4.174-8.605 7.973-11.365 19.801-7.268 28.908l.554 1.234 1.018-.894 36.213-31.835.985-.866z"/><path fill="#fff" stroke="#000" stroke-width="2" d="M378.677 641.532c14.56-13.49 35.518-14.013 46.848-1.609 11.336 12.409 9.07 33.411-5.491 46.902s-35.518 14.013-46.848 1.61c-11.336-12.41-9.07-33.411 5.491-46.903Zm41.511 9.934-36.234 31.853-.983.865 1.091.721c8.748 5.781 21.437 4.209 30.452-4.143 8.62-7.987 11.375-19.845 7.246-28.957l-.558-1.23zm-5.585-8.044c-8.747-5.745-21.406-4.164-30.406 4.174-8.605 7.972-11.365 19.801-7.268 28.907l.554 1.234 1.018-.893 36.213-31.835.985-.866z"/></svg>