<svg xmlns="http://www.w3.org/2000/svg" width="486" height="759" viewBox="0 0 486 759" fill="none"><rect width="486" height="759" fill="#fff" rx="51"/><path fill="var(--card-black, #000)" d="M452 698c0 14.359-11.641 26-26 26H60c-14.36 0-26-11.641-26-26V562.111c5.839 43.884 23.777 77.718 54.045 94.674 79.32 44.436 213.268-43.864 299.182-197.223 35.248-62.921 56.931-127.017 64.773-183.801zM426 34c14.359 0 26 11.64 26 26v128.134c-6.875-40.009-24.423-70.796-52.834-86.712-79.32-44.436-213.268 43.864-299.182 197.224C62.718 365.168 40.614 433.004 34 492.125V60c0-14.36 11.64-26 26-26z"/><path fill="#fff" d="M399.164 101.422c85.515 47.907 85.192 211.065-.722 364.424-85.913 153.36-224.884 238.846-310.4 190.939-85.514-47.907-85.191-211.065.722-364.424 85.914-153.359 224.885-238.845 310.4-190.939"/><path fill="var(--card-red, red)" d="M383.495 129.393c-16.961-9.502-37.374-12.451-60.074-8.681s-47.242 14.188-72.225 30.657-49.918 38.668-73.381 65.328c-23.462 26.66-44.994 57.26-63.365 90.052l129.154 72.354z"/><path fill="var(--card-blue, #00f)" d="M372.758 451.457c37.102-66.228 59.076-137.365 61.09-197.764 2.013-60.399-16.099-105.111-50.353-124.3l-139.891 249.71z"/><path fill="var(--card-green, #0f0)" d="M103.713 628.813c34.254 19.189 81.843 11.284 132.299-21.977 50.456-33.26 99.645-89.152 136.746-155.379l-129.154-72.354z"/><path fill="var(--card-yellow, #ff0)" d="M114.45 306.749c-18.37 32.793-33.22 67.136-43.702 101.068s-16.39 66.79-17.387 96.696 2.937 56.276 11.576 77.604 21.816 37.194 38.776 46.696l139.891-249.71z"/><path fill="#fff" d="M103.546 61.235c10.193 5.653 10.155 24.905-.086 43-10.241 18.096-26.807 28.183-37 22.53s-10.155-24.905.086-43c10.24-18.096 26.806-28.183 37-22.53"/><path fill="var(--card-red, red)" d="M101.678 64.536c-2.022-1.122-4.455-1.47-7.16-1.025-2.707.445-5.632 1.674-8.61 3.618s-5.95 4.562-8.747 7.708-5.364 6.756-7.553 10.626L85.003 94z"/><path fill="var(--card-blue, #00f)" d="M100.398 102.537c4.423-7.814 7.042-16.208 7.282-23.335.24-7.126-1.919-12.402-6.002-14.666L85.003 94z"/><path fill="var(--card-green, #0f0)" d="M68.328 123.464c4.083 2.265 9.756 1.332 15.77-2.593s11.878-10.519 16.3-18.334L85.003 94z"/><path fill="var(--card-yellow, #ff0)" d="M69.608 85.463c-2.19 3.869-3.96 7.921-5.21 11.925s-1.953 7.881-2.072 11.41c-.12 3.528.35 6.64 1.38 9.156s2.6 4.389 4.622 5.51L85.003 94z"/><path fill="#fff" d="M419.546 632.235c10.193 5.652 10.155 24.904-.086 43-10.241 18.095-26.807 28.182-37 22.529s-10.155-24.904.086-43c10.241-18.095 26.806-28.182 37-22.529"/><path fill="var(--card-red, red)" d="M417.678 635.535c-2.022-1.121-4.455-1.469-7.161-1.024s-5.631 1.674-8.609 3.617-5.95 4.563-8.747 7.708-5.363 6.757-7.553 10.626l15.395 8.537z"/><path fill="var(--card-blue, #00f)" d="M416.398 673.537c4.423-7.815 7.042-16.208 7.282-23.335s-1.919-12.403-6.002-14.667l-16.675 29.464z"/><path fill="var(--card-green, #0f0)" d="M384.328 694.464c4.083 2.264 9.756 1.331 15.77-2.593s11.878-10.52 16.3-18.334l-15.395-8.538z"/><path fill="var(--card-yellow, #ff0)" d="M385.608 656.462c-2.19 3.869-3.96 7.922-5.21 11.926-1.249 4.003-1.953 7.88-2.072 11.409s.35 6.64 1.38 9.157c1.029 2.516 2.6 4.389 4.622 5.51l16.675-29.465z"/></svg>