<svg width="419" height="418" viewBox="0 0 419 418" fill="none" xmlns="http://www.w3.org/2000/svg">
<path d="M392.967 0C407.325 1.48179e-06 418.965 11.6406 418.965 26V392C418.965 406.359 407.325 418 392.967 418H26.9978C12.6396 418 1 406.359 1 392V26C1 11.6406 12.6396 0 26.9978 0H392.967Z" fill="black"/>
<path d="M416.587 157.83C433.682 235.592 355.023 318.973 240.896 344.067C126.77 369.16 20.394 326.465 3.29869 248.703C-13.7966 170.942 64.8626 87.5607 178.989 62.4667C293.115 37.3727 399.491 80.0683 416.587 157.83Z" fill="#FF0000"/>
<path d="M106.827 165.761L133.942 160.971L147.989 240.496C149.654 249.923 149.058 258.206 146.202 265.345C143.401 272.473 138.768 278.295 132.304 282.811C125.839 287.327 117.977 290.403 108.717 292.039C99.4006 293.685 90.9047 293.499 83.229 291.481C75.6087 289.453 69.2064 285.58 64.0222 279.862C58.8934 274.134 55.4965 266.557 53.8313 257.129L39.7852 177.605L66.9843 172.8L81.0305 252.324C81.9512 257.537 83.4818 261.67 85.6221 264.723C87.8081 267.711 90.5355 269.717 93.8041 270.741C97.063 271.709 100.8 271.821 105.014 271.077C109.228 270.332 112.673 268.952 115.347 266.935C118.067 264.853 119.887 262.044 120.806 258.508C121.771 254.906 121.793 250.499 120.873 245.286L106.827 165.761Z" fill="black"/>
<path d="M262.385 127.499L285.883 258.499L250.886 264.499L201.39 205.999L212.889 271.499L175.892 277.999L152.894 146.999L186.891 140.489L236.887 198.499L225.888 133.999L262.385 127.499Z" fill="black"/>
<path d="M396.809 173.417L397.764 178.824C399.39 188.03 399.574 196.518 398.316 204.289C397.114 212.05 394.639 218.921 390.892 224.901C387.2 230.872 382.411 235.807 376.524 239.706C370.682 243.54 363.907 246.138 356.2 247.5C348.492 248.862 341.209 248.747 334.352 247.156C327.486 245.51 321.24 242.524 315.616 238.199C310.047 233.865 305.341 228.263 301.497 221.393C297.653 214.523 294.918 206.486 293.292 197.28L292.337 191.873C290.711 182.667 290.527 174.179 291.785 166.408C293.033 158.581 295.503 151.683 299.194 145.713C302.941 139.732 307.763 134.82 313.66 130.976C319.548 127.077 326.345 124.446 334.053 123.085C341.761 121.723 349.048 121.865 355.915 123.512C362.772 125.103 368.957 128.07 374.47 132.415C380.039 136.749 384.751 142.379 388.604 149.304C392.448 156.174 395.183 164.212 396.809 173.417ZM370.398 183.659L369.414 178.085C368.326 171.93 366.812 166.593 364.87 162.075C362.919 157.502 360.606 153.793 357.93 150.949C355.255 148.104 352.223 146.152 348.833 145.093C345.434 143.978 341.766 143.768 337.829 144.463C333.726 145.188 330.296 146.652 327.54 148.854C324.774 151.001 322.622 153.869 321.083 157.458C319.599 161.037 318.724 165.309 318.457 170.274C318.236 175.174 318.669 180.702 319.757 186.857L320.741 192.431C321.818 198.531 323.305 203.873 325.201 208.456C327.143 212.974 329.456 216.683 332.141 219.582C334.826 222.482 337.841 224.494 341.184 225.619C344.584 226.734 348.335 226.929 352.438 226.205C356.375 225.509 359.722 224.06 362.478 221.858C365.289 219.645 367.46 216.717 368.989 213.073C370.518 209.429 371.393 205.157 371.614 200.257C371.881 195.292 371.476 189.759 370.398 183.659Z" fill="black"/>
<path d="M131.111 148.856L145.157 228.381C146.884 238.155 146.298 246.928 143.23 254.593L143.229 254.592C140.242 262.186 135.294 268.394 128.442 273.181C121.628 277.941 113.409 281.133 103.858 282.82C94.2542 284.517 85.3866 284.344 77.3008 282.218L77.293 282.216C69.2178 280.067 62.3921 275.943 56.877 269.86L56.8721 269.856L56.8672 269.85C51.3596 263.699 47.8026 255.658 46.0762 245.884L32.0303 166.358L31.5957 163.898L34.0576 163.462L61.2568 158.657L63.7188 158.223L64.1533 160.685L78.1992 240.209C79.0788 245.189 80.5069 248.931 82.3613 251.586C84.2521 254.163 86.5386 255.819 89.2412 256.669C92.0406 257.497 95.3659 257.627 99.2861 256.935C103.217 256.24 106.265 254.981 108.549 253.259C110.788 251.541 112.306 249.227 113.094 246.198L113.096 246.19L113.099 246.181C113.938 243.048 114 239.034 113.118 234.04L99.0713 154.516L98.6367 152.054L101.099 151.619L128.215 146.829L130.677 146.394L131.111 148.856ZM255.499 126.882L276.892 247.999L277.326 250.461L274.864 250.896L247.832 255.671L246.419 255.921L245.49 254.827L191.891 191.671L204.11 260.857L204.546 263.318L202.084 263.753L174.968 268.543L172.506 268.978L172.071 266.516L150.679 145.398L150.244 142.938L152.705 142.502L179.821 137.712L181.232 137.463L182.161 138.555L235.848 201.711L223.625 132.513L223.19 130.051L225.652 129.615L252.603 124.855L255.064 124.42L255.499 126.882ZM326.207 110.137C334.209 108.723 341.838 108.861 349.067 110.591L349.068 110.59C356.277 112.262 362.794 115.388 368.594 119.955C374.457 124.519 379.378 130.417 383.374 137.597C387.377 144.752 390.194 153.065 391.859 162.496L392.814 167.903C394.479 177.328 394.681 186.096 393.374 194.185L393.375 194.186C392.127 202.244 389.545 209.443 385.599 215.742C381.717 222.016 376.676 227.21 370.493 231.305L370.484 231.31C364.327 235.351 357.225 238.062 349.223 239.476C341.221 240.889 333.596 240.781 326.376 239.106L326.367 239.103L326.358 239.101C319.148 237.372 312.582 234.233 306.681 229.695L306.669 229.686C300.808 225.124 295.891 219.254 291.903 212.127C287.9 204.972 285.085 196.66 283.419 187.229L282.464 181.821C280.798 172.39 280.596 163.616 281.906 155.523C283.2 147.414 285.771 140.196 289.656 133.911L289.66 133.905L289.665 133.898C293.601 127.617 298.674 122.446 304.868 118.405C311.071 114.297 318.198 111.552 326.207 110.137ZM340.643 136.982C337.679 136.009 334.432 135.806 330.853 136.439C327.086 137.104 324.064 138.424 321.689 140.321L321.676 140.332L321.661 140.343C319.267 142.201 317.36 144.712 315.969 147.957C314.626 151.207 313.797 155.177 313.542 159.922C313.333 164.592 313.745 169.924 314.807 175.937L315.792 181.51C316.843 187.459 318.281 192.609 320.087 196.982L320.438 197.782C322.215 201.728 324.267 204.916 326.564 207.398C328.997 210.025 331.663 211.783 334.561 212.76C337.506 213.725 340.83 213.921 344.592 213.257C348.173 212.624 351.118 211.326 353.506 209.418L353.513 209.412L353.521 209.406C355.964 207.483 357.89 204.914 359.272 201.619C360.664 198.303 361.494 194.332 361.705 189.658L361.707 189.637C361.961 184.902 361.576 179.564 360.524 173.607L359.54 168.034C358.478 162.02 357.01 156.876 355.162 152.575L355.159 152.569C353.293 148.196 351.126 144.756 348.698 142.175C346.287 139.612 343.615 137.911 340.676 136.992L340.659 136.987L340.643 136.982Z" fill="#FFFF00" stroke="black" stroke-width="5"/>
</svg>
