<svg xmlns="http://www.w3.org/2000/svg" width="242" height="362" fill="none" viewBox="0 0 242 362"><path fill="#fff" stroke="#000" stroke-width="2" d="M201 1H41C18.909 1 1 18.909 1 41v280c0 22.091 17.909 40 40 40h160c22.091 0 40-17.909 40-40V41c0-22.091-17.909-40-40-40Z"/><path fill="var(--card-color, #ff5555)" d="M201 21H41c-11.046 0-20 8.954-20 20v280c0 11.046 8.954 20 20 20h160c11.046 0 20-8.954 20-20V41c0-11.046-8.954-20-20-20"/><path fill="#fff" fill-rule="evenodd" d="M181 81C92.634 81 21 152.634 21 241c0 22.091 17.909 40 40 40 88.366 0 160-71.634 160-160 0-22.091-17.909-40-40-40" clip-rule="evenodd"/><path fill="var(--card-color, #ff5555)" fill-rule="evenodd" d="M121 121c-22.091 0-40 17.909-40 40v40c0 22.091 17.909 40 40 40s40-17.909 40-40v-40c0-22.091-17.909-40-40-40m0 20c11.046 0 20 8.954 20 20v40c0 11.046-8.954 20-20 20s-20-8.954-20-20v-40c0-11.046 8.954-20 20-20" clip-rule="evenodd"/><path fill="#fff" fill-rule="evenodd" d="M51 31c-11.046 0-20 8.954-20 20v20c0 11.046 8.954 20 20 20s20-8.954 20-20V51c0-11.046-8.954-20-20-20m0 10c5.523 0 10 4.477 10 10v20c0 5.523-4.477 10-10 10s-10-4.477-10-10V51c0-5.523 4.477-10 10-10M191 271c-11.046 0-20 8.954-20 20v20c0 11.046 8.954 20 20 20s20-8.954 20-20v-20c0-11.046-8.954-20-20-20m0 10c5.523 0 10 4.477 10 10v20c0 5.523-4.477 10-10 10s-10-4.477-10-10v-20c0-5.523 4.477-10 10-10" clip-rule="evenodd"/></svg>