<svg xmlns="http://www.w3.org/2000/svg" width="242" height="362" fill="none" viewBox="0 0 242 362"><path fill="#fff" stroke="#000" stroke-width="2" d="M201 1H41C18.909 1 1 18.909 1 41v280c0 22.091 17.909 40 40 40h160c22.091 0 40-17.909 40-40V41c0-22.091-17.909-40-40-40Z"/><path fill="var(--card-color, #ff5555)" d="M201 21H41c-11.046 0-20 8.954-20 20v280c0 11.046 8.954 20 20 20h160c11.046 0 20-8.954 20-20V41c0-11.046-8.954-20-20-20"/><path fill="#fff" fill-rule="evenodd" d="M181 81C92.634 81 21 152.634 21 241c0 22.091 17.909 40 40 40 88.366 0 160-71.634 160-160 0-22.091-17.909-40-40-40" clip-rule="evenodd"/><path fill="var(--card-color, #ff5555)" fill-rule="evenodd" d="M87 121v40h20v-20h40l-40 100h20l40-100v-20H87" clip-rule="evenodd"/><path fill="#fff" fill-rule="evenodd" d="M31 31v20h10V41h20L41 91h10l20-50V31H31M211 331v-20h-10v10h-20l20-50h-10l-20 50v10h40" clip-rule="evenodd"/></svg>