<svg xmlns="http://www.w3.org/2000/svg" width="242" height="362" fill="none" viewBox="0 0 242 362"><path fill="#fff" stroke="#000" stroke-width="2" d="M201 1H41C18.909 1 1 18.909 1 41v280c0 22.091 17.909 40 40 40h160c22.091 0 40-17.909 40-40V41c0-22.091-17.909-40-40-40Z"/><path fill="var(--card-color, #ff5555)" d="M201 21H41c-11.046 0-20 8.954-20 20v280c0 11.046 8.954 20 20 20h160c11.046 0 20-8.954 20-20V41c0-11.046-8.954-20-20-20"/><path fill="#fff" fill-rule="evenodd" d="M181 81C92.634 81 21 152.634 21 241c0 22.091 17.909 40 40 40 88.366 0 160-71.634 160-160 0-22.091-17.909-40-40-40" clip-rule="evenodd"/><path fill="var(--card-color, #ff5555)" fill-rule="evenodd" d="M121 121c-22.091 0-40 17.909-40 40s17.909 40 40 40a40 40 0 0 0 20-5.375V201c0 11.046-8.954 20-20 20-7.817 0-14.46-4.588-17.75-11.125l-18 9C91.807 232.012 105.319 241 121 241c22.091 0 40-17.909 40-40v-40c0-22.091-17.909-40-40-40m0 20c11.046 0 20 8.954 20 20s-8.954 20-20 20-20-8.954-20-20 8.954-20 20-20m-20 104v8h40v-8z" clip-rule="evenodd"/><path fill="#fff" fill-rule="evenodd" d="M51 91c11.046 0 20-8.954 20-20V51c0-11.046-8.954-20-20-20s-20 8.954-20 20 8.954 20 20 20c3.634 0 7.063-.993 10-2.687V71c0 5.523-4.477 10-10 10-3.908 0-7.23-2.294-8.875-5.562l-9 4.5C36.404 86.506 43.16 91 51 91m0-30c-5.523 0-10-4.477-10-10s4.477-10 10-10 10 4.477 10 10-4.477 10-10 10M191 271c-11.046 0-20 8.954-20 20v20c0 11.046 8.954 20 20 20s20-8.954 20-20-8.954-20-20-20c-3.634 0-7.063.993-10 2.688V291c0-5.523 4.477-10 10-10 3.908 0 7.23 2.294 8.875 5.562l9-4.5C205.597 275.494 198.84 271 191 271m0 30c5.523 0 10 4.477 10 10s-4.477 10-10 10-10-4.477-10-10 4.477-10 10-10" clip-rule="evenodd"/></svg>