<svg xmlns="http://www.w3.org/2000/svg" width="242" height="362" fill="none" viewBox="0 0 242 362"><path fill="#fff" stroke="#000" stroke-width="2" d="M201 1H41C18.909 1 1 18.909 1 41v280c0 22.091 17.909 40 40 40h160c22.091 0 40-17.909 40-40V41c0-22.091-17.909-40-40-40Z"/><path fill="var(--card-black, black)" d="M201 21H41c-11.046 0-20 8.954-20 20v280c0 11.046 8.954 20 20 20h160c11.046 0 20-8.954 20-20V41c0-11.046-8.954-20-20-20"/><path fill="#fff" fill-rule="evenodd" d="M181 81C92.634 81 21 152.634 21 241c0 22.091 17.909 40 40 40 88.366 0 160-71.634 160-160 0-22.091-17.909-40-40-40" clip-rule="evenodd"/><path fill="#fff" d="M80.6 31 61 71v10h24v10h10V81h6V71h-6V51H85v20H71.4L91 31z"/><path fill="#fff" fill-rule="evenodd" d="M35 51v10H25v10h10v10h10V71h10V61H45V51z" clip-rule="evenodd"/><path fill="#fff" d="m161.4 331 19.6-40v-10h-24v-10h-10v10h-6v10h6v20h10v-20h13.6L151 331z"/><path fill="#fff" fill-rule="evenodd" d="M207 311v-10h10v-10h-10v-10h-10v10h-10v10h10v10z" clip-rule="evenodd"/><path fill="#fff" stroke="#000" stroke-width="2.04" d="M123.857 131h-40c-5.522 0-11.155 4.043-12.58 9.03l-20.554 71.94c-1.425 4.987 1.897 9.03 7.42 9.03h40c5.523 0 11.155-4.043 12.58-9.03l20.554-71.94c1.425-4.987-1.897-9.03-7.42-9.03Z"/><path fill="var(--card-red, #ff5555)" d="M111 141H91c-5.523 0-11.155 4.043-12.58 9.03l-14.84 51.94C62.155 206.957 65.477 211 71 211h20c5.523 0 11.155-4.043 12.58-9.03l14.84-51.94c1.425-4.987-1.897-9.03-7.42-9.03"/><path fill="#fff" stroke="#000" stroke-width="2.04" d="M163.857 101h-40c-5.522 0-11.155 4.043-12.58 9.03l-20.554 71.94c-1.425 4.987 1.897 9.03 7.42 9.03h40c5.523 0 11.155-4.043 12.58-9.03l20.554-71.94c1.425-4.987-1.897-9.03-7.42-9.03Z"/><path fill="var(--card-blue, #5555ff)" d="M151 111h-20c-5.523 0-11.155 4.043-12.58 9.03l-14.84 51.94c-1.425 4.987 1.897 9.03 7.42 9.03h20c5.523 0 11.155-4.043 12.58-9.03l14.84-51.94c1.425-4.987-1.897-9.03-7.42-9.03"/><path fill="#fff" stroke="#000" stroke-width="2.04" d="M153.857 161h-40c-5.522 0-11.155 4.043-12.58 9.03l-20.554 71.94c-1.425 4.987 1.897 9.03 7.42 9.03h40c5.523 0 11.155-4.043 12.58-9.03l20.554-71.94c1.425-4.987-1.897-9.03-7.42-9.03Z"/><path fill="var(--card-yellow, #ffaa00)" d="M141 171h-20c-5.523 0-11.155 4.043-12.58 9.03l-14.84 51.94c-1.425 4.987 1.897 9.03 7.42 9.03h20c5.523 0 11.155-4.043 12.58-9.03l14.84-51.94c1.425-4.987-1.897-9.03-7.42-9.03"/><path fill="#fff" stroke="#000" stroke-width="2.04" d="M193.857 131h-40c-5.522 0-11.155 4.043-12.58 9.03l-20.554 71.94c-1.425 4.987 1.897 9.03 7.42 9.03h40c5.523 0 11.155-4.043 12.58-9.03l20.554-71.94c1.425-4.987-1.897-9.03-7.42-9.03Z"/><path fill="var(--card-green, #55aa55)" d="M181 141h-20c-5.523 0-11.155 4.043-12.58 9.03l-14.84 51.94c-1.425 4.987 1.897 9.03 7.42 9.03h20c5.523 0 11.155-4.043 12.58-9.03l14.84-51.94c1.425-4.987-1.897-9.03-7.42-9.03"/></svg>