<svg xmlns="http://www.w3.org/2000/svg" width="242" height="362" fill="none" viewBox="0 0 242 362"><path fill="#fff" stroke="#000" stroke-width="2" d="M201 1H41C18.909 1 1 18.909 1 41v280c0 22.091 17.909 40 40 40h160c22.091 0 40-17.909 40-40V41c0-22.091-17.909-40-40-40Z"/><path fill="var(--card-color, #ff5555)" d="M201 21H41c-11.046 0-20 8.954-20 20v280c0 11.046 8.954 20 20 20h160c11.046 0 20-8.954 20-20V41c0-11.046-8.954-20-20-20"/><path fill="#fff" fill-rule="evenodd" d="M181 81C92.634 81 21 152.634 21 241c0 22.091 17.909 40 40 40 88.366 0 160-71.634 160-160 0-22.091-17.909-40-40-40" clip-rule="evenodd"/><path fill="var(--card-color, #ff5555)" d="m121 116 10 10-40 40c-10 10-10 30 0 40l20-20 40-40 10 10v-40z"/><path fill="var(--card-color, #ff5555)" d="m121 246-10-10 40-40c10-10 10-30 0-40l-20 20-40 40-10-10v40z"/><path fill="#fff" d="m51 31 5 5-20 20c-5 5-5 15 0 20l10-10 20-20 5 5V31z"/><path fill="#fff" d="m51 96-5-5 20-20c5-5 5-15 0-20L56 61 36 81l-5-5v20zM191 266l5 5-20 20c-5 5-5 15 0 20l10-10 20-20 5 5v-20z"/><path fill="#fff" d="m191 331-5-5 20-20c5-5 5-15 0-20l-10 10-20 20-5-5v20z"/></svg>