<svg xmlns="http://www.w3.org/2000/svg" width="242" height="362" fill="none" viewBox="0 0 242 362"><path fill="#fff" stroke="#000" stroke-width="2" d="M201 1H41C18.909 1 1 18.909 1 41v280c0 22.091 17.909 40 40 40h160c22.091 0 40-17.909 40-40V41c0-22.091-17.909-40-40-40Z"/><path fill="var(--card-black, black)" d="M201 21H41c-11.046 0-20 8.954-20 20v280c0 11.046 8.954 20 20 20h160c11.046 0 20-8.954 20-20V41c0-11.046-8.954-20-20-20"/><path fill="#fff" fill-rule="evenodd" d="M181 81C92.634 81 21 152.634 21 241c0 22.091 17.909 40 40 40 88.366 0 160-71.634 160-160 0-22.091-17.909-40-40-40" clip-rule="evenodd"/><path fill="var(--card-yellow, #ffaa00)" fill-rule="evenodd" d="M32.75 181C25.237 199.542 21 219.763 21 241c0 22.091 17.909 40 40 40l60-100z" clip-rule="evenodd"/><path fill="var(--card-green, #00aa00)" fill-rule="evenodd" d="M121 181 61 281c67.129 0 124.502-41.389 148.25-100z" clip-rule="evenodd"/><path fill="var(--card-red, #ff5555)" fill-rule="evenodd" d="M181 81c-67.129 0-124.502 41.389-148.25 100H121z" clip-rule="evenodd"/><path fill="var(--card-blue, #5555ff)" fill-rule="evenodd" d="m181 81-60 100h88.25c7.513-18.542 11.75-38.763 11.75-60 0-22.091-17.909-40-40-40" clip-rule="evenodd"/><path fill="var(--card-yellow, #ffaa00)" fill-rule="evenodd" d="M33.938 56A39.8 39.8 0 0 0 31 71c0 5.523 4.477 10 10 10l15-25z" clip-rule="evenodd"/><path fill="var(--card-green, #00aa00)" fill-rule="evenodd" d="M56 56 41 81c16.782 0 31.126-10.348 37.063-25z" clip-rule="evenodd"/><path fill="var(--card-red, #ff5555)" fill-rule="evenodd" d="M71 31c-16.782 0-31.126 10.347-37.062 25H56z" clip-rule="evenodd"/><path fill="var(--card-blue, #5555ff)" fill-rule="evenodd" d="M71 31 56 56h22.063A39.8 39.8 0 0 0 81 41c0-5.523-4.477-10-10-10" clip-rule="evenodd"/><path fill="var(--card-yellow, #ffaa00)" fill-rule="evenodd" d="M163.938 306A39.8 39.8 0 0 0 161 321c0 5.523 4.477 10 10 10l15-25z" clip-rule="evenodd"/><path fill="var(--card-green, #00aa00)" fill-rule="evenodd" d="m186 306-15 25c16.782 0 31.126-10.348 37.062-25z" clip-rule="evenodd"/><path fill="var(--card-red, #ff5555)" fill-rule="evenodd" d="M201 281c-16.782 0-31.126 10.347-37.062 25H186z" clip-rule="evenodd"/><path fill="var(--card-blue, #5555ff)" fill-rule="evenodd" d="m201 281-15 25h22.062A39.8 39.8 0 0 0 211 291c0-5.523-4.477-10-10-10" clip-rule="evenodd"/><path stroke="#fff" stroke-width="4" d="M181 81c-67.129 0-124.502 41.389-148.25 100C25.237 199.542 21 219.763 21 241c0 22.091 17.909 40 40 40 67.129 0 124.502-41.389 148.25-100 7.513-18.542 11.75-38.763 11.75-60 0-22.091-17.909-40-40-40ZM71 31c-16.782 0-31.126 10.347-37.062 25A39.8 39.8 0 0 0 31 71c0 5.523 4.477 10 10 10 16.782 0 31.126-10.347 37.063-25A39.8 39.8 0 0 0 81 41c0-5.523-4.477-10-10-10ZM201 281c-16.782 0-31.126 10.347-37.062 25A39.8 39.8 0 0 0 161 321c0 5.523 4.477 10 10 10 16.782 0 31.126-10.347 37.062-25A39.8 39.8 0 0 0 211 291c0-5.523-4.477-10-10-10Z"/></svg>